<?xml version="1.0" encoding="UTF-8"?>
<svg width="448px" height="448px" viewBox="0 0 448 448" version="1.1" xmlns="http://www.w3.org/2000/svg" xmlns:xlink="http://www.w3.org/1999/xlink">
    <!-- Generator: Sketch 51.2 (57519) - http://www.bohemiancoding.com/sketch -->
    <title>aftereffects</title>
    <desc>Created with Sketch.</desc>
    <defs></defs>
    <g id="Page-1" stroke="none" stroke-width="1" fill="none" fill-rule="evenodd">
        <g id="aftereffects" fill="#AAB2BD" fill-rule="nonzero">
            <path d="M8,0 L440,0 C444.418278,-8.11624501e-16 448,3.581722 448,8 L448,440 C448,444.418278 444.418278,448 440,448 L8,448 C3.581722,448 5.41083001e-16,444.418278 0,440 L0,8 C-5.41083001e-16,3.581722 3.581722,8.11624501e-16 8,0 Z M196.445312,308 L235.585938,308 L174.882812,135.96875 L130.46875,135.96875 L70,308 L109.140625,308 L121.5625,267.21875 L184.023438,267.21875 L196.445312,308 Z M313.632812,310.34375 C323.867239,310.34375 332.539027,309.582039 339.648438,308.058594 C346.757848,306.535149 353.437469,304.210953 359.6875,301.085938 L359.6875,273.429688 C352.031212,277.023455 344.687535,279.640617 337.65625,281.28125 C330.624965,282.921883 323.164102,283.742188 315.273438,283.742188 C305.117137,283.742188 297.226591,280.890654 291.601562,275.1875 C285.976534,269.484346 282.968752,261.554738 282.578125,251.398438 L367.070312,251.398438 L367.070312,234.054688 C367.070312,215.460845 361.914114,200.890678 351.601562,190.34375 C341.289011,179.796822 326.875093,174.523438 308.359375,174.523438 C288.984278,174.523438 273.808649,180.519471 262.832031,192.511719 C251.855414,204.503966 246.367188,221.476453 246.367188,243.429688 C246.367188,264.757919 252.304628,281.242129 264.179688,292.882812 C276.054747,304.523496 292.538957,310.34375 313.632812,310.34375 Z" id="Combined-Shape"></path>
            <path d="M175.351562,236.75 C163.86713,199.79669 157.402351,178.898462 155.957031,174.054688 C154.511712,169.210913 153.476566,165.382827 152.851562,162.570312 C150.273425,172.570362 142.890686,197.296678 130.703125,236.75 L175.351562,236.75 Z" id="Path"></path>
            <path d="M308.59375,199.953125 C301.015587,199.953125 295.078146,202.355445 290.78125,207.160156 C286.484354,211.964868 284.023441,218.781206 283.398438,227.609375 L333.554688,227.609375 C333.398437,218.781206 331.093772,211.964868 326.640625,207.160156 C322.187478,202.355445 316.171913,199.953125 308.59375,199.953125 Z" id="Path"></path>
        </g>
    </g>
</svg>