<?xml version="1.0" encoding="UTF-8"?><svg width="40" height="40" version="1.1" viewBox="-10 -10.8333 40 40" xmlns="http://www.w3.org/2000/svg" xmlns:xlink="http://www.w3.org/1999/xlink"><!--Generated by IJSVG (https://github.com/iconjar/IJSVG)--><path d="M7.828,2.414h-5.585h-4.37114e-08c-0.552285,-2.41411e-08 -1,-0.447715 -1,-1c2.41411e-08,-0.552285 0.447715,-1 1,-1h8l3.69952e-08,-1.11488e-10c0.550625,-0.00165933 0.998341,0.443366 1,0.993991c6.03617e-06,0.00200301 6.0361e-06,0.00400604 -2.22977e-10,0.00600905v8v0c0,0.552285 -0.447715,1 -1,1c-0.552285,0 -1,-0.447715 -1,-1v-5.586l-6.779,6.779l-7.80759e-09,7.80207e-09c-0.390741,0.390465 -1.02403,0.390241 -1.4145,-0.000499994c-0.390465,-0.390741 -0.390241,-1.02403 0.000499994,-1.4145l6.778,-6.778Z" transform="scale(1.66667)" fill="#DBDBDB"></path></svg>