<?xml version="1.0" encoding="UTF-8"?>
<svg width="384px" height="448px" viewBox="0 0 384 448" version="1.1" xmlns="http://www.w3.org/2000/svg" xmlns:xlink="http://www.w3.org/1999/xlink">
    <!-- Generator: Sketch 51.2 (57519) - http://www.bohemiancoding.com/sketch -->
    <title>css</title>
    <desc>Created with Sketch.</desc>
    <defs></defs>
    <g id="Page-1" stroke="none" stroke-width="1" fill="none" fill-rule="evenodd">
        <g id="css" fill="#AAB2BD" fill-rule="nonzero">
            <path d="M0,0 L34.9,395.8 L192,448 L349.1,395.8 L384,0 L0,0 Z M313.1,80 L308.3,127.3 L193,176.6 L192.7,176.7 L304.2,176.7 L291.4,323.3 L193.2,352 L94.4,322.8 L88,248.9 L136.9,248.9 L140.1,287.2 L192.7,300.5 L247.4,285.1 L251.1,223.5 L84.8,223 L84.8,222.9 L84.6,223 L81,176.7 L193.1,130 L199.6,127.3 L76.7,127.3 L70.9,80 L313.1,80 Z" id="Shape"></path>
        </g>
    </g>
</svg>