<?xml version="1.0" encoding="UTF-8"?>
<svg width="474px" height="449px" viewBox="0 0 474 449" version="1.1" xmlns="http://www.w3.org/2000/svg" xmlns:xlink="http://www.w3.org/1999/xlink">
    <!-- Generator: Sketch 51.2 (57519) - http://www.bohemiancoding.com/sketch -->
    <title>d3</title>
    <desc>Created with Sketch.</desc>
    <defs>
        <linearGradient x1="-82.637%" y1="-92.82%" x2="103.767%" y2="106.042%" id="linearGradient-1">
            <stop stop-color="#F9A03C" offset="0%"></stop>
            <stop stop-color="#F7974E" offset="100%"></stop>
        </linearGradient>
        <linearGradient x1="-258.924%" y1="-248.97%" x2="97.62%" y2="98.768%" id="linearGradient-2">
            <stop stop-color="#F9A03C" offset="0%"></stop>
            <stop stop-color="#F7974E" offset="100%"></stop>
        </linearGradient>
        <linearGradient x1="-223.163%" y1="-261.968%" x2="94.028%" y2="101.691%" id="linearGradient-3">
            <stop stop-color="#F9A03C" offset="0%"></stop>
            <stop stop-color="#F7974E" offset="100%"></stop>
        </linearGradient>
    </defs>
    <g id="Page-1" stroke="none" stroke-width="1" fill="none" fill-rule="evenodd">
        <g id="d3" fill-rule="nonzero">
            <path d="M473.185185,325.22037 C473.398148,323.155556 473.55,321.072222 473.668519,318.977778 C473.812963,316.498148 324.47963,174.811111 324.47963,174.811111 L320.909259,174.811111 C320.909259,174.811111 472.272222,334.468519 473.185185,325.218519 L473.185185,325.22037 Z" id="Shape" fill="url(#linearGradient-1)"></path>
            <path d="M154.577778,276.068519 C154.37963,276.503704 154.183333,276.938889 153.97963,277.372222 C153.768519,277.827778 153.55,278.281481 153.333333,278.731481 C148.574074,288.657407 219.975926,358.459259 225.718519,349.97963 C225.97963,349.605556 226.242593,349.209259 226.503704,348.835185 C226.794444,348.390741 227.081481,347.964815 227.368519,347.52037 C231.961111,340.548148 156.616667,271.535185 154.577778,276.068519 Z" id="Shape" fill="url(#linearGradient-2)"></path>
            <path d="M255.475926,374.227778 C255.274074,374.672222 253.837037,377.101852 252.524074,378.385185 C252.301852,378.82963 322.227778,448.177778 322.227778,448.177778 L328.524074,448.177778 C328.527778,448.177778 262.883333,377.159259 255.475926,374.227778 Z" id="Shape" fill="url(#linearGradient-3)"></path>
            <path d="M473.768519,317.718519 C470.498148,390.212963 410.524074,448.177778 337.25,448.177778 L327.342593,448.177778 L254.168519,376.088889 C260.187037,367.6 265.783333,358.805556 270.764815,349.635185 L337.25,349.635185 C358.275926,349.635185 375.387037,332.533333 375.387037,311.496296 C375.387037,290.468519 358.275926,273.357407 337.25,273.357407 L297.905556,273.357407 C300.903704,257.511111 302.542593,241.17037 302.542593,224.453704 C302.542593,207.481481 300.874074,190.909259 297.768519,174.809259 L322.207407,174.809259 L473.337037,323.724074 C473.516667,321.727778 473.659259,319.733333 473.768519,317.718519 Z M39.7537037,0 L0,0 L0,98.5425926 L39.7537037,98.5425926 C109.185185,98.5425926 165.67963,155.022222 165.67963,224.453704 C165.67963,243.342593 161.466667,261.274074 153.97963,277.372222 L226.503704,348.835185 C250.316667,313.205556 264.237037,270.42963 264.237037,224.453704 C264.237037,100.690741 163.531481,0 39.7537037,0 Z" id="Shape" fill="#AAB2BD"></path>
            <path d="M337.25,0 L176.272222,0 C215.590741,24.0055556 248.148148,58.0444444 270.331481,98.5425926 L337.25,98.5425926 C358.275926,98.5425926 375.387037,115.644444 375.387037,136.681481 C375.387037,157.712963 358.275926,174.814815 337.25,174.814815 L322.212963,174.814815 L473.342593,323.727778 C473.698148,319.688889 473.92037,315.624074 473.92037,311.496296 C473.92037,278.275926 462,247.801852 442.207407,224.083333 C462,200.375926 473.92037,169.896296 473.92037,136.681481 C473.92037,61.3185185 412.616667,0 337.25,0 Z" id="Shape" fill="#AAB2BD"></path>
            <path d="M327.342593,448.177778 L177.422222,448.177778 C207.6,429.540741 233.688889,404.937037 254.168519,376.088889 L327.342593,448.177778 Z M226.503704,348.835185 L153.985185,277.372222 C133.95,320.42963 90.2907407,350.375926 39.7537037,350.375926 L0,350.375926 L0,448.909259 L39.7537037,448.909259 C117.55,448.909259 186.216667,409.116667 226.503704,348.835185 Z" id="Shape" fill="#AAB2BD"></path>
        </g>
    </g>
</svg>