<svg width="334" height="500" viewBox="0 0 334 500" fill="none" xmlns="http://www.w3.org/2000/svg">
<path d="M90 481C132.504 481 167 446.504 167 404V327H90C47.496 327 13 361.496 13 404C13 446.504 47.496 481 90 481Z" fill="#AAB2BD"/>
<path d="M13 250C13 207.496 47.496 173 90 173H167V327H90C47.496 327 13 292.504 13 250Z" fill="#AAB2BD"/>
<path d="M13 96C13 53.496 47.496 19 90 19H167V173H90C47.496 173 13 138.504 13 96Z" fill="#AAB2BD"/>
<path d="M167 19H244C286.504 19 321 53.496 321 96C321 138.504 286.504 173 244 173H167V19Z" fill="#AAB2BD"/>
<path d="M321 250C321 292.504 286.504 327 244 327C201.496 327 167 292.504 167 250C167 207.496 201.496 173 244 173C286.504 173 321 207.496 321 250Z" fill="#AAB2BD"/>
</svg>
