<?xml version="1.0" encoding="UTF-8"?>
<svg width="416px" height="448px" viewBox="0 0 416 448" version="1.1" xmlns="http://www.w3.org/2000/svg" xmlns:xlink="http://www.w3.org/1999/xlink">
    <!-- Generator: Sketch 51.2 (57519) - http://www.bohemiancoding.com/sketch -->
    <title>git</title>
    <desc>Created with Sketch.</desc>
    <defs></defs>
    <g id="Page-1" stroke="none" stroke-width="1" fill="none" fill-rule="evenodd">
        <g id="git" fill="#AAB2BD" fill-rule="nonzero">
            <path d="M2.8,189.7 C2.8,215 19,249.7 44.3,258.2 L44.3,259.2 C25.5,267.5 20.3,309.8 45.3,325 L45.3,326 C18,335 0,352.3 0,382.2 C0,433.7 48.8,448 91.5,448 C143.5,448 182.2,429.3 182.2,372 C182.2,301.5 81.2,327.5 81.2,289.2 C81.2,275.7 88.4,270.5 100.9,267.9 C142.4,260.2 168.4,227.9 168.4,185.7 C168.4,178.4 166.9,171.5 164.4,164.7 C171.1,163.2 177.6,161.4 184.1,159.2 L184.1,108.7 C166.9,115.5 148.4,120.5 129.6,120.5 C75.8,89.5 2.8,121.8 2.8,189.7 Z M90.5,353.5 C107.5,353.5 131.7,356.5 131.7,378.5 C131.7,400.3 112.2,404.8 94,404.8 C76.7,404.8 50.7,402.1 50.7,379.6 C50.8,357.3 72.8,353.5 90.5,353.5 Z M87.3,224 C65.3,224 56,211 56,190.2 C56,140.9 117,141.4 117,189.7 C117,210 109,224 87.3,224 Z M416,273.5 L416,322.5 C402.7,329.8 385.5,332.3 370.5,332.3 C317,332.3 310.7,290.1 310.7,246.6 L310.7,158.9 L311.2,158.9 L311.2,157.9 C304.2,157.9 303.9,156.3 287.2,158.9 L287.2,111.4 L311.2,111.4 C311.2,89.1 311.5,80.4 309.7,70.2 L366.4,70.2 C364.4,84 364.9,97.7 364.9,111.4 L415.9,111.4 L415.9,158.9 C415.9,158.9 396.6,157.9 364.9,157.9 L364.9,249 C364.9,263.8 368.2,281.8 386.7,281.8 C396.5,281.8 408,279 416,273.5 Z M270,36.7 C270,55.4 255.5,72.9 236.2,72.9 C216.4,72.9 201.7,55.7 201.7,36.7 C201.7,17.4 216.2,0 236.2,0 C256,0 270,18 270,36.7 Z M263.8,111.2 C262,125.8 262.2,311 263.8,329 L208.3,329 C209.9,310.9 210.1,126 208.3,111.2 L263.8,111.2 Z" id="Shape"></path>
        </g>
    </g>
</svg>