<?xml version="1.0" encoding="UTF-8"?>
<svg width="640px" height="320px" viewBox="0 0 640 320" version="1.1" xmlns="http://www.w3.org/2000/svg" xmlns:xlink="http://www.w3.org/1999/xlink">
    <!-- Generator: Sketch 51.2 (57519) - http://www.bohemiancoding.com/sketch -->
    <title>infinity-solid</title>
    <desc>Created with Sketch.</desc>
    <defs></defs>
    <g id="playground" stroke="none" stroke-width="1" fill="none" fill-rule="evenodd">
        <g id="Artboard" transform="translate(-102.000000, -2611.000000)" fill="#AAB2BD" fill-rule="nonzero">
            <g id="infinity-solid" transform="translate(102.000000, 2611.000000)">
                <path d="M471.1,0 C405,0 353.3,41.3 320,78.6 C286.7,41.3 235,0 168.9,0 C75.8,0 0,71.8 0,160 C0,248.2 75.8,320 168.9,320 C235,320 286.7,278.7 320,241.4 C353.3,278.7 405,320 471.1,320 C564.2,320 640,248.2 640,160 C640,71.8 564.2,0 471.1,0 Z M168.9,224 C128.7,224 96,195.3 96,160 C96,124.7 128.7,96 168.9,96 C207.1,96 242.3,132.1 262.9,160 C242.5,187.6 207,224 168.9,224 Z M471.1,224 C432.9,224 397.7,187.9 377.1,160 C397.5,132.4 433,96 471.1,96 C511.3,96 544,124.7 544,160 C544,195.3 511.3,224 471.1,224 Z" id="Shape"></path>
            </g>
        </g>
    </g>
</svg>