<?xml version="1.0" encoding="UTF-8"?>
<svg width="642px" height="481px" viewBox="0 0 642 481" version="1.1" xmlns="http://www.w3.org/2000/svg" xmlns:xlink="http://www.w3.org/1999/xlink">
    <!-- Generator: Sketch 51.2 (57519) - http://www.bohemiancoding.com/sketch -->
    <title>sass</title>
    <desc>Created with Sketch.</desc>
    <defs></defs>
    <g id="Page-1" stroke="none" stroke-width="1" fill="none" fill-rule="evenodd">
        <g id="sass" transform="translate(0.000000, -1.000000)" fill="#AAB2BD" fill-rule="nonzero">
            <path d="M552.1,276.9 C529.7,277 510.3,282.4 494.1,290.4 C488.2,278.5 482.1,268.1 481.1,260.3 C479.9,251.2 478.6,245.8 480,235 C481.4,224.2 487.7,208.9 487.6,207.8 C487.5,206.7 486.2,201.2 473.3,201.1 C460.4,201 449.3,203.6 448,207 C446.7,210.4 444.2,218.1 442.7,226.1 C440.4,237.8 416.9,279.6 403.6,301.4 C399.2,292.9 395.5,285.4 394.7,279.4 C393.5,270.3 392.2,264.9 393.6,254.1 C395,243.3 401.3,228 401.2,226.9 C401.1,225.8 399.8,220.3 386.9,220.2 C374,220.1 362.9,222.7 361.6,226.1 C360.3,229.5 358.9,237.5 356.3,245.2 C353.7,252.9 322.4,322.5 314.2,340.6 C310,349.8 306.4,357.2 303.8,362.2 C301.2,367.2 303.6,362.5 303.4,363.1 C301.2,367.4 299.9,369.8 299.9,369.8 L299.9,369.9 C298.2,373.1 296.3,376 295.4,376 C294.8,376 293.5,367.6 295.7,356.1 C300.4,331.9 311.5,294.3 311.4,293 C311.3,292.3 313.5,285.8 304.1,282.3 C295,279 291.7,284.5 290.9,284.5 C290.1,284.5 289.5,286.5 289.5,286.5 C289.5,286.5 299.6,244.1 270.1,244.1 C251.7,244.1 226.1,264.3 213.5,282.6 C205.6,286.9 188.5,296.2 170.5,306.1 C163.6,309.9 156.5,313.8 149.8,317.5 C149.3,317 148.9,316.5 148.4,316 C112.6,277.8 46.5,250.8 49.3,199.5 C50.3,180.8 56.8,131.7 176.4,72.1 C274.4,23.3 352.8,36.7 366.3,66.5 C385.7,109 324.4,188.1 222.6,199.5 C183.8,203.8 163.4,188.8 158.3,183.2 C153,177.3 152.2,177 150.2,178.1 C146.9,179.9 149,185.1 150.2,188.2 C153.2,196.1 165.7,210.1 187,217.1 C205.7,223.2 251.2,226.6 306.2,205.3 C368,181.5 416.1,115.2 402,59.7 C387.6,3.3 294.1,-15.2 205.6,16.2 C152.9,34.9 95.9,64.3 54.9,102.6 C6.2,148.2 -1.6,187.9 1.6,204.5 C13,263.4 94.2,301.8 126.7,330.2 C125.1,331.1 123.6,331.9 122.2,332.7 C105.9,340.8 44,373.2 28.5,407.4 C11,446.2 31.4,474 44.8,477.8 C86.6,489.4 129.4,468.5 152.4,434.2 C175.4,399.9 172.6,355.1 162,334.7 C161.9,334.4 161.7,334.2 161.6,333.9 C165.8,331.4 170.1,328.9 174.4,326.4 C182.7,321.5 190.8,317 197.9,313.1 C193.9,323.9 191,336.9 189.5,355.7 C187.7,377.7 196.8,406.2 208.6,417.4 C213.8,422.3 220.1,422.4 224,422.4 C237.8,422.4 244,411 250.9,397.4 C259.4,380.8 266.9,361.5 266.9,361.5 C266.9,361.5 257.5,413.7 283.2,413.7 C292.6,413.7 302,401.6 306.2,395.4 L306.2,395.5 C306.2,395.5 306.4,395.1 306.9,394.3 C307.9,392.8 308.4,391.9 308.4,391.9 L308.4,391.6 C312.2,385.1 320.5,370.2 333,345.6 C349.2,313.8 364.7,274.1 364.7,274.1 C364.7,274.1 366.1,283.8 370.9,299.9 C373.7,309.4 379.6,319.8 384.3,329.9 C380.5,335.1 378.2,338.1 378.2,338.1 C378.2,338.1 378.2,338.2 378.3,338.3 C375.3,342.3 371.9,346.6 368.4,350.8 C355.6,366 340.4,383.4 338.4,388.4 C336,394.3 336.6,398.7 341.2,402.1 C344.6,404.7 350.6,405.1 356.9,404.6 C368.4,403.8 376.5,401 380.4,399.2 C386.6,397 393.8,393.5 400.6,388.6 C413.1,379.4 420.7,366.2 420,348.8 C419.6,339.2 416.5,329.6 412.7,320.6 C413.8,319 415,317.3 416.1,315.6 C435.9,286.7 451.2,255 451.2,255 C451.2,255 452.6,264.7 457.4,280.8 C459.8,288.9 464.5,297.8 468.8,306.5 C450.2,321.6 438.7,339.1 434.7,350.6 C427.3,371.9 433.1,381.5 444,383.7 C448.9,384.7 455.9,382.4 461.1,380.2 C467.6,378 475.4,374.5 482.7,369.1 C495.2,359.9 507.3,347 506.5,329.5 C506.2,321.6 504,313.7 501.1,306.1 C516.8,299.5 537.2,295.9 563.2,298.9 C618.9,305.4 629.8,340.2 627.7,354.7 C625.6,369.3 613.9,377.3 610,379.7 C606.1,382.1 604.9,383 605.2,384.8 C605.7,387.4 607.5,387.3 610.8,386.7 C615.4,385.9 640,374.9 641.1,348 C642.7,314 610,276.6 552.1,276.9 Z M122.8,421.6 C104.4,441.7 78.6,449.3 67.5,442.9 C55.6,436 60.3,406.4 83,385 C96.8,372 114.6,360 126.4,352.6 C129.1,351 133,348.6 137.8,345.7 C138.6,345.2 139,345 139,345 C139.9,344.4 140.9,343.9 141.9,343.3 C150.2,373.7 142.2,400.5 122.8,421.6 Z M257.2,330.2 C250.8,345.9 237.3,385.9 229.1,383.8 C222.1,382 217.8,351.5 227.7,321.5 C232.7,306.4 243.3,288.4 249.6,281.4 C259.7,270.1 270.8,266.5 273.4,271 C276.9,276.9 261.2,320.4 257.2,330.2 Z M368.2,383.2 C365.5,384.6 363,385.5 361.8,384.8 C360.9,384.3 362.9,382.4 362.9,382.4 C362.9,382.4 376.8,367.5 382.3,360.7 C385.5,356.7 389.2,352 393.2,346.8 C393.2,347.3 393.3,347.8 393.3,348.4 C393.2,366.3 376,378.4 368.2,383.2 Z M453.8,363.7 C451.8,362.3 452.1,357.6 458.8,343 C461.4,337.3 467.4,327.7 477.8,318.5 C479,322.3 479.7,325.9 479.7,329.3 C479.6,351.8 463.5,360.2 453.8,363.7 Z" id="Shape"></path>
        </g>
    </g>
</svg>