<?xml version="1.0" encoding="UTF-8"?><svg width="40" height="40" version="1.1" viewBox="-6.66667 -6.66667 40 40" xmlns="http://www.w3.org/2000/svg" xmlns:xlink="http://www.w3.org/1999/xlink"><!--Generated by IJSVG (https://github.com/iconjar/IJSVG)--><path d="M8,10l-8.74228e-08,-1.77636e-15c1.10457,4.82823e-08 2,-0.89543 2,-2c4.82823e-08,-1.10457 -0.89543,-2 -2,-2l-8.74228e-08,1.77636e-15c-1.10457,4.82823e-08 -2,0.895431 -2,2c4.82823e-08,1.10457 0.895431,2 2,2Zm0,2l-1.74846e-07,-3.55271e-15c-2.20914,-9.65645e-08 -4,-1.79086 -4,-4c9.65645e-08,-2.20914 1.79086,-4 4,-4l-1.74846e-07,3.55271e-15c2.20914,-9.65645e-08 4,1.79086 4,4c9.65645e-08,2.20914 -1.79086,4 -4,4Zm6,-5h1h-4.37114e-08c0.552285,-2.41411e-08 1,0.447715 1,1c2.41411e-08,0.552285 -0.447715,1 -1,1h-1l-4.37114e-08,-1.77636e-15c-0.552285,-2.41411e-08 -1,-0.447715 -1,-1c2.41411e-08,-0.552285 0.447715,-1 1,-1Zm-6,6l-4.37114e-08,3.55271e-15c0.552285,-2.41411e-08 1,0.447715 1,1v1v0c0,0.552285 -0.447715,1 -1,1c-0.552285,0 -1,-0.447715 -1,-1v-1l1.24345e-14,1.50996e-07c-8.33927e-08,-0.552285 0.447715,-1 1,-1Zm0,-13h-4.37114e-08c0.552285,-2.41411e-08 1,0.447715 1,1v1v0c0,0.552285 -0.447715,1 -1,1c-0.552285,0 -1,-0.447715 -1,-1v-1l1.24345e-14,1.50996e-07c-8.33927e-08,-0.552285 0.447715,-1 1,-1Zm-7,7h1h-4.37114e-08c0.552285,-2.41411e-08 1,0.447715 1,1c2.41411e-08,0.552285 -0.447715,1 -1,1h-1l-4.37114e-08,-1.77636e-15c-0.552285,-2.41411e-08 -1,-0.447715 -1,-1c2.41411e-08,-0.552285 0.447715,-1 1,-1Zm11.95,4.536l0.707,0.707l1.02703e-08,9.91942e-09c0.397252,0.383679 0.408255,1.01675 0.0245764,1.414c-0.383679,0.397252 -1.01675,0.408255 -1.414,0.0245764c-0.00833389,-0.00804914 -0.0165273,-0.0162425 -0.0245764,-0.0245764l-0.707,-0.707l-2.04474e-08,-2.11708e-08c-0.383679,-0.397252 -0.372675,-1.03032 0.0245765,-1.414c0.387523,-0.374282 1.0019,-0.374282 1.38942,4.08948e-08Zm-8.486,0l-3.0608e-08,-3.06172e-08c0.390382,0.3905 0.390382,1.0235 6.1216e-08,1.414l-0.707,0.707l1.02703e-08,-9.91942e-09c-0.397252,0.383679 -1.03032,0.372676 -1.414,-0.0245764c-0.374282,-0.387523 -0.374282,-1.0019 -1.98388e-08,-1.38942l0.707,-0.707l-6.15305e-08,6.15119e-08c0.3905,-0.390382 1.0235,-0.390382 1.414,-1.23024e-07Zm9.193,-9.193l-3.0608e-08,-3.06172e-08c0.390382,0.3905 0.390382,1.0235 6.1216e-08,1.414l-0.707,0.707l1.02703e-08,-9.91942e-09c-0.397252,0.383679 -1.03032,0.372676 -1.414,-0.0245764c-0.374282,-0.387523 -0.374282,-1.0019 -1.98388e-08,-1.38942l0.707,-0.707l-6.15305e-08,6.15119e-08c0.3905,-0.390382 1.0235,-0.390382 1.414,-1.23024e-07Zm-9.9,0l0.707,0.707l1.02703e-08,9.91943e-09c0.397252,0.383679 0.408255,1.01675 0.0245764,1.414c-0.383679,0.397252 -1.01675,0.408255 -1.414,0.0245764c-0.00833389,-0.00804914 -0.0165273,-0.0162425 -0.0245764,-0.0245764l-0.707,-0.707l-2.04474e-08,-2.11708e-08c-0.383679,-0.397252 -0.372675,-1.03032 0.0245765,-1.414c0.387523,-0.374282 1.0019,-0.374282 1.38942,4.08948e-08Z" transform="scale(1.66667)" fill="#DBDBDB"></path></svg>