<?xml version="1.0" encoding="UTF-8"?>
<svg width="440px" height="293px" viewBox="0 0 440 293" version="1.1" xmlns="http://www.w3.org/2000/svg" xmlns:xlink="http://www.w3.org/1999/xlink">
    <!-- Generator: Sketch 51.2 (57519) - http://www.bohemiancoding.com/sketch -->
    <title>zeplin</title>
    <desc>Created with Sketch.</desc>
    <defs></defs>
    <g id="Page-1" stroke="none" stroke-width="1" fill="none" fill-rule="evenodd">
        <g id="zeplin" transform="translate(-22.000000, -47.000000)" fill="#AAB2BD" fill-rule="nonzero">
            <g id="Group-3" transform="translate(251.000000, 195.000000) rotate(-21.000000) translate(-251.000000, -195.000000) translate(30.000000, 71.000000)">
                <g id="Group-Copy-4" transform="translate(0.000000, 0.000000)">
                    <path d="M77.0778617,124.357516 C77.0778617,100.201729 92.8643408,70.1159508 117.529735,47.6879181 C151.686016,16.6299041 200.409332,0.215898065 260.626847,0.215898065 C320.961562,0.215898065 369.103623,16.3568114 402.292926,47.0558064 C426.380751,69.3362401 441.313766,99.2016505 441.313766,124.357516 C441.313766,149.523754 426.350655,179.155776 402.114046,201.260956 C368.730159,231.708981 320.178777,247.702596 259.195815,247.702596 C198.376632,247.702596 149.823533,231.474945 116.277583,200.628845 C92.2053312,178.493979 77.0778617,148.79865 77.0778617,124.357516 Z M105.126259,124.357516 C105.126259,140.259544 116.588231,162.759476 135.236985,179.907338 C163.204029,205.623535 204.975098,219.584463 259.195815,219.584463 C313.634327,219.584463 355.445993,205.811021 383.23865,180.462519 C401.973822,163.374966 413.265369,141.013881 413.265369,124.357516 C413.265369,107.636979 401.941057,84.988825 383.272758,67.7212717 C355.673002,42.1924216 314.338818,28.334031 260.626847,28.334031 C206.99149,28.334031 165.00895,42.477191 136.373747,68.5149368 C117.153531,85.9917153 105.126259,108.913218 105.126259,124.357516 Z" id="Path-12"></path>
                    <path d="M75.6117319,124.071912 C75.6117319,109.789369 78.8835685,95.9778012 85.3222141,82.7279434 L42.8814856,84.0373138 L58.2350017,122.730195 L41.8523921,165.514461 L85.3345056,164.652636 C78.887289,151.92299 75.6117319,138.355587 75.6117319,124.071912 Z M28.121271,122.912561 L2.03277657,57.1661222 L142.136372,52.8436824 L122.438998,76.7943922 C109.772043,92.1965759 103.660129,107.828144 103.660129,124.071912 C103.660129,140.159519 109.647569,154.900917 122.06966,168.819012 L142.441621,191.644389 L0.727503747,194.453192 L28.121271,122.912561 Z" id="Path-15"></path>
                </g>
                <polygon id="Path-17" points="89.6859584 124.357516 434.093023 124.357516 405.435448 188.056499 350.69862 226.587703 283.277666 242.453674 225.585511 237.751729 168.877621 226.587703 138.691777 207.755175 109.715392 183.405595 97.5904492 160.726443 86.2928975 124.357516"></polygon>
                <polygon id="Path-18" points="80.6904913 127.169329 50.4816803 127.169329 30.1961031 62.4976233 103.121936 62.4976233"></polygon>
            </g>
        </g>
    </g>
</svg>