<svg width="178" height="98" viewBox="0 0 178 98" fill="none" xmlns="http://www.w3.org/2000/svg">
<path d="M164.468 0.072371C167.19 -0.393169 169.774 1.43599 170.24 4.15789L177.826 48.5139C178.292 51.2357 176.463 53.8199 173.741 54.285C171.019 54.7509 168.435 52.9216 167.969 50.1997L161.226 10.7722L121.798 17.5158C119.077 17.9813 116.493 16.1522 116.027 13.4303C115.561 10.7085 117.391 8.12448 120.112 7.65895L164.468 0.072371ZM169.392 7.88968L142.06 46.5009L133.898 40.7231L161.23 2.11195L169.392 7.88968ZM142.06 46.5009C110.113 91.6303 51.6853 109.435 0 89.7915L3.55225 80.4443C50.9755 98.4681 104.586 82.1309 133.898 40.7231L142.06 46.5009Z" fill="black"/>
</svg>
