<svg width="368" height="368" viewBox="0 0 368 368" fill="none" xmlns="http://www.w3.org/2000/svg">
<circle cx="184" cy="184" r="184" fill="#C6B3FF"/>
<path d="M300.105 207.256L318.386 209.959L317.625 215.103L289.927 211.007L290.728 205.586L310.513 198.12L292.232 195.417L292.993 190.273L320.691 194.368L319.89 199.789L300.105 207.256Z" fill="#5D5674"/>
<path d="M287.558 217.562L313.548 227.978L307.105 244.055L302.649 242.27L307.158 231.02L301.7 228.832L298.084 237.855L293.629 236.069L297.244 227.047L290.079 224.175L285.421 235.796L280.965 234.01L287.558 217.562Z" fill="#5D5674"/>
<path d="M270.931 261.261L284.574 277.39L281.254 281.8L263.287 259.112L266.463 254.893L282.684 260.747L272.573 246.776L275.749 242.558L302.521 253.551L299.201 257.961L279.929 249.31L290.87 264.106L288.175 267.685L270.931 261.261Z" fill="#5D5674"/>
<path d="M243.204 287.822L247.774 285.021L242.048 275.676L246.482 272.959L261.111 296.834L252.107 302.351C247.23 305.339 242.861 304.029 240.186 299.663C237.511 295.297 238.327 290.81 243.204 287.822ZM250.282 289.114L245.883 291.81C243.802 293.085 243.393 294.79 244.688 296.904C245.984 299.019 247.689 299.428 249.77 298.154L254.169 295.458L250.282 289.114Z" fill="#5D5674"/>
<path d="M229.489 311.564C227.924 313.111 226.023 314.262 223.698 315.001C219.086 316.468 214.666 315.901 210.995 312.409C209.147 310.689 207.724 308.329 206.779 305.355C204.888 299.409 206.136 294.227 209.215 291.107C210.78 289.56 212.693 288.448 215.018 287.708C219.63 286.241 224.012 286.821 227.759 290.288C229.607 292.009 230.991 294.381 231.937 297.354C233.828 303.3 232.592 308.521 229.489 311.564ZM216.141 309.849C218.036 310.925 220.07 311.118 222.243 310.427C224.416 309.736 225.965 308.404 226.929 306.418C227.854 304.445 227.863 301.966 226.905 298.954C225.948 295.943 224.508 293.924 222.613 292.848C220.679 291.784 218.645 291.591 216.473 292.282C214.3 292.973 212.751 294.306 211.825 296.279C210.862 298.264 210.853 300.744 211.81 303.755C212.768 306.766 214.208 308.785 216.141 309.849Z" fill="#5D5674"/>
<path d="M184.028 316.248L188.02 313.266C189.161 315.147 190.551 316.048 192.107 315.933C193.663 315.818 194.7 314.659 194.592 313.183C194.462 311.428 192.451 310.252 190.097 309.343C186.638 308.114 182.057 306.366 181.741 301.536C181.341 296.111 184.611 292.581 190.036 292.181C192.469 292.002 194.64 292.604 196.504 293.951C198.371 295.337 199.626 297.13 200.226 299.291L196.231 302.233C194.875 298.523 192.902 296.783 190.269 296.977C187.836 297.156 186.727 298.441 186.906 300.875C187.027 302.51 188.916 303.654 191.343 304.478C194.757 305.63 199.221 307.427 199.521 312.579C199.676 314.694 199.091 316.542 197.763 318.123C196.396 319.708 194.654 320.558 192.46 320.72C188.67 320.999 185.874 319.521 184.028 316.248Z" fill="#5D5674"/>
<path d="M168.121 315.017L175.818 316.003L175.208 320.764L154.656 318.132L155.266 313.371L162.963 314.357L165.909 291.345L171.067 292.005L168.121 315.017Z" fill="#5D5674"/>
<path d="M125.394 299.629L130.2 300.127C130.239 303.596 131.809 305.925 134.997 307.105C137.136 307.896 139.214 307.812 141.209 306.801C143.166 305.776 144.697 303.826 145.766 300.938C146.834 298.049 146.94 295.572 146.121 293.52C145.264 291.455 143.741 290.038 141.603 289.247C138.414 288.068 135.706 288.815 133.419 291.424L129.446 288.675C132.558 284.068 137.565 282.636 143.268 284.745C146.757 286.036 149.239 288.319 150.766 291.57C152.293 294.822 152.272 298.568 150.718 302.769C149.164 306.971 146.742 309.828 143.467 311.304C140.191 312.779 136.821 312.897 133.332 311.607C127.63 309.498 124.759 305.152 125.394 299.629Z" fill="#5D5674"/>
<path d="M111.204 266.564L115.85 269.691L113.857 276.305L121.224 281.263L126.602 276.927L131.248 280.053L107.75 297.99L103.436 295.086L111.204 266.564ZM112.405 281.114L109.434 290.83L117.317 284.419L112.405 281.114Z" fill="#5D5674"/>
<path d="M81.3646 263.613C84.0921 261.084 87.4235 260.558 90.4415 262.342L94.3445 248.139L98.2885 252.391L94.545 266.119L96.3946 268.114L105.252 259.899L108.788 263.712L88.2579 282.752L81.3219 275.273C77.6226 271.285 77.8452 266.878 81.3646 263.613ZM92.8752 271.378L89.4479 267.682C87.9519 266.069 86.455 265.985 84.9006 267.426C83.3462 268.868 83.3181 270.367 84.8141 271.98L88.2413 275.675L92.8752 271.378Z" fill="#5D5674"/>
<path d="M87.6647 236.221L91.9101 243.884L67.4182 257.454L63.1727 249.791C59.9741 244.018 60.5618 236.33 69.099 231.6C77.6362 226.87 84.466 230.448 87.6647 236.221ZM69.0966 250.579L85.1914 241.661L84.2609 239.982C83.0783 237.848 81.6542 236.35 79.6234 235.326C77.5733 234.267 74.7719 234.493 71.6579 236.218C68.5439 237.944 66.8668 240.199 66.6777 242.499C66.4692 244.764 66.9836 246.765 68.1661 248.899L69.0966 250.579Z" fill="#5D5674"/>
<path d="M67.6594 155.167L49.4856 151.817L50.4283 146.703L77.9643 151.779L76.9709 157.168L56.9335 163.928L75.1073 167.278L74.1646 172.392L46.6286 167.316L47.622 161.926L67.6594 155.167Z" fill="#5D5674"/>
<path d="M80.5636 145.313L54.9592 133.981L61.9689 118.143L66.3582 120.085L61.453 131.168L66.83 133.548L70.7638 124.66L75.1531 126.602L71.2193 135.491L78.2788 138.615L83.3458 127.166L87.7352 129.109L80.5636 145.313Z" fill="#5D5674"/>
<path d="M98.7314 102.232L85.6695 85.6295L89.1438 81.3401L106.294 104.652L102.971 108.755L86.9676 102.33L96.5762 116.65L93.2529 120.753L66.8876 108.817L70.362 104.528L89.3153 113.857L78.906 98.6824L81.7258 95.2011L98.7314 102.232Z" fill="#5D5674"/>
<path d="M127.383 76.6725L122.716 79.3089L128.107 88.8514L123.579 91.4092L109.807 67.0306L119.001 61.8364C123.981 59.0228 128.3 60.4878 130.819 64.9455C133.337 69.4033 132.363 73.8589 127.383 76.6725ZM120.355 75.1298L124.847 72.5917C126.972 71.3915 127.442 69.7019 126.222 67.5427C125.002 65.3834 123.312 64.9137 121.188 66.1139L116.695 68.652L120.355 75.1298Z" fill="#5D5674"/>
<path d="M141.931 53.4316C143.55 51.9411 145.49 50.8591 147.84 50.2025C152.502 48.9002 156.899 49.6238 160.443 53.2435C162.23 55.0287 163.567 57.4377 164.407 60.4426C166.086 66.4525 164.655 71.5869 161.467 74.5957C159.848 76.0862 157.897 77.1297 155.547 77.7863C150.885 79.0886 146.527 78.3542 142.905 74.7561C141.119 72.9709 139.82 70.5511 138.98 67.5462C137.301 61.5363 138.722 56.3634 141.931 53.4316ZM155.21 55.6194C153.354 54.4767 151.328 54.212 149.132 54.8255C146.936 55.439 145.341 56.7154 144.307 58.6654C143.312 60.6046 143.215 63.082 144.066 66.1255C144.916 69.1689 146.283 71.2374 148.139 72.3802C150.033 73.5122 152.059 73.7768 154.255 73.1633C156.451 72.5498 158.046 71.2735 159.041 69.3342C160.075 67.3842 160.172 64.9068 159.321 61.8633C158.471 58.8199 157.104 56.7514 155.21 55.6194Z" fill="#5D5674"/>
<path d="M187.527 50.3638L183.432 53.2017C182.358 51.2812 181.001 50.3321 179.442 50.3915C177.883 50.4508 176.805 51.5727 176.861 53.0516C176.928 54.8103 178.897 56.0563 181.216 57.0488C184.63 58.3999 189.146 60.3094 189.29 65.1474C189.497 70.5835 186.105 73.995 180.669 74.202C178.23 74.2949 176.083 73.6161 174.268 72.2041C172.452 70.7522 171.261 68.9162 170.737 66.7345L174.834 63.9366C176.058 67.6928 177.968 69.5014 180.606 69.4009C183.044 69.3081 184.198 68.0633 184.105 65.6251C184.042 63.9863 182.195 62.7757 179.799 61.8662C176.428 60.5935 172.03 58.6394 171.914 53.4801C171.833 51.3617 172.484 49.5356 173.867 48.0019C175.29 46.4666 177.061 45.6787 179.259 45.5949C183.056 45.4504 185.798 47.0272 187.527 50.3638Z" fill="#5D5674"/>
<path d="M203.38 52.1587L195.723 50.9007L196.501 46.1642L216.947 49.5232L216.169 54.2597L208.512 53.0017L204.751 75.8948L199.619 75.0518L203.38 52.1587Z" fill="#5D5674"/>
<path d="M245.535 69.0522L240.75 68.3839C240.834 64.9158 239.348 62.5324 236.203 61.2405C234.094 60.3742 232.014 60.3846 229.985 61.324C227.993 62.2787 226.393 64.1729 225.223 67.0219C224.053 69.8709 223.859 72.3426 224.605 74.422C225.388 76.5166 226.86 77.9861 228.969 78.8524C232.114 80.1444 234.846 79.4937 237.224 76.9679L241.097 79.8562C237.824 84.3496 232.769 85.6027 227.145 83.2924C223.704 81.8789 221.304 79.5094 219.894 76.2057C218.483 72.9019 218.637 69.1596 220.339 65.0156C222.041 60.8716 224.563 58.102 227.888 56.7437C231.214 55.3855 234.586 55.387 238.027 56.8005C243.651 59.1108 246.366 63.5556 245.535 69.0522Z" fill="#5D5674"/>
<path d="M258.545 102.601L254.013 99.3115L256.239 92.7719L249.053 87.5556L243.525 91.6986L238.993 88.409L263.113 71.3178L267.321 74.3724L258.545 102.601ZM257.861 88.018L261.175 78.413L253.07 84.5405L257.861 88.018Z" fill="#5D5674"/>
<path d="M288.261 106.608C285.445 109.039 282.097 109.446 279.144 107.556L274.74 121.612L270.949 117.222L275.177 103.636L273.4 101.577L264.257 109.472L260.858 105.536L282.051 87.2367L288.717 94.9568C292.272 99.0742 291.894 103.471 288.261 106.608ZM277.033 98.44L280.327 102.255C281.764 103.92 283.257 104.057 284.862 102.672C286.467 101.286 286.548 99.7893 285.11 98.1241L281.816 94.3095L277.033 98.44Z" fill="#5D5674"/>
<path d="M280.992 133.76L277.021 125.951L301.979 113.259L305.95 121.067C308.942 126.95 308.082 134.613 299.382 139.037C290.682 143.461 283.984 139.643 280.992 133.76ZM300.058 120.07L283.657 128.411L284.527 130.122C285.633 132.297 287.003 133.844 288.997 134.94C291.008 136.071 293.815 135.944 296.989 134.331C300.162 132.717 301.918 130.522 302.189 128.231C302.477 125.975 302.034 123.956 300.928 121.781L300.058 120.07Z" fill="#5D5674"/>
<circle cx="184" cy="184" r="164" stroke="#5D5674" stroke-opacity="0.4" stroke-width="4" stroke-dasharray="12 12"/>
<path d="M225.004 137.996C224.092 137.085 222.954 136.433 221.707 136.108C220.46 135.783 219.148 135.797 217.908 136.147H217.84L130.867 162.537C129.455 162.944 128.2 163.77 127.269 164.907C126.337 166.043 125.773 167.436 125.65 168.9C125.528 170.364 125.853 171.831 126.584 173.106C127.314 174.381 128.414 175.405 129.739 176.04L168.218 194.781L186.932 233.238C187.515 234.48 188.44 235.53 189.599 236.263C190.759 236.996 192.104 237.382 193.476 237.375C193.684 237.375 193.892 237.366 194.101 237.348C195.564 237.23 196.956 236.666 198.09 235.734C199.224 234.802 200.045 233.545 200.445 232.133L226.817 145.16C226.817 145.137 226.817 145.114 226.817 145.092C227.171 143.855 227.191 142.545 226.872 141.298C226.554 140.051 225.909 138.911 225.004 137.996ZM193.516 230.057L193.494 230.121V230.089L175.342 192.797L197.091 171.047C197.743 170.361 198.1 169.449 198.088 168.504C198.076 167.558 197.695 166.655 197.027 165.987C196.358 165.318 195.455 164.937 194.51 164.925C193.565 164.913 192.652 165.271 191.967 165.922L170.217 187.672L132.911 169.52H132.879H132.943L219.875 143.125L193.516 230.057Z" fill="#5D5674"/>
<mask id="path-26-outside-1_973_7" maskUnits="userSpaceOnUse" x="299.01" y="157.838" width="14.9262" height="14.9262" fill="black">
<rect fill="white" x="299.01" y="157.838" width="14.9262" height="14.9262"/>
<path d="M302.585 163.182C302.869 162.663 303.231 162.232 303.673 161.89C304.115 161.548 304.597 161.3 305.118 161.147C305.639 160.994 306.178 160.942 306.735 160.991C307.291 161.04 307.83 161.206 308.349 161.49C308.869 161.773 309.3 162.136 309.642 162.578C309.984 163.02 310.231 163.502 310.384 164.023C310.537 164.544 310.589 165.083 310.54 165.639C310.492 166.196 310.325 166.734 310.042 167.254C309.758 167.774 309.395 168.204 308.953 168.546C308.511 168.888 308.03 169.136 307.509 169.289C306.988 169.442 306.449 169.494 305.892 169.445C305.335 169.396 304.797 169.23 304.277 168.946C303.758 168.663 303.327 168.3 302.985 167.858C302.643 167.416 302.396 166.934 302.243 166.413C302.09 165.892 302.037 165.353 302.086 164.797C302.135 164.24 302.301 163.702 302.585 163.182Z"/>
</mask>
<path d="M302.585 163.182C302.869 162.663 303.231 162.232 303.673 161.89C304.115 161.548 304.597 161.3 305.118 161.147C305.639 160.994 306.178 160.942 306.735 160.991C307.291 161.04 307.83 161.206 308.349 161.49C308.869 161.773 309.3 162.136 309.642 162.578C309.984 163.02 310.231 163.502 310.384 164.023C310.537 164.544 310.589 165.083 310.54 165.639C310.492 166.196 310.325 166.734 310.042 167.254C309.758 167.774 309.395 168.204 308.953 168.546C308.511 168.888 308.03 169.136 307.509 169.289C306.988 169.442 306.449 169.494 305.892 169.445C305.335 169.396 304.797 169.23 304.277 168.946C303.758 168.663 303.327 168.3 302.985 167.858C302.643 167.416 302.396 166.934 302.243 166.413C302.09 165.892 302.037 165.353 302.086 164.797C302.135 164.24 302.301 163.702 302.585 163.182Z" fill="#5D5674" fill-opacity="0.4"/>
<path d="M303.673 161.89L304.285 162.681L304.285 162.681L303.673 161.89ZM305.118 161.147L304.836 160.188L304.836 160.188L305.118 161.147ZM310.384 164.023L311.344 163.741L311.344 163.741L310.384 164.023ZM310.54 165.639L309.544 165.552L309.544 165.552L310.54 165.639ZM308.953 168.546L308.341 167.755L308.341 167.755L308.953 168.546ZM307.509 169.289L307.79 170.248L307.79 170.248L307.509 169.289ZM305.892 169.445L305.979 168.449L305.979 168.449L305.892 169.445ZM302.985 167.858L303.776 167.246L303.776 167.246L302.985 167.858ZM302.243 166.413L301.283 166.695L301.283 166.695L302.243 166.413ZM302.086 164.797L303.082 164.884L303.082 164.884L302.086 164.797ZM302.585 163.182L303.463 163.661C303.684 163.256 303.959 162.933 304.285 162.681L303.673 161.89L303.061 161.099C302.504 161.53 302.053 162.07 301.707 162.703L302.585 163.182ZM303.673 161.89L304.285 162.681C304.632 162.413 305.002 162.224 305.4 162.107L305.118 161.147L304.836 160.188C304.192 160.377 303.599 160.683 303.061 161.099L303.673 161.89ZM305.118 161.147L305.4 162.107C305.798 161.99 306.211 161.949 306.647 161.987L306.735 160.991L306.822 159.995C306.145 159.935 305.48 159.999 304.836 160.188L305.118 161.147ZM306.735 160.991L306.647 161.987C307.059 162.023 307.464 162.146 307.87 162.367L308.349 161.49L308.828 160.612C308.195 160.266 307.524 160.056 306.822 159.995L306.735 160.991ZM308.349 161.49L307.87 162.367C308.276 162.589 308.598 162.864 308.851 163.19L309.642 162.578L310.432 161.966C310.001 161.409 309.462 160.958 308.828 160.612L308.349 161.49ZM309.642 162.578L308.851 163.19C309.119 163.537 309.308 163.907 309.425 164.305L310.384 164.023L311.344 163.741C311.154 163.097 310.848 162.504 310.432 161.966L309.642 162.578ZM310.384 164.023L309.425 164.305C309.541 164.702 309.582 165.116 309.544 165.552L310.54 165.639L311.537 165.727C311.596 165.049 311.533 164.385 311.344 163.741L310.384 164.023ZM310.54 165.639L309.544 165.552C309.508 165.963 309.386 166.369 309.164 166.775L310.042 167.254L310.919 167.733C311.265 167.1 311.475 166.429 311.537 165.727L310.54 165.639ZM310.042 167.254L309.164 166.775C308.942 167.18 308.668 167.503 308.341 167.755L308.953 168.546L309.565 169.337C310.123 168.906 310.574 168.367 310.919 167.733L310.042 167.254ZM308.953 168.546L308.341 167.755C307.995 168.023 307.625 168.213 307.227 168.329L307.509 169.289L307.79 170.248C308.435 170.059 309.027 169.753 309.565 169.337L308.953 168.546ZM307.509 169.289L307.227 168.329C306.829 168.446 306.415 168.487 305.979 168.449L305.892 169.445L305.805 170.441C306.482 170.501 307.146 170.438 307.79 170.248L307.509 169.289ZM305.892 169.445L305.979 168.449C305.568 168.413 305.162 168.29 304.757 168.069L304.277 168.946L303.798 169.824C304.432 170.17 305.102 170.38 305.805 170.441L305.892 169.445ZM304.277 168.946L304.757 168.069C304.351 167.847 304.029 167.572 303.776 167.246L302.985 167.858L302.194 168.47C302.626 169.027 303.165 169.478 303.798 169.824L304.277 168.946ZM302.985 167.858L303.776 167.246C303.508 166.9 303.319 166.53 303.202 166.132L302.243 166.413L301.283 166.695C301.472 167.339 301.778 167.932 302.194 168.47L302.985 167.858ZM302.243 166.413L303.202 166.132C303.085 165.734 303.044 165.32 303.082 164.884L302.086 164.797L301.09 164.709C301.031 165.387 301.094 166.051 301.283 166.695L302.243 166.413ZM302.086 164.797L303.082 164.884C303.118 164.473 303.241 164.067 303.463 163.661L302.585 163.182L301.707 162.703C301.361 163.336 301.152 164.007 301.09 164.709L302.086 164.797Z" fill="#5D5674" fill-opacity="0.4" mask="url(#path-26-outside-1_973_7)"/>
<mask id="path-28-outside-2_973_7" maskUnits="userSpaceOnUse" x="54.0097" y="195.838" width="14.9262" height="14.9262" fill="black">
<rect fill="white" x="54.0097" y="195.838" width="14.9262" height="14.9262"/>
<path d="M57.5849 201.182C57.8686 200.663 58.2315 200.232 58.6734 199.89C59.1154 199.548 59.5969 199.3 60.118 199.147C60.6391 198.994 61.178 198.942 61.7347 198.991C62.2914 199.04 62.8296 199.206 63.3491 199.49C63.8687 199.773 64.2995 200.136 64.6415 200.578C64.9836 201.02 65.2311 201.502 65.3841 202.023C65.5371 202.544 65.5892 203.083 65.5404 203.639C65.4916 204.196 65.3254 204.734 65.0417 205.254C64.758 205.774 64.3951 206.204 63.9531 206.546C63.5112 206.888 63.0296 207.136 62.5086 207.289C61.9875 207.442 61.4486 207.494 60.8919 207.445C60.3352 207.396 59.797 207.23 59.2774 206.946C58.7579 206.663 58.3271 206.3 57.985 205.858C57.643 205.416 57.3955 204.934 57.2425 204.413C57.0895 203.892 57.0374 203.353 57.0862 202.797C57.1349 202.24 57.3012 201.702 57.5849 201.182Z"/>
</mask>
<path d="M57.5849 201.182C57.8686 200.663 58.2315 200.232 58.6734 199.89C59.1154 199.548 59.5969 199.3 60.118 199.147C60.6391 198.994 61.178 198.942 61.7347 198.991C62.2914 199.04 62.8296 199.206 63.3491 199.49C63.8687 199.773 64.2995 200.136 64.6415 200.578C64.9836 201.02 65.2311 201.502 65.3841 202.023C65.5371 202.544 65.5892 203.083 65.5404 203.639C65.4916 204.196 65.3254 204.734 65.0417 205.254C64.758 205.774 64.3951 206.204 63.9531 206.546C63.5112 206.888 63.0296 207.136 62.5086 207.289C61.9875 207.442 61.4486 207.494 60.8919 207.445C60.3352 207.396 59.797 207.23 59.2774 206.946C58.7579 206.663 58.3271 206.3 57.985 205.858C57.643 205.416 57.3955 204.934 57.2425 204.413C57.0895 203.892 57.0374 203.353 57.0862 202.797C57.1349 202.24 57.3012 201.702 57.5849 201.182Z" fill="#5D5674" fill-opacity="0.4"/>
<path d="M58.6734 199.89L59.2854 200.681L59.2854 200.681L58.6734 199.89ZM60.118 199.147L59.8363 198.188L59.8363 198.188L60.118 199.147ZM65.3841 202.023L66.3436 201.741L66.3436 201.741L65.3841 202.023ZM65.5404 203.639L64.5442 203.552L64.5442 203.552L65.5404 203.639ZM63.9531 206.546L63.3411 205.755L63.3411 205.755L63.9531 206.546ZM62.5086 207.289L62.7903 208.248L62.7903 208.248L62.5086 207.289ZM60.8919 207.445L60.9792 206.449L60.9792 206.449L60.8919 207.445ZM57.985 205.858L58.7759 205.246L58.7759 205.246L57.985 205.858ZM57.2425 204.413L56.283 204.695L56.283 204.695L57.2425 204.413ZM57.0862 202.797L58.0824 202.884L58.0824 202.884L57.0862 202.797ZM57.5849 201.182L58.4626 201.661C58.6842 201.256 58.959 200.933 59.2854 200.681L58.6734 199.89L58.0614 199.099C57.504 199.53 57.0531 200.07 56.7072 200.703L57.5849 201.182ZM58.6734 199.89L59.2854 200.681C59.6317 200.413 60.0018 200.224 60.3997 200.107L60.118 199.147L59.8363 198.188C59.1921 198.377 58.5991 198.683 58.0614 199.099L58.6734 199.89ZM60.118 199.147L60.3997 200.107C60.7977 199.99 61.2112 199.949 61.6474 199.987L61.7347 198.991L61.822 197.995C61.1447 197.935 60.4805 197.999 59.8363 198.188L60.118 199.147ZM61.7347 198.991L61.6474 199.987C62.0586 200.023 62.4641 200.146 62.8699 200.367L63.3491 199.49L63.8284 198.612C63.195 198.266 62.5242 198.056 61.822 197.995L61.7347 198.991ZM63.3491 199.49L62.8699 200.367C63.2757 200.589 63.5981 200.864 63.8507 201.19L64.6415 200.578L65.4324 199.966C65.001 199.409 64.4618 198.958 63.8284 198.612L63.3491 199.49ZM64.6415 200.578L63.8507 201.19C64.1187 201.537 64.3077 201.907 64.4246 202.305L65.3841 202.023L66.3436 201.741C66.1544 201.097 65.8485 200.504 65.4324 199.966L64.6415 200.578ZM65.3841 202.023L64.4246 202.305C64.5414 202.702 64.5824 203.116 64.5442 203.552L65.5404 203.639L66.5366 203.727C66.5959 203.049 66.5327 202.385 66.3436 201.741L65.3841 202.023ZM65.5404 203.639L64.5442 203.552C64.5082 203.963 64.3856 204.369 64.164 204.775L65.0417 205.254L65.9193 205.733C66.2652 205.1 66.4751 204.429 66.5366 203.727L65.5404 203.639ZM65.0417 205.254L64.164 204.775C63.9424 205.18 63.6676 205.503 63.3411 205.755L63.9531 206.546L64.5651 207.337C65.1226 206.906 65.5735 206.367 65.9193 205.733L65.0417 205.254ZM63.9531 206.546L63.3411 205.755C62.9948 206.023 62.6248 206.213 62.2268 206.329L62.5086 207.289L62.7903 208.248C63.4345 208.059 64.0275 207.753 64.5651 207.337L63.9531 206.546ZM62.5086 207.289L62.2268 206.329C61.8289 206.446 61.4154 206.487 60.9792 206.449L60.8919 207.445L60.8046 208.441C61.4819 208.501 62.1461 208.438 62.7903 208.248L62.5086 207.289ZM60.8919 207.445L60.9792 206.449C60.5679 206.413 60.1625 206.29 59.7567 206.069L59.2774 206.946L58.7982 207.824C59.4316 208.17 60.1024 208.38 60.8046 208.441L60.8919 207.445ZM59.2774 206.946L59.7567 206.069C59.3509 205.847 59.0285 205.572 58.7759 205.246L57.985 205.858L57.1942 206.47C57.6256 207.027 58.1648 207.478 58.7982 207.824L59.2774 206.946ZM57.985 205.858L58.7759 205.246C58.5079 204.9 58.3188 204.53 58.202 204.132L57.2425 204.413L56.283 204.695C56.4722 205.339 56.7781 205.932 57.1942 206.47L57.985 205.858ZM57.2425 204.413L58.202 204.132C58.0852 203.734 58.0441 203.32 58.0824 202.884L57.0862 202.797L56.09 202.709C56.0307 203.387 56.0939 204.051 56.283 204.695L57.2425 204.413ZM57.0862 202.797L58.0824 202.884C58.1184 202.473 58.241 202.067 58.4626 201.661L57.5849 201.182L56.7072 200.703C56.3614 201.336 56.1515 202.007 56.09 202.709L57.0862 202.797Z" fill="#5D5674" fill-opacity="0.4" mask="url(#path-28-outside-2_973_7)"/>
</svg>
