<svg width="71" height="81" viewBox="0 0 71 81" fill="none" xmlns="http://www.w3.org/2000/svg">
<rect width="70.532" height="80.9384" rx="16" fill="#E2DCFF"/>
<path d="M51.8434 14.1343L18.8832 14.0778C18.2284 14.0765 17.5799 14.2041 16.9745 14.4535C16.3692 14.7029 15.8189 15.0692 15.3551 15.5313C14.8913 15.9934 14.5232 16.5424 14.2716 17.1469C14.0201 17.7513 13.8901 18.3994 13.8891 19.0541L13.8385 61.8163C13.8371 63.1376 14.3605 64.4053 15.2935 65.3409C16.2265 66.2764 17.4928 66.8032 18.814 66.8055L51.7743 66.862C52.0684 66.8628 52.362 66.8377 52.6517 66.787C53.8074 66.5856 54.8551 65.9829 55.6102 65.085C56.3653 64.1872 56.7795 63.0517 56.7798 61.8786L56.8304 19.1164C56.8301 18.4618 56.7009 17.8137 56.4502 17.209C56.1994 16.6043 55.832 16.055 55.3689 15.5924C54.9058 15.1297 54.3561 14.7628 53.7512 14.5126C53.1463 14.2625 52.498 14.1339 51.8434 14.1343ZM50.7863 60.8772L19.82 60.8238L19.8704 20.0576L50.8366 20.1111L50.7863 60.8772ZM23.8489 27.0425C23.8503 26.2497 24.1666 25.4898 24.7282 24.93C25.2897 24.3703 26.0506 24.0565 26.8435 24.0576L43.8489 24.0876C44.6063 24.0717 45.3416 24.344 45.9061 24.8494C46.4706 25.3548 46.8222 26.0556 46.8898 26.8102C46.9575 27.5648 46.7362 28.317 46.2707 28.9148C45.8051 29.5125 45.13 29.9113 44.3818 30.0305C44.209 30.0604 44.034 30.0758 43.8586 30.0764L26.8339 30.0371C26.041 30.0357 25.2811 29.7194 24.7214 29.1579C24.1616 28.5963 23.8478 27.8354 23.8489 27.0425ZM23.8455 37.008C23.8461 36.6151 23.9242 36.2262 24.0752 35.8636C24.2262 35.5009 24.4471 35.1715 24.7254 34.8943C25.0038 34.6171 25.334 34.3974 25.6972 34.2478C26.0605 34.0982 26.4497 34.0217 26.8425 34.0226L43.8532 34.0542C44.6003 34.058 45.3189 34.3413 45.8676 34.8484C46.4163 35.3555 46.7552 36.0496 46.8178 36.7941C46.8804 37.5386 46.662 38.2795 46.2057 38.871C45.7493 39.4626 45.0881 39.8619 44.3521 39.9904C44.1793 40.0204 44.0043 40.0357 43.8289 40.0363L26.8206 40.0042C26.0292 40.0002 25.2715 39.6826 24.7139 39.1209C24.1562 38.5593 23.8439 37.7995 23.8455 37.008ZM23.8175 46.9777C23.8189 46.1848 24.1352 45.4249 24.6967 44.8652C25.2583 44.3054 26.0192 43.9916 26.8121 43.9927L35.3252 44.0097C36.0735 44.0099 36.7944 44.2907 37.3458 44.7966C37.8972 45.3024 38.2388 45.9966 38.3034 46.742C38.368 47.4875 38.1507 48.2301 37.6945 48.8232C37.2383 49.4163 36.5764 49.8168 35.8393 49.9457C35.6664 49.9761 35.4911 49.9906 35.3156 49.9892L26.8107 49.9759C26.4171 49.9762 26.0273 49.8989 25.6637 49.7483C25.3 49.5977 24.9697 49.3768 24.6916 49.0982C24.4135 48.8197 24.1931 48.489 24.0431 48.1251C23.8932 47.7612 23.8165 47.3713 23.8175 46.9777Z" fill="#635C7F"/>
</svg>
