<svg width="74" height="66" viewBox="0 0 74 66" fill="none" xmlns="http://www.w3.org/2000/svg">
<rect width="74" height="66" rx="16" fill="#FFE37F"/>
<path d="M40.7037 25.587C40.7037 24.8704 40.9209 24.1699 41.3279 23.574C41.7349 22.9782 42.3133 22.5138 42.9901 22.2396C43.6668 21.9653 44.4115 21.8936 45.13 22.0334C45.8484 22.1732 46.5083 22.5183 47.0263 23.025C47.5443 23.5317 47.897 24.1773 48.0399 24.8801C48.1829 25.5829 48.1095 26.3114 47.8292 26.9735C47.5489 27.6355 47.0741 28.2014 46.4651 28.5995C45.856 28.9976 45.1399 29.2101 44.4074 29.2101C43.4251 29.2101 42.4831 28.8284 41.7885 28.1489C41.0939 27.4695 40.7037 26.5479 40.7037 25.587ZM62 16.529V49.1377C62 50.3388 61.5122 51.4908 60.644 52.3402C59.7758 53.1895 58.5982 53.6667 57.3704 53.6667H16.6296C15.4018 53.6667 14.2242 53.1895 13.356 52.3402C12.4878 51.4908 12 50.3388 12 49.1377V16.529C12 15.3278 12.4878 14.1759 13.356 13.3265C14.2242 12.4772 15.4018 12 16.6296 12H57.3704C58.5982 12 59.7758 12.4772 60.644 13.3265C61.5122 14.1759 62 15.3278 62 16.529ZM17.5556 17.4348V35.4873L25.3935 27.8197C26.2617 26.9707 27.4391 26.4937 28.6667 26.4937C29.8943 26.4937 31.0716 26.9707 31.9398 27.8197L41.4699 37.1359L45.4468 33.2477C46.3149 32.3987 47.4923 31.9217 48.7199 31.9217C49.9475 31.9217 51.1249 32.3987 51.9931 33.2477L56.4444 37.6091V17.4348H17.5556ZM17.5556 48.2319H44.9491L28.6667 32.3034L17.5556 43.173V48.2319ZM56.4444 48.2319V45.288L48.7199 37.7314L45.3981 40.9855L52.8056 48.2319H56.4444Z" fill="#7F6300"/>
</svg>
