<svg width="76" height="66" viewBox="0 0 76 66" fill="none" xmlns="http://www.w3.org/2000/svg">
<path d="M26.187 26.4353L18.6377 32.781L26.187 39.1267C26.4374 39.3337 26.6446 39.5887 26.7968 39.8769C26.9491 40.165 27.0432 40.4808 27.0739 40.8059C27.1045 41.1309 27.0711 41.4589 26.9755 41.7709C26.8799 42.0829 26.724 42.3727 26.5168 42.6236C26.3097 42.8745 26.0553 43.0816 25.7684 43.2328C25.4815 43.3841 25.1678 43.4765 24.8453 43.5048C24.5228 43.5332 24.198 43.4968 23.8895 43.3979C23.581 43.2989 23.295 43.1394 23.0479 42.9284L13.2384 34.6819C12.9621 34.4497 12.7398 34.1591 12.5873 33.8306C12.4347 33.5021 12.3557 33.1438 12.3557 32.781C12.3557 32.4183 12.4347 32.06 12.5873 31.7315C12.7398 31.403 12.9621 31.1124 13.2384 30.8802L23.0479 22.6337C23.5484 22.22 24.1906 22.0225 24.8347 22.0844C25.4788 22.1462 26.0726 22.4623 26.4867 22.9638C26.9008 23.4653 27.1017 24.1116 27.0455 24.7618C26.9894 25.4121 26.6808 26.0136 26.187 26.4353ZM62.1553 30.8802L52.3458 22.6337C52.0987 22.4227 51.8127 22.2631 51.5042 22.1642C51.1957 22.0653 50.8709 22.0289 50.5484 22.0572C50.2259 22.0856 49.9122 22.178 49.6253 22.3293C49.3384 22.4805 49.084 22.6876 48.8769 22.9385C48.6697 23.1894 48.5138 23.4792 48.4182 23.7912C48.3226 24.1032 48.2892 24.4311 48.3198 24.7562C48.3505 25.0813 48.4446 25.397 48.5969 25.6852C48.7491 25.9734 48.9563 26.2284 49.2067 26.4353L56.756 32.781L49.2067 39.1267C48.9563 39.3337 48.7491 39.5887 48.5969 39.8769C48.4446 40.165 48.3505 40.4808 48.3198 40.8059C48.2892 41.1309 48.3226 41.4589 48.4182 41.7709C48.5138 42.0829 48.6697 42.3727 48.8769 42.6236C49.084 42.8745 49.3384 43.0816 49.6253 43.2328C49.9122 43.3841 50.2259 43.4765 50.5484 43.5048C50.8709 43.5332 51.1957 43.4968 51.5042 43.3979C51.8127 43.2989 52.0987 43.1394 52.3458 42.9284L62.1553 34.6819C62.4316 34.4497 62.6539 34.1591 62.8064 33.8306C62.959 33.5021 63.038 33.1438 63.038 32.781C63.038 32.4183 62.959 32.06 62.8064 31.7315C62.6539 31.403 62.4316 31.1124 62.1553 30.8802ZM45.0744 12.3132C44.7717 12.2021 44.4503 12.1523 44.1285 12.1666C43.8067 12.1809 43.4908 12.259 43.1989 12.3965C42.907 12.5339 42.6448 12.728 42.4273 12.9677C42.2099 13.2074 42.0413 13.488 41.9313 13.7934L28.8519 50.0781C28.6302 50.6946 28.6602 51.3747 28.9354 51.9689C29.2105 52.5631 29.7083 53.0227 30.3193 53.2468C30.5875 53.3468 30.8712 53.3977 31.1572 53.3973C31.6607 53.3974 32.152 53.2412 32.5644 52.9498C32.9768 52.6584 33.2904 52.246 33.4624 51.7687L46.5418 15.484C46.6519 15.1786 46.7013 14.8543 46.6871 14.5297C46.6729 14.205 46.5955 13.8864 46.4592 13.5919C46.323 13.2975 46.1305 13.033 45.8929 12.8136C45.6553 12.5942 45.3772 12.4241 45.0744 12.3132Z" fill="black"/>
<path fill-rule="evenodd" clip-rule="evenodd" d="M26.1893 26.4334C26.1995 26.4246 26.2097 26.4157 26.2198 26.4068C26.6945 25.9867 26.9907 25.3975 27.0455 24.7618C27.0632 24.5573 27.0554 24.3531 27.0236 24.1537C26.9542 23.7193 26.7705 23.3075 26.4867 22.9638C26.3508 22.7992 26.1955 22.6545 26.0254 22.5323C25.6774 22.2822 25.2674 22.1259 24.8347 22.0844C24.1906 22.0225 23.5484 22.22 23.0479 22.6337L13.2384 30.8802C12.9621 31.1124 12.7398 31.403 12.5873 31.7315C12.4347 32.06 12.3557 32.4183 12.3557 32.781C12.3557 33.1438 12.4347 33.5021 12.5873 33.8306C12.7398 34.1591 12.9621 34.4497 13.2384 34.6819L23.0479 42.9284C23.2553 43.1055 23.4902 43.2464 23.7428 43.3456C23.7911 43.3646 23.84 43.382 23.8895 43.3979C24.198 43.4968 24.5228 43.5332 24.8453 43.5048C24.9858 43.4925 25.1247 43.468 25.2604 43.4317C25.4178 43.3897 25.571 43.3318 25.7176 43.2588C25.7346 43.2504 25.7516 43.2417 25.7684 43.2328C26.0553 43.0816 26.3097 42.8745 26.5168 42.6236C26.5292 42.6086 26.5414 42.5935 26.5534 42.5782C26.7424 42.338 26.8856 42.0642 26.9755 41.7709C27.0151 41.6415 27.0441 41.5094 27.0622 41.3759C27.0878 41.1874 27.0918 40.9961 27.0739 40.8059C27.0432 40.4808 26.9491 40.165 26.7968 39.8769C26.6574 39.6129 26.4718 39.3769 26.2492 39.18C26.2397 39.1715 26.23 39.1631 26.2203 39.1548C26.2093 39.1453 26.1982 39.136 26.187 39.1267L18.6377 32.781L26.187 26.4353L26.1893 26.4334ZM28.8519 50.0781C28.8489 50.0866 28.8459 50.095 28.8429 50.1035C28.6312 50.7131 28.6641 51.383 28.9354 51.9689C29.2105 52.5631 29.7083 53.0227 30.3193 53.2468C30.5781 53.3433 30.8514 53.3941 31.1272 53.3972C31.1372 53.3973 31.1472 53.3974 31.1572 53.3973C31.6607 53.3974 32.152 53.2412 32.5644 52.9498C32.9768 52.6584 33.2904 52.246 33.4624 51.7687L46.5418 15.484C46.5448 15.4755 46.5478 15.4671 46.5508 15.4586L46.5513 15.4572C46.6547 15.1596 46.7008 14.8448 46.6871 14.5297C46.6729 14.205 46.5955 13.8864 46.4592 13.5919C46.323 13.2975 46.1305 13.033 45.8929 12.8136C45.6553 12.5942 45.3772 12.4241 45.0744 12.3132C44.815 12.218 44.5417 12.1678 44.2663 12.1644C44.2204 12.1638 44.1744 12.1646 44.1285 12.1666C43.8067 12.1809 43.4908 12.259 43.1989 12.3965C42.907 12.5339 42.6448 12.728 42.4273 12.9677C42.2099 13.2074 42.0413 13.488 41.9313 13.7934L28.8519 50.0781ZM50.1325 22.1306C49.9571 22.1775 49.7869 22.2441 49.6253 22.3293C49.3384 22.4805 49.084 22.6876 48.8769 22.9385C48.8647 22.9532 48.8527 22.9681 48.8408 22.9832C48.6516 23.2236 48.5082 23.4975 48.4182 23.7912C48.3786 23.9205 48.3496 24.0527 48.3315 24.1862C48.3059 24.3747 48.3019 24.5659 48.3198 24.7562C48.3505 25.0813 48.4446 25.397 48.5969 25.6852C48.7363 25.9492 48.9219 26.1852 49.1445 26.3821C49.154 26.3906 49.1637 26.399 49.1734 26.4073C49.1844 26.4168 49.1955 26.4261 49.2067 26.4353L56.756 32.781L49.2067 39.1267C49.1955 39.136 49.1844 39.1453 49.1734 39.1548C49.1637 39.1631 49.154 39.1715 49.1445 39.18C48.9219 39.3769 48.7363 39.6129 48.5969 39.8769C48.4446 40.165 48.3505 40.4808 48.3198 40.8059C48.3019 40.9961 48.3059 41.1874 48.3315 41.3759C48.3496 41.5094 48.3786 41.6415 48.4182 41.7709C48.5138 42.0829 48.6697 42.3727 48.8769 42.6236C49.0163 42.7925 49.1771 42.9415 49.3549 43.067C49.4412 43.1279 49.5315 43.1834 49.6253 43.2328C49.9122 43.3841 50.2259 43.4765 50.5484 43.5048C50.8709 43.5332 51.1957 43.4968 51.5042 43.3979C51.8127 43.2989 52.0987 43.1394 52.3458 42.9284L62.1553 34.6819C62.4316 34.4497 62.6539 34.1591 62.8064 33.8306C62.959 33.5021 63.038 33.1438 63.038 32.781C63.038 32.4183 62.959 32.06 62.8064 31.7315C62.6539 31.403 62.4316 31.1124 62.1553 30.8802L52.3458 22.6337C52.1384 22.4566 51.9035 22.3157 51.6509 22.2165C51.6026 22.1975 51.5537 22.1801 51.5042 22.1642C51.1957 22.0653 50.8709 22.0289 50.5484 22.0572C50.4076 22.0696 50.2685 22.0942 50.1325 22.1306ZM75.0347 33.0927V32.7539V32.4694C74.9917 30.4699 74.5353 28.4972 73.6901 26.6772C72.8011 24.7629 71.5017 23.0604 69.8772 21.6948L69.8756 21.6934L60.0887 13.466C59.5854 13.0401 59.0543 12.6497 58.4991 12.2973C58.2878 11.0062 57.9021 9.74605 57.3496 8.55219C56.5553 6.83573 55.4304 5.28695 54.034 3.99748C52.6384 2.70875 50.9991 1.70457 49.2075 1.04739L49.2036 1.04599C47.4117 0.389147 45.5059 0.0936259 43.5962 0.178421C41.6851 0.263275 39.8126 0.727081 38.0862 1.54014C36.36 2.35309 34.8164 3.49785 33.5406 4.90394C32.2657 6.30885 31.2826 7.94749 30.6423 9.72415L30.6411 9.72763L30.1212 11.1699C28.8138 10.6289 27.4205 10.2774 25.9813 10.1393C22.1522 9.77169 18.3492 10.9484 15.4018 13.3851L15.3638 13.4165L5.51813 21.6934L5.51652 21.6948C3.89194 23.0604 2.59261 24.7629 1.70364 26.6772C0.858409 28.4972 0.402008 30.4699 0.359009 32.4694V32.6367V33.0927C0.402008 35.0922 0.858406 37.0649 1.70364 38.8849C2.59261 40.7992 3.89194 42.5017 5.51652 43.8673L5.51813 43.8687L15.3047 52.0959C15.8084 52.5221 16.34 52.9128 16.8956 53.2655C17.1059 54.5494 17.4899 55.81 18.0462 57.0113C19.6454 60.4647 22.5509 63.1704 26.1578 64.5022C27.7561 65.0939 29.448 65.3975 31.155 65.3973M31.1638 65.3973C34.1525 65.3961 37.059 64.4671 39.4888 62.7505C41.9192 61.0334 43.7501 58.6157 44.7514 55.8379L45.2607 54.4249C46.6089 54.9806 48.0372 55.3304 49.4981 55.4588C51.4129 55.627 53.3407 55.411 55.169 54.8246C56.9761 54.245 58.6467 53.3163 60.0887 52.0961L69.8756 43.8687L69.8772 43.8673C71.5017 42.5017 72.8011 40.7992 73.6901 38.8849C74.5353 37.0649 74.9917 35.0922 75.0347 33.0927M22.1734 47.6994L22.1743 47.697Z" fill="#689BF7"/>
</svg>
