<svg width="80" height="69" viewBox="0 0 80 69" fill="none" xmlns="http://www.w3.org/2000/svg">
<mask id="path-1-outside-1_302_331" maskUnits="userSpaceOnUse" x="0" y="0" width="80" height="69" fill="black">
<rect fill="white" width="80" height="69"/>
<path d="M27.2825 27.5749L18.9412 34.5003L27.2825 41.4257C27.5592 41.6516 27.7882 41.9298 27.9564 42.2443C28.1245 42.5589 28.2286 42.9034 28.2625 43.2582C28.2963 43.613 28.2594 43.971 28.1538 44.3114C28.0481 44.6519 27.8759 44.9682 27.647 45.242C27.4181 45.5158 27.137 45.7418 26.82 45.9069C26.503 46.0719 26.1564 46.1728 25.8001 46.2038C25.4438 46.2347 25.0848 46.195 24.744 46.087C24.4031 45.9791 24.0871 45.8049 23.8141 45.5746L12.9754 36.5748C12.6701 36.3214 12.4245 36.0042 12.2559 35.6457C12.0874 35.2872 12 34.8962 12 34.5003C12 34.1044 12.0874 33.7134 12.2559 33.3549C12.4245 32.9964 12.6701 32.6792 12.9754 32.4258L23.8141 23.4259C24.3671 22.9744 25.0767 22.7589 25.7884 22.8264C26.5 22.8939 27.1561 23.2389 27.6137 23.7862C28.0712 24.3335 28.2932 25.0388 28.2311 25.7485C28.1691 26.4581 27.8281 27.1146 27.2825 27.5749ZM67.0246 32.4258L56.1859 23.4259C55.9129 23.1957 55.5969 23.0215 55.256 22.9135C54.9152 22.8056 54.5562 22.7659 54.1999 22.7968C53.8436 22.8277 53.497 22.9286 53.18 23.0937C52.863 23.2588 52.5819 23.4847 52.353 23.7586C52.1241 24.0324 51.9519 24.3487 51.8462 24.6891C51.7406 25.0296 51.7037 25.3876 51.7375 25.7424C51.7714 26.0971 51.8754 26.4417 52.0436 26.7562C52.2118 27.0708 52.4408 27.349 52.7175 27.5749L61.0588 34.5003L52.7175 41.4257C52.4408 41.6516 52.2118 41.9298 52.0436 42.2443C51.8754 42.5589 51.7714 42.9034 51.7375 43.2582C51.7037 43.613 51.7406 43.971 51.8462 44.3114C51.9519 44.6519 52.1241 44.9682 52.353 45.242C52.5819 45.5158 52.863 45.7418 53.18 45.9069C53.497 46.0719 53.8436 46.1728 54.1999 46.2038C54.5562 46.2347 54.9152 46.195 55.256 46.087C55.5969 45.9791 55.9129 45.8049 56.1859 45.5746L67.0246 36.5748C67.3299 36.3214 67.5755 36.0042 67.7441 35.6457C67.9126 35.2872 68 34.8962 68 34.5003C68 34.1044 67.9126 33.7134 67.7441 33.3549C67.5755 32.9964 67.3299 32.6792 67.0246 32.4258ZM48.1517 12.1626C47.8172 12.0414 47.462 11.987 47.1064 12.0026C46.7508 12.0182 46.4018 12.1034 46.0793 12.2535C45.7568 12.4035 45.4671 12.6153 45.2268 12.8769C44.9865 13.1385 44.8003 13.4447 44.6787 13.7781L30.227 53.3775C29.9821 54.0504 30.0153 54.7926 30.3193 55.4411C30.6233 56.0895 31.1733 56.5912 31.8483 56.8358C32.1447 56.9448 32.4582 57.0004 32.7742 57C33.3305 57.0001 33.8734 56.8296 34.3291 56.5116C34.7848 56.1936 35.1312 55.7435 35.3213 55.2225L49.7729 15.623C49.8946 15.2897 49.9491 14.9358 49.9335 14.5816C49.9178 14.2273 49.8323 13.8795 49.6817 13.5582C49.5312 13.2368 49.3186 12.9482 49.056 12.7087C48.7935 12.4692 48.4862 12.2837 48.1517 12.1626Z"/>
</mask>
<path d="M27.2825 27.5749L18.9412 34.5003L27.2825 41.4257C27.5592 41.6516 27.7882 41.9298 27.9564 42.2443C28.1245 42.5589 28.2286 42.9034 28.2625 43.2582C28.2963 43.613 28.2594 43.971 28.1538 44.3114C28.0481 44.6519 27.8759 44.9682 27.647 45.242C27.4181 45.5158 27.137 45.7418 26.82 45.9069C26.503 46.0719 26.1564 46.1728 25.8001 46.2038C25.4438 46.2347 25.0848 46.195 24.744 46.087C24.4031 45.9791 24.0871 45.8049 23.8141 45.5746L12.9754 36.5748C12.6701 36.3214 12.4245 36.0042 12.2559 35.6457C12.0874 35.2872 12 34.8962 12 34.5003C12 34.1044 12.0874 33.7134 12.2559 33.3549C12.4245 32.9964 12.6701 32.6792 12.9754 32.4258L23.8141 23.4259C24.3671 22.9744 25.0767 22.7589 25.7884 22.8264C26.5 22.8939 27.1561 23.2389 27.6137 23.7862C28.0712 24.3335 28.2932 25.0388 28.2311 25.7485C28.1691 26.4581 27.8281 27.1146 27.2825 27.5749ZM67.0246 32.4258L56.1859 23.4259C55.9129 23.1957 55.5969 23.0215 55.256 22.9135C54.9152 22.8056 54.5562 22.7659 54.1999 22.7968C53.8436 22.8277 53.497 22.9286 53.18 23.0937C52.863 23.2588 52.5819 23.4847 52.353 23.7586C52.1241 24.0324 51.9519 24.3487 51.8462 24.6891C51.7406 25.0296 51.7037 25.3876 51.7375 25.7424C51.7714 26.0971 51.8754 26.4417 52.0436 26.7562C52.2118 27.0708 52.4408 27.349 52.7175 27.5749L61.0588 34.5003L52.7175 41.4257C52.4408 41.6516 52.2118 41.9298 52.0436 42.2443C51.8754 42.5589 51.7714 42.9034 51.7375 43.2582C51.7037 43.613 51.7406 43.971 51.8462 44.3114C51.9519 44.6519 52.1241 44.9682 52.353 45.242C52.5819 45.5158 52.863 45.7418 53.18 45.9069C53.497 46.0719 53.8436 46.1728 54.1999 46.2038C54.5562 46.2347 54.9152 46.195 55.256 46.087C55.5969 45.9791 55.9129 45.8049 56.1859 45.5746L67.0246 36.5748C67.3299 36.3214 67.5755 36.0042 67.7441 35.6457C67.9126 35.2872 68 34.8962 68 34.5003C68 34.1044 67.9126 33.7134 67.7441 33.3549C67.5755 32.9964 67.3299 32.6792 67.0246 32.4258ZM48.1517 12.1626C47.8172 12.0414 47.462 11.987 47.1064 12.0026C46.7508 12.0182 46.4018 12.1034 46.0793 12.2535C45.7568 12.4035 45.4671 12.6153 45.2268 12.8769C44.9865 13.1385 44.8003 13.4447 44.6787 13.7781L30.227 53.3775C29.9821 54.0504 30.0153 54.7926 30.3193 55.4411C30.6233 56.0895 31.1733 56.5912 31.8483 56.8358C32.1447 56.9448 32.4582 57.0004 32.7742 57C33.3305 57.0001 33.8734 56.8296 34.3291 56.5116C34.7848 56.1936 35.1312 55.7435 35.3213 55.2225L49.7729 15.623C49.8946 15.2897 49.9491 14.9358 49.9335 14.5816C49.9178 14.2273 49.8323 13.8795 49.6817 13.5582C49.5312 13.2368 49.3186 12.9482 49.056 12.7087C48.7935 12.4692 48.4862 12.2837 48.1517 12.1626Z" fill="#344D7B"/>
<path d="M27.2825 27.5749L34.9479 36.8075L34.9841 36.7775L35.02 36.7472L27.2825 27.5749ZM18.9412 34.5003L11.2758 25.2677L0.155509 34.5003L11.2758 43.7329L18.9412 34.5003ZM27.2825 41.4257L19.6171 50.6583L19.6547 50.6896L19.6926 50.7205L27.2825 41.4257ZM23.8141 45.5746L31.5516 36.4023L31.5159 36.3722L31.48 36.3424L23.8141 45.5746ZM12.9754 36.5748L20.6413 27.3425L20.6396 27.3412L12.9754 36.5748ZM12 34.5003L24 34.5003L12 34.5003ZM12.9754 32.4258L20.6396 41.6594L20.6413 41.658L12.9754 32.4258ZM23.8141 23.4259L16.2242 14.1312L16.1861 14.1623L16.1482 14.1937L23.8141 23.4259ZM67.0246 32.4258L59.3587 41.658L59.3604 41.6594L67.0246 32.4258ZM56.1859 23.4259L48.4484 32.5983L48.4841 32.6284L48.52 32.6582L56.1859 23.4259ZM52.7175 27.5749L60.3829 18.3423L60.3453 18.311L60.3074 18.2801L52.7175 27.5749ZM61.0588 34.5003L68.7242 43.7329L79.8445 34.5003L68.7242 25.2677L61.0588 34.5003ZM52.7175 41.4257L60.3074 50.7205L60.3453 50.6896L60.3829 50.6583L52.7175 41.4257ZM56.1859 45.5746L48.52 36.3424L48.4841 36.3722L48.4484 36.4023L56.1859 45.5746ZM67.0246 36.5748L59.3604 27.3412L59.3587 27.3425L67.0246 36.5748ZM48.1517 12.1626L44.0635 23.4447L44.0672 23.4461L48.1517 12.1626ZM44.6787 13.7781L55.9515 17.892L55.9528 17.8885L44.6787 13.7781ZM30.227 53.3775L18.9543 49.2636L18.9512 49.2722L30.227 53.3775ZM31.8483 56.8358L35.9922 45.5739L35.9641 45.5636L35.936 45.5534L31.8483 56.8358ZM32.7742 57L32.7763 45L32.7672 45L32.7581 45L32.7742 57ZM35.3213 55.2225L24.0485 51.1086L24.0482 51.1095L35.3213 55.2225ZM49.7729 15.623L38.5003 11.5088L38.5002 11.5091L49.7729 15.623ZM19.6171 18.3423L11.2758 25.2677L26.6066 43.7329L34.9479 36.8075L19.6171 18.3423ZM11.2758 43.7329L19.6171 50.6583L34.9479 32.1931L26.6066 25.2677L11.2758 43.7329ZM19.6926 50.7205C18.7433 49.9453 17.9547 48.9883 17.3744 47.9031L38.5384 36.5856C37.6217 34.8714 36.375 33.3579 34.8725 32.1309L19.6926 50.7205ZM17.3744 47.9031C16.794 46.8178 16.4341 45.6268 16.3168 44.399L40.2081 42.1174C40.0231 40.1801 39.4551 38.2999 38.5384 36.5856L17.3744 47.9031ZM16.3168 44.399C16.1996 43.1711 16.3275 41.9326 16.6927 40.7555L39.6148 47.8673C40.1913 46.0093 40.3931 44.0549 40.2081 42.1174L16.3168 44.399ZM16.6927 40.7555C17.0579 39.5785 17.6525 38.4878 18.4403 37.5455L36.8537 52.9386C38.0992 51.4486 39.0383 49.7253 39.6148 47.8673L16.6927 40.7555ZM18.4403 37.5455C19.2279 36.6033 20.1928 35.8284 21.2776 35.2635L32.3624 56.5503C34.0813 55.6552 35.6082 54.4284 36.8537 52.9386L18.4403 37.5455ZM21.2776 35.2635C22.3624 34.6986 23.5468 34.3542 24.7626 34.2487L26.8376 58.1588C28.766 57.9915 30.6437 57.4453 32.3624 56.5503L21.2776 35.2635ZM24.7626 34.2487C25.9783 34.1432 27.2035 34.2784 28.3679 34.6473L21.12 57.5268C22.9662 58.1116 24.9092 58.3262 26.8376 58.1588L24.7626 34.2487ZM28.3679 34.6473C29.5324 35.0162 30.6147 35.612 31.5516 36.4023L16.0767 54.747C17.5595 55.9979 19.2738 56.9419 21.12 57.5268L28.3679 34.6473ZM31.48 36.3424L20.6413 27.3425L5.30945 45.807L16.1482 54.8069L31.48 36.3424ZM20.6396 27.3412C21.6874 28.2109 22.5336 29.3022 23.1155 30.5399L1.39635 40.7515C2.31536 42.7062 3.6528 44.4319 5.31106 45.8083L20.6396 27.3412ZM23.1155 30.5399C23.6975 31.7777 24 33.1299 24 34.5003L0 34.5003C0 36.6625 0.477269 38.7968 1.39635 40.7515L23.1155 30.5399ZM24 34.5003C24 35.8707 23.6975 37.2229 23.1155 38.4607L1.39635 28.249C0.477272 30.2038 0 32.3381 0 34.5003L24 34.5003ZM23.1155 38.4607C22.5336 39.6983 21.6874 40.7897 20.6396 41.6594L5.31106 23.1923C3.65279 24.5687 2.31535 26.2944 1.39635 28.249L23.1155 38.4607ZM20.6413 41.658L31.48 32.6582L16.1482 14.1937L5.30945 23.1936L20.6413 41.658ZM31.404 32.7207C29.5076 34.2693 27.0822 35.0029 24.6557 34.7728L26.921 10.88C23.0712 10.515 19.2265 11.6795 16.2242 14.1312L31.404 32.7207ZM24.6557 34.7728C22.2288 34.5427 19.981 33.3655 18.407 31.4827L36.8204 16.0896C34.3313 13.1122 30.7713 11.245 26.921 10.88L24.6557 34.7728ZM18.407 31.4827C16.8317 29.5984 16.0619 27.1616 16.2767 24.7036L40.1856 26.7934C40.5245 22.916 39.3107 19.0686 36.8204 16.0896L18.407 31.4827ZM16.2767 24.7036C16.4916 22.2458 17.6718 19.9828 19.5451 18.4025L35.02 36.7472C37.9845 34.2464 39.8467 30.6705 40.1856 26.7934L16.2767 24.7036ZM74.6905 23.1936L63.8518 14.1937L48.52 32.6582L59.3587 41.658L74.6905 23.1936ZM63.9233 14.2536C62.4405 13.0027 60.7262 12.0587 58.88 11.4738L51.6321 34.3533C50.4676 33.9844 49.3853 33.3886 48.4484 32.5983L63.9233 14.2536ZM58.88 11.4738C57.0338 10.889 55.0908 10.6744 53.1624 10.8417L55.2374 34.7519C54.0217 34.8574 52.7965 34.7221 51.6321 34.3533L58.88 11.4738ZM53.1624 10.8417C51.234 11.0091 49.3563 11.5553 47.6376 12.4503L58.7224 33.7371C57.6376 34.302 56.4532 34.6464 55.2374 34.7519L53.1624 10.8417ZM47.6376 12.4503C45.9187 13.3454 44.3918 14.5722 43.1463 16.062L61.5597 31.4551C60.7721 32.3973 59.8073 33.1722 58.7224 33.7371L47.6376 12.4503ZM43.1463 16.062C41.9008 17.552 40.9617 19.2752 40.3852 21.1332L63.3073 28.2451C62.9421 29.4221 62.3474 30.5128 61.5597 31.4551L43.1463 16.062ZM40.3852 21.1332C39.8087 22.9913 39.6069 24.9457 39.7919 26.8831L63.6832 24.6016C63.8004 25.8294 63.6725 27.0679 63.3073 28.2451L40.3852 21.1332ZM39.7919 26.8831C39.9769 28.8205 40.5449 30.7006 41.4616 32.415L62.6256 21.0975C63.206 22.1828 63.5659 23.3738 63.6832 24.6016L39.7919 26.8831ZM41.4616 32.415C42.3783 34.1292 43.625 35.6427 45.1275 36.8697L60.3074 18.2801C61.2567 19.0553 62.0453 20.0123 62.6256 21.0975L41.4616 32.415ZM45.0521 36.8075L53.3934 43.7329L68.7242 25.2677L60.3829 18.3423L45.0521 36.8075ZM53.3934 25.2677L45.0521 32.1931L60.3829 50.6583L68.7242 43.7329L53.3934 25.2677ZM45.1275 32.1309C43.625 33.3579 42.3783 34.8714 41.4616 36.5856L62.6256 47.9031C62.0453 48.9883 61.2567 49.9453 60.3074 50.7205L45.1275 32.1309ZM41.4616 36.5856C40.5449 38.2999 39.9769 40.1801 39.7919 42.1174L63.6832 44.399C63.5659 45.6268 63.206 46.8178 62.6256 47.9031L41.4616 36.5856ZM39.7919 42.1174C39.6069 44.0549 39.8087 46.0093 40.3852 47.8673L63.3073 40.7555C63.6725 41.9326 63.8004 43.1711 63.6832 44.399L39.7919 42.1174ZM40.3852 47.8673C40.9617 49.7253 41.9008 51.4486 43.1463 52.9386L61.5597 37.5455C62.3475 38.4878 62.9421 39.5785 63.3073 40.7555L40.3852 47.8673ZM43.1463 52.9386C44.3918 54.4284 45.9187 55.6552 47.6376 56.5503L58.7224 35.2635C59.8072 35.8284 60.7721 36.6033 61.5597 37.5455L43.1463 52.9386ZM47.6376 56.5503C49.3563 57.4453 51.234 57.9915 53.1624 58.1588L55.2374 34.2487C56.4532 34.3542 57.6376 34.6986 58.7224 35.2635L47.6376 56.5503ZM53.1624 58.1588C55.0908 58.3262 57.0338 58.1116 58.88 57.5268L51.6321 34.6473C52.7965 34.2784 54.0217 34.1432 55.2374 34.2487L53.1624 58.1588ZM58.88 57.5268C60.7262 56.9419 62.4405 55.9979 63.9233 54.747L48.4484 36.4023C49.3853 35.612 50.4676 35.0162 51.6321 34.6473L58.88 57.5268ZM63.8518 54.8069L74.6905 45.807L59.3587 27.3425L48.52 36.3424L63.8518 54.8069ZM74.6889 45.8083C76.3472 44.4319 77.6846 42.7062 78.6037 40.7515L56.8845 30.5399C57.4664 29.3022 58.3126 28.2108 59.3604 27.3412L74.6889 45.8083ZM78.6037 40.7515C79.5227 38.7968 80 36.6625 80 34.5003H56C56 33.1299 56.3025 31.7776 56.8845 30.5399L78.6037 40.7515ZM80 34.5003C80 32.3381 79.5227 30.2038 78.6037 28.249L56.8845 38.4607C56.3025 37.2229 56 35.8707 56 34.5003H80ZM78.6037 28.249C77.6846 26.2944 76.3472 24.5687 74.6889 23.1923L59.3604 41.6594C58.3126 40.7897 57.4664 39.6984 56.8845 38.4607L78.6037 28.249ZM52.2399 0.880442C50.4278 0.223828 48.5049 -0.0702585 46.5806 0.0141356L47.6322 23.9911C46.419 24.0443 45.2065 23.8589 44.0635 23.4447L52.2399 0.880442ZM46.5806 0.0141356C44.6563 0.0985304 42.7662 0.559851 41.0181 1.37301L51.1405 23.1339C50.0374 23.647 48.8454 23.9379 47.6322 23.9911L46.5806 0.0141356ZM41.0181 1.37301C39.2699 2.18622 37.6968 3.33595 36.3898 4.75862L54.0638 20.9952C53.2375 21.8947 52.2437 22.6207 51.1405 23.1339L41.0181 1.37301ZM36.3898 4.75862C35.0828 6.18138 34.0677 7.84915 33.4047 9.66761L55.9528 17.8885C55.5328 19.0403 54.8903 20.0957 54.0638 20.9952L36.3898 4.75862ZM33.406 9.6641L18.9543 49.2636L41.4998 57.4915L55.9515 17.892L33.406 9.6641ZM18.9512 49.2722C17.614 52.9448 17.7956 56.9974 19.4541 60.5349L41.1845 50.3472C42.2349 52.5877 42.3502 55.156 41.5029 57.4829L18.9512 49.2722ZM19.4541 60.5349C21.1119 64.071 24.1042 66.7933 27.7607 68.1181L35.936 45.5534C38.2423 46.389 40.1347 48.1081 41.1845 50.3472L19.4541 60.5349ZM27.7045 68.0976C29.3336 68.697 31.0555 69.0023 32.7902 69L32.7581 45C33.8609 44.9985 34.9559 45.1926 35.9922 45.5739L27.7045 68.0976ZM32.772 69C35.7821 69.0005 38.7233 68.0781 41.1964 66.3523L27.4618 46.6708C29.0234 45.581 30.8789 44.9997 32.7763 45L32.772 69ZM41.1964 66.3523C43.6699 64.6261 45.5573 62.1781 46.5944 59.3356L24.0482 51.1095C24.7051 49.3089 25.8996 47.761 27.4618 46.6708L41.1964 66.3523ZM46.594 59.3365L61.0457 19.737L38.5002 11.5091L24.0485 51.1086L46.594 59.3365ZM61.0456 19.7373C61.7092 17.919 62.0073 15.987 61.9218 14.052L37.9452 15.1111C37.891 13.8847 38.0799 12.6605 38.5003 11.5088L61.0456 19.7373ZM61.9218 14.052C61.8363 12.117 61.3691 10.2191 60.5482 8.46698L38.8153 18.6493C38.2955 17.5399 37.9994 16.3375 37.9452 15.1111L61.9218 14.052ZM60.5482 8.46698C59.7273 6.71492 58.5694 5.14399 57.1426 3.84266L40.9694 21.5747C40.0677 20.7523 39.335 19.7587 38.8153 18.6493L60.5482 8.46698ZM57.1426 3.84266C55.716 2.54144 54.0484 1.53511 52.2361 0.879072L44.0672 23.4461C42.9239 23.0322 41.871 22.3971 40.9694 21.5747L57.1426 3.84266Z" fill="#689BF7" mask="url(#path-1-outside-1_302_331)"/>
</svg>
