<svg width="74" height="75" viewBox="0 0 74 75" fill="none" xmlns="http://www.w3.org/2000/svg">
<rect x="27.3047" y="26.0894" width="22.142" height="11.071" fill="#FFC700"/>
<mask id="path-2-outside-1_155_545" maskUnits="userSpaceOnUse" x="-0.00976562" y="0.98877" width="74" height="74" fill="black">
<rect fill="white" x="-0.00976562" y="0.98877" width="74" height="74"/>
<path d="M48.5222 44.8179C45.9851 49.214 41.7435 51.7372 36.9 51.7372C32.0564 51.7372 27.8218 49.2163 25.2777 44.8179C24.9265 44.1832 24.8385 43.4361 25.0325 42.7373C25.2266 42.0384 25.6872 41.4436 26.3153 41.0809C26.9434 40.7182 27.6888 40.6165 28.3911 40.7978C29.0934 40.979 29.6964 41.4287 30.0706 42.0501C30.9678 43.6024 33.0482 46.2017 36.9 46.2017C40.7517 46.2017 42.8322 43.6 43.7294 42.0501C43.9074 41.7284 44.1478 41.4453 44.4365 41.2176C44.7251 40.9898 45.0563 40.8218 45.4106 40.7234C45.7649 40.625 46.1353 40.5982 46.5 40.6446C46.8648 40.691 47.2167 40.8096 47.5351 40.9935C47.8536 41.1774 48.1322 41.4228 48.3547 41.7156C48.5771 42.0084 48.7391 42.3425 48.831 42.6986C48.9229 43.0546 48.9429 43.4254 48.8899 43.7893C48.8369 44.1532 48.7119 44.5028 48.5222 44.8179ZM61.8097 37.8985C61.8097 42.8252 60.3488 47.6412 57.6116 51.7376C54.8745 55.834 50.9842 59.0267 46.4325 60.9121C41.8808 62.7974 36.8723 63.2907 32.0403 62.3296C27.2083 61.3684 22.7698 58.996 19.2861 55.5123C15.8024 52.0286 13.43 47.5901 12.4689 42.7581C11.5077 37.9261 12.001 32.9176 13.8864 28.366C15.7717 23.8143 18.9645 19.9239 23.0609 17.1868C27.1572 14.4497 31.9733 12.9888 36.9 12.9888C43.5042 12.9961 49.8358 15.6229 54.5057 20.2927C59.1756 24.9626 61.8024 31.2943 61.8097 37.8985ZM56.2742 37.8985C56.2742 34.0666 55.1379 30.3208 53.009 27.1347C50.8802 23.9487 47.8543 21.4654 44.3142 19.999C40.774 18.5326 36.8785 18.149 33.1202 18.8965C29.362 19.6441 25.9099 21.4893 23.2003 24.1988C20.4908 26.9084 18.6456 30.3605 17.898 34.1188C17.1505 37.877 17.5341 41.7725 19.0005 45.3127C20.4669 48.8529 22.9501 51.8787 26.1362 54.0076C29.3223 56.1364 33.0681 57.2727 36.9 57.2727C42.0366 57.2672 46.9614 55.2243 50.5935 51.5921C54.2257 47.9599 56.2687 43.0352 56.2742 37.8985ZM28.5967 36.9759C29.3266 36.9759 30.0401 36.7595 30.647 36.354C31.2538 35.9485 31.7268 35.3721 32.0061 34.6978C32.2855 34.0235 32.3585 33.2815 32.2161 32.5656C32.0738 31.8498 31.7223 31.1922 31.2062 30.6761C30.6901 30.16 30.0325 29.8085 29.3167 29.6662C28.6008 29.5238 27.8588 29.5968 27.1845 29.8762C26.5102 30.1555 25.9338 30.6285 25.5283 31.2353C25.1228 31.8422 24.9064 32.5557 24.9064 33.2856C24.9064 34.2643 25.2952 35.203 25.9873 35.895C26.6793 36.5871 27.618 36.9759 28.5967 36.9759ZM45.2032 29.5953C44.4733 29.5953 43.7598 29.8117 43.153 30.2172C42.5461 30.6227 42.0731 31.199 41.7938 31.8734C41.5145 32.5477 41.4414 33.2897 41.5838 34.0055C41.7262 34.7214 42.0776 35.3789 42.5938 35.895C43.1099 36.4111 43.7674 36.7626 44.4833 36.905C45.1991 37.0474 45.9411 36.9743 46.6154 36.695C47.2898 36.4157 47.8661 35.9427 48.2716 35.3358C48.6771 34.7289 48.8935 34.0155 48.8935 33.2856C48.8935 32.3068 48.5047 31.3682 47.8127 30.6761C47.1206 29.9841 46.1819 29.5953 45.2032 29.5953Z"/>
</mask>
<path d="M48.5222 44.8179C45.9851 49.214 41.7435 51.7372 36.9 51.7372C32.0564 51.7372 27.8218 49.2163 25.2777 44.8179C24.9265 44.1832 24.8385 43.4361 25.0325 42.7373C25.2266 42.0384 25.6872 41.4436 26.3153 41.0809C26.9434 40.7182 27.6888 40.6165 28.3911 40.7978C29.0934 40.979 29.6964 41.4287 30.0706 42.0501C30.9678 43.6024 33.0482 46.2017 36.9 46.2017C40.7517 46.2017 42.8322 43.6 43.7294 42.0501C43.9074 41.7284 44.1478 41.4453 44.4365 41.2176C44.7251 40.9898 45.0563 40.8218 45.4106 40.7234C45.7649 40.625 46.1353 40.5982 46.5 40.6446C46.8648 40.691 47.2167 40.8096 47.5351 40.9935C47.8536 41.1774 48.1322 41.4228 48.3547 41.7156C48.5771 42.0084 48.7391 42.3425 48.831 42.6986C48.9229 43.0546 48.9429 43.4254 48.8899 43.7893C48.8369 44.1532 48.7119 44.5028 48.5222 44.8179ZM61.8097 37.8985C61.8097 42.8252 60.3488 47.6412 57.6116 51.7376C54.8745 55.834 50.9842 59.0267 46.4325 60.9121C41.8808 62.7974 36.8723 63.2907 32.0403 62.3296C27.2083 61.3684 22.7698 58.996 19.2861 55.5123C15.8024 52.0286 13.43 47.5901 12.4689 42.7581C11.5077 37.9261 12.001 32.9176 13.8864 28.366C15.7717 23.8143 18.9645 19.9239 23.0609 17.1868C27.1572 14.4497 31.9733 12.9888 36.9 12.9888C43.5042 12.9961 49.8358 15.6229 54.5057 20.2927C59.1756 24.9626 61.8024 31.2943 61.8097 37.8985ZM56.2742 37.8985C56.2742 34.0666 55.1379 30.3208 53.009 27.1347C50.8802 23.9487 47.8543 21.4654 44.3142 19.999C40.774 18.5326 36.8785 18.149 33.1202 18.8965C29.362 19.6441 25.9099 21.4893 23.2003 24.1988C20.4908 26.9084 18.6456 30.3605 17.898 34.1188C17.1505 37.877 17.5341 41.7725 19.0005 45.3127C20.4669 48.8529 22.9501 51.8787 26.1362 54.0076C29.3223 56.1364 33.0681 57.2727 36.9 57.2727C42.0366 57.2672 46.9614 55.2243 50.5935 51.5921C54.2257 47.9599 56.2687 43.0352 56.2742 37.8985ZM28.5967 36.9759C29.3266 36.9759 30.0401 36.7595 30.647 36.354C31.2538 35.9485 31.7268 35.3721 32.0061 34.6978C32.2855 34.0235 32.3585 33.2815 32.2161 32.5656C32.0738 31.8498 31.7223 31.1922 31.2062 30.6761C30.6901 30.16 30.0325 29.8085 29.3167 29.6662C28.6008 29.5238 27.8588 29.5968 27.1845 29.8762C26.5102 30.1555 25.9338 30.6285 25.5283 31.2353C25.1228 31.8422 24.9064 32.5557 24.9064 33.2856C24.9064 34.2643 25.2952 35.203 25.9873 35.895C26.6793 36.5871 27.618 36.9759 28.5967 36.9759ZM45.2032 29.5953C44.4733 29.5953 43.7598 29.8117 43.153 30.2172C42.5461 30.6227 42.0731 31.199 41.7938 31.8734C41.5145 32.5477 41.4414 33.2897 41.5838 34.0055C41.7262 34.7214 42.0776 35.3789 42.5938 35.895C43.1099 36.4111 43.7674 36.7626 44.4833 36.905C45.1991 37.0474 45.9411 36.9743 46.6154 36.695C47.2898 36.4157 47.8661 35.9427 48.2716 35.3358C48.6771 34.7289 48.8935 34.0155 48.8935 33.2856C48.8935 32.3068 48.5047 31.3682 47.8127 30.6761C47.1206 29.9841 46.1819 29.5953 45.2032 29.5953Z" fill="black"/>
<path d="M48.5222 44.8179L38.2416 38.6283L38.1844 38.7234L38.1289 38.8196L48.5222 44.8179ZM25.2777 44.8179L14.7783 50.6283L14.8333 50.7277L14.8901 50.826L25.2777 44.8179ZM30.0706 42.0501L40.4599 36.045L40.4063 35.9523L40.3511 35.8606L30.0706 42.0501ZM43.7294 42.0501L54.1148 48.0619L54.1728 47.9618L54.2288 47.8606L43.7294 42.0501ZM61.8097 37.8985H73.8097L73.8097 37.8852L61.8097 37.8985ZM36.9 12.9888L36.9133 0.98877H36.9V12.9888ZM56.2742 37.8985L68.2742 37.9113V37.8985H56.2742ZM36.9 57.2727V69.2727L36.9128 69.2727L36.9 57.2727ZM38.1289 38.8196C37.8203 39.3543 37.5467 39.55 37.4382 39.6145C37.3405 39.6727 37.1947 39.7372 36.9 39.7372V63.7372C46.2729 63.7372 54.3586 58.712 58.9155 50.8161L38.1289 38.8196ZM36.9 39.7372C36.6044 39.7372 36.4608 39.6729 36.3652 39.6159C36.258 39.5521 35.9805 39.3545 35.6653 38.8097L14.8901 50.826C19.45 58.7096 27.521 63.7372 36.9 63.7372V39.7372ZM35.7772 39.0074C36.9487 41.1242 37.2424 43.6164 36.5951 45.9476L13.4699 39.527C12.4346 43.2559 12.9044 47.2423 14.7783 50.6283L35.7772 39.0074ZM36.5951 45.9476C35.9479 48.2788 34.4114 50.2627 32.3163 51.4726L20.3143 30.6892C16.963 32.6245 14.5052 35.798 13.4699 39.527L36.5951 45.9476ZM32.3163 51.4726C30.2212 52.6825 27.7348 53.0216 25.3922 52.417L31.3899 29.1785C27.6427 28.2114 23.6656 28.7539 20.3143 30.6892L32.3163 51.4726ZM25.3922 52.417C23.0496 51.8124 21.0379 50.3123 19.79 48.2396L40.3511 35.8606C38.355 32.5451 35.1372 30.1457 31.3899 29.1785L25.3922 52.417ZM19.6812 48.0552C21.4446 51.1061 26.709 58.2017 36.9 58.2017V34.2017C37.317 34.2017 37.8289 34.2773 38.3679 34.4696C38.8929 34.657 39.3143 34.9085 39.6243 35.1435C40.1799 35.5644 40.4011 35.9432 40.4599 36.045L19.6812 48.0552ZM36.9 58.2017C47.0946 58.2017 52.3572 51.0983 54.1148 48.0619L33.3439 36.0383C33.4005 35.9406 33.62 35.5637 34.174 35.1438C34.4834 34.9093 34.9044 34.6578 35.4297 34.4702C35.9689 34.2776 36.4817 34.2017 36.9 34.2017V58.2017ZM54.2288 47.8606C53.6349 48.9338 52.8331 49.8779 51.8702 50.6377L37.0027 31.7974C35.4625 33.0128 34.1799 34.523 33.2299 36.2396L54.2288 47.8606ZM51.8702 50.6377C50.9074 51.3975 49.8027 51.9579 48.6209 52.286L42.2003 29.1608C40.3098 29.6857 38.5429 30.582 37.0027 31.7974L51.8702 50.6377ZM48.6209 52.286C47.439 52.6142 46.2036 52.7035 44.9869 52.5488L48.0132 28.7404C46.0669 28.493 44.0908 28.6359 42.2003 29.1608L48.6209 52.286ZM44.9869 52.5488C43.7701 52.3942 42.5963 51.9986 41.5341 51.3852L53.5361 30.6017C51.8371 29.6206 49.9596 28.9878 48.0132 28.7404L44.9869 52.5488ZM41.5341 51.3852C40.472 50.7718 39.5427 49.9529 38.8005 48.9763L57.9088 34.4549C56.7217 32.8928 55.2351 31.5829 53.5361 30.6017L41.5341 51.3852ZM38.8005 48.9763C38.0583 47.9997 37.5182 46.8851 37.2117 45.6975L60.4502 39.6997C59.9599 37.8 59.096 36.017 57.9088 34.4549L38.8005 48.9763ZM37.2117 45.6975C36.9052 44.5099 36.8384 43.273 37.0152 42.0592L60.7645 45.5194C61.0474 43.5778 60.9405 41.5994 60.4502 39.6997L37.2117 45.6975ZM37.0152 42.0592C37.1921 40.8455 37.609 39.6791 38.2416 38.6283L58.8027 51.0074C59.8147 49.3265 60.4816 47.4609 60.7645 45.5194L37.0152 42.0592ZM49.8097 37.8985C49.8097 40.4518 49.0525 42.9478 47.634 45.0707L67.5893 58.4044C71.645 52.3347 73.8097 45.1985 73.8097 37.8985H49.8097ZM47.634 45.0707C46.2155 47.1937 44.1992 48.8484 41.8403 49.8255L51.0247 71.9986C57.7691 69.205 63.5336 64.4742 67.5893 58.4044L47.634 45.0707ZM41.8403 49.8255C39.4814 50.8026 36.8856 51.0583 34.3814 50.5602L29.6992 74.099C36.859 75.5232 44.2803 74.7922 51.0247 71.9986L41.8403 49.8255ZM34.3814 50.5602C31.8772 50.062 29.5769 48.8325 27.7714 47.027L10.8009 63.9976C15.9628 69.1595 22.5395 72.6748 29.6992 74.099L34.3814 50.5602ZM27.7714 47.027C25.966 45.2216 24.7364 42.9213 24.2383 40.4171L0.699455 45.0992C2.12362 52.259 5.63894 58.8357 10.8009 63.9976L27.7714 47.027ZM24.2383 40.4171C23.7402 37.9128 23.9958 35.3171 24.9729 32.9582L2.79983 23.7738C0.00622177 30.5181 -0.724714 37.9394 0.699455 45.0992L24.2383 40.4171ZM24.9729 32.9582C25.95 30.5992 27.6047 28.583 29.7277 27.1645L16.394 7.20918C10.3243 11.2649 5.59344 17.0294 2.79983 23.7738L24.9729 32.9582ZM29.7277 27.1645C31.8507 25.7459 34.3467 24.9888 36.9 24.9888V0.98877C29.5999 0.98877 22.4638 3.15349 16.394 7.20918L29.7277 27.1645ZM36.8867 24.9888C40.3129 24.9926 43.5977 26.3553 46.0204 28.778L62.991 11.8075C56.0739 4.8904 46.6955 0.999628 36.9133 0.988777L36.8867 24.9888ZM46.0204 28.778C48.4431 31.2007 49.8059 34.4856 49.8097 37.9118L73.8097 37.8852C73.7988 28.103 69.9081 18.7245 62.991 11.8075L46.0204 28.778ZM68.2742 37.8985C68.2742 31.6933 66.4341 25.6274 62.9867 20.4679L43.0314 33.8016C43.8417 35.0143 44.2742 36.44 44.2742 37.8985H68.2742ZM62.9867 20.4679C59.5392 15.3084 54.6393 11.2871 48.9064 8.91248L39.722 31.0856C41.0694 31.6437 42.2211 32.5889 43.0314 33.8016L62.9867 20.4679ZM48.9064 8.91248C43.1735 6.53784 36.8652 5.91653 30.7792 7.12711L35.4613 30.666C36.8918 30.3814 38.3745 30.5275 39.722 31.0856L48.9064 8.91248ZM30.7792 7.12711C24.6932 8.33769 19.1028 11.3258 14.715 15.7136L31.6856 32.6841C32.7169 31.6528 34.0309 30.9505 35.4613 30.666L30.7792 7.12711ZM14.715 15.7136C10.3273 20.1013 7.33917 25.6917 6.12859 31.7777L29.6674 36.4599C29.952 35.0294 30.6543 33.7154 31.6856 32.6841L14.715 15.7136ZM6.12859 31.7777C4.918 37.8637 5.53932 44.172 7.91396 49.9049L30.0871 40.7205C29.5289 39.373 29.3829 37.8903 29.6674 36.4599L6.12859 31.7777ZM7.91396 49.9049C10.2886 55.6378 14.3099 60.5378 19.4694 63.9852L32.8031 44.0299C31.5904 43.2196 30.6452 42.0679 30.0871 40.7205L7.91396 49.9049ZM19.4694 63.9852C24.6288 67.4327 30.6947 69.2727 36.9 69.2727V45.2727C35.4415 45.2727 34.0158 44.8402 32.8031 44.0299L19.4694 63.9852ZM36.9128 69.2727C45.2276 69.2638 53.1994 65.9568 59.0788 60.0774L42.1083 43.1068C40.7234 44.4917 38.8457 45.2706 36.8871 45.2727L36.9128 69.2727ZM59.0788 60.0774C64.9583 54.1979 68.2653 46.2262 68.2742 37.9113L44.2742 37.8857C44.2721 39.8442 43.4932 41.7219 42.1083 43.1068L59.0788 60.0774ZM28.5967 48.9759C31.7 48.9759 34.7335 48.0557 37.3138 46.3316L23.9801 26.3763C25.3466 25.4633 26.9532 24.9759 28.5967 24.9759V48.9759ZM37.3138 46.3316C39.8941 44.6075 41.9051 42.157 43.0927 39.29L20.9196 30.1056C21.5485 28.5872 22.6136 27.2894 23.9801 26.3763L37.3138 46.3316ZM43.0927 39.29C44.2803 36.423 44.591 33.2682 43.9856 30.2245L20.4467 34.9067C20.1261 33.2948 20.2907 31.624 20.9196 30.1056L43.0927 39.29ZM43.9856 30.2245C43.3802 27.1809 41.8858 24.3852 39.6915 22.1908L22.7209 39.1614C21.5588 37.9993 20.7674 36.5186 20.4467 34.9067L43.9856 30.2245ZM39.6915 22.1908C37.4971 19.9965 34.7014 18.5022 31.6578 17.8967L26.9756 41.4356C25.3637 41.1149 23.883 40.3235 22.7209 39.1614L39.6915 22.1908ZM31.6578 17.8967C28.6141 17.2913 25.4593 17.602 22.5923 18.7896L31.7767 40.9627C30.2583 41.5917 28.5875 41.7562 26.9756 41.4356L31.6578 17.8967ZM22.5923 18.7896C19.7253 19.9772 17.2748 21.9882 15.5507 24.5685L35.506 37.9022C34.5929 39.2687 33.2951 40.3338 31.7767 40.9627L22.5923 18.7896ZM15.5507 24.5685C13.8266 27.1488 12.9064 30.1823 12.9064 33.2856H36.9064C36.9064 34.9291 36.419 36.5357 35.506 37.9022L15.5507 24.5685ZM12.9064 33.2856C12.9064 37.4469 14.5595 41.4378 17.502 44.3803L34.4726 27.4098C36.0309 28.9681 36.9064 31.0817 36.9064 33.2856H12.9064ZM17.502 44.3803C20.4445 47.3228 24.4354 48.9759 28.5967 48.9759V24.9759C30.8006 24.9759 32.9142 25.8514 34.4726 27.4098L17.502 44.3803ZM45.2032 17.5953C42.1 17.5953 39.0664 18.5155 36.4861 20.2395L49.8198 40.1948C48.4533 41.1079 46.8467 41.5953 45.2032 41.5953V17.5953ZM36.4861 20.2395C33.9059 21.9636 31.8948 24.4141 30.7072 27.2812L52.8803 36.4656C52.2514 37.9839 51.1863 39.2817 49.8198 40.1948L36.4861 20.2395ZM30.7072 27.2812C29.5197 30.1482 29.2089 33.303 29.8144 36.3466L53.3532 31.6644C53.6738 33.2764 53.5093 34.9472 52.8803 36.4656L30.7072 27.2812ZM29.8144 36.3466C30.4198 39.3902 31.9141 42.186 34.1085 44.3803L51.079 27.4098C52.2411 28.5719 53.0326 30.0525 53.3532 31.6644L29.8144 36.3466ZM34.1085 44.3803C36.3028 46.5746 39.0985 48.069 42.1422 48.6744L46.8243 25.1356C48.4363 25.4562 49.9169 26.2476 51.079 27.4098L34.1085 44.3803ZM42.1422 48.6744C45.1858 49.2798 48.3406 48.9691 51.2076 47.7816L42.0232 25.6084C43.5416 24.9795 45.2124 24.8149 46.8243 25.1356L42.1422 48.6744ZM51.2076 47.7816C54.0747 46.594 56.5252 44.5829 58.2492 42.0027L38.294 28.669C39.207 27.3025 40.5048 26.2374 42.0232 25.6084L51.2076 47.7816ZM58.2492 42.0027C59.9733 39.4224 60.8935 36.3888 60.8935 33.2856H36.8935C36.8935 31.6421 37.3809 30.0355 38.294 28.669L58.2492 42.0027ZM60.8935 33.2856C60.8935 29.1242 59.2404 25.1333 56.2979 22.1908L39.3274 39.1614C37.769 37.603 36.8935 35.4895 36.8935 33.2856H60.8935ZM56.2979 22.1908C53.3554 19.2483 49.3645 17.5953 45.2032 17.5953V41.5953C42.9993 41.5953 40.8857 40.7198 39.3274 39.1614L56.2979 22.1908Z" fill="#FFC700" mask="url(#path-2-outside-1_155_545)"/>
</svg>
