<svg width="72" height="72" viewBox="0 0 72 72" fill="none" xmlns="http://www.w3.org/2000/svg">
<path d="M55.4596 11.6753H26.2704C24.9801 11.6753 23.7427 12.1878 22.8304 13.1002C21.9181 14.0125 21.4055 15.2499 21.4055 16.5402V19.4591H16.5406C15.2504 19.4591 14.013 19.9716 13.1007 20.884C12.1883 21.7963 11.6758 23.0337 11.6758 24.3239V55.4591C11.6758 56.7493 12.1883 57.9867 13.1007 58.899C14.013 59.8114 15.2504 60.3239 16.5406 60.3239H47.6758C48.966 60.3239 50.2034 59.8114 51.1158 58.899C52.0281 57.9867 52.5406 56.7493 52.5406 55.4591V50.5942H55.4596C56.7498 50.5942 57.9872 50.0817 58.8995 49.1693C59.8119 48.257 60.3244 47.0196 60.3244 45.7293V16.5402C60.3244 15.2499 59.8119 14.0125 58.8995 13.1002C57.9872 12.1878 56.7498 11.6753 55.4596 11.6753ZM27.2433 17.5131H54.4866V31.1347L52.0882 29.6412C51.1759 28.7292 49.9387 28.2169 48.6487 28.2169C47.3588 28.2169 46.1216 28.7292 45.2093 29.6412L30.0942 44.7564H27.2433V17.5131ZM46.7028 54.4861H17.5136V25.2969H21.4055V45.7293C21.4055 47.0196 21.9181 48.257 22.8304 49.1693C23.7427 50.0817 24.9801 50.5942 26.2704 50.5942H46.7028V54.4861ZM38.3498 44.7564L48.6487 34.4575L54.4866 40.2953V44.7564H38.3498ZM31.1352 26.2699C31.1352 25.3077 31.4206 24.3671 31.9551 23.5671C32.4897 22.7671 33.2495 22.1435 34.1384 21.7753C35.0273 21.4071 36.0055 21.3108 36.9492 21.4985C37.8929 21.6862 38.7597 22.1495 39.4401 22.8299C40.1204 23.5103 40.5838 24.3771 40.7715 25.3208C40.9592 26.2645 40.8629 27.2427 40.4946 28.1316C40.1264 29.0205 39.5029 29.7803 38.7029 30.3149C37.9029 30.8494 36.9623 31.1347 36.0001 31.1347C34.7099 31.1347 33.4725 30.6222 32.5601 29.7099C31.6478 28.7975 31.1352 27.5601 31.1352 26.2699Z" fill="#635C7F"/>
<path fill-rule="evenodd" clip-rule="evenodd" d="M21.4054 25.2973H17.5135V54.4865H46.7027V50.5946H26.2703C25.2116 50.5946 24.1885 50.2495 23.3514 49.6216C23.1682 49.4843 22.994 49.3335 22.8303 49.1697C22.6666 49.006 22.5157 48.8318 22.3784 48.6486C21.7505 47.8115 21.4054 46.7884 21.4054 45.7297V25.2973ZM27.2432 44.7568H30.0941L45.2092 29.6416C45.3732 29.4777 45.5477 29.3266 45.7311 29.1892C46.568 28.562 47.5905 28.2173 48.6486 28.2173C49.7068 28.2173 50.7293 28.562 51.5662 29.1892C51.7496 29.3266 51.9241 29.4777 52.0881 29.6416L54.4865 31.1351V17.5135H27.2432V44.7568ZM38.9189 30.1622C39.289 29.8846 39.6163 29.5567 39.8919 29.1892C39.9449 29.1186 39.9959 29.0465 40.045 28.973C40.2212 28.7094 40.372 28.4278 40.4945 28.132C40.6901 27.6598 40.809 27.1625 40.8493 26.6585C40.8597 26.5294 40.8649 26.3999 40.8649 26.2703C40.8649 26.0991 40.8558 25.9278 40.8377 25.7569C40.8222 25.6111 40.8001 25.4658 40.7714 25.3212C40.7614 25.2711 40.7507 25.2212 40.7392 25.1716C40.7391 25.171 40.7389 25.1704 40.7388 25.1699C40.5855 24.5096 40.2963 23.8905 39.8919 23.3514C39.7543 23.1679 39.6034 22.9937 39.44 22.8303C39.2765 22.6669 39.1024 22.5159 38.9189 22.3784C38.3801 21.9743 37.7616 21.6852 37.1018 21.5318C37.1008 21.5316 37.0997 21.5313 37.0987 21.5311C37.049 21.5196 36.9992 21.5088 36.9491 21.4989C36.9185 21.4928 36.888 21.487 36.8574 21.4815C36.5732 21.4307 36.2863 21.4054 36 21.4054C35.3642 21.4054 34.7314 21.5301 34.1383 21.7757C33.8425 21.8983 33.5609 22.0491 33.2972 22.2253C33.2238 22.2744 33.1517 22.3254 33.0811 22.3784C32.7136 22.654 32.3856 22.9813 32.1081 23.3514C32.0552 23.4219 32.0042 23.4939 31.955 23.5675C31.7771 23.8337 31.6268 24.1156 31.5054 24.4086C31.3866 24.6955 31.2955 24.9931 31.2334 25.2973C31.1684 25.616 31.1351 25.9419 31.1351 26.2703C31.1351 26.5597 31.1609 26.8466 31.2113 27.1276C31.2167 27.1583 31.2225 27.1889 31.2286 27.2194C31.3704 27.9323 31.6706 28.6059 32.1081 29.1892C32.2454 29.3723 32.3963 29.5465 32.56 29.7102C32.7238 29.874 32.898 30.0249 33.0811 30.1622C33.6644 30.5997 34.3379 30.8998 35.0509 31.0417C35.1947 31.0703 35.34 31.0924 35.4866 31.108C35.6564 31.126 35.8277 31.1351 36 31.1351C36.642 31.1351 37.2743 31.0081 37.8617 30.7648C38.1547 30.6435 38.4365 30.4932 38.7028 30.3153C38.7763 30.2661 38.8484 30.215 38.9189 30.1622ZM55.4595 11.6757C56.7497 11.6757 57.9871 12.1882 58.8994 13.1006C59.8118 14.0129 60.3243 15.2503 60.3243 16.5405V45.7297C60.3243 46.5787 60.1024 47.4047 59.6908 48.1304C59.4768 48.5076 59.2115 48.8577 58.8994 49.1697C58.7357 49.3335 58.5615 49.4843 58.3784 49.6216C57.5412 50.2495 56.5181 50.5946 55.4595 50.5946H52.5405V55.4595C52.5405 55.7887 52.5072 56.1146 52.4423 56.4324C52.2529 57.3601 51.7952 58.2199 51.1157 58.8994C50.2033 59.8118 48.9659 60.3243 47.6757 60.3243H16.5405C15.2503 60.3243 14.0129 59.8118 13.1006 58.8994C12.4211 58.2199 11.9633 57.3601 11.7739 56.4324C11.7091 56.1146 11.6757 55.7887 11.6757 55.4595V24.3243C11.6757 23.0341 12.1882 21.7967 13.1006 20.8843C13.7801 20.2048 14.6399 19.7471 15.5676 19.5577C15.8854 19.4928 16.2113 19.4595 16.5405 19.4595H21.4054V16.5405C21.4054 15.4819 21.7505 14.4588 22.3784 13.6216C22.5157 13.4385 22.6666 13.2643 22.8303 13.1006C23.7426 12.1882 24.98 11.6757 26.2703 11.6757H55.4595ZM63.5324 60.1664C64.849 59.4303 66.0698 58.5112 67.1554 57.4257C70.2573 54.3237 72 50.1166 72 45.7297V16.5405C72 12.1537 70.2573 7.94657 67.1554 4.84461C64.0534 1.74266 59.8463 0 55.4595 0H26.2703C21.8834 0 17.6763 1.74266 14.5743 4.84461C13.4888 5.93016 12.5697 7.15105 11.8336 8.46763C9.21732 9.24433 6.80929 10.6637 4.84461 12.6284C1.74266 15.7303 0 19.9375 0 24.3243V55.4595C0 59.8463 1.74266 64.0534 4.84461 67.1554C7.94657 70.2573 12.1537 72 16.5405 72H47.6757C52.0625 72 56.2697 70.2573 59.3716 67.1554C61.3363 65.1907 62.7557 62.7827 63.5324 60.1664ZM54.4865 40.2957V44.7568H38.3497L48.6486 34.4578L54.4865 40.2957Z" fill="#C6B9FF"/>
</svg>
