<svg width="198" height="192" viewBox="0 0 198 192" fill="none" xmlns="http://www.w3.org/2000/svg">
<path d="M115.908 7.90802C126.452 -2.63601 143.547 -2.63601 154.092 7.90802C161.688 15.5048 163.81 26.5021 160.461 36H165C183.225 36 197.999 50.7746 197.999 68.9999V159C197.999 177.225 183.225 192 165 192H32.9999C14.7746 192 0 177.225 0 159V68.9999C8.50417e-05 50.7746 14.7746 36 32.9999 36H37.5387C34.1889 26.5021 36.3111 15.5048 43.9078 7.90802C54.4519 -2.63601 71.5477 -2.63601 82.0918 7.90802L98.9997 24.8159L115.908 7.90802Z" fill="#0DAE57"/>
<path d="M144 105C148.971 105 153 100.971 153 96C153 91.0294 148.971 87 144 87C139.029 87 135 91.0294 135 96C135 100.971 139.029 105 144 105Z" fill="#065B2D"/>
<path d="M144 141C148.971 141 153 136.97 153 132C153 127.029 148.971 123 144 123C139.029 123 135 127.029 135 132C135 136.97 139.029 141 144 141Z" fill="#065B2D"/>
<path d="M123 69.0001V159H165V69.0001H123ZM33 159H111V69.0001H33V159ZM177 159C177 165.627 171.627 171 165 171H33C26.3726 171 21 165.627 21 159V69.0001C21 62.3727 26.3726 57.0002 33 57.0002H84.514L58.757 31.2432C56.4138 28.9 56.4138 25.1005 58.757 22.7574C61.1001 20.4142 64.8996 20.4142 67.2428 22.7574L98.9998 54.5143L130.757 22.7574C133.1 20.4142 136.899 20.4142 139.243 22.7574C141.586 25.1005 141.586 28.9 139.243 31.2432L113.486 57.0002H165C171.627 57.0002 177 62.3727 177 69.0001V159Z" fill="#065B2D"/>
</svg>
