<svg width="84" height="69" viewBox="0 0 84 69" fill="none" xmlns="http://www.w3.org/2000/svg">
<path d="M67.3753 29.6675C67.0095 29.456 60.8689 25.9716 52.5016 25.3394C50.8725 21.7701 48.3775 18.851 45.3094 16.9693C40.9902 14.3098 35.8376 13.8351 30.4011 15.5833C19.5322 19.0784 15.599 31.0441 15.4372 31.5506C15.2294 32.1973 15.2871 32.9001 15.5975 33.5043C15.9079 34.1084 16.4456 34.5646 17.0923 34.7723C17.739 34.9801 18.4417 34.9224 19.0459 34.612C19.6501 34.3016 20.1062 33.7639 20.314 33.1172C20.3421 33.0096 23.5761 23.1519 31.9672 20.4536C35.9954 19.1583 39.582 19.4492 42.6307 21.3192C44.2764 22.3528 45.671 23.7401 46.7132 25.3804C44.5624 25.5968 42.4406 26.0404 40.3833 26.7038C34.9042 28.4657 30.7447 31.3998 28.3666 35.1874C26.2258 38.5986 25.6501 42.588 26.7902 46.1332C28.5005 51.452 34.1774 55.5691 41.7203 53.1436C52.2584 49.7548 55.801 39.5964 54.1726 30.682C57.8847 31.2107 61.4811 32.3615 64.8105 34.0861C65.1013 34.2757 65.4276 34.4042 65.7695 34.4637C66.1115 34.5232 66.462 34.5125 66.7997 34.4322C67.1374 34.3519 67.4553 34.2037 67.7338 33.9966C68.0124 33.7895 68.246 33.5279 68.4202 33.2277C68.5945 32.9275 68.7058 32.595 68.7475 32.2504C68.7891 31.9058 68.7601 31.5563 68.6624 31.2232C68.5646 30.8901 68.4001 30.5805 68.1788 30.313C67.9576 30.0456 67.6842 29.8259 67.3753 29.6675ZM48.3935 40.6394C47.3762 43.2415 45.1218 46.6758 40.1541 48.2733C35.5821 49.7435 32.5943 47.471 31.6605 44.567C30.3012 40.34 32.9414 34.4708 41.9494 31.5741C44.1919 30.8596 46.5223 30.4583 48.8746 30.3817C49.7672 33.8609 49.602 37.5459 48.3935 40.6394Z" fill="#766F99"/>
<path fill-rule="evenodd" clip-rule="evenodd" d="M53.8958 40.1847C53.9732 39.8787 54.0436 39.5709 54.1071 39.2615C54.4099 37.7856 54.5546 36.2742 54.5495 34.7638C54.5454 33.5331 54.4418 32.3032 54.2433 31.0937C54.2208 30.9562 54.1969 30.8188 54.1719 30.6818C54.2073 30.6868 54.2427 30.6919 54.2781 30.6971C57.1254 31.1119 59.9037 31.893 62.5445 33.0184C63.0242 33.2228 63.4994 33.4386 63.9696 33.6655C64.0024 33.6814 64.0352 33.6973 64.068 33.7133C64.3167 33.8343 64.564 33.9585 64.8098 34.0859C64.8122 34.0875 64.8146 34.089 64.8171 34.0906C64.8893 34.1373 64.9636 34.1803 65.0399 34.2194C65.2687 34.3368 65.5144 34.4192 65.7688 34.4635C66.1108 34.523 66.4613 34.5122 66.799 34.4319C67.1367 34.3516 67.4545 34.2034 67.7331 33.9964C68.0117 33.7893 68.2452 33.5277 68.4195 33.2275C68.5079 33.0752 68.5801 32.9147 68.6352 32.7484C68.6888 32.5869 68.7262 32.42 68.7467 32.2501C68.7884 31.9055 68.7594 31.5561 68.6617 31.223C68.5639 30.8899 68.3994 30.5802 68.1781 30.3128C68.0135 30.1138 67.8201 29.9414 67.6047 29.8009C67.5305 29.7525 67.4537 29.7079 67.3746 29.6673C67.3437 29.6495 67.2717 29.6083 67.1607 29.5475C67.0412 29.482 66.8765 29.3938 66.6693 29.2875C66.5655 29.2343 66.4511 29.1765 66.3264 29.1147C66.0711 28.9883 65.7726 28.8453 65.4337 28.6905C65.3997 28.675 65.3652 28.6593 65.3304 28.6435C64.7359 28.3745 64.0238 28.0726 63.2084 27.7626C63.1585 27.7436 63.1082 27.7246 63.0575 27.7055C62.5647 27.5205 62.0357 27.3332 61.4735 27.1488C59.8712 26.6233 57.9991 26.1216 55.9272 25.7646C55.5885 25.7063 55.2444 25.6518 54.8954 25.6017C54.1209 25.4906 53.3216 25.4012 52.5009 25.3392C52.0682 24.3912 51.5744 23.489 51.025 22.64C50.2862 21.4981 49.4468 20.4524 48.5201 19.5204C47.7118 18.7073 46.837 17.9807 45.9047 17.3525C45.7211 17.2287 45.5352 17.1088 45.3472 16.9927C45.3343 16.9848 45.3215 16.9769 45.3087 16.969C45.3061 16.9675 45.3036 16.9659 45.3011 16.9644C44.8659 16.6968 44.4224 16.4513 43.9709 16.2281C41.6546 15.0827 39.1305 14.5218 36.4745 14.5506C36.4709 14.5507 36.4673 14.5507 36.4637 14.5508C36.4533 14.5509 36.443 14.551 36.4326 14.5511C34.4827 14.5768 32.4619 14.9201 30.4004 15.5831C26.8503 16.7246 24.0402 18.7699 21.8598 21.0243C21.6768 21.2135 21.4983 21.4041 21.3242 21.5958C19.3181 23.804 17.8915 26.1532 16.945 28.0163C16.9446 28.0172 16.9442 28.018 16.9438 28.0188C16.7075 28.4839 16.5012 28.9188 16.3233 29.3135C15.756 30.572 15.4771 31.4231 15.4364 31.5504C15.4075 31.6406 15.3836 31.7319 15.365 31.8239C15.2497 32.3912 15.3297 32.9841 15.5968 33.504C15.9072 34.1082 16.4449 34.5643 17.0916 34.7721C17.3735 34.8626 17.666 34.9028 17.9564 34.8935C18.3322 34.8815 18.7044 34.7869 19.0452 34.6118C19.6494 34.3014 20.1055 33.7637 20.3132 33.117C20.3136 33.1157 20.3144 33.1129 20.3157 33.1087C20.3472 33.0074 20.6589 32.0781 21.3007 30.7531C21.301 30.7526 21.3012 30.7521 21.3014 30.7516C21.3393 30.6735 21.3783 30.594 21.4184 30.5132C22.3644 28.6098 23.9528 25.9923 26.3171 23.8184C27.8582 22.4014 29.729 21.1729 31.9665 20.4534C33.8693 19.8415 35.6737 19.5835 37.3693 19.6788C37.6285 19.6934 37.8853 19.7162 38.1394 19.7473C38.1416 19.7476 38.1437 19.7478 38.1459 19.7481C38.1579 19.7496 38.1698 19.7511 38.1818 19.7526C39.7682 19.9526 41.2539 20.4749 42.63 21.319C42.63 21.319 42.6301 21.3191 42.6302 21.3191C42.6327 21.3207 42.6353 21.3223 42.6378 21.3239C44.2801 22.357 45.6719 23.7425 46.7125 25.3801C44.5662 25.5961 42.4487 26.0383 40.3954 26.6994C40.3912 26.7008 40.3869 26.7022 40.3826 26.7036C39.9318 26.8486 39.4899 27.0015 39.0572 27.1621C39.0523 27.1639 39.0474 27.1657 39.0426 27.1675C39.0367 27.1697 39.0309 27.1719 39.025 27.1741C38.9934 27.1858 38.9619 27.1977 38.9304 27.2095C38.8724 27.2313 38.8146 27.2533 38.7569 27.2754C37.3217 27.8257 35.9904 28.4626 34.7725 29.1794C32.8218 30.3275 31.1622 31.6807 29.8336 33.2116C29.2875 33.8407 28.7974 34.4999 28.3659 35.1871C28.3597 35.1969 28.3536 35.2067 28.3475 35.2165C28.2682 35.3435 28.1911 35.4713 28.1161 35.5998C28.1123 35.6065 28.1084 35.6131 28.1045 35.6197C26.1797 38.9325 25.6973 42.7366 26.7894 46.133C26.8611 46.3559 26.9398 46.5767 27.0252 46.795C28.9789 51.7854 34.4928 55.4672 41.7195 53.1433C46.7188 51.5357 50.1437 48.4046 52.189 44.6055C52.5558 43.9242 52.8783 43.2213 53.1575 42.5019C53.1576 42.5015 53.1578 42.5012 53.1579 42.5008C53.4512 41.7451 53.6967 40.9711 53.8958 40.1847ZM49.1255 38.1104C49.5385 36.025 49.5451 33.7908 49.142 31.6006C49.0669 31.1923 48.9775 30.7855 48.8738 30.3815C48.3232 30.3994 47.7738 30.4351 47.2265 30.4885C45.4368 30.663 43.669 31.026 41.9527 31.5726C41.9514 31.5731 41.95 31.5735 41.9487 31.5739C41.1601 31.8275 40.4202 32.1039 39.7276 32.4C39.7169 32.4046 39.7062 32.4091 39.6955 32.4137C39.1744 32.6374 38.6801 32.8723 38.2119 33.117C37.5587 33.4584 36.9563 33.819 36.403 34.1952C36.3982 34.1985 36.3934 34.2018 36.3886 34.205C36.352 34.23 36.3156 34.255 36.2794 34.2801C36.1052 34.4009 35.936 34.5232 35.7717 34.647C35.4617 34.8804 35.1693 35.119 34.8939 35.362C34.893 35.3628 34.892 35.3637 34.8911 35.3645C34.4348 35.7673 34.0255 36.1821 33.6615 36.6051C33.4807 36.8152 33.311 37.0274 33.1522 37.2412C32.989 37.461 32.8373 37.6825 32.697 37.9053C32.6968 37.9056 32.6966 37.9059 32.6964 37.9062C31.6502 39.5667 31.2322 41.2954 31.3408 42.8943C31.38 43.4718 31.4879 44.0324 31.6597 44.5668C32.5936 47.4707 35.5814 49.7433 40.1534 48.273C42.2713 47.592 43.896 46.5771 45.142 45.4351C45.4763 45.1287 45.7833 44.8132 46.0653 44.4925C46.0745 44.482 46.0837 44.4715 46.0928 44.461C47.2092 43.1826 47.9293 41.8245 48.3927 40.6392C48.4994 40.3661 48.5979 40.0885 48.6883 39.8068C48.7052 39.7541 48.7219 39.7013 48.7382 39.6483C48.8928 39.1471 49.0219 38.6334 49.1255 38.1104ZM74.4099 16.9278C76.3144 17.9682 78.005 19.3622 79.3902 21.0365C80.8703 22.8255 81.9708 24.897 82.6246 27.1248C83.2785 29.3527 83.4721 31.6903 83.1937 33.9954C82.9152 36.3005 82.1705 38.5248 81.0049 40.5328C79.8393 42.5409 78.2772 44.2907 76.4138 45.6757C74.5504 47.0607 72.4245 48.052 70.1656 48.5891C68.8567 48.9004 67.5191 49.0554 66.1806 49.0533C62.8586 56.8272 56.4941 63.6782 46.1744 66.9967C30.4414 72.0559 16.9298 63.0071 12.9361 50.5878C12.717 49.9064 12.5272 49.222 12.3658 48.5358C8.16744 47.1084 4.68285 44.1049 2.65301 40.1538C0.580743 36.1201 0.194288 31.429 1.57821 27.1108C1.89869 26.1096 3.43687 21.5791 6.85031 16.5334C10.2476 11.5116 16.2959 4.83275 25.9455 1.72972C34.8417 -1.13101 44.4972 -0.614931 52.9268 4.5705C56.1844 6.57013 58.979 9.11127 61.2808 12.0047C68.1943 13.597 73.0457 16.161 74.4099 16.9278ZM6.58384 28.2971C6.54014 28.4193 6.49836 28.5425 6.45853 28.6664L6.46112 28.6673C6.49891 28.5497 6.53981 28.4262 6.58384 28.2971Z" fill="#C6B9FF"/>
</svg>
