<svg width="81" height="83" viewBox="0 0 81 83" fill="none" xmlns="http://www.w3.org/2000/svg">
<path d="M48.9755 66.5625H24.7935C22.4613 66.5625 20.2246 65.636 18.5755 63.9869C16.9265 62.3378 16 60.1012 16 57.769V24.7935C16 22.4613 16.9265 20.2246 18.5755 18.5755C20.2246 16.9265 22.4613 16 24.7935 16H55.5707C57.9028 16 60.1395 16.9265 61.7886 18.5755C63.4377 20.2246 64.3641 22.4613 64.3641 24.7935V44.5788C64.3641 46.911 63.4377 49.1476 61.7886 50.7967C60.1395 52.4458 57.9028 53.3723 55.5707 53.3723H16" fill="#35684E"/>
<path fill-rule="evenodd" clip-rule="evenodd" d="M32 32V37.3723H48.3641V32H32ZM64.9467 67.5311C67.9698 66.2961 70.7484 64.4644 73.1023 62.1104C77.752 57.4608 80.3641 51.1545 80.3641 44.5788V24.7935C80.3641 18.2178 77.752 11.9115 73.1023 7.26184C68.4526 2.61216 62.1463 0 55.5707 0H24.7935C18.2178 0 11.9115 2.61216 7.26184 7.26184C2.61216 11.9115 0 18.2178 0 24.7935V57.769C0 64.3447 2.61216 70.651 7.26184 75.3007C11.9115 79.9503 18.2178 82.5625 24.7935 82.5625H48.9755C57.4869 82.5625 64.446 75.9166 64.9467 67.5311Z" fill="#B4E7CE"/>
<path d="M40.1824 42.3803V33.5868C40.1824 31.8377 39.4876 30.1602 38.2507 28.9234C37.0139 27.6865 35.3364 26.9917 33.5873 26.9917C31.8382 26.9917 30.1607 27.6865 28.9238 28.9234C27.687 30.1602 26.9922 31.8377 26.9922 33.5868V42.3803" fill="#35684E"/>
<path fill-rule="evenodd" clip-rule="evenodd" d="M17.6101 17.6097C21.8476 13.3722 27.5947 10.9917 33.5873 10.9917C39.5799 10.9917 45.327 13.3722 49.5645 17.6097C53.8019 21.8471 56.1824 27.5942 56.1824 33.5868V42.3803C56.1824 51.2168 49.019 58.3803 40.1824 58.3803C37.8311 58.3803 35.5982 57.8731 33.5873 56.9621C31.5763 57.8731 29.3435 58.3803 26.9922 58.3803C18.1556 58.3803 10.9922 51.2168 10.9922 42.3803V33.5868C10.9922 27.5942 13.3727 21.8471 17.6101 17.6097Z" fill="#B4E7CE"/>
<path d="M53.3719 42.3803V33.5868C53.3719 31.8377 52.677 30.1602 51.4402 28.9234C50.2034 27.6865 48.5259 26.9917 46.7767 26.9917C45.0276 26.9917 43.3501 27.6865 42.1133 28.9234C40.8765 30.1602 40.1816 31.8377 40.1816 33.5868" fill="#35684E"/>
<path fill-rule="evenodd" clip-rule="evenodd" d="M30.7996 17.6097C35.037 13.3722 40.7842 10.9917 46.7767 10.9917C52.7693 10.9917 58.5165 13.3722 62.7539 17.6097C66.9913 21.8471 69.3719 27.5942 69.3719 33.5868V42.3803C69.3719 51.2168 62.2084 58.3803 53.3719 58.3803C47.1123 58.3803 41.6924 54.7858 39.0634 49.5483C30.7486 48.9743 24.1816 42.0475 24.1816 33.5868C24.1816 27.5942 26.5622 21.8471 30.7996 17.6097Z" fill="#B4E7CE"/>
<path fill-rule="evenodd" clip-rule="evenodd" d="M26.7586 21.7692C25.4835 21.7692 24.2606 22.2758 23.359 23.1774C22.4574 24.079 21.9509 25.3018 21.9509 26.5769V48.6923H53.6816C54.9567 48.6923 56.1796 48.1858 57.0812 47.2842C57.9828 46.3825 58.4893 45.1597 58.4893 43.8846V26.5769C58.4893 25.3018 57.9828 24.079 57.0812 23.1774C56.1796 22.2758 54.9567 21.7692 53.6816 21.7692H26.7586ZM21.9509 54.4615H53.6816C56.4868 54.4615 59.1771 53.3472 61.1607 51.3636C63.1442 49.3801 64.2586 46.6898 64.2586 43.8846V26.5769C64.2586 23.7717 63.1442 21.0815 61.1607 19.0979C59.1771 17.1144 56.4868 16 53.6816 16H26.7586C23.9534 16 21.2631 17.1144 19.2795 19.0979C17.296 21.0815 16.1816 23.7717 16.1816 26.5769V55.4231C16.1816 58.2283 17.296 60.9185 19.2795 62.9021C21.2631 64.8856 23.9534 66 26.7586 66H47.9124C49.5055 66 50.797 64.7085 50.797 63.1154C50.797 61.5223 49.5055 60.2308 47.9124 60.2308H26.7586C25.4835 60.2308 24.2606 59.7242 23.359 58.8226C22.4574 57.921 21.9509 56.6982 21.9509 55.4231V54.4615Z" fill="#35684E"/>
<path fill-rule="evenodd" clip-rule="evenodd" d="M28.3315 28.1499C29.9544 26.527 32.1556 25.6152 34.4507 25.6152C36.7459 25.6152 38.947 26.527 40.5699 28.1499C42.1928 29.7728 43.1046 31.9739 43.1046 34.2691V41.9614C43.1046 43.5545 41.8131 44.846 40.22 44.846C38.6268 44.846 37.3353 43.5545 37.3353 41.9614V34.2691C37.3353 33.504 37.0314 32.7703 36.4905 32.2293C35.9495 31.6884 35.2158 31.3845 34.4507 31.3845C33.6857 31.3845 32.952 31.6884 32.411 32.2293C31.87 32.7703 31.5661 33.504 31.5661 34.2691V41.9614C31.5661 43.5545 30.2746 44.846 28.6815 44.846C27.0884 44.846 25.7969 43.5545 25.7969 41.9614V34.2691C25.7969 31.9739 26.7086 29.7728 28.3315 28.1499Z" fill="#35684E"/>
<path fill-rule="evenodd" clip-rule="evenodd" d="M39.8706 28.1499C41.4935 26.527 43.6946 25.6152 45.9898 25.6152C48.2849 25.6152 50.4861 26.527 52.109 28.1499C53.7319 29.7728 54.6436 31.9739 54.6436 34.2691V41.9614C54.6436 43.5545 53.3521 44.846 51.759 44.846C50.1659 44.846 48.8744 43.5545 48.8744 41.9614V34.2691C48.8744 33.504 48.5705 32.7703 48.0295 32.2293C47.4885 31.6884 46.7548 31.3845 45.9898 31.3845C45.2247 31.3845 44.491 31.6884 43.9501 32.2293C43.4091 32.7703 43.1052 33.504 43.1052 34.2691C43.1052 35.8622 41.8137 37.1537 40.2206 37.1537C38.6274 37.1537 37.3359 35.8622 37.3359 34.2691C37.3359 31.9739 38.2477 29.7728 39.8706 28.1499Z" fill="#35684E"/>
</svg>
