<svg width="74" height="74" viewBox="0 0 74 74" fill="none" xmlns="http://www.w3.org/2000/svg">
<path d="M48.532 43.8291C45.9949 48.2252 41.7533 50.7485 36.9097 50.7485C32.0662 50.7485 27.8315 48.2275 25.2875 43.8291C24.9363 43.1945 24.8483 42.4474 25.0423 41.7485C25.2363 41.0496 25.6969 40.4548 26.3251 40.0921C26.9532 39.7294 27.6985 39.6277 28.4008 39.809C29.1031 39.9903 29.7062 40.44 30.0803 41.0613C30.9775 42.6136 33.0579 45.213 36.9097 45.213C40.7615 45.213 42.8419 42.6113 43.7391 41.0613C43.9172 40.7396 44.1576 40.4566 44.4462 40.2288C44.7349 40.001 45.066 39.833 45.4204 39.7346C45.7747 39.6363 46.145 39.6095 46.5098 39.6558C46.8746 39.7022 47.2265 39.8208 47.5449 40.0047C47.8633 40.1886 48.1419 40.4341 48.3644 40.7268C48.5869 41.0196 48.7488 41.3538 48.8407 41.7098C48.9326 42.0659 48.9526 42.4367 48.8996 42.8005C48.8466 43.1644 48.7216 43.5141 48.532 43.8291ZM61.8195 36.9097C61.8195 41.8364 60.3585 46.6524 57.6214 50.7488C54.8843 54.8452 50.9939 58.0379 46.4423 59.9233C41.8906 61.8087 36.8821 62.302 32.0501 61.3408C27.2181 60.3797 22.7796 58.0072 19.2959 54.5236C15.8122 51.0399 13.4398 46.6014 12.4786 41.7694C11.5175 36.9374 12.0108 31.9288 13.8962 27.3772C15.7815 22.8255 18.9743 18.9352 23.0706 16.198C27.167 13.4609 31.9831 12 36.9097 12C43.514 12.0073 49.8456 14.6341 54.5155 19.304C59.1854 23.9739 61.8121 30.3055 61.8195 36.9097ZM56.284 36.9097C56.284 33.0779 55.1477 29.3321 53.0188 26.146C50.8899 22.9599 47.8641 20.4767 44.3239 19.0103C40.7837 17.5439 36.8882 17.1602 33.13 17.9078C29.3718 18.6553 25.9196 20.5005 23.2101 23.2101C20.5005 25.9196 18.6553 29.3718 17.9078 33.13C17.1602 36.8882 17.5439 40.7837 19.0103 44.3239C20.4767 47.8641 22.9599 50.8899 26.146 53.0188C29.3321 55.1477 33.0779 56.284 36.9097 56.284C42.0464 56.2785 46.9711 54.2355 50.6033 50.6033C54.2355 46.9711 56.2785 42.0464 56.284 36.9097ZM28.6065 35.9871C29.3364 35.9871 30.0499 35.7707 30.6567 35.3652C31.2636 34.9597 31.7366 34.3834 32.0159 33.709C32.2952 33.0347 32.3683 32.2927 32.2259 31.5769C32.0835 30.861 31.732 30.2035 31.2159 29.6874C30.6998 29.1713 30.0423 28.8198 29.3264 28.6774C28.6106 28.535 27.8686 28.6081 27.1943 28.8874C26.5199 29.1667 25.9436 29.6397 25.5381 30.2466C25.1326 30.8534 24.9162 31.5669 24.9162 32.2968C24.9162 33.2755 25.305 34.2142 25.997 34.9063C26.6891 35.5983 27.6278 35.9871 28.6065 35.9871ZM45.213 28.6065C44.4831 28.6065 43.7696 28.8229 43.1627 29.2284C42.5559 29.6339 42.0829 30.2103 41.8036 30.8846C41.5242 31.5589 41.4512 32.3009 41.5936 33.0168C41.7359 33.7326 42.0874 34.3902 42.6035 34.9063C43.1196 35.4224 43.7772 35.7738 44.493 35.9162C45.2089 36.0586 45.9509 35.9855 46.6252 35.7062C47.2995 35.4269 47.8759 34.9539 48.2814 34.347C48.6869 33.7402 48.9033 33.0267 48.9033 32.2968C48.9033 31.3181 48.5145 30.3794 47.8224 29.6874C47.1304 28.9953 46.1917 28.6065 45.213 28.6065Z" fill="#7F6300"/>
<path fill-rule="evenodd" clip-rule="evenodd" d="M29.9074 35.7502C29.9447 35.7362 29.9818 35.7215 30.0187 35.7062C30.241 35.6142 30.4548 35.5002 30.6567 35.3652C30.7662 35.2921 30.8713 35.2134 30.9716 35.1296C31.2427 34.9033 31.4794 34.6397 31.6749 34.347C31.8086 34.147 31.923 33.9335 32.0159 33.709C32.2023 33.2591 32.2968 32.7791 32.2968 32.2968C32.2968 32.0562 32.2733 31.8151 32.2259 31.5769C32.2057 31.475 32.1812 31.3744 32.1526 31.2751C31.9802 30.6768 31.6586 30.13 31.216 29.6874C31.163 29.6344 31.1086 29.5832 31.0528 29.5338C30.7155 29.2351 30.3271 29.0015 29.9074 28.8434C29.7194 28.7726 29.5252 28.7169 29.3264 28.6774C29.0882 28.63 28.8471 28.6065 28.6065 28.6065C28.1242 28.6065 27.6442 28.701 27.1943 28.8874C26.9699 28.9803 26.7563 29.0948 26.5563 29.2284C26.5412 29.2385 26.5263 29.2486 26.5114 29.2589C26.1294 29.5223 25.7985 29.8568 25.5381 30.2466C25.4031 30.4485 25.2891 30.6623 25.1971 30.8846C25.0567 31.2235 24.9674 31.5821 24.9326 31.9486C24.9271 32.0066 24.923 32.0646 24.9203 32.1229C24.9175 32.1807 24.9162 32.2387 24.9162 32.2968C24.9162 32.5403 24.9402 32.7814 24.9871 33.0168C25.1104 33.637 25.3918 34.2179 25.807 34.7012C25.8675 34.7717 25.9309 34.8401 25.997 34.9063C26.5169 35.4261 27.1759 35.7749 27.8865 35.9162C28.1219 35.9631 28.363 35.9871 28.6065 35.9871C28.8782 35.9871 29.1476 35.9571 29.4101 35.8986C29.478 35.8834 29.5455 35.8664 29.6124 35.8474C29.7121 35.8192 29.8105 35.7868 29.9074 35.7502ZM41.6669 31.2751C41.5711 31.6077 41.5226 31.9517 41.5226 32.2968C41.5226 32.5374 41.5462 32.7785 41.5936 33.0168C41.7359 33.7326 42.0874 34.3902 42.6035 34.9063C42.9763 35.2791 43.423 35.566 43.9121 35.7502C44.0088 35.7867 44.1072 35.8191 44.207 35.8474C44.2549 35.861 44.3031 35.8736 44.3516 35.8852C44.3985 35.8965 44.4456 35.9068 44.493 35.9162C44.7313 35.9636 44.9724 35.9871 45.213 35.9871C45.6953 35.9871 46.1753 35.8926 46.6252 35.7062C46.7672 35.6474 46.9049 35.58 47.0375 35.5046C47.1145 35.4608 47.1898 35.4143 47.2632 35.3652C47.6642 35.0973 48.0108 34.7519 48.2814 34.347C48.4163 34.1451 48.5303 33.9313 48.6224 33.709C48.807 33.2635 48.9033 32.7838 48.9033 32.2968C48.9033 32.2471 48.9023 32.1975 48.9003 32.148C48.8925 31.9551 48.8697 31.7642 48.8324 31.5769C48.6911 30.8662 48.3423 30.2072 47.8224 29.6874C47.809 29.674 47.7956 29.6607 47.782 29.6475C47.7815 29.6471 47.781 29.6466 47.7805 29.6461C47.625 29.4955 47.4576 29.3598 47.2806 29.2401C46.8733 28.9646 46.415 28.7733 45.9329 28.6774C45.6975 28.6306 45.4565 28.6065 45.213 28.6065C44.7663 28.6065 44.3258 28.6875 43.9121 28.8434C43.8747 28.8574 43.8376 28.8721 43.8008 28.8874C43.5785 28.9795 43.3647 29.0935 43.1627 29.2284C43.0533 29.3015 42.9482 29.3802 42.8478 29.464C42.7707 29.5284 42.6963 29.5959 42.6249 29.6661C42.4454 29.8427 42.2845 30.0372 42.1446 30.2466C42.0109 30.4466 41.8965 30.6602 41.8036 30.8846C41.7506 31.0125 41.705 31.1429 41.6669 31.2751ZM29.6723 40.5379C29.5147 40.3794 29.3387 40.2407 29.1482 40.1247C28.9782 40.0212 28.7967 39.9359 28.6065 39.8707C28.539 39.8475 28.4704 39.827 28.4008 39.809C27.9768 39.6996 27.5371 39.6933 27.1169 39.7853C26.8412 39.8457 26.5739 39.9484 26.3251 40.0921C26.2535 40.1334 26.1842 40.1777 26.1172 40.2249C25.5955 40.5916 25.2142 41.1292 25.0423 41.7485C25.0343 41.7771 25.0269 41.8059 25.0198 41.8347C25.0144 41.8571 25.0092 41.8795 25.0044 41.902C24.8625 42.5557 24.9619 43.2407 25.2875 43.8291C25.2879 43.8297 25.2882 43.8304 25.2886 43.831C25.3051 43.8595 25.3217 43.888 25.3383 43.9163C25.7789 44.667 26.269 45.3623 26.8032 45.9989C26.9586 46.184 27.1176 46.3641 27.2803 46.5392C27.6993 46.9901 28.1421 47.4076 28.6065 47.7903C28.6866 47.8563 28.7674 47.9213 28.8488 47.9853C28.9933 48.0988 29.1398 48.2091 29.2883 48.316C30.1101 48.9081 30.9908 49.398 31.9192 49.7792C32.2366 49.9096 32.5597 50.0273 32.8879 50.132C33.3203 50.2699 33.7617 50.3853 34.2109 50.4775C35.0815 50.6563 35.9816 50.7481 36.9038 50.7485C36.9058 50.7485 36.9078 50.7485 36.9097 50.7485C38.3543 50.7485 39.7453 50.524 41.0535 50.0924C41.3398 49.9979 41.6221 49.8935 41.9002 49.7794C41.9972 49.7396 42.0937 49.6986 42.1896 49.6565C43.1786 49.2217 44.1109 48.6619 44.9724 47.9853C45.1539 47.8428 45.3323 47.695 45.5073 47.5422C45.8657 47.2294 46.2104 46.8951 46.5402 46.5402C46.7404 46.3247 46.9351 46.1016 47.1241 45.871C47.4255 45.5032 47.7123 45.1164 47.9834 44.7112C48.0453 44.6188 48.1062 44.5255 48.1664 44.4312C48.2909 44.2362 48.4118 44.0371 48.5291 43.8341C48.53 43.8324 48.531 43.8308 48.532 43.8291C48.5493 43.8002 48.5662 43.7711 48.5825 43.7417C48.7439 43.4499 48.8515 43.1311 48.8996 42.8005C48.9486 42.4646 48.9353 42.1228 48.8606 41.7921C48.8544 41.7646 48.8478 41.7372 48.8407 41.7098C48.7488 41.3538 48.5869 41.0196 48.3644 40.7268C48.2088 40.522 48.0257 40.3404 47.8207 40.1867C47.7326 40.1207 47.6406 40.0599 47.5449 40.0047C47.2265 39.8208 46.8746 39.7022 46.5098 39.6558C46.145 39.6095 45.7747 39.6363 45.4204 39.7346C45.3503 39.7541 45.2811 39.7763 45.213 39.8011C44.9367 39.9018 44.6778 40.0461 44.4462 40.2288C44.3285 40.3217 44.2187 40.4239 44.118 40.5341C43.9944 40.6692 43.8844 40.8165 43.7896 40.9739C43.7723 41.0027 43.7555 41.0319 43.7392 41.0613C43.7389 41.0618 43.7387 41.0622 43.7384 41.0626C43.6263 41.2563 43.4956 41.4664 43.3454 41.6857C43.2832 41.7766 43.2176 41.8691 43.1485 41.9626C42.99 42.1773 42.8134 42.3977 42.6177 42.6177C42.3272 42.9441 41.9946 43.2697 41.6167 43.5743C40.6061 44.389 39.2712 45.0543 37.5505 45.1883C37.4885 45.1932 37.4261 45.1973 37.3631 45.2007C37.3199 45.2031 37.2764 45.2051 37.2327 45.2068C37.1264 45.2109 37.0188 45.213 36.9097 45.213C36.9058 45.213 36.9018 45.213 36.8979 45.213C36.7744 45.2128 36.6528 45.2099 36.533 45.2045C36.444 45.2005 36.356 45.1951 36.269 45.1884C34.7309 45.0687 33.501 44.5247 32.5355 43.8289C32.4791 43.7883 32.4236 43.7471 32.369 43.7055C31.3063 42.8954 30.5819 41.9096 30.1313 41.1485C30.1139 41.1191 30.0969 41.09 30.0803 41.0613C30.0797 41.0603 30.079 41.0592 30.0784 41.0581C29.9633 40.8675 29.8267 40.6932 29.6723 40.5379ZM56.284 36.9159C56.2827 37.8088 56.2199 38.6954 56.0979 39.5699C56.0849 39.6625 56.0714 39.755 56.0571 39.8473C55.8536 41.166 55.5152 42.4556 55.05 43.6966C54.8966 44.1057 54.7295 44.5096 54.5488 44.9075C54.2912 45.4748 54.0062 46.0299 53.6946 46.5708C53.6604 46.6303 53.6258 46.6896 53.5909 46.7487C53.5886 46.7526 53.5863 46.7564 53.5841 46.7603C53.568 46.7874 53.5519 46.8145 53.5357 46.8416C53.3684 47.1215 53.1938 47.3974 53.0122 47.6691C52.6081 48.2735 52.1689 48.8568 51.696 49.4157C51.4235 49.7378 51.1399 50.0518 50.8452 50.357C50.7654 50.4398 50.6848 50.5219 50.6033 50.6033C48.7874 52.4192 46.6485 53.8379 44.3215 54.8033C41.994 55.769 39.4784 56.2812 36.9097 56.284C35.6345 56.284 34.3687 56.1581 33.13 55.9117C30.6466 55.4177 28.2717 54.4392 26.146 53.0188C25.0857 52.3103 24.1032 51.5025 23.2101 50.6094C23.1655 50.5648 23.1212 50.5201 23.0771 50.4751C22.028 49.4053 21.1056 48.2164 20.3292 46.9321C20.2942 46.8742 20.2595 46.8161 20.2251 46.7578C20.225 46.7576 20.2249 46.7575 20.2248 46.7573C20.2061 46.7255 20.1874 46.6937 20.1688 46.6618C19.8368 46.0918 19.5331 45.5036 19.2596 44.8994C19.1735 44.7091 19.0904 44.5173 19.0103 44.3239C18.7668 43.7362 18.5532 43.1387 18.3697 42.5336C18.1853 41.9257 18.0313 41.3103 17.9078 40.6894C17.8438 40.368 17.7881 40.0452 17.7406 39.7212C17.421 37.5422 17.4736 35.3129 17.9078 33.13C17.9634 32.8505 18.025 32.5727 18.0927 32.2968C18.2024 31.8491 18.3279 31.4064 18.4687 30.9693C18.6294 30.4702 18.8102 29.9786 19.0103 29.4955C19.3967 28.5627 19.8553 27.6618 20.3817 26.8011C21.1753 25.5034 22.1232 24.297 23.2101 23.2101C23.5899 22.8303 23.9843 22.4675 24.3921 22.1223C24.9525 21.6479 25.5381 21.2068 26.146 20.8006C27.7554 19.7253 29.5203 18.8949 31.3826 18.3406C31.9564 18.1698 32.5394 18.0252 33.13 17.9078C33.5415 17.8259 33.9546 17.7576 34.3687 17.7028C35.2113 17.5914 36.0581 17.5357 36.9036 17.5355C36.9056 17.5355 36.9077 17.5355 36.9097 17.5355C37.7599 17.5355 38.6088 17.5915 39.4508 17.7029C41.1164 17.9232 42.755 18.3604 44.3239 19.0103C44.6241 19.1346 44.9205 19.2662 45.213 19.4049C47.2225 20.3581 49.0465 21.6472 50.6094 23.2101C51.2249 23.8255 51.7998 24.4835 52.3297 25.1801C52.5687 25.4943 52.7986 25.8164 53.0188 26.146C53.9873 27.5954 54.7503 29.1606 55.2944 30.797C55.4586 31.2909 55.6029 31.7912 55.7268 32.2968C55.9281 33.1178 56.0758 33.9527 56.1684 34.7962C56.2451 35.4958 56.284 36.2013 56.284 36.9097C56.284 36.9118 56.284 36.9138 56.284 36.9159ZM60.8692 43.7243C60.7943 43.9874 60.7152 44.2493 60.6317 44.5098C60.0738 46.2511 59.324 47.9318 58.392 49.5196C58.3564 49.5801 58.3206 49.6405 58.2846 49.7008C58.0726 50.055 57.8515 50.4044 57.6214 50.7488C56.7105 52.1121 55.6718 53.3753 54.5236 54.5236C52.2216 56.8255 49.4791 58.6654 46.4423 59.9233C43.4073 61.1804 40.1691 61.8187 36.9157 61.8195C36.9137 61.8195 36.9117 61.8195 36.9097 61.8195C35.2859 61.8195 33.6582 61.6607 32.0501 61.3408C28.8262 60.6995 25.7775 59.43 23.0706 57.6214C21.7204 56.7192 20.4553 55.6829 19.2959 54.5236C17.7936 53.0212 16.4979 51.3413 15.433 49.5289C15.3966 49.467 15.3605 49.4049 15.3246 49.3426C14.7865 48.4083 14.3092 47.4395 13.8961 46.4423C13.5582 45.6264 13.2632 44.7916 13.013 43.9411C12.803 43.2276 12.6246 42.503 12.4787 41.7694C11.8374 38.5455 11.8435 35.243 12.4786 32.0501C12.6708 31.0838 12.9206 30.1275 13.2275 29.1865C13.4265 28.5765 13.6494 27.9729 13.8962 27.3772C14.4235 26.1041 15.0531 24.8827 15.7762 23.7239C16.3973 22.7283 17.0875 21.7788 17.841 20.8823C18.3026 20.3331 18.788 19.8038 19.2959 19.2959C20.4441 18.1476 21.7073 17.109 23.0706 16.198C25.8037 14.3719 28.8572 13.1138 32.0501 12.4786C33.6427 12.1618 35.2701 12 36.9097 12C40.2122 12.0037 43.4466 12.6623 46.439 13.904C49.4308 15.1453 52.1808 16.9693 54.5155 19.304C55.0021 19.7906 55.4665 20.2952 55.908 20.8163C56.0283 20.9583 56.147 21.1015 56.2639 21.2459C56.7424 21.8369 57.1923 22.4478 57.6126 23.0765C58.8916 24.9894 59.8973 27.0668 60.6042 29.2473C61.3994 31.7001 61.8165 34.2833 61.8195 36.9097C61.8195 36.9117 61.8195 36.9137 61.8195 36.9156C61.8189 39.2308 61.4958 41.5214 60.8692 43.7243ZM73.8195 36.8964L73.8195 36.9097C73.8195 44.2098 71.6547 51.3459 67.5991 57.4157C63.5434 63.4854 57.7788 68.2163 51.0345 71.0099C44.2901 73.8035 36.8688 74.5344 29.709 73.1102C22.5492 71.6861 15.9725 68.1708 10.8106 63.0088C5.64871 57.8469 2.1334 51.2702 0.709226 44.1105C-0.714943 36.9507 0.0159929 29.5294 2.8096 22.785C5.60321 16.0406 10.334 10.2761 16.4038 6.22041C22.4736 2.16472 29.6097 0 36.9097 0L36.923 0C46.7052 0.0108585 56.0837 3.90163 63.0008 10.8187C69.9178 17.7358 73.8086 27.1142 73.8195 36.8964Z" fill="#FFC700"/>
</svg>
