<svg width="82" height="82" viewBox="0 0 82 82" fill="none" xmlns="http://www.w3.org/2000/svg">
<path fill-rule="evenodd" clip-rule="evenodd" d="M41.0006 46.5835C44.0842 46.5835 46.584 44.0838 46.584 41.0002C46.584 37.9166 44.0842 35.4168 41.0006 35.4168C37.9171 35.4168 35.4173 37.9166 35.4173 41.0002C35.4173 44.0838 37.9171 46.5835 41.0006 46.5835ZM14.584 41.0002C14.584 26.4106 26.4111 14.5835 41.0006 14.5835C55.5902 14.5835 67.4173 26.4106 67.4173 41.0002C67.4173 55.5897 55.5902 67.4168 41.0006 67.4168C26.4111 67.4168 14.584 55.5897 14.584 41.0002Z" fill="#B3CDFB"/>
<path fill-rule="evenodd" clip-rule="evenodd" d="M49.9564 41.6899C49.9548 41.6887 49.9589 41.6526 49.9737 41.5854C49.9655 41.6576 49.958 41.6912 49.9564 41.6899ZM67.443 41.5854C67.4578 41.6526 67.4619 41.6887 67.4603 41.6899C67.4586 41.6912 67.4512 41.6576 67.443 41.5854ZM35.4167 33.9412C35.1442 34.1568 34.8834 34.3887 34.6361 34.6361C33.3774 35.8947 32.5202 37.4984 32.173 39.2442C31.8257 40.99 32.0039 42.7996 32.6851 44.4442C33.3663 46.0887 34.5198 47.4943 35.9999 48.4832C36.0753 48.5336 36.1514 48.5828 36.2282 48.6308C35.6044 45.8667 35.4167 43.2302 35.4167 41V33.9412ZM71.4921 63.5438C74.0652 61.7805 76.2335 59.4866 77.8957 56.8128C81.2688 51.3868 82 45.4021 82 41C82 32.891 79.5954 24.964 75.0903 18.2216C70.5851 11.4792 64.1818 6.22415 56.69 3.12096C49.1983 0.017765 40.9545 -0.794172 33.0013 0.787822C25.0481 2.36982 17.7426 6.27469 12.0086 12.0086C6.27469 17.7426 2.36982 25.0481 0.787822 33.0013C-0.794172 40.9545 0.017765 49.1983 3.12096 56.69C6.22415 64.1818 11.4792 70.5851 18.2216 75.0903C24.964 79.5954 32.891 82 41 82C48.8766 82 57.5503 79.738 64.4403 75.1583C68.5591 72.4206 70.9992 68.1043 71.4921 63.5438Z" fill="#B3CDFB"/>
<path fill-rule="evenodd" clip-rule="evenodd" d="M40.9999 34.5184C37.4203 34.5184 34.5184 37.4203 34.5184 40.9999C34.5184 44.5795 37.4203 47.4814 40.9999 47.4814C44.5795 47.4814 47.4814 44.5795 47.4814 40.9999C47.4814 37.4203 44.5795 34.5184 40.9999 34.5184ZM28.9629 40.9999C28.9629 34.3521 34.3521 28.9629 40.9999 28.9629C47.6478 28.9629 53.037 34.3521 53.037 40.9999C53.037 47.6478 47.6478 53.037 40.9999 53.037C34.3521 53.037 28.9629 47.6478 28.9629 40.9999Z" fill="#344D7B"/>
<path fill-rule="evenodd" clip-rule="evenodd" d="M48.4411 23.0357C44.8881 21.564 40.9784 21.1789 37.2066 21.9292C33.4347 22.6795 29.9701 24.5314 27.2507 27.2507C24.5314 29.9701 22.6795 33.4347 21.9292 37.2066C21.1789 40.9784 21.564 44.8881 23.0357 48.4411C24.5074 51.9941 26.9996 55.0309 30.1973 57.1675C33.3949 59.304 37.1543 60.4444 41 60.4444C45.064 60.4444 49.413 59.2074 52.4253 57.2052C53.7029 56.3559 55.4271 56.7032 56.2763 57.9808C57.1256 59.2585 56.7783 60.9826 55.5006 61.8319C51.4713 64.5102 46.0239 66 41 66C36.0555 66 31.222 64.5338 27.1108 61.7867C22.9995 59.0397 19.7952 55.1352 17.903 50.5671C16.0108 45.9989 15.5157 40.9723 16.4804 36.1227C17.445 31.2732 19.826 26.8187 23.3223 23.3223C26.8187 19.826 31.2732 17.445 36.1227 16.4804C40.9723 15.5157 45.9989 16.0108 50.5671 17.903C55.1352 19.7952 59.0397 22.9995 61.7867 27.1108C64.5338 31.222 66 36.0555 66 41C66 43.8216 65.5005 46.7233 64.0767 49.0137C62.5493 51.4706 60.0552 53.037 56.7407 53.037C53.4263 53.037 50.9322 51.4706 49.4048 49.0137C47.981 46.7233 47.4815 43.8216 47.4815 41V31.7407C47.4815 30.2066 48.7251 28.963 50.2593 28.963C51.7934 28.963 53.037 30.2066 53.037 31.7407V41C53.037 43.2918 53.4635 45.0197 54.123 46.0806C54.679 46.975 55.4256 47.4815 56.7407 47.4815C58.0559 47.4815 58.8025 46.975 59.3585 46.0806C60.018 45.0197 60.4444 43.2918 60.4444 41C60.4444 37.1543 59.304 33.3949 57.1675 30.1973C55.0309 26.9996 51.9941 24.5074 48.4411 23.0357Z" fill="#344D7B"/>
</svg>
