<svg width="188" height="194" viewBox="0 0 188 194" fill="none" xmlns="http://www.w3.org/2000/svg">
<path d="M103.097 160.649C103.097 179.068 88.1639 194 69.7424 194H33.3551C14.9336 194 0 179.068 0 160.649V39.3734C0 20.9542 14.9336 6.02254 33.3551 6.02254H69.7424C88.1639 6.02254 103.097 20.9542 103.097 39.3734V160.649Z" fill="#027DFB"/>
<path d="M122.542 0.730046C126.575 -0.127845 130.73 -0.230153 134.796 0.42582L135.607 0.5672L136.416 0.728565C140.176 1.52743 143.769 2.97018 147.037 4.99291L147.733 5.43555L148.417 5.89448C151.582 8.07616 154.345 10.7886 156.586 13.9117L157.058 14.5875L157.513 15.2744C159.726 18.7042 161.289 22.5132 162.127 26.5115L162.128 26.5108L187.281 146.089H187.28C189.094 154.685 187.45 163.651 182.699 171.045C177.929 178.466 170.416 183.7 161.801 185.603C161.739 185.617 161.677 185.631 161.615 185.644L126.129 193.224C126.122 193.225 126.114 193.226 126.106 193.228C121.804 194.143 117.364 194.198 113.041 193.391C108.718 192.583 104.597 190.929 100.915 188.523C97.2339 186.117 94.0647 183.007 91.5902 179.371C89.1362 175.766 87.4149 171.714 86.5206 167.446L86.5199 167.447L86.497 167.34L86.4977 167.339L61.3674 47.8695L61.3689 47.8688C59.5547 39.2726 61.1982 30.3065 65.9499 22.9134L66.4051 22.2242C71.1905 15.1682 78.5019 10.1987 86.8479 8.35494L87.0337 8.31496L122.519 0.735227L122.542 0.730046Z" fill="#027DFB"/>
<path d="M75.807 30.2777C90.8791 30.2777 103.097 42.4945 103.097 57.5647C103.097 72.635 90.8791 84.8518 75.807 84.8518H27.2905C12.2184 84.8518 0 72.635 0 57.5647C0 42.4945 12.2184 30.2777 27.2905 30.2777H75.807Z" fill="#027DFB"/>
<path d="M75.807 115.171C90.8791 115.171 103.097 127.388 103.097 142.458C103.097 157.528 90.8791 169.745 75.807 169.745H27.2905C12.2184 169.745 0 157.528 0 142.458C0 127.388 12.2184 115.171 27.2905 115.171H75.807Z" fill="#027DFB"/>
<path d="M133.456 23.3527C148.192 20.1865 162.704 29.5638 165.871 44.2976C169.037 59.0314 159.659 73.5421 144.923 76.7084L97.5815 86.8803C82.8458 90.0465 68.3332 80.6693 65.1666 65.9354C62 51.2015 71.3785 36.6908 86.1142 33.5246L133.456 23.3527Z" fill="#027DFB"/>
<path d="M138.489 47.2744C153.225 44.1087 167.738 53.4861 170.904 68.22C174.07 82.954 164.691 97.4643 149.955 100.63L102.606 110.803C87.8702 113.968 73.358 104.59 70.1918 89.8563C67.0257 75.1224 76.4044 60.6121 91.1401 57.4463L138.489 47.2744Z" fill="#027DFB"/>
<path d="M151.066 107.078C165.802 103.912 180.314 113.29 183.481 128.023C186.648 142.757 177.269 157.268 162.533 160.434L115.192 170.606C100.456 173.772 85.9435 164.395 82.7769 149.661C79.6103 134.927 88.9888 120.417 103.725 117.25L151.066 107.078Z" fill="#027DFB"/>
<path d="M33.3551 39.3734V160.649H69.7424V39.3734H33.3551ZM81.8715 160.649C81.8715 167.347 76.4411 172.777 69.7424 172.777H33.3551C26.6563 172.777 21.226 167.347 21.226 160.649V39.3734C21.226 32.6755 26.6563 27.2458 33.3551 27.2458H69.7424C76.4411 27.2458 81.8715 32.6755 81.8715 39.3734V160.649Z" fill="#004A96"/>
<path d="M126.959 21.4892C128.523 21.1565 130.137 21.1364 131.709 21.43C133.282 21.7236 134.781 22.3249 136.119 23.1998C137.458 24.0747 138.61 25.2058 139.51 26.5278C140.405 27.843 141.033 29.3215 141.357 30.8787L166.505 150.435L166.564 150.73C167.14 153.785 166.527 156.95 164.842 159.571C163.102 162.278 160.362 164.185 157.221 164.879C157.207 164.882 157.193 164.886 157.18 164.889L121.695 172.469L121.689 172.47C120.125 172.802 118.51 172.822 116.938 172.529C115.366 172.235 113.868 171.634 112.529 170.759C111.19 169.884 110.038 168.752 109.138 167.43C108.239 166.108 107.609 164.622 107.286 163.056L82.1432 43.5237L82.084 43.2284C81.5081 40.1733 82.1217 37.0091 83.8067 34.3873C85.546 31.6811 88.2859 29.7726 91.4274 29.0786L91.4681 29.0697L126.954 21.4899L126.959 21.4892ZM94.0406 40.9212C94.0282 40.9247 94.0173 40.9332 94.0103 40.9441C94.0065 40.95 94.0041 40.9566 94.0029 40.9633L94.0036 40.9833L94.0081 41.0055L119.161 160.583C119.162 160.591 119.163 160.599 119.165 160.607L154.605 153.037C154.618 153.034 154.631 153.026 154.638 153.015C154.646 153.003 154.648 152.988 154.645 152.975C154.643 152.968 154.642 152.96 154.64 152.953L129.488 33.3747C129.486 33.3668 129.484 33.359 129.483 33.351L94.0406 40.9212Z" fill="#004A96"/>
<path d="M75.807 51.501C79.1563 51.501 81.8715 54.2158 81.8715 57.5647C81.8715 60.9137 79.1563 63.6285 75.807 63.6285H27.2905C23.9411 63.6285 21.226 60.9137 21.226 57.5647C21.226 54.2158 23.9411 51.501 27.2905 51.501H75.807Z" fill="#004A96"/>
<path d="M75.807 136.394C79.1563 136.394 81.8715 139.109 81.8715 142.458C81.8715 145.807 79.1563 148.522 75.807 148.522H27.2905C23.9411 148.522 21.226 145.807 21.226 142.458C21.226 139.109 23.9411 136.394 27.2905 136.394H75.807Z" fill="#004A96"/>
<path d="M137.915 44.1022C141.19 43.3987 144.415 45.4825 145.119 48.7566C145.822 52.0308 143.738 55.2552 140.464 55.9589L93.1219 66.1308C89.8473 66.8344 86.6225 64.7506 85.9188 61.4764C85.2152 58.2022 87.2992 54.9777 90.5738 54.2741L137.915 44.1022Z" fill="#004A96"/>
<path d="M142.948 68.0239C146.223 67.3204 149.447 69.4042 150.151 72.6783C150.855 75.9525 148.771 79.177 145.496 79.8806L98.1471 90.0525C94.8725 90.756 91.6476 88.6722 90.9439 85.3981C90.2404 82.1239 92.3244 78.8994 95.599 78.1958L142.948 68.0239Z" fill="#004A96"/>
<path d="M155.526 127.828C158.8 127.124 162.025 129.208 162.729 132.482C163.432 135.757 161.348 138.981 158.074 139.685L110.732 149.857C107.458 150.56 104.233 148.476 103.529 145.202C102.825 141.928 104.91 138.703 108.184 138L155.526 127.828Z" fill="#004A96"/>
</svg>
