<svg width="62" height="75" viewBox="0 0 62 75" fill="none" xmlns="http://www.w3.org/2000/svg">
<path d="M49.3223 37.8839C49.4872 37.5703 49.5882 37.227 49.6195 36.8741C49.6507 36.5211 49.6117 36.1654 49.5045 35.8276C49.3973 35.4899 49.2242 35.1767 48.9952 34.9064C48.7661 34.636 48.4857 34.4137 48.1702 34.2525C47.8546 34.0912 47.5102 33.9942 47.1569 33.967C46.8036 33.9398 46.4484 33.983 46.1119 34.094C45.7754 34.2051 45.4643 34.3818 45.1966 34.614C44.9288 34.8461 44.7098 35.1291 44.5523 35.4465C43.1392 38.1758 41.0034 40.4644 38.3782 42.0625L35.3648 35.279C36.7366 34.1347 37.7703 32.6379 38.3547 30.9497C38.939 29.2616 39.0519 27.446 38.681 25.6985C38.3102 23.951 37.4698 22.3377 36.2502 21.0323C35.0307 19.7269 33.4782 18.7789 31.7599 18.2902V15.2367C31.7599 14.5263 31.4777 13.845 30.9753 13.3426C30.473 12.8403 29.7917 12.5581 29.0813 12.5581C28.3709 12.5581 27.6896 12.8403 27.1873 13.3426C26.6849 13.845 26.4027 14.5263 26.4027 15.2367V18.2902C24.6844 18.7789 23.1319 19.7269 21.9124 21.0323C20.6928 22.3377 19.8524 23.951 19.4816 25.6985C19.1108 27.446 19.2236 29.2616 19.8079 30.9497C20.3923 32.6379 21.426 34.1347 22.7978 35.279L12.3403 58.7902C12.1963 59.1126 12.1174 59.4603 12.1083 59.8133C12.0992 60.1663 12.16 60.5176 12.2871 60.8471C12.4143 61.1765 12.6054 61.4775 12.8493 61.7329C13.0932 61.9882 13.3853 62.1928 13.7086 62.3348C14.0511 62.4852 14.4216 62.5612 14.7956 62.558C15.3151 62.5594 15.8239 62.4097 16.2598 62.1271C16.6958 61.8446 17.0401 61.4413 17.251 60.9665L22.5344 49.0781C24.6555 49.7299 26.8623 50.0602 29.0813 50.058C31.3032 50.0559 33.513 49.7311 35.6416 49.0937L40.9116 60.9665C41.1225 61.4413 41.4668 61.8446 41.9028 62.1271C42.3387 62.4097 42.8475 62.5594 43.367 62.558C43.7403 62.561 44.11 62.4849 44.4518 62.3348C44.7753 62.193 45.0675 61.9885 45.3117 61.7333C45.5559 61.4781 45.7472 61.1771 45.8746 60.8476C46.002 60.5182 46.0629 60.1668 46.054 59.8137C46.045 59.4606 45.9663 59.1127 45.8223 58.7902L40.5746 46.9821C44.3099 44.8603 47.3488 41.6997 49.3223 37.8839ZM29.0813 23.2724C29.9643 23.2724 30.8274 23.5342 31.5615 24.0247C32.2957 24.5153 32.8679 25.2125 33.2058 26.0282C33.5436 26.844 33.6321 27.7416 33.4598 28.6076C33.2875 29.4736 32.8624 30.269 32.238 30.8934C31.6137 31.5177 30.8182 31.9429 29.9522 32.1151C29.0863 32.2874 28.1886 32.199 27.3729 31.8611C26.5572 31.5232 25.8599 30.951 25.3694 30.2169C24.8789 29.4827 24.617 28.6196 24.617 27.7366C24.617 26.5526 25.0874 25.4171 25.9246 24.5799C26.7618 23.7427 27.8973 23.2724 29.0813 23.2724ZM29.0813 44.7009C27.6106 44.7028 26.1458 44.513 24.7242 44.1362L27.6929 37.4576C28.6137 37.5915 29.5489 37.5915 30.4697 37.4576L33.4451 44.154C32.019 44.5175 30.553 44.7012 29.0813 44.7009Z" fill="black"/>
<path fill-rule="evenodd" clip-rule="evenodd" d="M49.3223 37.8839C49.3319 37.8657 49.3413 37.8473 49.3505 37.8289C49.4987 37.5303 49.59 37.2065 49.6195 36.8741C49.6507 36.5211 49.6117 36.1654 49.5045 35.8276C49.4811 35.754 49.4546 35.6815 49.4251 35.6104C49.3192 35.3554 49.1743 35.1178 48.9952 34.9064C48.8562 34.7423 48.6983 34.596 48.5251 34.4702C48.4129 34.3887 48.2943 34.3159 48.1702 34.2525C48.116 34.2248 48.0609 34.199 48.0051 34.1751C47.736 34.06 47.4495 33.9895 47.1569 33.967C47.1227 33.9644 47.0885 33.9624 47.0543 33.9611C46.735 33.9488 46.4159 33.9937 46.1119 34.094C45.7754 34.2051 45.4643 34.3818 45.1966 34.614C44.9444 34.8326 44.7355 35.0963 44.5804 35.3914C44.5749 35.4019 44.5695 35.4124 44.5641 35.4229C44.5601 35.4307 44.5562 35.4386 44.5523 35.4465C44.3882 35.7634 44.2144 36.0743 44.0312 36.379C43.8609 36.6621 43.6825 36.9397 43.4964 37.2116C43.4954 37.213 43.4945 37.2144 43.4935 37.2158C43.3369 37.4443 43.1748 37.6688 43.0073 37.889C42.1535 39.0115 41.1608 40.0229 40.0522 40.8984C39.7346 41.1492 39.4074 41.3889 39.0712 41.6169C39.0164 41.6541 38.9613 41.691 38.9059 41.7276C38.7323 41.8424 38.5564 41.954 38.3782 42.0625L35.3648 35.279C35.5936 35.0882 35.813 34.8875 36.0224 34.6778C36.1358 34.5643 36.2462 34.4482 36.3537 34.3295C36.954 33.6665 37.4612 32.9245 37.8608 32.124C37.8796 32.0864 37.8981 32.0487 37.9164 32.0108C38.0825 31.667 38.229 31.3128 38.3547 30.9497C38.502 30.524 38.6194 30.0901 38.7066 29.6512C38.858 28.8894 38.9184 28.1126 38.8868 27.3372C38.8789 27.1433 38.8652 26.9494 38.8458 26.7558C38.8103 26.4017 38.7554 26.0487 38.681 25.6985C38.6091 25.3595 38.5195 25.0256 38.4129 24.698C38.4095 24.6876 38.4061 24.6773 38.4027 24.6669C38.3264 24.4349 38.2415 24.2061 38.1483 23.981C37.7126 22.9284 37.0954 21.9555 36.3208 21.1086C36.2974 21.083 36.2739 21.0576 36.2502 21.0323C35.734 20.4797 35.1581 19.9911 34.5352 19.5744C33.8448 19.1125 33.0968 18.7387 32.3083 18.4637C32.1276 18.4007 31.9447 18.3428 31.7599 18.2902V15.2367C31.7599 14.5263 31.4777 13.845 30.9753 13.3426C30.473 12.8403 29.7917 12.5581 29.0813 12.5581C28.3709 12.5581 27.6896 12.8403 27.1873 13.3426C26.6849 13.845 26.4027 14.5263 26.4027 15.2367V18.2902C26.2179 18.3428 26.035 18.4007 25.8543 18.4637C24.4575 18.9509 23.1876 19.7479 22.1406 20.796C22.0633 20.8734 21.9872 20.9522 21.9124 21.0323C21.8887 21.0576 21.8652 21.083 21.8418 21.1086C20.9015 22.1367 20.1931 23.3503 19.7599 24.6669C19.6488 25.0045 19.5558 25.3488 19.4816 25.6985C19.407 26.0498 19.352 26.4038 19.3165 26.759C19.2839 27.0843 19.2677 27.4106 19.2677 27.7366C19.2676 28.8256 19.4486 29.9117 19.8079 30.9497C20.083 31.7444 20.4576 32.4966 20.9202 33.1897C21.1896 33.5932 21.4887 33.9766 21.8154 34.3367C22.1196 34.672 22.4477 34.987 22.7978 35.279L12.3403 58.7902C12.1963 59.1126 12.1174 59.4603 12.1083 59.8133C12.0992 60.1663 12.16 60.5176 12.2871 60.8471C12.4143 61.1765 12.6054 61.4775 12.8493 61.7329C13.0932 61.9882 13.3853 62.1928 13.7086 62.3348C14.0511 62.4852 14.4216 62.5612 14.7956 62.558C15.3151 62.5594 15.8239 62.4097 16.2598 62.1271C16.6914 61.8474 17.0333 61.4493 17.2447 60.9806C17.2458 60.9781 17.2469 60.9756 17.248 60.9731C17.249 60.9709 17.25 60.9687 17.251 60.9665L22.5344 49.0781C22.8057 49.1615 23.0783 49.2396 23.3522 49.3124C25.1291 49.7848 26.9586 50.0349 28.7985 50.0565C28.8021 50.0566 28.8057 50.0566 28.8092 50.0566C28.8996 50.0577 28.9899 50.0581 29.0803 50.058C29.08 50.058 29.0806 50.058 29.0803 50.058C29.0827 50.058 29.086 50.058 29.0883 50.058C29.1784 50.0579 29.2685 50.0573 29.3586 50.0561C31.184 50.0323 32.9992 49.7907 34.766 49.3371C35.0592 49.2618 35.3511 49.1807 35.6416 49.0937L40.9116 60.9665C40.9124 60.9682 40.9131 60.9699 40.9139 60.9716C40.915 60.974 40.9161 60.9765 40.9172 60.9789C41.1285 61.4484 41.4707 61.847 41.9028 62.1271C42.3387 62.4097 42.8475 62.5594 43.367 62.558C43.7403 62.561 44.11 62.4849 44.4518 62.3348C44.7753 62.193 45.0676 61.9885 45.3117 61.7333C45.5559 61.4781 45.7472 61.1771 45.8746 60.8476C46.002 60.5182 46.0629 60.1668 46.054 59.8137C46.045 59.4606 45.9663 59.1127 45.8223 58.7902L40.5746 46.9821C40.7581 46.8779 40.9398 46.7712 41.1199 46.662C41.1341 46.6534 41.1482 46.6448 41.1623 46.6362C41.8876 46.1942 42.5848 45.7122 43.251 45.1932C44.2145 44.4426 45.1132 43.6146 45.9384 42.7182C45.9389 42.7177 45.9394 42.7171 45.9399 42.7166C46.1429 42.4961 46.3414 42.2715 46.5353 42.0429C47.0828 41.3974 47.5939 40.7201 48.0655 40.0138C48.3307 39.6169 48.5833 39.2109 48.8231 38.7962C48.9916 38.5048 49.1537 38.2091 49.3092 37.9093C49.3136 37.9009 49.318 37.8924 49.3223 37.8839ZM56.7808 53.9002C56.7832 53.9055 56.7856 53.9109 56.7879 53.9162C56.788 53.9163 56.7878 53.916 56.7879 53.9162C57.5721 55.6792 58.0011 57.5801 58.0501 59.5091C58.0992 61.4442 57.7651 63.3698 57.0671 65.1752C56.369 66.9806 55.3208 68.6301 53.9827 70.0288C52.6464 71.4256 51.0473 72.5446 49.2774 73.3218C49.2751 73.3228 49.2727 73.3238 49.2703 73.3249C47.3996 74.1453 45.3781 74.5653 43.3359 74.558C40.5111 74.5534 37.747 73.7338 35.3758 72.1968C32.9868 70.6483 31.0996 68.4384 29.9443 65.8364L29.0818 63.8935L28.2184 65.8364C28.2178 65.8376 28.2173 65.8388 28.2168 65.84C27.0613 68.4404 25.1748 70.649 22.7868 72.1968C20.4166 73.7331 17.654 74.5527 14.8305 74.558C12.7843 74.5661 10.7588 74.1453 8.88473 73.3225L8.8817 73.3212C7.11 72.5428 5.50972 71.4218 4.17293 70.0227C2.83612 68.6235 1.78915 66.9738 1.09227 65.1685C0.395389 63.3632 0.0623517 61.438 0.112316 59.5035C0.162122 57.5751 0.591533 55.6755 1.37594 53.9133C1.37638 53.9123 1.37681 53.9114 1.37724 53.9104C1.37929 53.9058 1.38135 53.9012 1.3834 53.8966L9.11278 36.5191C8.87634 35.9812 8.66117 35.4328 8.46808 34.875C7.16976 31.1242 6.91905 27.0903 7.74293 23.2076C8.56681 19.3249 10.4341 15.7405 13.1437 12.8402C13.7314 12.2112 14.3538 11.6195 15.0072 11.0675C15.696 8.7427 16.9565 6.60286 18.702 4.85736C21.4548 2.10459 25.1883 0.558105 29.0813 0.558105C32.9743 0.558105 36.7079 2.1046 39.4606 4.85736C41.2061 6.60285 42.4666 8.74269 43.1554 11.0675C43.8088 11.6195 44.4312 12.2111 45.0189 12.8402C47.5222 15.5197 49.3066 18.7831 50.2134 22.3262C51.3968 22.5959 52.5448 23.012 53.6306 23.5668C55.3597 24.4504 56.8964 25.6683 58.1516 27.15C59.4067 28.6317 60.3554 30.3477 60.9426 32.1987C61.5299 34.0496 61.744 35.9987 61.5727 37.933C61.4028 39.85 60.8577 41.7147 59.9685 43.421C58.6664 45.9336 57.0644 48.2616 55.2069 50.3586L56.7808 53.9002ZM23.3046 63.667L23.3084 63.6585ZM31.1531 38.9957L33.4451 44.154C32.9139 44.2894 32.3771 44.3999 31.8365 44.4851C31.7242 44.5029 31.6118 44.5195 31.4992 44.535C30.6988 44.6455 29.8909 44.701 29.0813 44.7009C29.0796 44.7009 29.0778 44.7009 29.0761 44.7009C29.0762 44.7009 29.0761 44.7009 29.0761 44.7009C28.2683 44.7017 27.4621 44.6447 26.6641 44.5305C26.5528 44.5146 26.4416 44.4976 26.3306 44.4795C26.3272 44.4789 26.3238 44.4783 26.3203 44.4778C25.7836 44.3897 25.2509 44.2758 24.7242 44.1362L27.6929 37.4576C27.6943 37.4578 27.6957 37.458 27.6972 37.4582C28.153 37.5243 28.6125 37.5576 29.0719 37.5581C29.0755 37.5581 29.079 37.5581 29.0826 37.5581C29.5416 37.558 30.0007 37.5252 30.4562 37.4596C30.4607 37.4589 30.4652 37.4583 30.4697 37.4576L31.1531 38.9957ZM25.5401 25.0182C25.1341 25.5471 24.8525 26.1594 24.7145 26.8089C24.7105 26.8278 24.7066 26.8467 24.7028 26.8657C24.6461 27.1505 24.617 27.442 24.617 27.7366C24.617 28.0123 24.6425 28.2861 24.6926 28.5545C24.706 28.6265 24.7212 28.6981 24.7381 28.7693C24.7727 28.9148 24.8146 29.0585 24.8636 29.1998C24.8923 29.2824 24.9233 29.3642 24.9568 29.4451C25.0682 29.7139 25.2061 29.9725 25.3694 30.2169C25.6091 30.5757 25.8983 30.8958 26.2265 31.1688C26.3463 31.2685 26.4713 31.3619 26.6011 31.4486C26.8431 31.6102 27.1014 31.7486 27.3729 31.8611C27.7244 32.0067 28.091 32.106 28.4638 32.158C28.6683 32.1866 28.8746 32.2009 29.0813 32.2009C29.2873 32.2009 29.4936 32.1867 29.6988 32.158C29.7835 32.1462 29.868 32.1319 29.9522 32.1151C30.6842 31.9696 31.3657 31.6433 31.9361 31.1688C32.0406 31.0819 32.1414 30.99 32.238 30.8934C32.717 30.4144 33.0787 29.8347 33.299 29.1998C33.3479 29.0588 33.3898 28.9151 33.4245 28.7693C33.4373 28.7157 33.449 28.6618 33.4598 28.6076C33.4633 28.5899 33.4667 28.5722 33.47 28.5545C33.5205 28.2836 33.5456 28.0098 33.5456 27.7366C33.5456 27.4249 33.5129 27.1139 33.4481 26.8089C33.3916 26.543 33.3107 26.2817 33.2058 26.0282C33.0933 25.7568 32.9549 25.4984 32.7932 25.2564C32.7389 25.1751 32.6819 25.0957 32.6224 25.0182C32.5338 24.9027 32.4396 24.7917 32.3401 24.6854C32.1627 24.496 31.9686 24.3218 31.7596 24.1651C31.695 24.1166 31.6289 24.0698 31.5615 24.0247C31.3172 23.8615 31.0586 23.7236 30.7897 23.6122C30.6283 23.5453 30.4632 23.4881 30.2953 23.4406C29.9024 23.3296 29.494 23.2724 29.0813 23.2724C28.7867 23.2724 28.4951 23.3015 28.2104 23.3581C28.0948 23.3811 27.9804 23.4086 27.8673 23.4406C27.3404 23.5895 26.8436 23.8346 26.4029 24.165C26.2348 24.2911 26.0749 24.4296 25.9246 24.5799C25.8899 24.6146 25.8559 24.6497 25.8225 24.6854C25.7227 24.792 25.6285 24.9031 25.5401 25.0182Z" fill="#FF8477"/>
</svg>
