<svg width="62" height="74" viewBox="0 0 62 74" fill="none" xmlns="http://www.w3.org/2000/svg">
<path fill-rule="evenodd" clip-rule="evenodd" d="M56.6734 53.3421C56.6758 53.3474 56.6781 53.3527 56.6805 53.3581C57.4646 55.1211 57.8937 57.022 57.9427 58.951C57.9918 60.8861 57.6577 62.8117 56.9597 64.6171C56.2616 66.4225 55.2134 68.072 53.8753 69.4707C52.5389 70.8675 50.9399 71.9865 49.17 72.7636C49.1676 72.7647 49.1653 72.7657 49.1629 72.7668C47.2922 73.5872 45.2707 74.0072 43.2285 73.9999C40.4036 73.9953 37.6396 73.1757 35.2684 71.6387C32.8793 70.0902 30.9922 67.8803 29.8368 65.2783L28.9744 63.3354L28.1109 65.2783L28.1094 65.2819C26.9539 67.8823 25.0673 70.0909 22.6794 71.6387C20.3092 73.175 17.5465 73.9946 14.723 73.9999C12.6768 74.0079 10.6514 73.5872 8.77731 72.7644L8.77428 72.7631C7.00258 71.9847 5.4023 70.8637 4.06551 69.4645C2.7287 68.0654 1.68173 66.4157 0.984848 64.6104C0.287968 62.8051 -0.0450701 60.8799 0.00489381 58.9454C0.0547004 57.017 0.48411 55.1174 1.26852 53.3552L1.26982 53.3523C1.27187 53.3477 1.27392 53.3431 1.27598 53.3385L9.00536 35.9609C8.76892 35.4231 8.55375 34.8747 8.36066 34.3169C7.06234 30.5661 6.81163 26.5322 7.63551 22.6495C8.45939 18.7668 10.3267 15.1824 13.0363 12.282C13.6239 11.653 14.2464 11.0614 14.8998 10.5094C15.5886 8.1846 16.8491 6.04475 18.5946 4.29925C21.3473 1.54649 25.0809 0 28.9739 0C32.8669 0 36.6004 1.54649 39.3532 4.29925C41.0987 6.04475 42.3592 8.18459 43.0479 10.5094C43.7014 11.0614 44.3238 11.653 44.9115 12.282C47.4148 14.9616 49.1992 18.225 50.106 21.7681C51.2894 22.0378 52.4374 22.4539 53.5231 23.0087C55.2523 23.8923 56.789 25.1102 58.0441 26.5919C59.2993 28.0736 60.248 29.7896 60.8352 31.6406C61.4225 33.4915 61.6366 35.4406 61.4652 37.3749C61.2954 39.2919 60.7503 41.1566 59.8611 42.8629C58.559 45.3755 56.957 47.7034 55.0995 49.8005L56.6734 53.3421ZM23.1972 63.1089L23.2009 63.1004Z" fill="#FF8477"/>
<path d="M49.2149 37.3258C49.3798 37.0122 49.4808 36.6689 49.5121 36.3159C49.5433 35.963 49.5042 35.6073 49.3971 35.2695C49.2899 34.9318 49.1168 34.6186 48.8878 34.3482C48.6587 34.0779 48.3783 33.8556 48.0628 33.6944C47.7472 33.5331 47.4028 33.4361 47.0495 33.4089C46.6962 33.3817 46.341 33.4249 46.0045 33.5359C45.668 33.647 45.3569 33.8237 45.0891 34.0559C44.8214 34.288 44.6024 34.571 44.4448 34.8883C43.0318 37.6177 40.896 39.9063 38.2707 41.5044L35.2573 34.7209C36.6292 33.5766 37.6629 32.0798 38.2472 30.3916C38.8316 28.7035 38.9444 26.8879 38.5736 25.1404C38.2028 23.3929 37.3624 21.7796 36.1428 20.4742C34.9233 19.1688 33.3708 18.2208 31.6524 17.7321V14.6786C31.6524 13.9682 31.3702 13.2869 30.8679 12.7845C30.3656 12.2822 29.6843 12 28.9739 12C28.2635 12 27.5822 12.2822 27.0798 12.7845C26.5775 13.2869 26.2953 13.9682 26.2953 14.6786V17.7321C24.577 18.2208 23.0245 19.1688 21.8049 20.4742C20.5854 21.7796 19.745 23.3929 19.3741 25.1404C19.0033 26.8879 19.1162 28.7035 19.7005 30.3916C20.2849 32.0798 21.3186 33.5766 22.6904 34.7209L12.2328 58.2321C12.0888 58.5545 12.01 58.9022 12.0009 59.2552C11.9918 59.6082 12.0525 59.9595 12.1797 60.289C12.3069 60.6184 12.4979 60.9194 12.7419 61.1748C12.9858 61.4301 13.2778 61.6346 13.6011 61.7767C13.9437 61.9271 14.3141 62.0031 14.6882 61.9999C15.2077 62.0013 15.7164 61.8516 16.1524 61.569C16.5883 61.2865 16.9327 60.8832 17.1435 60.4084L22.427 48.52C24.5481 49.1718 26.7549 49.5021 28.9739 49.4999C31.1958 49.4978 33.4056 49.173 35.5341 48.5356L40.8042 60.4084C41.0151 60.8832 41.3594 61.2865 41.7954 61.569C42.2313 61.8516 42.74 62.0013 43.2596 61.9999C43.6329 62.0029 44.0026 61.9268 44.3444 61.7767C44.6679 61.6349 44.9601 61.4304 45.2043 61.1752C45.4485 60.92 45.6398 60.619 45.7671 60.2895C45.8945 59.9601 45.9555 59.6087 45.9465 59.2556C45.9376 58.9025 45.8589 58.5546 45.7149 58.2321L40.4672 46.424C44.2025 44.3022 47.2414 41.1416 49.2149 37.3258ZM28.9739 22.7143C29.8568 22.7143 30.72 22.9761 31.4541 23.4666C32.1882 23.9572 32.7604 24.6544 33.0983 25.4701C33.4362 26.2859 33.5246 27.1835 33.3524 28.0495C33.1801 28.9155 32.7549 29.7109 32.1306 30.3353C31.5063 30.9596 30.7108 31.3848 29.8448 31.557C28.9788 31.7293 28.0812 31.6409 27.2655 31.303C26.4497 30.9651 25.7525 30.3929 25.262 29.6588C24.7714 28.9246 24.5096 28.0615 24.5096 27.1785C24.5096 25.9945 24.9799 24.859 25.8172 24.0218C26.6544 23.1846 27.7899 22.7143 28.9739 22.7143ZM28.9739 44.1428C27.5031 44.1447 26.0384 43.9549 24.6167 43.5781L27.5855 36.8995C28.5062 37.0334 29.4415 37.0334 30.3623 36.8995L33.3377 43.5959C31.9116 43.9593 30.4456 44.1431 28.9739 44.1428Z" fill="#994F47"/>
</svg>
