<svg width="70" height="72" viewBox="0 0 70 72" fill="none" xmlns="http://www.w3.org/2000/svg">
<path fill-rule="evenodd" clip-rule="evenodd" d="M40.7349 1.90916C39.6606 1.40173 38.5346 0.987394 37.3674 0.675474C33.0493 -0.478454 28.503 -0.139656 24.4436 1.58248C20.786 1.49786 17.1467 2.42232 13.9396 4.29342C9.34412 6.97455 6.03963 11.3595 4.69163 16.4423C4.54503 16.9951 4.42266 17.5519 4.32437 18.1111C2.64237 20.2357 1.39797 22.6948 0.686027 25.3454C-0.671159 30.3982 -0.000454903 35.793 2.5722 40.3667C2.5888 40.3962 2.60549 40.4257 2.62228 40.4551L4.24425 43.2963C2.34514 47.7391 2.47262 52.9869 5.04677 57.5102C7.45045 61.7339 10.6347 65.4664 14.4362 68.5024C19.7235 72.7249 26.8653 73.0532 32.3972 69.8751C39.8419 71.2521 47.5565 69.9194 54.1393 66.0791C57.7661 63.9633 60.9336 61.1529 63.4673 57.8162C66.0008 54.4799 67.8526 50.681 68.9248 46.6387C69.997 42.5967 70.2704 38.3836 69.731 34.2379C69.4683 32.2181 69.0148 30.2318 68.3788 28.3054C70.6159 23.7054 70.6129 18.1151 67.8789 13.3418L67.8262 13.2499C67.8235 13.2452 67.8208 13.2404 67.8181 13.2357C66.1012 10.2314 63.807 7.58803 61.0595 5.46422C58.3074 3.33677 55.1563 1.77408 51.7858 0.87447C47.9449 -0.150684 44.0573 0.312236 40.7349 1.90916Z" fill="#FFC700"/>
<path d="M25.456 59.9954C25.2585 60.2591 25.011 60.4813 24.7277 60.6493C24.4444 60.8173 24.1307 60.9278 23.8046 60.9746C23.4786 61.0214 23.1465 61.0034 22.8273 60.9219C22.5082 60.8403 22.2083 60.6966 21.9446 60.4991C18.9578 58.263 16.4587 55.4409 14.6001 52.2057C14.4354 51.9204 14.3285 51.6054 14.2856 51.2788C14.2426 50.9522 14.2644 50.6203 14.3497 50.3021C14.435 49.9839 14.5821 49.6856 14.7827 49.4243C14.9833 49.1629 15.2334 48.9437 15.5187 48.779C15.804 48.6143 16.119 48.5074 16.4456 48.4645C16.7722 48.4215 17.1041 48.4433 17.4223 48.5286C17.7405 48.6139 18.0388 48.761 18.3001 48.9616C18.5614 49.1622 18.7807 49.4123 18.9454 49.6976C20.4648 52.345 22.508 54.6549 24.9502 56.4862C25.4824 56.8846 25.8346 57.4781 25.9294 58.1361C26.0243 58.7941 25.854 59.4629 25.456 59.9954ZM55.1456 28.7968C57.6955 33.2133 58.3865 38.462 57.0665 43.388C55.7466 48.314 52.5238 52.514 48.1073 55.0639C43.6907 57.6138 38.442 58.3047 33.516 56.9848C28.59 55.6648 24.39 52.4421 21.8401 48.0255L13.8978 34.2686C13.3867 33.3845 13.0849 32.395 13.0155 31.3762C12.946 30.3573 13.1108 29.3361 13.4972 28.3908C13.8836 27.4455 14.4813 26.6013 15.2446 25.9228C16.0078 25.2443 16.9163 24.7495 17.9003 24.4766L17.8042 24.2947C17.1426 23.149 16.8357 21.8329 16.9222 20.5128C17.0087 19.1926 17.4848 17.9278 18.2902 16.8783C19.0957 15.8287 20.1943 15.0416 21.4471 14.6166C22.6999 14.1915 24.0507 14.1475 25.3285 14.4901C26.0462 14.6851 26.7259 14.9995 27.3391 15.4202C28.0256 14.5874 28.9034 13.9331 29.8976 13.5132C30.8919 13.0932 31.9729 12.9201 33.0486 13.0086C34.1242 13.0971 35.1624 13.4446 36.0746 14.0214C36.9868 14.5982 37.7459 15.3872 38.287 16.321L40.9038 20.8544C41.6322 20.1391 42.5148 19.5999 43.4838 19.2784C44.4528 18.9568 45.4826 18.8614 46.4942 18.9994C47.5058 19.1374 48.4724 19.5052 49.3199 20.0745C50.1674 20.6439 50.8733 21.3997 51.3835 22.2841L55.1456 28.7968ZM50.8024 31.3049L47.0403 24.788C46.9305 24.5976 46.7843 24.4308 46.61 24.2969C46.4357 24.1631 46.2368 24.0649 46.0246 24.0079C45.8123 23.9509 45.591 23.9363 45.3731 23.9649C45.1552 23.9935 44.9451 24.0647 44.7548 24.1745C44.5644 24.2843 44.3976 24.4305 44.2637 24.6048C44.1299 24.7791 44.0317 24.978 43.9747 25.1902C43.9177 25.4025 43.9031 25.6238 43.9317 25.8417C43.9603 26.0596 44.0315 26.2697 44.1413 26.46L46.2314 30.078C46.5639 30.6539 46.654 31.3384 46.4819 31.9808C46.3099 32.6232 45.8897 33.1709 45.3139 33.5036C44.6482 33.8879 44.0648 34.3995 43.5969 35.0092C43.129 35.6189 42.7858 36.3148 42.5869 37.0572C42.3879 37.7996 42.3372 38.5738 42.4375 39.3358C42.5378 40.0978 42.7872 40.8326 43.1715 41.4982C43.3362 41.7835 43.4431 42.0985 43.486 42.4251C43.529 42.7517 43.5072 43.0836 43.4219 43.4018C43.3366 43.72 43.1895 44.0183 42.9889 44.2796C42.7883 44.5409 42.5382 44.7602 42.2529 44.9249C41.9676 45.0896 41.6527 45.1964 41.326 45.2394C40.9994 45.2824 40.6675 45.2606 40.3493 45.1753C40.0311 45.09 39.7329 44.9428 39.4715 44.7423C39.2102 44.5417 38.9909 44.2916 38.8262 44.0063C37.6091 41.8876 37.14 39.4211 37.4945 37.0035C37.8489 34.586 39.0063 32.3579 40.7805 30.6778L33.948 18.8291C33.7263 18.445 33.361 18.1647 32.9326 18.0498C32.5042 17.935 32.0477 17.995 31.6635 18.2168C31.2794 18.4385 30.999 18.8037 30.8842 19.2322C30.7694 19.6606 30.8294 20.1171 31.0511 20.5012L36.4853 29.9066C36.8179 30.4828 36.908 31.1675 36.7357 31.8102C36.5635 32.4528 36.143 33.0007 35.5668 33.3333C34.9905 33.6659 34.3058 33.7559 33.6632 33.5837C33.0205 33.4114 32.4727 32.9909 32.1401 32.4147L25.0338 20.1062C24.8121 19.7225 24.4473 19.4426 24.0193 19.3277C23.5914 19.2129 23.1353 19.2726 22.7514 19.4938C22.5612 19.6036 22.3944 19.7497 22.2607 19.9239C22.1269 20.0982 22.0288 20.297 21.972 20.5092C21.9151 20.7213 21.9006 20.9426 21.9292 21.1603C21.9579 21.3781 22.0292 21.5881 22.139 21.7783L30.0813 35.5331C30.246 35.8184 30.3529 36.1334 30.3959 36.46C30.4388 36.7866 30.417 37.1185 30.3317 37.4367C30.2464 37.7549 30.0993 38.0532 29.8987 38.3145C29.6981 38.5758 29.4481 38.7951 29.1627 38.9598C28.8774 39.1245 28.5625 39.2313 28.2358 39.2743C27.9092 39.3173 27.5773 39.2955 27.2591 39.2102C26.941 39.1249 26.6427 38.9777 26.3813 38.7772C26.12 38.5766 25.9007 38.3265 25.736 38.0412L21.1379 30.078C21.0313 29.8818 20.8865 29.7089 20.7121 29.5695C20.5376 29.4301 20.337 29.3271 20.1221 29.2665C19.9072 29.206 19.6824 29.189 19.4608 29.2168C19.2392 29.2445 19.0255 29.3163 18.8321 29.428C18.6388 29.5397 18.4698 29.689 18.335 29.867C18.2003 30.0451 18.1026 30.2483 18.0477 30.4647C17.9928 30.6812 17.9818 30.9064 18.0154 31.1272C18.0489 31.3479 18.1264 31.5597 18.2431 31.75L26.1854 45.5174C28.0701 48.7818 31.1744 51.1639 34.8154 52.1395C36.6182 52.6225 38.4985 52.7458 40.349 52.5022C42.1995 52.2585 43.9838 51.6528 45.6002 50.7196C47.2166 49.7864 48.6333 48.544 49.7695 47.0632C50.9057 45.5825 51.7392 43.8925 52.2222 42.0897C52.7053 40.2868 52.8286 38.4065 52.5849 36.556C52.3413 34.7056 51.7356 32.9212 50.8024 31.3049ZM58.6235 18.0976C57.64 16.3824 56.3259 14.8794 54.7573 13.6758C53.1888 12.4721 51.3969 11.5916 49.4857 11.0854C49.1674 11.0002 48.8355 10.9785 48.5089 11.0215C48.1822 11.0646 47.8672 11.1715 47.5819 11.3363C47.2966 11.5011 47.0466 11.7204 46.8461 11.9819C46.6455 12.2433 46.4985 12.5416 46.4132 12.8599C46.328 13.1781 46.3063 13.51 46.3494 13.8367C46.3924 14.1633 46.4994 14.4783 46.6642 14.7636C46.8289 15.0489 47.0483 15.2989 47.3097 15.4995C47.5711 15.7 47.8695 15.8471 48.1877 15.9323C49.462 16.2693 50.6567 16.856 51.7025 17.6582C52.7484 18.4605 53.6246 19.4623 54.2803 20.6057C54.4417 20.8973 54.6595 21.1537 54.9211 21.3602C55.1826 21.5666 55.4827 21.7188 55.8038 21.808C56.1249 21.8971 56.4605 21.9214 56.7911 21.8794C57.1216 21.8373 57.4405 21.7299 57.729 21.5632C58.0176 21.3966 58.2701 21.1741 58.4717 20.9088C58.6733 20.6435 58.82 20.3407 58.9033 20.0181C58.9866 19.6954 59.0047 19.3594 58.9567 19.0297C58.9086 18.6999 58.7954 18.3831 58.6235 18.0976Z" fill="#7F6300"/>
</svg>
