<svg width="69" height="58" viewBox="0 0 69 58" fill="none" xmlns="http://www.w3.org/2000/svg">
<path d="M55.0579 25.2365C54.7562 25.0621 49.6925 22.1888 42.7926 21.6674C41.4491 18.7241 39.3918 16.3169 36.8617 14.7652C33.3 12.5721 29.0509 12.1806 24.5678 13.6223C15.605 16.5044 12.3616 26.3717 12.2282 26.7894C12.0568 27.3227 12.1044 27.9022 12.3604 28.4004C12.6163 28.8987 13.0597 29.2748 13.593 29.4461C14.1263 29.6174 14.7058 29.5699 15.204 29.3139C15.7023 29.0579 16.0784 28.6145 16.2497 28.0812C16.2729 27.9925 18.9397 19.8636 25.8593 17.6385C29.1811 16.5703 32.1387 16.8102 34.6528 18.3523C36.0098 19.2046 37.1599 20.3486 38.0193 21.7012C36.2457 21.8797 34.496 22.2455 32.7995 22.7926C28.2812 24.2455 24.8512 26.665 22.8901 29.7884C21.1247 32.6014 20.6501 35.8911 21.5902 38.8146C23.0006 43.2006 27.6819 46.5958 33.902 44.5956C42.592 41.8011 45.5134 33.4242 44.1706 26.0731C47.2317 26.5091 50.1974 27.4581 52.9429 28.8802C53.1826 29.0366 53.4517 29.1426 53.7337 29.1916C54.0157 29.2407 54.3048 29.2318 54.5832 29.1656C54.8617 29.0994 55.1238 28.9772 55.3535 28.8064C55.5833 28.6357 55.7759 28.42 55.9196 28.1724C56.0633 27.9248 56.1551 27.6506 56.1894 27.3664C56.2237 27.0823 56.1999 26.7941 56.1192 26.5194C56.0386 26.2448 55.903 25.9894 55.7205 25.7688C55.538 25.5483 55.3126 25.3672 55.0579 25.2365ZM39.4049 34.2843C38.566 36.43 36.707 39.2621 32.6105 40.5794C28.8403 41.7918 26.3764 39.9178 25.6064 37.5231C24.4855 34.0374 26.6627 29.1975 34.091 26.8088C35.9401 26.2195 37.8619 25.8886 39.8016 25.8255C40.5377 28.6945 40.4015 31.7333 39.4049 34.2843Z" fill="black"/>
<path fill-rule="evenodd" clip-rule="evenodd" d="M43.9429 33.9094C44.0067 33.6572 44.0648 33.4033 44.1171 33.1482C44.3668 31.9311 44.4862 30.6847 44.482 29.4392C44.4786 28.4244 44.3932 27.4102 44.2295 26.4128C44.2109 26.2993 44.1912 26.1861 44.1706 26.0731C44.1998 26.0773 44.229 26.0815 44.2582 26.0857C46.6061 26.4278 48.8972 27.0719 51.0749 27.9999C51.4705 28.1685 51.8623 28.3464 52.25 28.5336C52.2771 28.5467 52.3041 28.5598 52.3312 28.5729C52.5362 28.6728 52.7402 28.7752 52.9429 28.8802C52.9449 28.8815 52.9469 28.8828 52.9489 28.8841C53.0084 28.9226 53.0698 28.9581 53.1326 28.9903C53.3213 29.0871 53.524 29.1551 53.7337 29.1916C54.0157 29.2406 54.3048 29.2318 54.5833 29.1656C54.8617 29.0994 55.1238 28.9771 55.3536 28.8064C55.5833 28.6356 55.7759 28.4199 55.9196 28.1724C55.9925 28.0468 56.052 27.9144 56.0975 27.7773C56.1416 27.6441 56.1725 27.5064 56.1894 27.3664C56.2237 27.0822 56.1999 26.794 56.1193 26.5194C56.0387 26.2447 55.903 25.9893 55.7205 25.7688C55.5848 25.6047 55.4253 25.4625 55.2476 25.3466C55.1865 25.3067 55.1231 25.27 55.0579 25.2365C55.0324 25.2218 54.973 25.1878 54.8815 25.1377C54.783 25.0837 54.6471 25.011 54.4763 24.9233C54.3907 24.8794 54.2964 24.8318 54.1935 24.7808C53.983 24.6766 53.7369 24.5586 53.4574 24.431C53.4293 24.4182 53.4009 24.4053 53.3722 24.3923C52.882 24.1704 52.2948 23.9214 51.6224 23.6658C51.5812 23.6502 51.5397 23.6345 51.4979 23.6188C51.0915 23.4662 50.6553 23.3118 50.1917 23.1597C48.8704 22.7264 47.3266 22.3126 45.618 22.0183C45.3387 21.9701 45.055 21.9252 44.7672 21.8839C44.1285 21.7923 43.4694 21.7185 42.7926 21.6674C42.4358 20.8856 42.0286 20.1417 41.5756 19.4416C40.9663 18.5 40.2741 17.6376 39.51 16.869C38.8434 16.1985 38.122 15.5994 37.3532 15.0813C37.2018 14.9793 37.0485 14.8804 36.8934 14.7847C36.8829 14.7781 36.8723 14.7716 36.8617 14.7651C36.8596 14.7639 36.8575 14.7626 36.8554 14.7613C36.4966 14.5406 36.1308 14.3382 35.7585 14.1541C33.8484 13.2096 31.767 12.7471 29.5768 12.7709C29.5738 12.7709 29.5708 12.7709 29.5679 12.771C29.5593 12.7711 29.5508 12.7712 29.5423 12.7713C27.9343 12.7925 26.2679 13.0755 24.5679 13.6222C21.6404 14.5636 19.3231 16.2502 17.525 18.1093C17.3742 18.2652 17.227 18.4224 17.0833 18.5805C15.4291 20.4014 14.2527 22.3386 13.4722 23.8751C13.4719 23.8757 13.4715 23.8764 13.4712 23.8771C13.2764 24.2607 13.1062 24.6193 12.9595 24.9448C12.4917 25.9826 12.2617 26.6844 12.2282 26.7894C12.2043 26.8638 12.1846 26.9391 12.1692 27.0149C12.0742 27.4828 12.1401 27.9717 12.3604 28.4004C12.6163 28.8986 13.0597 29.2748 13.593 29.4461C13.8255 29.5207 14.0667 29.5538 14.3062 29.5462C14.6161 29.5363 14.923 29.4583 15.204 29.3139C15.7023 29.0579 16.0784 28.6145 16.2497 28.0812C16.25 28.0801 16.2507 28.0778 16.2518 28.0744C16.2777 27.9908 16.5348 27.2246 17.064 26.1319C17.0642 26.1315 17.0644 26.1311 17.0646 26.1307C17.0958 26.0662 17.128 26.0007 17.1611 25.9341C17.9412 24.3645 19.251 22.206 21.2007 20.4134C22.4715 19.2449 24.0142 18.2318 25.8593 17.6384C27.4285 17.1338 28.9164 16.9211 30.3146 16.9997C30.5284 17.0117 30.7401 17.0306 30.9497 17.0562C30.9515 17.0564 30.9533 17.0566 30.9551 17.0568C30.9649 17.0581 30.9748 17.0593 30.9847 17.0605C32.2929 17.2254 33.518 17.6562 34.6528 18.3522C34.6528 18.3523 34.6529 18.3523 34.6529 18.3523C34.655 18.3537 34.6571 18.355 34.6592 18.3563C36.0135 19.2082 37.1613 20.3507 38.0193 21.7012C36.2494 21.8793 34.5033 22.2439 32.8101 22.7891C32.8066 22.7903 32.803 22.7914 32.7995 22.7925C32.4277 22.9121 32.0633 23.0382 31.7065 23.1707C31.7025 23.1722 31.6985 23.1736 31.6945 23.1751C31.6897 23.1769 31.6848 23.1787 31.68 23.1805C31.654 23.1902 31.628 23.2 31.602 23.2098C31.5542 23.2278 31.5065 23.2459 31.4589 23.2641C30.2754 23.7179 29.1776 24.2431 28.1733 24.8342C26.5646 25.781 25.1961 26.8969 24.1005 28.1593C23.6502 28.6781 23.246 29.2216 22.8902 29.7883C22.8851 29.7964 22.8801 29.8045 22.875 29.8125C22.8096 29.9173 22.746 30.0226 22.6842 30.1286C22.681 30.1341 22.6778 30.1396 22.6747 30.1451C21.0874 32.8769 20.6895 36.0138 21.5902 38.8146C21.6493 38.9984 21.7142 39.1805 21.7846 39.3605C23.3957 43.4757 27.9426 46.5119 33.902 44.5956C38.0245 43.2699 40.8488 40.6878 42.5354 37.555C42.8379 36.9931 43.1038 36.4136 43.3341 35.8203C43.3342 35.82 43.3343 35.8197 43.3344 35.8194C43.5762 35.1962 43.7787 34.558 43.9429 33.9094ZM40.0092 32.199C40.3497 30.4793 40.3552 28.6369 40.0228 26.8308C39.9608 26.4941 39.8871 26.1586 39.8016 25.8254C39.3476 25.8402 38.8945 25.8697 38.4432 25.9137C36.9673 26.0576 35.5096 26.357 34.0942 26.8077C34.0932 26.8081 34.0921 26.8084 34.091 26.8088C33.4406 27.0179 32.8305 27.2458 32.2594 27.49C32.2505 27.4937 32.2417 27.4975 32.2329 27.5013C31.8032 27.6858 31.3956 27.8794 31.0095 28.0812C30.4708 28.3628 29.9741 28.6602 29.5179 28.9704C29.5139 28.9731 29.5099 28.9758 29.506 28.9785C29.4757 28.999 29.4457 29.0197 29.4159 29.0404C29.2722 29.14 29.1327 29.2408 28.9972 29.3429C28.7416 29.5354 28.5004 29.7322 28.2734 29.9325C28.2726 29.9332 28.2718 29.9339 28.271 29.9346C27.8948 30.2668 27.5573 30.6088 27.2571 30.9576C27.108 31.1309 26.968 31.3059 26.8371 31.4822C26.7025 31.6634 26.5775 31.8461 26.4617 32.0298C26.4616 32.03 26.4614 32.0303 26.4613 32.0305C25.5985 33.3998 25.2538 34.8254 25.3434 36.1439C25.3757 36.6202 25.4647 37.0824 25.6064 37.5231C26.3764 39.9177 28.8403 41.7917 32.6105 40.5794C34.357 40.0177 35.6968 39.1808 36.7242 38.2391C36.9999 37.9864 37.2531 37.7262 37.4856 37.4618C37.4932 37.4532 37.5008 37.4445 37.5083 37.4359C38.4289 36.3816 39.0228 35.2617 39.4049 34.2843C39.4929 34.0591 39.5741 33.8301 39.6487 33.5978C39.6626 33.5544 39.6763 33.5108 39.6898 33.4672C39.8173 33.0538 39.9238 32.6302 40.0092 32.199ZM60.8594 14.7311C62.43 15.5891 63.8241 16.7386 64.9664 18.1193C66.1869 19.5946 67.0944 21.3028 67.6336 23.1399C68.1728 24.977 68.3324 26.9047 68.1028 28.8056C67.8732 30.7064 67.2591 32.5406 66.2979 34.1965C65.3367 35.8525 64.0485 37.2954 62.5119 38.4375C60.9753 39.5796 59.2222 40.3971 57.3594 40.84C56.2801 41.0967 55.1771 41.2245 54.0733 41.2228C51.3339 47.6334 46.0856 53.2829 37.5756 56.0194C24.6017 60.1914 13.4596 52.7295 10.1663 42.4882C9.98562 41.9263 9.8291 41.3619 9.69606 40.7961C6.23393 39.619 3.36043 37.1422 1.68657 33.884C-0.022285 30.5577 -0.340967 26.6893 0.800254 23.1284C1.06453 22.3028 2.33296 18.5667 5.14779 14.4059C7.94933 10.2648 12.9369 4.7572 20.8943 2.19835C28.2303 -0.160693 36.1926 0.264882 43.1439 4.54094C45.8302 6.1899 48.1346 8.2854 50.0328 10.6714C55.7339 11.9845 59.7345 14.0988 60.8594 14.7311ZM4.92804 24.1066C4.89201 24.2074 4.85756 24.3089 4.82471 24.4112L4.82685 24.4119C4.85801 24.3149 4.89174 24.213 4.92804 24.1066Z" fill="#C6B9FF"/>
</svg>
