<svg width="310" height="262" viewBox="0 0 310 262" fill="none" xmlns="http://www.w3.org/2000/svg">
<mask id="path-1-outside-1_532_7" maskUnits="userSpaceOnUse" x="0" y="0" width="310" height="262" fill="black">
<rect fill="white" width="310" height="262"/>
<path fill-rule="evenodd" clip-rule="evenodd" d="M155.758 143.332C141.475 115.665 144.911 87.3835 164.343 66.5121C184.498 44.8638 220.489 32.6394 267.101 35.381C271.148 35.6191 274.377 38.8464 274.618 42.8931C277.385 89.5083 265.161 125.501 243.505 145.657C222.776 164.95 194.738 168.474 167.258 154.543C163.978 158.647 161.285 163.201 159.266 168.074C156.451 174.869 155.002 182.152 155.002 189.507V218.997C155.002 223.415 151.42 226.997 147.002 226.997C142.584 226.997 139.002 223.415 139.002 218.997V190.311L114.022 165.33C94.0255 174.935 73.5024 172.204 58.2408 157.996C42.1012 142.971 33.2941 116.48 35.2757 82.787C35.5139 78.7381 38.7444 75.508 42.7934 75.2705C76.4857 73.2941 102.976 82.1012 118.001 98.2391C132.209 113.5 134.94 134.021 125.335 154.017L141.613 170.294C142.397 167.463 143.355 164.676 144.484 161.95C147.282 155.197 151.086 148.921 155.758 143.332ZM167.643 131.042L221.345 77.3402C224.469 74.216 229.535 74.216 232.659 77.3402C235.783 80.4644 235.783 85.5297 232.659 88.6539L178.957 142.356C199.381 151.01 218.358 147.204 232.604 133.945C248.588 119.068 259.925 91.035 258.949 51.0538C218.965 50.0986 190.931 61.435 176.053 77.4149C162.795 91.6546 158.989 110.621 167.643 131.042ZM88.6588 117.34L113.09 141.771C117.28 129.216 114.394 117.845 106.291 109.142C96.5183 98.6459 77.9632 90.7851 51.002 90.998C50.7855 117.958 58.6463 136.513 69.143 146.285C77.8474 154.388 89.22 157.275 101.776 153.085L77.3451 128.654C74.2209 125.53 74.2209 120.464 77.3451 117.34C80.4693 114.216 85.5346 114.216 88.6588 117.34Z"/>
</mask>
<path fill-rule="evenodd" clip-rule="evenodd" d="M155.758 143.332C141.475 115.665 144.911 87.3835 164.343 66.5121C184.498 44.8638 220.489 32.6394 267.101 35.381C271.148 35.6191 274.377 38.8464 274.618 42.8931C277.385 89.5083 265.161 125.501 243.505 145.657C222.776 164.95 194.738 168.474 167.258 154.543C163.978 158.647 161.285 163.201 159.266 168.074C156.451 174.869 155.002 182.152 155.002 189.507V218.997C155.002 223.415 151.42 226.997 147.002 226.997C142.584 226.997 139.002 223.415 139.002 218.997V190.311L114.022 165.33C94.0255 174.935 73.5024 172.204 58.2408 157.996C42.1012 142.971 33.2941 116.48 35.2757 82.787C35.5139 78.7381 38.7444 75.508 42.7934 75.2705C76.4857 73.2941 102.976 82.1012 118.001 98.2391C132.209 113.5 134.94 134.021 125.335 154.017L141.613 170.294C142.397 167.463 143.355 164.676 144.484 161.95C147.282 155.197 151.086 148.921 155.758 143.332ZM167.643 131.042L221.345 77.3402C224.469 74.216 229.535 74.216 232.659 77.3402C235.783 80.4644 235.783 85.5297 232.659 88.6539L178.957 142.356C199.381 151.01 218.358 147.204 232.604 133.945C248.588 119.068 259.925 91.035 258.949 51.0538C218.965 50.0986 190.931 61.435 176.053 77.4149C162.795 91.6546 158.989 110.621 167.643 131.042ZM88.6588 117.34L113.09 141.771C117.28 129.216 114.394 117.845 106.291 109.142C96.5183 98.6459 77.9632 90.7851 51.002 90.998C50.7855 117.958 58.6463 136.513 69.143 146.285C77.8474 154.388 89.22 157.275 101.776 153.085L77.3451 128.654C74.2209 125.53 74.2209 120.464 77.3451 117.34C80.4693 114.216 85.5346 114.216 88.6588 117.34Z" fill="#35684E"/>
<path d="M167.643 131.042L135.417 144.698C139.958 155.415 149.53 163.173 160.954 165.397C172.379 167.622 184.162 164.021 192.392 155.791L167.643 131.042ZM221.345 77.3402L196.596 52.5914L196.596 52.5915L221.345 77.3402ZM232.659 77.3402L257.408 52.5915L257.408 52.5914L232.659 77.3402ZM178.957 142.356L154.208 117.607C145.978 125.837 142.378 137.621 144.602 149.045C146.827 160.47 154.585 170.042 165.302 174.582L178.957 142.356ZM232.604 133.945L256.449 159.565L256.449 159.565L232.604 133.945ZM258.949 51.0538L293.939 50.2001C293.483 31.5323 278.453 16.5098 259.785 16.0638L258.949 51.0538ZM176.053 77.4149L150.437 53.5652L150.437 53.5652L176.053 77.4149ZM155.758 143.332L182.613 165.778C191.648 154.968 193.321 139.795 186.858 127.277L155.758 143.332ZM164.343 66.5121L138.727 42.6624L138.727 42.6624L164.343 66.5121ZM267.101 35.381L269.156 0.441431L269.156 0.441431L267.101 35.381ZM274.618 42.8931L239.679 44.9674L239.679 44.9674L274.618 42.8931ZM243.505 145.657L219.659 120.037L219.659 120.037L243.505 145.657ZM167.258 154.543L183.084 123.325C168.293 115.827 150.271 119.738 139.918 132.691L167.258 154.543ZM159.266 168.074L191.601 181.469L191.601 181.469L159.266 168.074ZM155.002 189.507L190.002 189.507L190.002 189.507L155.002 189.507ZM139.002 190.311H174.002C174.002 181.028 170.314 172.126 163.751 165.562L139.002 190.311ZM114.022 165.33L138.77 140.582C128.262 130.074 112.264 127.347 98.8679 133.781L114.022 165.33ZM58.2408 157.996L82.0894 132.379L82.0894 132.379L58.2408 157.996ZM35.2757 82.787L0.336101 80.7321L0.3361 80.7321L35.2757 82.787ZM42.7934 75.2705L44.843 110.21L44.843 110.21L42.7934 75.2705ZM118.001 98.2391L143.617 74.3894L143.617 74.3894L118.001 98.2391ZM125.335 154.017L93.7863 138.863C87.3518 152.259 90.0784 168.257 100.587 178.766L125.335 154.017ZM141.613 170.294L116.864 195.043C125.669 203.848 138.489 207.312 150.531 204.139C162.572 200.966 172.021 191.634 175.344 179.634L141.613 170.294ZM144.484 161.95L176.819 175.346L176.819 175.346L144.484 161.95ZM88.6588 117.34L63.91 142.089L63.9101 142.089L88.6588 117.34ZM113.09 141.771L88.3409 166.52C96.9165 175.095 109.32 178.62 121.124 175.836C132.928 173.052 142.449 164.356 146.289 152.852L113.09 141.771ZM106.291 109.142L80.6743 132.992L80.6743 132.992L106.291 109.142ZM51.002 90.998L50.7257 55.9991C31.6137 56.15 16.1566 71.6049 16.0031 90.7169L51.002 90.998ZM69.143 146.285L45.2945 171.902L45.2945 171.902L69.143 146.285ZM101.776 153.085L112.856 186.284C124.36 182.445 133.057 172.923 135.841 161.119C138.625 149.316 135.1 136.912 126.524 128.336L101.776 153.085ZM77.3451 128.654L102.094 103.905L102.094 103.905L77.3451 128.654ZM77.3451 117.34L102.094 142.089L102.094 142.089L77.3451 117.34ZM192.392 155.791L246.094 102.089L196.596 52.5915L142.894 106.294L192.392 155.791ZM246.094 102.089C235.55 112.633 218.454 112.633 207.91 102.089L257.408 52.5914C240.615 35.799 213.389 35.799 196.596 52.5914L246.094 102.089ZM207.91 102.089C197.366 91.5448 197.366 74.4493 207.91 63.9052L257.408 113.403C274.2 96.6101 274.2 69.384 257.408 52.5915L207.91 102.089ZM207.91 63.9052L154.208 117.607L203.706 167.105L257.408 113.403L207.91 63.9052ZM165.302 174.582C198.037 188.452 231.787 182.519 256.449 159.565L208.758 108.325C206.197 110.709 204.031 111.56 202.291 111.853C200.537 112.148 197.428 112.17 192.611 110.129L165.302 174.582ZM256.449 159.565C282.211 135.588 295.063 96.2811 293.939 50.2001L223.96 51.9074C224.786 85.7889 214.965 102.548 208.758 108.325L256.449 159.565ZM259.785 16.0638C213.713 14.9631 174.412 27.8136 150.437 53.5652L201.669 101.265C207.449 95.0563 224.218 85.234 258.113 86.0438L259.785 16.0638ZM150.437 53.5652C127.481 78.2217 121.546 111.964 135.417 144.698L199.869 117.386C197.828 112.57 197.852 109.466 198.146 107.719C198.438 105.986 199.286 103.825 201.669 101.265L150.437 53.5652ZM186.858 127.277C178.748 111.567 181.461 99.489 189.959 90.3618L138.727 42.6624C108.36 75.278 104.203 119.764 124.658 159.387L186.858 127.277ZM189.959 90.3619C200.484 79.0572 224.486 67.935 265.046 70.3207L269.156 0.441431C216.492 -2.65616 168.512 10.6703 138.727 42.6624L189.959 90.3619ZM265.046 70.3207C251.388 69.5173 240.49 58.625 239.679 44.9674L309.556 40.8188C308.265 19.0679 290.908 1.7208 269.156 0.441431L265.046 70.3207ZM239.679 44.9674C242.087 85.5185 230.965 109.514 219.659 120.037L267.35 171.277C299.357 141.487 312.684 93.4982 309.556 40.8188L239.679 44.9674ZM219.659 120.037C210.564 128.502 198.594 131.188 183.084 123.325L151.432 185.761C190.881 205.76 234.988 201.397 267.35 171.277L219.659 120.037ZM139.918 132.691C134.587 139.36 130.211 146.76 126.931 154.678L191.601 181.469C192.358 179.642 193.368 177.934 194.598 176.395L139.918 132.691ZM126.931 154.678C122.356 165.72 120.002 177.555 120.002 189.507L190.002 189.507C190.002 186.749 190.545 184.018 191.601 181.469L126.931 154.678ZM120.002 189.507V218.997H190.002V189.507H120.002ZM120.002 218.997C120.002 204.085 132.09 191.997 147.002 191.997V261.997C170.75 261.997 190.002 242.745 190.002 218.997H120.002ZM147.002 191.997C161.914 191.997 174.002 204.085 174.002 218.997H104.002C104.002 242.745 123.254 261.997 147.002 261.997V191.997ZM174.002 218.997V190.311H104.002V218.997H174.002ZM163.751 165.562L138.77 140.582L89.2729 190.079L114.253 215.06L163.751 165.562ZM98.8679 133.781C90.833 137.64 86.0032 136.022 82.0894 132.379L34.3922 183.613C61.0016 208.385 97.2181 212.23 129.175 196.88L98.8679 133.781ZM82.0894 132.379C76.2968 126.986 68.5894 112.487 70.2153 84.842L0.3361 80.7321C-2.00125 120.473 7.90563 158.955 34.3922 183.613L82.0894 132.379ZM70.2153 84.842C69.4116 98.5073 58.5085 109.409 44.843 110.21L40.7439 40.3305C18.9804 41.6072 1.6161 58.9688 0.336101 80.7321L70.2153 84.842ZM44.843 110.21C72.4905 108.589 86.9913 116.296 92.3846 122.089L143.617 74.3894C118.96 47.9063 80.481 37.9996 40.7439 40.3305L44.843 110.21ZM92.3846 122.089C96.0273 126.001 97.6455 130.828 93.7863 138.863L156.885 169.171C172.235 137.214 168.391 100.998 143.617 74.3894L92.3846 122.089ZM100.587 178.766L116.864 195.043L166.361 145.545L150.084 129.268L100.587 178.766ZM175.344 179.634C175.746 178.178 176.239 176.746 176.819 175.346L112.149 148.555C110.471 152.605 109.047 156.747 107.882 160.955L175.344 179.634ZM176.819 175.346C178.257 171.875 180.212 168.65 182.613 165.778L128.903 120.886C121.961 129.192 116.306 138.519 112.149 148.555L176.819 175.346ZM63.9101 142.089L88.3409 166.52L137.838 117.022L113.408 92.5915L63.9101 142.089ZM146.289 152.852C154.586 127.994 148.634 103.258 131.907 85.2921L80.6743 132.992C80.8121 133.14 80.7317 133.087 80.5752 132.797C80.4126 132.497 80.2344 132.062 80.1186 131.536C80.0023 131.008 79.9921 130.582 80.0078 130.339C80.0228 130.108 80.0498 130.212 79.8902 130.69L146.289 152.852ZM131.907 85.2921C113.27 65.2749 83.7668 55.7382 50.7257 55.9991L51.2783 125.997C72.1595 125.832 79.7667 132.017 80.6743 132.992L131.907 85.2921ZM16.0031 90.7169C15.7378 123.761 25.2749 153.265 45.2945 171.902L92.9916 120.668C92.0176 119.761 85.8332 112.156 86.0009 91.2791L16.0031 90.7169ZM45.2945 171.902C63.2613 188.629 87.9988 194.581 112.856 186.284L90.6952 119.885C90.2171 120.044 90.1131 120.018 90.3438 120.003C90.586 119.987 91.0112 119.997 91.5389 120.113C92.0639 120.229 92.4977 120.407 92.7979 120.569C93.0868 120.725 93.1396 120.806 92.9916 120.668L45.2945 171.902ZM126.524 128.336L102.094 103.905L52.5964 153.403L77.027 177.833L126.524 128.336ZM102.094 103.905C112.638 114.449 112.638 131.545 102.094 142.089L52.5964 92.5915C35.8038 109.384 35.8038 136.61 52.5964 153.403L102.094 103.905ZM102.094 142.089C91.5497 152.633 74.4542 152.633 63.91 142.089L113.408 92.5915C96.615 75.7989 69.3889 75.7989 52.5963 92.5915L102.094 142.089Z" fill="#6AD09D" mask="url(#path-1-outside-1_532_7)"/>
</svg>
