<svg width="85" height="92" viewBox="0 0 85 92" fill="none" xmlns="http://www.w3.org/2000/svg">
<rect x="14.7324" y="0.0605469" width="70.532" height="80.9384" rx="16" transform="rotate(9.92 14.7324 0.0605469)" fill="#689BF7"/>
<path d="M63.3658 22.9144L30.9081 17.1806C30.2634 17.0665 29.6025 17.0806 28.9632 17.222C28.324 17.3633 27.7188 17.6293 27.1824 18.0046C26.6459 18.3799 26.1886 18.8573 25.8367 19.4094C25.4848 19.9615 25.2451 20.5775 25.1313 21.2222L17.7148 63.3364C17.4858 64.6376 17.7829 65.9766 18.5408 67.0589C19.2986 68.1412 20.4553 68.8783 21.7564 69.1081L54.2142 74.8419C54.5037 74.8934 54.7972 74.9192 55.0913 74.9192C56.2645 74.9199 57.4003 74.5067 58.2988 73.7523C59.1973 72.998 59.8009 71.9509 60.0033 70.7953L67.4199 28.6812C67.5324 28.0363 67.5168 27.3756 67.374 26.7368C67.2311 26.098 66.9638 25.4936 66.5874 24.9581C66.2109 24.4226 65.7326 23.9665 65.1799 23.6158C64.6271 23.2652 64.0107 23.0268 63.3658 22.9144ZM54.2719 68.7764L23.7778 63.3891L30.8503 23.2412L61.3444 28.6284L54.2719 68.7764ZM33.5661 30.807C33.7041 30.0262 34.1465 29.3322 34.7961 28.8776C35.4457 28.4229 36.2493 28.2449 37.0301 28.3826L53.7761 31.3417C54.525 31.4566 55.2023 31.8514 55.6713 32.4465C56.1403 33.0416 56.3659 33.7925 56.3026 34.5475C56.2392 35.3025 55.8916 36.0053 55.3301 36.5139C54.7685 37.0225 54.0348 37.299 53.2773 37.2875C53.1019 37.2872 52.9268 37.2722 52.7539 37.2427L35.9905 34.2711C35.2097 34.133 34.5157 33.6906 34.0611 33.041C33.6064 32.3914 33.4284 31.5879 33.5661 30.807ZM31.8459 40.6228C31.9142 40.236 32.0581 39.8664 32.2693 39.5351C32.4805 39.2039 32.7549 38.9175 33.0769 38.6924C33.3988 38.4672 33.7619 38.3077 34.1455 38.223C34.5291 38.1382 34.9256 38.1298 35.3124 38.1984L52.0634 41.16C52.7987 41.2925 53.4577 41.6954 53.9108 42.2894C54.3639 42.8834 54.5783 43.6255 54.5116 44.3697C54.445 45.1138 54.1023 45.806 53.5509 46.3101C52.9994 46.8142 52.2793 47.0937 51.5322 47.0934C51.3568 47.0932 51.1817 47.0782 51.0089 47.0485L34.2604 44.0869C33.4815 43.9466 32.7899 43.5032 32.3373 42.8538C31.8847 42.2045 31.708 41.4022 31.8459 40.6228ZM30.1009 50.4387C30.2389 49.6579 30.6813 48.9639 31.3309 48.5092C31.9805 48.0546 32.784 47.8765 33.5649 48.0142L41.9478 49.4975C42.6849 49.6267 43.3467 50.0275 43.8026 50.6207C44.2586 51.214 44.4756 51.9567 44.4108 52.7021C44.3459 53.4476 44.004 54.1416 43.4525 54.6473C42.9009 55.1529 42.1798 55.4334 41.4316 55.4334C41.2561 55.4335 41.0809 55.4176 40.9083 55.386L32.5328 53.9077C32.145 53.8403 31.7744 53.6969 31.4421 53.4859C31.1098 53.2749 30.8225 53.0004 30.5966 52.6781C30.3706 52.3558 30.2105 51.9921 30.1255 51.6078C30.0404 51.2235 30.032 50.8262 30.1009 50.4387Z" fill="#344D7B"/>
</svg>
