<svg width="14" height="14" viewBox="0 0 14 14" fill="none" xmlns="http://www.w3.org/2000/svg">
<path d="M3.99994 3.5H8.3549L0.93784 10.935L0.9367 10.9361C0.79665 11.0753 0.68545 11.2408 0.6095 11.4231C0.53335 11.6059 0.494141 11.802 0.494141 12C0.494141 12.198 0.53335 12.3941 0.6095 12.5769C0.68539 12.759 0.79648 12.9244 0.93638 13.0636C1.07553 13.2035 1.24091 13.3145 1.42307 13.3904C1.60586 13.4666 1.80192 13.5058 1.99994 13.5058C2.19795 13.5058 2.39401 13.4666 2.5768 13.3904C2.7592 13.3144 2.92478 13.2032 3.06403 13.063L3.06494 13.0621L10.4999 5.6271V10C10.4999 10.3978 10.658 10.7794 10.9393 11.0607C11.2206 11.342 11.6021 11.5 11.9999 11.5C12.3978 11.5 12.7793 11.342 13.0606 11.0607C13.3419 10.7794 13.4999 10.3978 13.4999 10V2.05C13.4999 1.65218 13.3419 1.27065 13.0606 0.98934C12.7797 0.70844 12.3989 0.55046 12.0017 0.55H11.9999L4.00306 0.5H3.99994C3.60211 0.5 3.22058 0.65804 2.93928 0.93934C2.65797 1.22064 2.49994 1.60217 2.49994 2C2.49994 2.39783 2.65797 2.77936 2.93928 3.06066C3.22058 3.34196 3.60211 3.5 3.99994 3.5Z"/>
</svg>
