<svg width="13" height="13" viewBox="0 0 13 13" fill="none" xmlns="http://www.w3.org/2000/svg">
<path d="M12.9999 1.05C12.9999 0.784784 12.8946 0.530429 12.707 0.342893C12.5195 0.155357 12.2652 0.0500002 11.9999 0.0500002L3.99994 0C3.73472 0 3.48037 0.105357 3.29283 0.292893C3.1053 0.48043 2.99994 0.734784 2.99994 1C2.99994 1.26522 3.1053 1.51957 3.29283 1.70711C3.48037 1.89464 3.73472 2 3.99994 2H9.55994L1.28994 10.29C1.19621 10.383 1.12182 10.4936 1.07105 10.6154C1.02028 10.7373 0.994141 10.868 0.994141 11C0.994141 11.132 1.02028 11.2627 1.07105 11.3846C1.12182 11.5064 1.19621 11.617 1.28994 11.71C1.3829 11.8037 1.4935 11.8781 1.61536 11.9289C1.73722 11.9797 1.86793 12.0058 1.99994 12.0058C2.13195 12.0058 2.26266 11.9797 2.38452 11.9289C2.50638 11.8781 2.61698 11.8037 2.70994 11.71L10.9999 3.42V9C10.9999 9.26522 11.1053 9.51957 11.2928 9.70711C11.4804 9.89464 11.7347 10 11.9999 10C12.2652 10 12.5195 9.89464 12.707 9.70711C12.8946 9.51957 12.9999 9.26522 12.9999 9V1.05Z"/>
</svg>
