<svg width="1297" height="1756" viewBox="0 0 1297 1756" fill="none" xmlns="http://www.w3.org/2000/svg">
<path fill-rule="evenodd" clip-rule="evenodd" d="M695.36 1375.98L20 986.058V1344.6L695.36 1734.52V1375.98Z" fill="white" stroke="#474747" stroke-width="40" stroke-miterlimit="2" stroke-linecap="round" stroke-linejoin="round"/>
<path fill-rule="evenodd" clip-rule="evenodd" d="M1071.5 955.068L695.021 1375.87L1247.68 1056.79L1071.49 955.067L1071.5 955.068Z" fill="#C4C4C4" stroke="#474747" stroke-width="40" stroke-miterlimit="1.5" stroke-linecap="round" stroke-linejoin="round"/>
<path fill-rule="evenodd" clip-rule="evenodd" d="M1247.68 1058.38L695.021 1377.45V1736L1247.68 1416.92V1058.38Z" fill="#C4C4C4" stroke="#474747" stroke-width="40" stroke-miterlimit="1.5" stroke-linecap="round" stroke-linejoin="round"/>
<path fill-rule="evenodd" clip-rule="evenodd" d="M855.994 20L288.929 130.038L897.1 481.166L1276.37 262.197L855.994 20.0014V20Z" fill="white" stroke="#474747" stroke-width="40" stroke-miterlimit="1.5" stroke-linecap="round" stroke-linejoin="round"/>
<path d="M1263 279L901 481.5L897 488L901 1233L1249.5 925V693L1277.5 674.5L1263 279Z" fill="#C4C4C4"/>
<path d="M897.508 889.639V481.792L1276.77 262.822V670.67" stroke="#474747" stroke-width="40" stroke-miterlimit="1.5" stroke-linecap="round" stroke-linejoin="round"/>
<path d="M1248.88 686.438V686.439M896.508 889.882V1251.31L1248.88 922.375V686.439M1248.88 686.439L1276 672" stroke="#474747" stroke-width="40" stroke-miterlimit="1.5" stroke-linecap="round" stroke-linejoin="round"/>
<path fill-rule="evenodd" clip-rule="evenodd" d="M695.36 597.596L20 207.677V987.514L695.36 1377.43V597.596Z" fill="white" stroke="#474747" stroke-width="40" stroke-miterlimit="1.5" stroke-linecap="round" stroke-linejoin="round"/>
<path fill-rule="evenodd" clip-rule="evenodd" d="M895.307 481.479L695.021 597.114V1376.95L895.307 1261.32V481.479V481.479Z" fill="#C4C4C4" stroke="#474747" stroke-width="40" stroke-miterlimit="1.5" stroke-linecap="round" stroke-linejoin="round"/>
<path fill-rule="evenodd" clip-rule="evenodd" d="M220.286 90.6084L20 206.243L695.36 596.162L895.646 480.527L220.286 90.6084Z" fill="white" stroke="#474747" stroke-width="40" stroke-miterlimit="1.5" stroke-linecap="round" stroke-linejoin="round"/>
<path fill-rule="evenodd" clip-rule="evenodd" d="M582.184 677.595C582.184 666.117 575.195 652.764 566.587 647.794L147.541 405.858C138.933 400.888 131.944 406.172 131.944 417.649V895.95C131.944 907.428 138.933 920.781 147.541 925.751L566.587 1167.69C575.195 1172.66 582.184 1167.37 582.184 1155.9V677.597V677.595Z" fill="#474747" stroke="#474747" stroke-width="40" stroke-miterlimit="1.5" stroke-linecap="round" stroke-linejoin="round"/>
<path fill-rule="evenodd" clip-rule="evenodd" d="M608.608 1484.72C608.608 1481.06 606.376 1476.79 603.627 1475.21L353.879 1331.01C351.13 1329.43 348.898 1331.11 348.898 1334.78V1377.48C348.898 1381.14 351.13 1385.41 353.879 1386.99L603.627 1531.18C606.376 1532.77 608.608 1531.08 608.608 1527.42V1484.72Z" fill="#474747"/>
<path fill-rule="evenodd" clip-rule="evenodd" d="M149.362 1220.47C149.362 1216.67 147.046 1212.24 144.192 1210.6L111.247 1191.57C108.394 1189.93 106.078 1191.68 106.078 1195.48V1237.68C106.078 1241.48 108.394 1245.91 111.247 1247.55L144.192 1266.57C147.046 1268.22 149.362 1266.47 149.362 1262.67V1220.47Z" fill="#474747"/>
<path d="M1228 1069L1191 1047L1121.5 1068.5L883.5 1292L1228 1122.5V1069Z" fill="#C4C4C4"/>
</svg>
