<svg width="487" height="600" viewBox="0 0 487 600" fill="none" xmlns="http://www.w3.org/2000/svg">
<path d="M185.641 136.9C132.241 136.9 97.1414 169.9 97.1414 219.7C97.1414 269.8 132.241 302.8 185.641 302.8C239.041 302.8 274.441 269.8 274.441 219.7C274.441 169.9 239.041 136.9 185.641 136.9ZM185.641 180.1C206.641 180.1 220.741 196.3 220.741 220.3C220.741 244.6 206.641 260.8 185.641 260.8C164.941 260.8 150.841 244.6 150.841 220.3C150.841 196.3 164.941 180.1 185.641 180.1ZM410.25 136.6C386.55 136.6 367.95 146.5 356.55 165.1V78.4H303.15V301H356.55V220.9C356.55 199.6 368.55 184.6 388.35 184.3C405.45 184.3 415.95 195.7 415.95 214V301H469.35V198.7C469.35 160.6 445.95 136.6 410.25 136.6ZM237 374.6C210.6 374.6 190.8 386.9 180.3 410.9C172.2 388.1 152.7 374.6 126.3 374.6C102.9 374.6 84.6 384.5 73.5 403.4V376.7H20.4V539H73.5V458.9C73.5 437.6 85.5 422.6 104.4 422.3C120.9 422.3 131.1 433.4 131.1 452V539H184.5V458.9C184.5 437.6 196.2 422.6 215.1 422.3C231.6 422.3 241.8 433.4 241.8 452V539H295.2V436.7C295.2 398.6 272.1 374.6 237 374.6ZM417.082 554.9L486.682 376.7H433.582L399.082 482.3L360.382 376.7H305.482L372.682 535.1L368.782 542.6C364.582 550.7 358.282 554.9 349.282 554.9C341.482 554.9 335.182 552.2 327.682 545.9L305.482 582.8C320.182 594.2 335.182 599.6 353.482 599.6C384.082 599.6 404.782 585.2 417.082 554.9Z" fill="white"/>
<path d="M36.6 152.4C21.6 152.4 11.1 162.9 11.1 178.2C11.1 193.5 21.6 204.3 36.6 204.3C51.6 204.3 62.4 193.5 62.4 178.2C62.4 162.9 51.6 152.4 36.6 152.4ZM36.6 241.5C21.6 241.5 11.1 252 11.1 267.3C11.1 282.6 21.6 293.4 36.6 293.4C51.6 293.4 62.4 282.6 62.4 267.3C62.4 252 51.6 241.5 36.6 241.5Z" fill="white"/>
</svg>
