<svg width="231" height="139" viewBox="0 0 231 139" fill="none" xmlns="http://www.w3.org/2000/svg">
<path d="M4.875 5.64706L48.875 0V6L4.875 12V5.64706Z" fill="white"/>
<path d="M11.1495 57.952L15.9474 22.0347L25.553 20.6847L26.8399 36.3077L27.0853 43.4429L28.5233 36.0711L32.0393 19.7731L41.942 18.3814L41.8478 53.6376L33.9256 54.751L34.7695 38.1217L35.5138 27.9693L33.3831 38.3166L29.5685 55.3634L23.2803 56.2471L21.698 39.9588L21.0845 29.8458L20.3116 40.1536L18.7745 56.8803L11.1495 57.952Z" fill="white"/>
<path d="M4.875 68.7769L48.875 63.1299V69.1299L4.875 75.1299V68.7769Z" fill="white"/>
<path d="M49.125 5.64706L93.125 0V6L49.125 12V5.64706Z" fill="white"/>
<path d="M61.4979 50.3291L61.9944 43.4429L82.3444 40.5829L81.8479 47.469L61.4979 50.3291ZM67.0303 21.0744L79.2601 19.3556L85.5531 53.7142L77.4824 54.8484L74.3802 35.2898L72.9869 26.0942L70.1716 35.8813L64.1633 56.7203L55.8451 57.8894L67.0303 21.0744Z" fill="white"/>
<path d="M49.125 68.7769L93.125 63.1299V69.1299L49.125 75.1299V68.7769Z" fill="white"/>
<path d="M92.875 5.64706L137.875 0V6L92.875 12V5.64706Z" fill="white"/>
<path d="M110.415 57.4488L112.601 26.4408L101.692 27.9739L102.175 20.5444L132.816 16.2381L132.333 23.6676L121.425 25.2007L119.239 56.2087L110.415 57.4488Z" fill="white"/>
<path d="M92.875 68.7769L137.875 63.1299V69.1299L92.875 75.1299V68.7769Z" fill="white"/>
<path d="M137.125 5.64706L182.125 0V6L137.125 12V5.64706Z" fill="white"/>
<path d="M161.386 57.1585C158.356 57.5844 155.666 57.3263 153.316 56.3842C151.002 55.4371 149.116 53.9207 147.66 51.8351C146.199 49.7138 145.255 47.1381 144.829 44.1079C144.328 40.5429 144.32 37.254 144.806 34.2411C145.327 31.2232 146.297 28.5602 147.718 26.252C149.139 23.9439 150.983 22.0669 153.252 20.621C155.521 19.1752 158.153 18.2418 161.147 17.821C163.821 17.4452 166.282 17.6264 168.531 18.3647C170.78 19.1029 172.648 20.3672 174.135 22.1576C175.623 23.948 176.547 26.2539 176.907 29.0752L167.282 30.4279C166.904 28.5179 166.197 27.1086 165.161 26.2C164.16 25.2864 162.911 24.9348 161.413 25.1452C159.702 25.3857 158.29 26.0749 157.178 27.2128C156.101 28.3457 155.281 29.7516 154.717 31.4304C154.189 33.1042 153.859 34.8955 153.727 36.8044C153.631 38.7083 153.708 40.5515 153.959 42.334C154.179 43.9026 154.576 45.301 155.148 46.5293C155.752 47.7169 156.534 48.6249 157.494 49.2533C158.45 49.846 159.57 50.0522 160.853 49.8718C162.671 49.6163 164.093 48.8712 165.12 47.6363C166.181 46.3965 166.768 44.7508 166.88 42.6993L176.505 41.3466C176.356 44.1667 175.711 46.6931 174.571 48.9255C173.461 51.1173 171.808 52.9311 169.61 54.3669C167.443 55.762 164.702 56.6926 161.386 57.1585Z" fill="white"/>
<path d="M137.125 68.7769L182.125 63.1299V69.1299L137.125 75.1299V68.7769Z" fill="white"/>
<path d="M181.375 5.64706L226.375 0V6L181.375 12V5.64706Z" fill="white"/>
<path d="M209.664 55.9382L212.333 17.5007L221.156 16.2607L218.488 54.6981L209.664 55.9382ZM188.274 58.9443L190.943 20.5069L199.766 19.2668L197.098 57.7043L188.274 58.9443ZM197.302 41.6981L197.838 34.2611L212.169 32.2469L211.633 39.6839L197.302 41.6981Z" fill="white"/>
<path d="M181.375 68.7769L226.375 63.1299V69.1299L181.375 75.1299V68.7769Z" fill="white"/>
<path d="M4.875 68.6471L48.875 63V69L4.875 75V68.6471Z" fill="white"/>
<path d="M19.9243 108.661L20.4208 101.775L28.2934 100.669C29.5808 100.488 30.6683 100.082 31.5559 99.4527C32.4766 98.8184 33.1549 98.0162 33.5908 97.0461C34.0267 96.076 34.1658 95.0298 34.0081 93.9075C33.8457 92.7522 33.32 91.7657 32.4309 90.9482C31.5418 90.1306 30.4205 89.817 29.0672 90.0072L21.1945 91.1136L21.6415 84.2344L29.019 83.1976C31.5937 82.8358 33.8277 83.0435 35.721 83.8209C37.6472 84.5937 39.1885 85.7404 40.3447 87.2609C41.5009 88.7815 42.2112 90.4825 42.4757 92.364C42.7726 94.4766 42.6056 96.4019 41.9746 98.1399C41.3437 99.878 40.3456 101.398 38.9803 102.701C37.6103 103.971 35.9745 105.025 34.0728 105.865C32.1665 106.671 30.0746 107.235 27.7969 107.555L19.9243 108.661ZM13.3281 120.646L15.7989 85.0556L23.9686 83.9074L21.4978 119.498L13.3281 120.646Z" fill="white"/>
<path d="M4.875 131.777L48.875 126.13V132.13L4.875 138.13V131.777Z" fill="white"/>
<path d="M49.125 68.6471L93.125 63V69L49.125 75V68.6471Z" fill="white"/>
<path d="M64.5327 106.541L65.0291 99.6545L72.8028 98.562C74.6182 98.3069 75.9938 97.6759 76.9295 96.6693C77.8982 95.6579 78.2828 94.4426 78.0833 93.0232C77.9302 91.9339 77.4277 91.1125 76.5757 90.559C75.7567 90.0009 74.72 89.81 73.4657 89.9863L65.6426 91.0858L66.0895 84.2066L73.9127 83.1071C76.1903 82.787 78.2288 82.9213 80.0282 83.5099C81.856 84.0609 83.3341 84.9977 84.4625 86.3202C85.5909 87.6427 86.2942 89.2942 86.5726 91.2747C86.8277 93.0902 86.6966 94.7917 86.1791 96.3791C85.6571 97.9336 84.7936 99.3341 83.5886 100.581C82.3791 101.794 80.8565 102.816 79.0208 103.646C77.2182 104.472 75.1451 105.049 72.8014 105.379L64.5327 106.541ZM57.7266 120.625L60.1974 85.0347L68.3672 83.8865L65.8963 119.477L57.7266 120.625ZM77.7795 117.807C77.4501 115.463 76.7667 113.354 75.7291 111.48C74.7246 109.602 73.3917 108.022 71.7306 106.741C70.1024 105.455 68.1576 104.55 65.896 104.026L74.6005 100.935C76.8754 101.793 78.8125 103.002 80.4118 104.561C82.0064 106.088 83.2845 107.877 84.2462 109.93C85.208 111.983 85.8582 114.214 86.1968 116.624L77.7795 117.807Z" fill="white"/>
<path d="M49.125 131.777L93.125 126.13V132.13L49.125 138.13V131.777Z" fill="white"/>
<path d="M92.875 68.6471L137.875 63V69L92.875 75V68.6471Z" fill="white"/>
<path d="M110.415 120.449L113.084 82.0113L121.907 80.7713L119.239 119.209L110.415 120.449ZM104.528 83.2138L130.463 79.5688L129.98 86.9983L104.045 90.6432L104.528 83.2138ZM102.396 114.214L128.331 110.569L127.795 118.006L101.86 121.651L102.396 114.214Z" fill="white"/>
<path d="M92.875 131.777L137.875 126.13V132.13L92.875 138.13V131.777Z" fill="white"/>
<path d="M137.125 68.6471L182.125 63V69L137.125 75V68.6471Z" fill="white"/>
<path d="M144.452 121.884L147.12 83.4467L157.815 81.9437L166.875 107.609L167.266 93.7028L168.189 80.4857L176.478 79.3208L173.809 117.758L163.114 119.261L153.908 94.1078L153.664 107.502L152.74 120.719L144.452 121.884Z" fill="white"/>
<path d="M137.125 131.777L182.125 126.13V132.13L137.125 138.13V131.777Z" fill="white"/>
<path d="M181.375 68.6471L226.375 63V69L181.375 75V68.6471Z" fill="white"/>
<path d="M198.916 120.449L201.102 89.4408L190.193 90.9739L190.676 83.5444L221.317 79.2381L220.834 86.6676L209.925 88.2007L207.739 119.209L198.916 120.449Z" fill="white"/>
<path d="M181.375 131.777L226.375 126.13V132.13L181.375 138.13V131.777Z" fill="white"/>
</svg>
