<?xml version="1.0" encoding="UTF-8"?>
<svg width="186px" height="166px" viewBox="0 0 186 166" version="1.1" xmlns="http://www.w3.org/2000/svg" xmlns:xlink="http://www.w3.org/1999/xlink">
    <!-- Generator: Sketch 51.2 (57519) - http://www.bohemiancoding.com/sketch -->
    <title>logo</title>
    <desc>Created with Sketch.</desc>
    <defs></defs>
    <g id="Page-1" stroke="none" stroke-width="1" fill="none" fill-rule="evenodd">
        <g id="bildmarke_wortmarke" transform="translate(2.000000, 3.000000)" stroke="#FFFFFF">
            <g id="logo">
                <path d="M0,86.492 C0,85.54 15.692,90.588 22.765,84.001 C32.56,74.88 20.826,55.836 34.568,50.334 C39.282,48.447 47.823,50.531 63.851,62.078 C88.377,79.747 95.565,54.143 91.125,41.764 C88.831,35.366 80.871,27.903 67.34,30.231 C61.431,31.248 60.346,31.739 58.883,32.136 C58.036,32.365 59.793,28.58 62.477,23.46 C67.497,13.883 75.343,4.212 100.891,18.963 C119.444,29.676 134.58,19.113 122.456,9.996 C114.964,4.362 107.313,1.506 107.313,1.506 C107.313,1.506 136.609,-6.826 157.54,15.71 C164.526,23.231 180.182,38.299 181.167,83.001 C182.304,134.554 150.589,165.871 114.013,159.576 C95.263,156.349 82.615,149.102 82.615,149.102 C82.615,149.102 115.23,150.631 116.386,130.973 C117.184,117.414 94.139,123.55 85.047,126.512 C85.047,126.512 57.984,132.438 49.95,119.953 C48.11,117.093 63.095,121.94 68.344,105.775 C71.093,97.311 61.128,84.666 52.709,82.484 C42.983,79.962 41.493,81.44 31.956,91.291 C16.976,106.765 1.0658141e-14,88.211 1.0658141e-14,86.492 Z" id="Stroke-1" stroke-width="4"></path>
                <path d="M27.188,66.735 L36.947,63.559 L52.709,81.944 L101.01,60.385 L92.325,50.872 M68.055,127.834 L101.01,104.188 L101.01,84.509 L86.421,82.484 L68.055,98.247 M101.01,60.385 L134.627,43.245 L148.113,7.793 M157.729,146.949 L129.553,142.912 L107.874,143.984 M46.906,51.939 L41.835,69.428 M76.97,30.251 L93.064,14.941 M116.663,6.135 L138.498,3.065 M88.384,36.986 L107.874,31.818 L119.225,23.208 M143.492,5.186 L127.311,16.313 M134.627,43.245 L168.873,30.251 M101.01,84.509 L131.455,73.717 L161.267,51.939 L178.184,55.351 M178.583,57.298 L153.655,86.413 L116.663,109.646 L110.806,123.179 M116.067,127.834 L143.492,114.345 L178.184,111.152 M174.766,121.782 L147.125,114.011 M114.17,138.136 L160.946,117.896 M137.326,69.428 L178.583,56.603 M180.628,72.42 L157.019,82.484 M101.01,104.188 L99.304,123.027" id="Stroke-3" stroke-width="2"></path>
            </g>
        </g>
    </g>
</svg>
