<svg width="52" height="44" viewBox="0 0 52 44" fill="none" xmlns="http://www.w3.org/2000/svg">
<circle cx="8" cy="8" r="8" fill="#ECEBE0"/>
<circle cx="26" cy="36" r="8" fill="#ECEBE0"/>
<circle cx="44" cy="8" r="8" fill="#ECEBE0"/>
<rect x="30.2018" y="20.3734" width="12.031" height="3" transform="rotate(45 30.2018 20.3734)" fill="#ECEBE0"/>
<rect width="11.88" height="3" transform="matrix(-0.707107 0.707107 0.707107 0.707107 37.4789 12.5959)" fill="#ECEBE0"/>
<rect x="12.8284" y="20.0785" width="14.1171" height="3" transform="rotate(45 12.8284 20.0785)" fill="#ECEBE0"/>
<rect width="11.88" height="3" transform="matrix(-0.707107 0.707107 0.707107 0.707107 19.4004 12.5959)" fill="#ECEBE0"/>
<path d="M18 8C18 3.58172 21.5817 0 26 0H34V8C34 12.4183 30.4183 16 26 16H18V8Z" fill="#ECEBE0"/>
<path d="M44 28C48.4183 28 52 31.5817 52 36L52 44L44 44C39.5817 44 36 40.4183 36 36L36 28L44 28Z" fill="#ECEBE0"/>
<path d="M8 28C12.4183 28 16 31.5817 16 36L16 44L8 44C3.58172 44 -5.4282e-07 40.4183 -3.49691e-07 36L0 28L8 28Z" fill="#ECEBE0"/>
<rect y="20.5" width="52" height="3" fill="#ECEBE0"/>
</svg>
