<svg width="296" height="304" viewBox="0 0 296 304" fill="none" xmlns="http://www.w3.org/2000/svg">
<g clip-path="url(#clip0_9_966)">
<path d="M184 236C184 273.555 153.555 304 116 304H68C30.4446 304 0 273.555 0 236V76C0 38.4446 30.4446 8 68 8H116C153.555 8 184 38.4446 184 76V236Z" fill="#689BF7"/>
<path d="M180.655 1.54324C189.425 -0.322403 198.477 -0.43518 207.291 1.21121C216.105 2.85766 224.506 6.23124 232.011 11.137C239.515 16.0427 245.977 22.3843 251.021 29.7971C256.021 37.1434 259.53 45.3975 261.354 54.0921L261.355 54.0911L294.535 211.851H294.534C298.225 229.364 294.872 247.629 285.193 262.691C275.474 277.814 260.168 288.478 242.614 292.357C242.478 292.387 242.341 292.417 242.205 292.447L195.394 302.447C195.378 302.45 195.361 302.453 195.345 302.456C186.574 304.322 177.522 304.436 168.709 302.789C159.895 301.143 151.494 297.769 143.989 292.864C136.484 287.958 130.023 281.616 124.978 274.203C119.979 266.857 116.47 258.603 114.645 249.908L81.4647 92.1487L81.4656 92.1477C77.7747 74.6354 81.1278 56.3708 90.8065 41.3098C100.525 26.1865 115.832 15.5213 133.386 11.6429L133.795 11.554L180.605 1.55398L180.655 1.54324Z" fill="#689BF7"/>
<path d="M124 44C157.137 44 184 70.8629 184 104C184 137.137 157.137 164 124 164H60C26.8629 164 0 137.137 0 104C0 70.8629 26.8629 44 60 44H124Z" fill="#689BF7"/>
<path d="M124 148C157.137 148 184 174.863 184 208C184 241.137 157.137 268 124 268H60C26.8629 268 0 241.137 0 208C0 174.863 26.8629 148 60 148H124Z" fill="#689BF7"/>
<path d="M195.835 35.339C228.232 28.3774 260.14 48.9974 267.101 81.3947C274.063 113.792 253.443 145.699 221.046 152.661L158.596 166.081C126.198 173.043 94.291 152.423 87.329 120.026C80.3673 87.6282 100.987 55.7209 133.385 48.7589L195.835 35.339Z" fill="#689BF7"/>
<path d="M203.306 70.8489C235.704 63.8882 267.61 84.5089 274.571 116.907C281.532 149.304 260.911 181.21 228.513 188.171L166.053 201.591C133.656 208.552 101.749 187.931 94.7886 155.534C87.8279 123.136 108.449 91.2297 140.846 84.2689L203.306 70.8489Z" fill="#689BF7"/>
<path d="M217.405 137.919C249.802 130.957 281.709 151.577 288.671 183.975C295.633 216.372 275.013 248.279 242.616 255.241L180.165 268.661C147.768 275.623 115.861 255.003 108.899 222.605C101.937 190.208 122.557 158.301 154.955 151.339L217.405 137.919Z" fill="#689BF7"/>
<path d="M72 232H112V80H72V232ZM136 236C136 247.046 127.046 256 116 256H68C56.9543 256 48 247.046 48 236V76C48 64.9543 56.9543 56 68 56H116C127.046 56 136 64.9543 136 76V236Z" fill="#344D7B"/>
<path d="M190.643 48.4923C193.061 47.9779 195.552 47.9164 197.99 48.3097L198.478 48.3947L198.962 48.4913C201.217 48.9704 203.371 49.8359 205.331 51.049L205.748 51.3146L206.158 51.59C208.191 52.9917 209.948 54.759 211.339 56.8029C212.813 58.9695 213.847 61.4047 214.382 63.9699H214.383L247.564 221.731H247.563C248.658 226.9 247.671 232.294 244.814 236.74C241.948 241.199 237.434 244.344 232.259 245.487C232.232 245.493 232.204 245.499 232.177 245.505L185.367 255.505L185.357 255.507C182.778 256.056 180.115 256.089 177.523 255.605C174.93 255.12 172.459 254.129 170.252 252.686C168.045 251.243 166.145 249.378 164.661 247.197C163.186 245.03 162.152 242.595 161.617 240.029L128.437 82.2697L128.439 82.2687C127.343 77.0993 128.329 71.7062 131.187 67.2599L131.46 66.8458C134.335 62.6061 138.727 59.6207 143.741 58.5128L143.823 58.4943L190.633 48.4943L190.643 48.4923ZM152.723 81.1339L184.284 231.193L223.276 222.864L191.715 72.8038L152.723 81.1339Z" fill="#344D7B"/>
<path d="M124 92C130.627 92 136 97.3726 136 104C136 110.627 130.627 116 124 116H60C53.3726 116 48 110.627 48 104C48 97.3726 53.3726 92 60 92H124Z" fill="#344D7B"/>
<path d="M124 196C130.627 196 136 201.373 136 208C136 214.627 130.627 220 124 220H60C53.3726 220 48 214.627 48 208C48 201.373 53.3726 196 60 196H124Z" fill="#344D7B"/>
<path d="M205.919 82.2676C212.398 80.8753 218.78 84.9992 220.173 91.4786C221.565 97.9581 217.44 104.34 210.961 105.732L148.512 119.152C142.032 120.545 135.65 116.421 134.258 109.941C132.865 103.462 136.989 97.0801 143.469 95.6875L205.919 82.2676Z" fill="#344D7B"/>
<path d="M213.389 117.777C219.869 116.385 226.25 120.51 227.642 126.989C229.034 133.469 224.91 139.85 218.43 141.242L155.97 154.662C149.491 156.054 143.11 151.93 141.717 145.45C140.325 138.971 144.45 132.59 150.929 131.197L213.389 117.777Z" fill="#344D7B"/>
<path d="M227.489 184.847C233.968 183.455 240.35 187.579 241.742 194.058C243.135 200.538 239.01 206.92 232.531 208.312L170.081 221.732C163.602 223.125 157.22 219.001 155.827 212.521C154.435 206.042 158.559 199.66 165.038 198.267L227.489 184.847Z" fill="#344D7B"/>
</g>
<defs>
<clipPath id="clip0_9_966">
<rect width="296" height="304" fill="white"/>
</clipPath>
</defs>
</svg>
