<svg width="304" height="296" viewBox="0 0 304 296" fill="none" xmlns="http://www.w3.org/2000/svg">
<g clip-path="url(#clip0_9_915)">
<path d="M68 140H244V228C244 230.122 243.157 232.157 241.657 233.657C240.157 235.157 238.122 236 236 236H76C73.8783 236 71.8434 235.157 70.3431 233.657C68.8429 232.157 68 230.122 68 228V140Z" stroke="#FFC700" stroke-width="120" stroke-linecap="round" stroke-linejoin="round"/>
<path d="M68.4297 140L236 95.77L227.84 65.77C227.277 63.7674 225.947 62.0676 224.138 61.0398C222.329 60.0119 220.188 59.7389 218.18 60.28L65.8497 100.47C64.8542 100.724 63.9189 101.172 63.0981 101.79C62.2774 102.408 61.5874 103.182 61.0683 104.069C60.5493 104.956 60.2114 105.936 60.0743 106.954C59.9372 107.973 60.0036 109.008 60.2697 110L68.4297 140Z" stroke="#FFC700" stroke-width="120" stroke-linecap="round" stroke-linejoin="round"/>
<path d="M95.71 92.5901L143.5 120.19" stroke="#FFC700" stroke-width="120" stroke-linecap="round" stroke-linejoin="round"/>
<path d="M154.61 77.05L202.4 104.64" stroke="#FFC700" stroke-width="120" stroke-linecap="round" stroke-linejoin="round"/>
<path d="M68 140H244V228C244 230.122 243.157 232.157 241.657 233.657C240.157 235.157 238.122 236 236 236H76C73.8783 236 71.8434 235.157 70.3431 233.657C68.8429 232.157 68 230.122 68 228V140Z" stroke="#7F6300" stroke-width="24" stroke-linecap="round" stroke-linejoin="round"/>
<path d="M68.4297 140L236 95.77L227.84 65.77C227.277 63.7674 225.947 62.0676 224.138 61.0398C222.329 60.0119 220.188 59.7389 218.18 60.28L65.8497 100.47C64.8542 100.724 63.9189 101.172 63.0981 101.79C62.2774 102.408 61.5874 103.182 61.0683 104.069C60.5493 104.956 60.2114 105.936 60.0743 106.954C59.9372 107.973 60.0036 109.008 60.2697 110L68.4297 140Z" stroke="#7F6300" stroke-width="24" stroke-linecap="round" stroke-linejoin="round"/>
<path d="M95.71 92.5901L143.5 120.19" stroke="#7F6300" stroke-width="24" stroke-linecap="round" stroke-linejoin="round"/>
<path d="M154.61 77.05L202.4 104.64" stroke="#7F6300" stroke-width="24" stroke-linecap="round" stroke-linejoin="round"/>
</g>
<defs>
<clipPath id="clip0_9_915">
<rect width="304" height="296" fill="white"/>
</clipPath>
</defs>
</svg>
