<svg width="232" height="256" viewBox="0 0 232 256" fill="none" xmlns="http://www.w3.org/2000/svg">
<path d="M80 180C80 177.791 78.2091 176 76 176C73.7909 176 72 177.791 72 180C72 182.209 73.7909 184 76 184C78.2091 184 80 182.209 80 180ZM152 180C152 221.974 117.974 256 76 256C34.0264 256 0 221.974 0 180C0 138.026 34.0264 104 76 104C117.974 104 152 138.026 152 180Z" fill="#FF0000"/>
<path d="M80 180V84.7276C79.9903 84.2441 79.9899 83.7594 80 83.2735V36.0001C80 24.6203 85.3808 13.9102 94.5107 7.11727C103.641 0.324479 115.445 -1.7513 126.345 1.51864L206.345 25.5186C221.572 30.0869 232 44.1023 232 60.0001V108C232 119.38 226.619 130.09 217.489 136.883C208.359 143.676 196.555 145.751 185.655 142.482L152 132.385V180C152 199.882 135.882 216 116 216C96.1177 216 80 199.882 80 180Z" fill="#FF0000"/>
<path d="M66 168H88V190H66V168Z" fill="#FF0000"/>
<path d="M108 180C108 162.327 93.6731 148 76 148C58.3269 148 44 162.327 44 180C44 197.673 58.3269 212 76 212C93.6731 212 108 197.673 108 180ZM124 180C124 206.51 102.51 228 76 228C49.4903 228 28 206.51 28 180C28 153.49 49.4903 132 76 132C102.51 132 124 153.49 124 180Z" fill="#7F0000"/>
<path d="M108 180V84.1387C107.999 84.0763 108 84.0138 108 83.9512V36.0001L108.014 35.5274C108.153 33.1769 109.323 30.9972 111.225 29.5821C113.253 28.0726 115.877 27.6104 118.299 28.337L198.299 52.337C201.683 53.3522 204 56.4672 204 60.0001V108C204 110.529 202.804 112.909 200.775 114.418C198.747 115.928 196.123 116.39 193.701 115.663L124 94.752V180C124 184.418 120.418 188 116 188C111.582 188 108 184.418 108 180ZM124 78.047L188 97.2472V65.9522L124 46.752V78.047Z" fill="#7F0000"/>
</svg>
