<svg width="305" height="305" viewBox="0 0 305 305" fill="none" xmlns="http://www.w3.org/2000/svg">
<g clip-path="url(#clip0_9_952)">
<path d="M112.69 245H68C65.8783 245 63.8434 244.157 62.3431 242.657C60.8429 241.157 60 239.122 60 237V192.31C60.001 190.191 60.8425 188.159 62.34 186.66L185.66 63.3401C187.16 61.8409 189.194 60.9988 191.315 60.9988C193.436 60.9988 195.47 61.8409 196.97 63.3401L241.66 108C243.159 109.5 244.001 111.534 244.001 113.655C244.001 115.776 243.159 117.81 241.66 119.31L118.34 242.66C116.841 244.158 114.809 244.999 112.69 245Z" stroke="#689BF7" stroke-width="120" stroke-linecap="round" stroke-linejoin="round"/>
<path d="M156 93L212 149" stroke="#689BF7" stroke-width="120" stroke-linecap="round" stroke-linejoin="round"/>
<path d="M124 237L68 181" stroke="#689BF7" stroke-width="120" stroke-linecap="round" stroke-linejoin="round"/>
<path d="M184 229L224 189L212 149" stroke="#689BF7" stroke-width="120" stroke-linecap="round" stroke-linejoin="round"/>
<path d="M112.69 245H68C65.8783 245 63.8434 244.157 62.3431 242.657C60.8429 241.157 60 239.122 60 237V192.31C60.001 190.191 60.8425 188.159 62.34 186.66L185.66 63.3401C187.16 61.8409 189.194 60.9988 191.315 60.9988C193.436 60.9988 195.47 61.8409 196.97 63.3401L241.66 108C243.159 109.5 244.001 111.534 244.001 113.655C244.001 115.776 243.159 117.81 241.66 119.31L118.34 242.66C116.841 244.158 114.809 244.999 112.69 245Z" stroke="#344D7B" stroke-width="24" stroke-linecap="round" stroke-linejoin="round"/>
<path d="M156 93L212 149" stroke="#344D7B" stroke-width="24" stroke-linecap="round" stroke-linejoin="round"/>
<path d="M124 237L68 181" stroke="#344D7B" stroke-width="24" stroke-linecap="round" stroke-linejoin="round"/>
<path d="M184 229L224 189L212 149" stroke="#344D7B" stroke-width="24" stroke-linecap="round" stroke-linejoin="round"/>
</g>
<defs>
<clipPath id="clip0_9_952">
<rect width="305" height="305" fill="white"/>
</clipPath>
</defs>
</svg>
