<svg width="272" height="320" viewBox="0 0 272 320" fill="none" xmlns="http://www.w3.org/2000/svg">
<g clip-path="url(#clip0_2_756)">
<path d="M232 260C232 282.475 219.439 303.065 199.455 313.35C179.471 323.634 155.415 321.888 137.126 308.824L116 293.733L94.874 308.824C76.5852 321.888 52.5291 323.634 32.5449 313.35C12.5608 303.065 0 282.475 0 260V108C0 89.9652 7.16455 72.6694 19.917 59.917C32.6694 47.1645 49.9652 40 68 40H164C182.035 40 199.331 47.1645 212.083 59.917C224.836 72.6695 232 89.9654 232 108V260Z" fill="#FFC700"/>
<path d="M272 220C272 253.137 245.137 280 212 280C178.863 280 152 253.137 152 220V120H100C66.8629 120 40 93.1371 40 60C40 26.8629 66.8629 0 100 0H204C222.035 0 239.33 7.16448 252.083 19.917C264.836 32.6696 272 49.9654 272 68V220Z" fill="#FFC700"/>
<path d="M72 236.682L109.025 210.235L109.421 209.965C113.547 207.258 118.933 207.348 122.975 210.235L160 236.682V112H72V236.682ZM184 260C184 264.495 181.488 268.613 177.491 270.67C173.494 272.727 168.683 272.377 165.025 269.765L116 234.746L66.9746 269.765C63.3168 272.377 58.5056 272.727 54.5088 270.67C50.5121 268.613 48 264.495 48 260V108C48 102.696 50.1067 97.6081 53.8574 93.8574L54.2129 93.5107C57.9263 89.9771 62.8614 88 68 88H164C169.139 88 174.074 89.9771 177.787 93.5107L178.143 93.8574L178.489 94.2129C182.023 97.9263 184 102.861 184 108V260Z" fill="#7F6300"/>
<path d="M224 220C224 226.627 218.627 232 212 232C205.373 232 200 226.627 200 220V72H100C93.3726 72 88 66.6274 88 60C88 53.3726 93.3726 48 100 48H204C209.139 48 214.074 49.9771 217.787 53.5107L218.143 53.8574L218.489 54.2129C222.023 57.9263 224 62.8614 224 68V220Z" fill="#7F6300"/>
</g>
<defs>
<clipPath id="clip0_2_756">
<rect width="272" height="320" fill="white"/>
</clipPath>
</defs>
</svg>
