<svg width="312" height="304" viewBox="0 0 312 304" fill="none" xmlns="http://www.w3.org/2000/svg">
<g clip-path="url(#clip0_2_746)">
<path d="M120 184H192V168H120V184ZM312 236C312 273.555 281.555 304 244 304H68C30.4446 304 0 273.555 0 236V116C0 78.4446 30.4446 48 68 48H244C281.555 48 312 78.4446 312 116V236Z" fill="#C6B9FF"/>
<path d="M161.573 17.5732C185.005 -5.85823 222.995 -5.85823 246.427 17.5732C269.858 41.0047 269.858 78.9953 246.427 102.427L198.427 150.427C174.995 173.858 137.005 173.858 113.573 150.427L65.5733 102.427C42.1419 78.9953 42.1419 41.0047 65.5733 17.5732C89.0048 -5.85823 126.995 -5.85823 150.427 17.5732L156 23.1465L161.573 17.5732Z" fill="#C6B9FF"/>
<path d="M212 168C220.837 168 228 160.837 228 152C228 143.163 220.837 136 212 136C203.163 136 196 143.163 196 152C196 160.837 203.163 168 212 168Z" fill="#C6B9FF"/>
<path d="M212 216C220.837 216 228 208.837 228 200C228 191.163 220.837 184 212 184C203.163 184 196 191.163 196 200C196 208.837 203.163 216 212 216Z" fill="#C6B9FF"/>
<path d="M108 244V108C108 74.8629 134.863 48 168 48C201.137 48 228 74.8629 228 108V244C228 277.137 201.137 304 168 304C134.863 304 108 277.137 108 244Z" fill="#C6B9FF"/>
<path d="M72 232H240V120H72V232ZM264 236C264 247.046 255.046 256 244 256H68C56.9543 256 48 247.046 48 236V116C48 104.954 56.9543 96 68 96H244C255.046 96 264 104.954 264 116V236Z" fill="#635C7F"/>
<path d="M195.515 51.5147C200.201 46.8284 207.799 46.8284 212.485 51.5147C217.172 56.2009 217.172 63.7991 212.485 68.4854L164.485 116.485C159.799 121.172 152.201 121.172 147.515 116.485L99.5147 68.4854C94.8284 63.7991 94.8284 56.2009 99.5147 51.5147C104.201 46.8284 111.799 46.8284 116.485 51.5147L156 91.0293L195.515 51.5147Z" fill="#635C7F"/>
<path d="M212 168C220.837 168 228 160.837 228 152C228 143.163 220.837 136 212 136C203.163 136 196 143.163 196 152C196 160.837 203.163 168 212 168Z" fill="#635C7F"/>
<path d="M212 216C220.837 216 228 208.837 228 200C228 191.163 220.837 184 212 184C203.163 184 196 191.163 196 200C196 208.837 203.163 216 212 216Z" fill="#635C7F"/>
<path d="M156 244V108C156 101.373 161.373 96 168 96C174.627 96 180 101.373 180 108V244C180 250.627 174.627 256 168 256C161.373 256 156 250.627 156 244Z" fill="#635C7F"/>
</g>
<defs>
<clipPath id="clip0_2_746">
<rect width="312" height="304" fill="white"/>
</clipPath>
</defs>
</svg>
