<svg width="290" height="242" viewBox="0 0 290 242" fill="none" xmlns="http://www.w3.org/2000/svg">
<mask id="path-1-outside-1_526_15" maskUnits="userSpaceOnUse" x="0" y="0" width="291" height="242" fill="black">
<rect fill="white" width="291" height="242"/>
<path fill-rule="evenodd" clip-rule="evenodd" d="M157.643 121.042L211.345 67.3402C214.469 64.216 219.535 64.216 222.659 67.3402C225.783 70.4644 225.783 75.5297 222.659 78.6539L168.957 132.356C189.381 141.01 208.358 137.204 222.604 123.945C238.588 109.068 249.925 81.035 248.949 41.0538C208.965 40.0986 180.931 51.435 166.053 67.4149C152.795 81.6546 148.989 100.621 157.643 121.042ZM145.758 133.332C131.475 105.665 134.911 77.3835 154.343 56.5121C174.498 34.8638 210.489 22.6394 257.101 25.381C261.148 25.6191 264.377 28.8464 264.618 32.8931C267.385 79.5083 255.161 115.501 233.505 135.657C212.776 154.95 184.738 158.474 157.258 144.543C153.978 148.647 151.285 153.201 149.266 158.074C146.451 164.869 145.002 172.152 145.002 179.507V208.997C145.002 213.415 141.42 216.997 137.002 216.997C132.584 216.997 129.002 213.415 129.002 208.997V180.311L104.022 155.33C84.0255 164.935 63.5024 162.204 48.2408 147.996C32.1012 132.971 23.2941 106.48 25.2757 72.787C25.5139 68.7381 28.7444 65.508 32.7934 65.2705C66.4857 63.2941 92.9757 72.1012 108.001 88.2391C122.209 103.5 124.94 124.021 115.335 144.017L131.613 160.294C132.397 157.463 133.355 154.676 134.484 151.95C137.282 145.197 141.086 138.921 145.758 133.332ZM78.6588 107.34L103.09 131.771C107.28 119.216 104.394 107.845 96.2905 99.1419C86.5183 88.6459 67.9632 80.7851 41.002 80.998C40.7855 107.958 48.6463 126.513 59.143 136.285C67.8474 144.388 79.22 147.275 91.7757 143.085L67.3451 118.654C64.2209 115.53 64.2209 110.464 67.3451 107.34C70.4693 104.216 75.5346 104.216 78.6588 107.34Z"/>
</mask>
<path fill-rule="evenodd" clip-rule="evenodd" d="M157.643 121.042L211.345 67.3402C214.469 64.216 219.535 64.216 222.659 67.3402C225.783 70.4644 225.783 75.5297 222.659 78.6539L168.957 132.356C189.381 141.01 208.358 137.204 222.604 123.945C238.588 109.068 249.925 81.035 248.949 41.0538C208.965 40.0986 180.931 51.435 166.053 67.4149C152.795 81.6546 148.989 100.621 157.643 121.042ZM145.758 133.332C131.475 105.665 134.911 77.3835 154.343 56.5121C174.498 34.8638 210.489 22.6394 257.101 25.381C261.148 25.6191 264.377 28.8464 264.618 32.8931C267.385 79.5083 255.161 115.501 233.505 135.657C212.776 154.95 184.738 158.474 157.258 144.543C153.978 148.647 151.285 153.201 149.266 158.074C146.451 164.869 145.002 172.152 145.002 179.507V208.997C145.002 213.415 141.42 216.997 137.002 216.997C132.584 216.997 129.002 213.415 129.002 208.997V180.311L104.022 155.33C84.0255 164.935 63.5024 162.204 48.2408 147.996C32.1012 132.971 23.2941 106.48 25.2757 72.787C25.5139 68.7381 28.7444 65.508 32.7934 65.2705C66.4857 63.2941 92.9757 72.1012 108.001 88.2391C122.209 103.5 124.94 124.021 115.335 144.017L131.613 160.294C132.397 157.463 133.355 154.676 134.484 151.95C137.282 145.197 141.086 138.921 145.758 133.332ZM78.6588 107.34L103.09 131.771C107.28 119.216 104.394 107.845 96.2905 99.1419C86.5183 88.6459 67.9632 80.7851 41.002 80.998C40.7855 107.958 48.6463 126.513 59.143 136.285C67.8474 144.388 79.22 147.275 91.7757 143.085L67.3451 118.654C64.2209 115.53 64.2209 110.464 67.3451 107.34C70.4693 104.216 75.5346 104.216 78.6588 107.34Z" fill="#35684E"/>
<path d="M157.643 121.042L134.624 130.797C137.868 138.451 144.705 143.993 152.865 145.582C161.026 147.17 169.442 144.599 175.321 138.72L157.643 121.042ZM211.345 67.3402L193.667 49.6625L193.667 49.6625L211.345 67.3402ZM222.659 67.3402L240.336 49.6625L240.336 49.6625L222.659 67.3402ZM168.957 132.356L151.279 114.678C145.4 120.557 142.829 128.973 144.418 137.134C146.007 145.295 151.549 152.131 159.204 155.375L168.957 132.356ZM222.604 123.945L239.636 142.245L239.636 142.245L222.604 123.945ZM248.949 41.0538L273.942 40.444C273.616 27.1099 262.881 16.3795 249.546 16.0609L248.949 41.0538ZM166.053 67.4149L147.756 50.3794L147.756 50.3794L166.053 67.4149ZM145.758 133.332L164.94 149.365C171.394 141.644 172.589 130.806 167.973 121.864L145.758 133.332ZM154.343 56.5121L136.045 39.4766L136.045 39.4766L154.343 56.5121ZM257.101 25.381L258.569 0.424179L258.569 0.424178L257.101 25.381ZM264.618 32.8931L239.662 34.3747L239.662 34.3748L264.618 32.8931ZM233.505 135.657L216.472 117.357L216.472 117.357L233.505 135.657ZM157.258 144.543L168.562 122.245C157.997 116.889 145.124 119.682 137.729 128.934L157.258 144.543ZM149.266 158.074L172.362 167.642L172.362 167.642L149.266 158.074ZM145.002 179.507L170.002 179.507L170.002 179.507L145.002 179.507ZM129.002 180.311H154.002C154.002 173.68 151.368 167.322 146.68 162.633L129.002 180.311ZM104.022 155.33L121.699 137.653C114.193 130.147 102.766 128.199 93.1976 132.795L104.022 155.33ZM48.2408 147.996L65.2755 129.698L65.2755 129.698L48.2408 147.996ZM25.2757 72.787L0.31885 71.3192L0.318849 71.3192L25.2757 72.787ZM32.7934 65.2705L34.2574 90.2276L34.2574 90.2276L32.7934 65.2705ZM108.001 88.2391L126.298 71.2036L126.298 71.2036L108.001 88.2391ZM115.335 144.017L92.8003 133.193C88.2043 142.761 90.1519 154.189 97.6578 161.695L115.335 144.017ZM131.613 160.294L113.935 177.972C120.224 184.261 129.382 186.735 137.983 184.469C146.584 182.203 153.333 175.537 155.706 166.965L131.613 160.294ZM134.484 151.95L157.581 161.518L157.581 161.518L134.484 151.95ZM103.09 131.771L85.412 149.449C91.5374 155.574 100.397 158.092 108.829 156.103C117.26 154.115 124.061 147.903 126.804 139.686L103.09 131.771ZM78.6588 107.34L60.9811 125.018L60.9811 125.018L78.6588 107.34ZM96.2905 99.1419L77.9932 116.177L77.9933 116.177L96.2905 99.1419ZM41.002 80.998L40.8047 55.9988C27.1532 56.1065 16.1125 67.1458 16.0028 80.7972L41.002 80.998ZM59.143 136.285L42.1083 154.583L42.1083 154.583L59.143 136.285ZM91.7757 143.085L99.6904 166.799C107.908 164.056 114.119 157.255 116.108 148.824C118.097 140.392 115.579 131.532 109.453 125.407L91.7757 143.085ZM67.3451 118.654L85.0228 100.976L85.0228 100.976L67.3451 118.654ZM67.3451 107.34L85.0228 125.018L85.0228 125.018L67.3451 107.34ZM175.321 138.72L229.023 85.0179L193.667 49.6625L139.965 103.365L175.321 138.72ZM229.023 85.0179C222.384 91.6568 211.62 91.6568 204.981 85.0179L240.336 49.6625C227.449 36.7753 206.555 36.7753 193.667 49.6625L229.023 85.0179ZM204.981 85.0179C198.342 78.379 198.342 67.6152 204.981 60.9763L240.336 96.3316C253.224 83.4443 253.224 62.5498 240.336 49.6625L204.981 85.0179ZM204.981 60.9763L151.279 114.678L186.635 150.033L240.336 96.3316L204.981 60.9763ZM159.204 155.375C188.421 167.754 217.95 162.429 239.636 142.245L205.571 105.645C198.766 111.979 190.341 114.265 178.71 109.337L159.204 155.375ZM239.636 142.245C262.605 120.868 275.024 84.7822 273.942 40.444L223.957 41.6635C224.826 77.2878 214.572 97.2679 205.571 105.645L239.636 142.245ZM249.546 16.0609C205.214 15.0018 169.132 27.4197 147.756 50.3794L184.35 84.4504C192.73 75.4502 212.717 65.1953 248.352 66.0467L249.546 16.0609ZM147.756 50.3794C127.57 72.0597 122.244 101.58 134.624 130.797L180.662 111.288C175.735 99.662 178.02 91.2496 184.35 84.4504L147.756 50.3794ZM167.973 121.864C158.099 102.738 161.018 86.0303 172.64 73.5476L136.045 39.4766C108.803 68.7367 104.852 108.593 123.543 144.8L167.973 121.864ZM172.64 73.5476C185.917 59.2876 213.344 47.8506 255.634 50.3379L258.569 0.424178C207.634 -2.5717 163.08 10.4399 136.045 39.4766L172.64 73.5476ZM255.634 50.3379C247.034 49.8321 240.172 42.974 239.662 34.3747L289.574 31.4115C288.583 14.7189 275.262 1.40602 258.569 0.424179L255.634 50.3379ZM239.662 34.3748C242.172 76.6585 230.735 104.082 216.472 117.357L250.537 153.957C279.586 126.92 292.598 82.3582 289.574 31.4115L239.662 34.3748ZM216.472 117.357C204.053 128.915 187.492 131.841 168.562 122.245L145.954 166.842C181.983 185.107 221.499 180.984 250.537 153.957L216.472 117.357ZM137.729 128.934C132.985 134.871 129.089 141.457 126.169 148.506L172.362 167.642C173.48 164.945 174.971 162.424 176.786 160.152L137.729 128.934ZM126.169 148.506C122.098 158.334 120.002 168.869 120.002 179.507L170.002 179.507C170.002 175.435 170.804 171.404 172.362 167.642L126.169 148.506ZM120.002 179.507V208.997H170.002V179.507H120.002ZM120.002 208.997C120.002 199.608 127.613 191.997 137.002 191.997V241.997C155.227 241.997 170.002 227.222 170.002 208.997H120.002ZM137.002 191.997C146.391 191.997 154.002 199.608 154.002 208.997H104.002C104.002 227.222 118.777 241.997 137.002 241.997V191.997ZM154.002 208.997V180.311H104.002V208.997H154.002ZM86.344 173.008L111.324 197.988L146.68 162.633L121.699 137.653L86.344 173.008ZM31.2061 166.294C54.5733 188.048 86.3059 191.574 114.846 177.866L93.1976 132.795C81.7451 138.296 72.4316 136.36 65.2755 129.698L31.2061 166.294ZM0.318849 71.3192C-1.91687 109.332 7.6758 144.388 31.2061 166.294L65.2755 129.698C56.5266 121.553 48.505 103.628 50.2326 74.2549L0.318849 71.3192ZM31.3295 40.3134C14.6272 41.2931 1.30117 54.6171 0.31885 71.3192L50.2326 74.2549C49.7265 82.859 42.8616 89.7229 34.2574 90.2276L31.3295 40.3134ZM126.298 71.2036C104.393 47.6763 69.3395 38.0837 31.3295 40.3134L34.2574 90.2276C63.632 88.5045 81.5583 96.5261 89.7035 105.275L126.298 71.2036ZM137.871 154.841C151.579 126.302 148.053 94.5701 126.298 71.2036L89.7035 105.275C96.3649 112.429 98.3011 121.74 92.8003 133.193L137.871 154.841ZM149.29 142.616L133.013 126.339L97.6578 161.695L113.935 177.972L149.29 142.616ZM155.706 166.965C156.218 165.117 156.843 163.298 157.581 161.518L111.388 142.382C109.866 146.054 108.575 149.808 107.519 153.623L155.706 166.965ZM157.581 161.518C159.407 157.11 161.89 153.014 164.94 149.365L126.576 117.299C120.282 124.829 115.156 133.284 111.388 142.382L157.581 161.518ZM120.767 114.093L96.3365 89.6625L60.9811 125.018L85.412 149.449L120.767 114.093ZM77.9933 116.177C79.3039 117.585 79.7263 118.666 79.8848 119.387C80.0378 120.082 80.1738 121.465 79.3757 123.856L126.804 139.686C133.927 118.343 128.851 97.4256 114.588 82.1063L77.9933 116.177ZM41.1994 105.997C63.8177 105.819 74.5529 112.482 77.9932 116.177L114.588 82.1063C98.4838 64.8095 72.1087 55.7516 40.8047 55.9988L41.1994 105.997ZM76.1777 117.987C72.4829 114.547 65.8196 103.814 66.0012 81.1988L16.0028 80.7972C15.7514 112.103 24.8096 138.479 42.1083 154.583L76.1777 117.987ZM83.8611 119.37C81.4698 120.169 80.0855 120.033 79.3892 119.879C78.6677 119.721 77.5856 119.298 76.1777 117.987L42.1083 154.583C57.4287 168.846 78.3477 173.922 99.6904 166.799L83.8611 119.37ZM49.6674 136.332L74.0981 160.762L109.453 125.407L85.0228 100.976L49.6674 136.332ZM49.6674 89.6625C36.7801 102.55 36.7801 123.444 49.6674 136.332L85.0228 100.976C91.6617 107.615 91.6617 118.379 85.0228 125.018L49.6674 89.6625ZM96.3365 89.6626C83.4492 76.7752 62.5547 76.7752 49.6674 89.6626L85.0228 125.018C78.3839 131.657 67.62 131.657 60.9811 125.018L96.3365 89.6626Z" fill="#6AD09D" mask="url(#path-1-outside-1_526_15)"/>
</svg>
