<svg viewBox="0 0 12 12" fill="none" xmlns="http://www.w3.org/2000/svg">
<path fill-rule="evenodd" clip-rule="evenodd" d="M11.7071 0.292893C12.0976 0.683417 12.0976 1.31658 11.7071 1.70711L1.70711 11.7071C1.31658 12.0976 0.683417 12.0976 0.292893 11.7071C-0.0976311 11.3166 -0.0976311 10.6834 0.292893 10.2929L10.2929 0.292893C10.6834 -0.0976311 11.3166 -0.0976311 11.7071 0.292893Z" fill="inherit"/>
<path fill-rule="evenodd" clip-rule="evenodd" d="M1 1C1 0.447715 1.44772 0 2 0H11C11.5523 0 12 0.447715 12 1V10C12 10.5523 11.5523 11 11 11C10.4477 11 10 10.5523 10 10V2H2C1.44772 2 1 1.55228 1 1Z" fill="inherit"/>
</svg>
