<svg viewBox="0 0 24 24" fill="none" xmlns="http://www.w3.org/2000/svg">
<path fill-rule="evenodd" clip-rule="evenodd" d="M2.44662 5.41985C3.79689 4.52276 5.57993 4 7.5 4C9.16806 4 10.7327 4.39454 12 5.0863C13.2673 4.39454 14.8319 4 16.5 4C18.4201 4 20.2031 4.52276 21.5534 5.41985C21.8323 5.60518 22 5.91786 22 6.25278V19.2528C22 19.6213 21.7973 19.9599 21.4726 20.1341C21.1478 20.3082 20.7536 20.2896 20.4466 20.0857C19.4611 19.431 18.0729 19 16.5 19C14.9365 19 13.5554 19.4259 12.571 20.0741C12.523 20.1074 12.4725 20.1362 12.42 20.1604C12.3772 20.1803 12.3334 20.197 12.2891 20.2104C12.2204 20.2311 12.1487 20.2446 12.0746 20.25C11.9535 20.2592 11.8301 20.2464 11.7109 20.2104C11.6468 20.191 11.5853 20.1654 11.5274 20.1343C11.4936 20.1162 11.4607 20.0961 11.429 20.0741C10.4446 19.4259 9.06353 19 7.5 19C5.92711 19 4.5389 19.431 3.55337 20.0857C3.24643 20.2896 2.8522 20.3082 2.52744 20.1341C2.20267 19.9599 2 19.6213 2 19.2528V6.25278C2 5.91786 2.16766 5.60519 2.44662 5.41985ZM13 17.626C14.0537 17.2224 15.2477 17 16.5 17C17.7523 17 18.9463 17.2224 20 17.626V6.81928C19.0605 6.31657 17.8481 6 16.5 6C15.1519 6 13.9395 6.31657 13 6.81928V17.626ZM11 6.81928C10.0605 6.31657 8.84809 6 7.5 6C6.15191 6 4.93949 6.31657 4 6.81928V17.626C5.05367 17.2224 6.24768 17 7.5 17C8.75232 17 9.94633 17.2224 11 17.626V6.81928ZM11.58 20.1604C11.7997 20.2619 12.0526 20.2819 12.2891 20.2104C12.388 20.1805 12.4805 20.1358 12.5639 20.0788"/>
</svg>
