<?xml version="1.0" encoding="UTF-8"?><svg version="1.1" viewBox="0 0 20 20" xmlns="http://www.w3.org/2000/svg" xmlns:xlink="http://www.w3.org/1999/xlink"><!--Generated by IJSVG (https://github.com/iconjar/IJSVG)--><path d="M9,4.80423c-1.0572,-0.51517 -2.24484,-0.80423 -3.5,-0.80423c-1.25516,0 -2.4428,0.28906 -3.5,0.80423v9.99997c1.0572,-0.5151 2.24484,-0.8042 3.5,-0.8042c1.6686,0 3.21789,0.5108 4.5,1.3847c1.2821,-0.8739 2.8314,-1.3847 4.5,-1.3847c1.2552,0 2.4428,0.2891 3.5,0.8042v-9.99997c-1.0572,-0.51517 -2.2448,-0.80423 -3.5,-0.80423c-1.2552,0 -2.4428,0.28906 -3.5,0.80423v7.19577c0,0.5523 -0.4477,1 -1,1c-0.55228,0 -1,-0.4477 -1,-1v-7.19577Z"></path></svg>
