<?xml version="1.0" encoding="UTF-8"?><svg version="1.1" viewBox="0 0 20 20" xmlns="http://www.w3.org/2000/svg" xmlns:xlink="http://www.w3.org/1999/xlink"><!--Generated by IJSVG (https://github.com/iconjar/IJSVG)--><path d="M4,5c-1.10457,0 -2,0.89543 -2,2v8c0,1.1046 0.89543,2 2,2h12c1.1046,0 2,-0.8954 2,-2v-8c0,-1.10457 -0.8954,-2 -2,-2h-1.5858c-0.2652,0 -0.5196,-0.10536 -0.7071,-0.29289l-1.1213,-1.12132c-0.3751,-0.37508 -0.8838,-0.58579 -1.4142,-0.58579h-2.34317c-0.53044,0 -1.03914,0.21071 -1.41422,0.58579l-1.12132,1.12132c-0.18753,0.18753 -0.44189,0.29289 -0.7071,0.29289h-1.58579Zm6,9c1.6569,0 3,-1.3431 3,-3c0,-1.65685 -1.3431,-3 -3,-3c-1.65685,0 -3,1.34315 -3,3c0,1.6569 1.34315,3 3,3Z" fill-rule="evenodd"></path></svg>
