<svg viewBox="0 0 24 24" fill="none" xmlns="http://www.w3.org/2000/svg">
<path fill-rule="evenodd" clip-rule="evenodd" d="M10.0704 5C9.736 5 9.42378 5.16711 9.23832 5.4453L8.42578 6.6641C7.86939 7.4987 6.93269 8 5.92963 8H5C4.44771 8 4 8.44771 4 9V18C4 18.5523 4.44771 19 5 19H19C19.5523 19 20 18.5523 20 18V9C20 8.4477 19.5523 8 19 8H18.0704C17.0674 8 16.1307 7.49875 15.5743 6.66413C15.5743 6.66411 15.5743 6.66415 15.5743 6.66413L14.7617 5.44533C14.5763 5.16719 14.264 5 13.9296 5H10.0704ZM7.57422 4.3359C8.13062 3.50129 9.06732 3 10.0704 3H13.9296C14.9326 3 15.8693 3.50125 16.4257 4.33587C16.4257 4.33589 16.4257 4.33585 16.4257 4.33587L17.2383 5.55467C17.4237 5.83281 17.736 6 18.0704 6H19C20.6569 6 22 7.34315 22 9V18C22 19.6569 20.6569 21 19 21H5C3.34315 21 2 19.6569 2 18V9C2 7.34315 3.34315 6 5 6H5.92963C6.26399 6 6.57621 5.8329 6.76168 5.5547L7.57422 4.3359C7.57422 4.33589 7.57422 4.3359 7.57422 4.3359Z"/>
<path fill-rule="evenodd" clip-rule="evenodd" d="M12 11C10.8954 11 10 11.8954 10 13C10 14.1046 10.8954 15 12 15C13.1046 15 14 14.1046 14 13C14 11.8954 13.1046 11 12 11ZM8 13C8 10.7908 9.79082 9 12 9C14.2092 9 16 10.7908 16 13C16 15.2092 14.2092 17 12 17C9.79082 17 8 15.2092 8 13Z"/>
</svg>
