<svg viewBox="0 0 24 24" fill="none" xmlns="http://www.w3.org/2000/svg">
<path fill-rule="evenodd" clip-rule="evenodd" d="M12.708 1.98283C12.5203 1.79519 12.2658 1.68982 12.0004 1.68994C11.7351 1.69006 11.4806 1.79565 11.2931 1.98346L5.64339 7.6432C4.38445 8.90155 3.52692 10.505 3.17923 12.2507C2.83148 13.9967 3.00937 15.8066 3.69038 17.4514C4.3714 19.0963 5.52495 20.5023 7.00512 21.4915C8.48529 22.4807 10.2256 23.0086 12.0059 23.0086C13.7861 23.0086 15.5264 22.4807 17.0066 21.4915C18.4868 20.5023 19.6403 19.0963 20.3213 17.4514C21.0024 15.8066 21.1802 13.9967 20.8325 12.2507C20.4848 10.5048 19.6269 8.90101 18.3677 7.6426L12.708 1.98283Z"/>
</svg>
