<svg viewBox="0 0 24 24" fill="none" xmlns="http://www.w3.org/2000/svg">
<path fill-rule="evenodd" clip-rule="evenodd" d="M4 21C3.44772 21 3 20.5523 3 20L3 14.4C3 13.8477 3.44771 13.4 4 13.4C4.55228 13.4 5 13.8477 5 14.4L5 17.5858L9.29289 13.2929C9.68342 12.9024 10.3166 12.9024 10.7071 13.2929C11.0976 13.6834 11.0976 14.3166 10.7071 14.7071L6.41421 19L9.6 19C10.1523 19 10.6 19.4477 10.6 20C10.6 20.5523 10.1523 21 9.6 21L4 21Z"/>
<path fill-rule="evenodd" clip-rule="evenodd" d="M20 3C20.5523 3 21 3.44772 21 4L21 9.6C21 10.1523 20.5523 10.6 20 10.6C19.4477 10.6 19 10.1523 19 9.6L19 6.41421L14.7071 10.7071C14.3166 11.0976 13.6834 11.0976 13.2929 10.7071C12.9024 10.3166 12.9024 9.68342 13.2929 9.29289L17.5858 5L14.4 5C13.8477 5 13.4 4.55228 13.4 4C13.4 3.44771 13.8477 3 14.4 3L20 3Z"/>
</svg>
