<svg viewBox="0 0 24 24" fill="none" xmlns="http://www.w3.org/2000/svg">
<path fill-rule="evenodd" clip-rule="evenodd" d="M10 13C10.5523 13 11 13.4477 11 14L11 19.6C11 20.1523 10.5523 20.6 10 20.6C9.44771 20.6 9 20.1523 9 19.6L9 16.4142L4.70711 20.7071C4.31658 21.0976 3.68342 21.0976 3.29289 20.7071C2.90237 20.3166 2.90237 19.6834 3.29289 19.2929L7.58579 15L4.4 15C3.84771 15 3.4 14.5523 3.4 14C3.4 13.4477 3.84771 13 4.4 13L10 13Z"/>
<path fill-rule="evenodd" clip-rule="evenodd" d="M14 11C13.4477 11 13 10.5523 13 10L13 4.4C13 3.84772 13.4477 3.4 14 3.4C14.5523 3.4 15 3.84772 15 4.4L15 7.58579L19.2929 3.29289C19.6834 2.90237 20.3166 2.90237 20.7071 3.29289C21.0976 3.68342 21.0976 4.31658 20.7071 4.70711L16.4142 9L19.6 9C20.1523 9 20.6 9.44772 20.6 10C20.6 10.5523 20.1523 11 19.6 11L14 11Z"/>
</svg>
