<svg viewBox="0 0 24 24" fill="none" xmlns="http://www.w3.org/2000/svg">
<path fill-rule="evenodd" clip-rule="evenodd" d="M14.1923 11.2929C14.5828 11.6834 14.5828 12.3166 14.1923 12.7071L9.70574 17.1937C9.31521 17.5842 8.68205 17.5842 8.29152 17.1937C7.901 16.8032 7.901 16.17 8.29152 15.7795L11.071 13L2.17149 13C1.61921 13 1.17149 12.5523 1.17149 12C1.17149 11.4477 1.61921 11 2.17149 11L11.071 11L8.29152 8.22053C7.901 7.83001 7.901 7.19685 8.29152 6.80632C8.68205 6.4158 9.31521 6.4158 9.70573 6.80632L14.1923 11.2929Z"/>
<path fill-rule="evenodd" clip-rule="evenodd" d="M19 5C19.5523 5 20 5.39175 20 5.875V18.125C20 18.6082 19.5523 19 19 19C18.4477 19 18 18.6082 18 18.125V5.875C18 5.39175 18.4477 5 19 5Z"/>
</svg>
