<svg viewBox="0 0 24 24" fill="none" xmlns="http://www.w3.org/2000/svg">
<path fill-rule="evenodd" clip-rule="evenodd" d="M9.80769 12.7071C9.41717 12.3166 9.41717 11.6834 9.80769 11.2929L14.2943 6.80632C14.6848 6.4158 15.318 6.4158 15.7085 6.80632C16.099 7.19685 16.099 7.83001 15.7085 8.22054L12.929 11L21.8285 11C22.3808 11 22.8285 11.4477 22.8285 12C22.8285 12.5523 22.3808 13 21.8285 13L12.929 13L15.7085 15.7795C16.099 16.17 16.099 16.8032 15.7085 17.1937C15.318 17.5842 14.6848 17.5842 14.2943 17.1937L9.80769 12.7071Z"/>
<path fill-rule="evenodd" clip-rule="evenodd" d="M5 19C4.44772 19 4 18.6082 4 18.125L4 5.875C4 5.39175 4.44772 5 5 5C5.55229 5 6 5.39175 6 5.875L6 18.125C6 18.6082 5.55228 19 5 19Z"/>
</svg>
