<?xml version="1.0" encoding="UTF-8"?><svg version="1.1" viewBox="0 0 32 32" xmlns="http://www.w3.org/2000/svg" xmlns:xlink="http://www.w3.org/1999/xlink"><!--Generated by IJSVG (https://github.com/iconjar/IJSVG)--><path d="M16,4c-6.62891,0 -12,5.37109 -12,12c0,5.30078 3.4375,9.80078 8.20703,11.3867c0.601563,0.109375 0.820313,-0.257813 0.820313,-0.578125c0,-0.285156 -0.011719,-1.03906 -0.015625,-2.03906c-3.33984,0.722657 -4.04297,-1.60938 -4.04297,-1.60938c-0.546875,-1.38672 -1.33203,-1.75781 -1.33203,-1.75781c-1.08984,-0.742188 0.082031,-0.726563 0.082031,-0.726563c1.20312,0.085938 1.83594,1.23438 1.83594,1.23438c1.07031,1.83594 2.80859,1.30469 3.49219,1c0.109375,-0.777343 0.421875,-1.30469 0.761719,-1.60547c-2.66406,-0.300782 -5.46484,-1.33203 -5.46484,-5.92969c0,-1.3125 0.46875,-2.38281 1.23438,-3.22266c-0.121094,-0.300781 -0.535156,-1.52344 0.117188,-3.17578c0,0 1.00781,-0.320313 3.30078,1.23047c0.957031,-0.265625 1.98438,-0.398437 3.00391,-0.402343c1.01953,0.003906 2.04688,0.136718 3.00391,0.402343c2.29297,-1.55078 3.29688,-1.23047 3.29688,-1.23047c0.65625,1.65234 0.246094,2.875 0.121094,3.17578c0.769531,0.839844 1.23047,1.91016 1.23047,3.22266c0,4.60938 -2.80469,5.62109 -5.47656,5.92188c0.429688,0.367188 0.8125,1.10156 0.8125,2.21875c0,1.60547 -0.011718,2.89844 -0.011718,3.29297c0,0.320312 0.214843,0.695312 0.824218,0.578125c4.76562,-1.58984 8.19922,-6.08594 8.19922,-11.3867c0,-6.62891 -5.37109,-12 -12,-12Z" fill="#000" fill-rule="evenodd"></path></svg>