<svg viewBox="0 0 32 32" fill="none" xmlns="http://www.w3.org/2000/svg">
<mask id="path-1-outside-1_1156_438" maskUnits="userSpaceOnUse" x="5" y="1" width="22" height="30" fill="black">
<rect fill="white" x="5" y="1" width="22" height="30"/>
<path fill-rule="evenodd" clip-rule="evenodd" d="M22.1843 20.5959V13.9885C22.1843 13.802 22.0223 13.6689 21.8279 13.6156C21.6009 13.589 21.4063 13.6689 21.309 13.8286C21.309 13.8554 19.7524 16.7594 17.7746 18.6775C16.1207 20.3027 14.6289 21.2883 12.4565 21.2883C9.24634 21.2883 7.07362 18.8106 7.00867 14.8678C6.94395 10.9248 8.66249 7.4347 11.4188 5.06373C13.105 3.59843 15.1479 2.79912 17.223 2.79912C19.8497 2.79912 20.8226 3.44254 20.8226 6.05337C20.8226 8.77149 18.1103 11.4306 16.3067 13.1988C16.2011 13.3023 16.0986 13.4028 16 13.5C15.8377 13.6599 15.9027 13.9263 16.0973 14.0595C16.2919 14.1928 16.616 14.166 16.7782 14.0061L16.8132 13.9719C18.6981 12.13 21.8279 9.07142 21.8279 6C21.8279 3.28264 20.5956 2 17.1907 2C14.8559 2 12.5538 2.87907 10.673 4.50409C7.7548 7.03515 5.90635 10.7383 6.00366 14.8678C6.13333 20.2227 9.5704 22.1142 12.4241 22.1142C15.2128 22.1142 17.0934 20.6491 18.5202 19.157C19.6228 18.0115 20.628 16.6259 21.244 15.6137C21.2673 16.6265 21.2738 18.9961 21.2759 21.0614C20.8957 21.4103 20.5091 21.767 20.1091 22.1408C19.74 22.4874 19.378 22.8194 19.0291 23.1394C17.0175 24.9845 15.4398 26.4315 15.4398 27.9752C15.4398 29.1742 16.445 30 17.8719 30C19.0715 30 20.3361 29.5204 21.244 28.1087C21.8926 27.0963 22.1843 23.9404 22.1843 21.6227L25.3518 19.157V18.2001L22.1843 20.5959ZM21.2758 23.2593C21.2758 24.8578 21.0812 26.6426 20.3029 27.8149C19.7517 28.6409 19.006 29.2004 17.8711 29.2004C16.9629 29.2004 16.4119 28.6941 16.4119 27.9215C16.4119 26.7502 17.6633 25.5791 19.6372 23.7318C19.9982 23.394 20.3833 23.0337 20.7893 22.6465C20.9522 22.491 21.1145 22.3376 21.2756 22.1858C21.2758 22.5742 21.2758 22.9372 21.2758 23.2593Z"/>
</mask>
<path fill-rule="evenodd" clip-rule="evenodd" d="M22.1843 20.5959V13.9885C22.1843 13.802 22.0223 13.6689 21.8279 13.6156C21.6009 13.589 21.4063 13.6689 21.309 13.8286C21.309 13.8554 19.7524 16.7594 17.7746 18.6775C16.1207 20.3027 14.6289 21.2883 12.4565 21.2883C9.24634 21.2883 7.07362 18.8106 7.00867 14.8678C6.94395 10.9248 8.66249 7.4347 11.4188 5.06373C13.105 3.59843 15.1479 2.79912 17.223 2.79912C19.8497 2.79912 20.8226 3.44254 20.8226 6.05337C20.8226 8.77149 18.1103 11.4306 16.3067 13.1988C16.2011 13.3023 16.0986 13.4028 16 13.5C15.8377 13.6599 15.9027 13.9263 16.0973 14.0595C16.2919 14.1928 16.616 14.166 16.7782 14.0061L16.8132 13.9719C18.6981 12.13 21.8279 9.07142 21.8279 6C21.8279 3.28264 20.5956 2 17.1907 2C14.8559 2 12.5538 2.87907 10.673 4.50409C7.7548 7.03515 5.90635 10.7383 6.00366 14.8678C6.13333 20.2227 9.5704 22.1142 12.4241 22.1142C15.2128 22.1142 17.0934 20.6491 18.5202 19.157C19.6228 18.0115 20.628 16.6259 21.244 15.6137C21.2673 16.6265 21.2738 18.9961 21.2759 21.0614C20.8957 21.4103 20.5091 21.767 20.1091 22.1408C19.74 22.4874 19.378 22.8194 19.0291 23.1394C17.0175 24.9845 15.4398 26.4315 15.4398 27.9752C15.4398 29.1742 16.445 30 17.8719 30C19.0715 30 20.3361 29.5204 21.244 28.1087C21.8926 27.0963 22.1843 23.9404 22.1843 21.6227L25.3518 19.157V18.2001L22.1843 20.5959ZM21.2758 23.2593C21.2758 24.8578 21.0812 26.6426 20.3029 27.8149C19.7517 28.6409 19.006 29.2004 17.8711 29.2004C16.9629 29.2004 16.4119 28.6941 16.4119 27.9215C16.4119 26.7502 17.6633 25.5791 19.6372 23.7318C19.9982 23.394 20.3833 23.0337 20.7893 22.6465C20.9522 22.491 21.1145 22.3376 21.2756 22.1858C21.2758 22.5742 21.2758 22.9372 21.2758 23.2593Z" fill="black"/>
<path d="M20.3037 27.8155L20.5948 28.0098L20.5953 28.0091L20.3037 27.8155ZM19.638 23.7324L19.8771 23.9879L19.8772 23.9879L19.638 23.7324ZM20.79 22.6471L21.0316 22.9004L21.0317 22.9003L20.79 22.6471ZM21.2764 22.1863L21.6264 22.1861C21.6263 22.0464 21.5432 21.9202 21.4149 21.8649C21.2867 21.8096 21.1379 21.8358 21.0363 21.9316L21.2764 22.1863ZM20.9266 23.2599C20.9266 24.8534 20.7279 26.5436 20.0121 27.6219L20.5953 28.0091C21.436 26.7427 21.6266 24.8634 21.6266 23.2599H20.9266ZM20.0126 27.6212C19.5082 28.3769 18.8607 28.8509 17.8719 28.8509V29.5509C19.1528 29.5509 19.9966 28.9061 20.5948 28.0098L20.0126 27.6212ZM17.8719 28.8509C17.481 28.8509 17.2063 28.7425 17.0341 28.5895C16.8663 28.4404 16.7627 28.2205 16.7627 27.922H16.0627C16.0627 28.3962 16.2346 28.8157 16.5693 29.1129C16.8996 29.4063 17.3546 29.5509 17.8719 29.5509V28.8509ZM16.7627 27.922C16.7627 27.4634 17.008 26.9586 17.5538 26.305C18.0964 25.6553 18.8841 24.9173 19.8771 23.9879L19.3988 23.4768C18.418 24.3948 17.593 25.166 17.0165 25.8564C16.4431 26.543 16.0627 27.2094 16.0627 27.922H16.7627ZM19.8772 23.9879C20.238 23.6503 20.6242 23.2888 21.0316 22.9004L20.5485 22.3938C20.1439 22.7796 19.7599 23.1389 19.3988 23.4768L19.8772 23.9879ZM21.0317 22.9003C21.1939 22.7455 21.3555 22.5927 21.5164 22.441L21.0363 21.9316C20.875 22.0837 20.7121 22.2376 20.5484 22.3939L21.0317 22.9003ZM20.9264 22.1865C20.9266 22.5749 20.9266 22.9378 20.9266 23.2599H21.6266C21.6266 22.9378 21.6266 22.5747 21.6264 22.1861L20.9264 22.1865ZM22.1843 20.5959H21.4843C21.4843 20.8616 21.6347 21.1044 21.8725 21.2227C22.1104 21.341 22.3947 21.3145 22.6066 21.1542L22.1843 20.5959ZM21.8279 13.6156L22.0131 12.9405C21.9791 12.9312 21.9444 12.9244 21.9094 12.9203L21.8279 13.6156ZM21.309 13.8286L20.7112 13.4644C20.6443 13.5741 20.609 13.7001 20.609 13.8286H21.309ZM17.7746 18.6775L17.2872 18.1749L17.2839 18.1782L17.7746 18.6775ZM7.00867 14.8678L6.30876 14.8793L6.30876 14.8793L7.00867 14.8678ZM11.4188 5.06373L11.8753 5.59442L11.878 5.5921L11.4188 5.06373ZM16.3067 13.1988L16.7967 13.6987L16.7967 13.6987L16.3067 13.1988ZM16 13.5L16.4913 13.9986L16.4914 13.9985L16 13.5ZM16.0973 14.0595L16.4929 13.482L16.4925 13.4817L16.0973 14.0595ZM16.7782 14.0061L16.289 13.5055L16.2869 13.5075L16.7782 14.0061ZM16.8132 13.9719L16.324 13.4713L16.324 13.4713L16.8132 13.9719ZM10.673 4.50409L10.2153 3.97441L10.2143 3.97529L10.673 4.50409ZM6.00366 14.8678L5.30386 14.8843L5.30387 14.8847L6.00366 14.8678ZM18.5202 19.157L18.0159 18.6716L18.0143 18.6732L18.5202 19.157ZM21.244 15.6137L21.9438 15.5977C21.9367 15.2869 21.7255 15.0181 21.4252 14.9376C21.125 14.8571 20.8076 14.9843 20.646 15.2498L21.244 15.6137ZM21.2759 21.0614L21.7492 21.5772C21.8938 21.4444 21.9761 21.2571 21.9759 21.0607L21.2759 21.0614ZM20.1091 22.1408L19.6312 21.6293L19.6299 21.6305L20.1091 22.1408ZM19.0291 23.1394L19.5023 23.6553L19.5023 23.6553L19.0291 23.1394ZM21.244 28.1087L21.8328 28.4873L21.8334 28.4863L21.244 28.1087ZM22.1843 21.6227L21.7543 21.0703C21.5839 21.203 21.4843 21.4068 21.4843 21.6227H22.1843ZM25.3518 19.157L25.7817 19.7094C25.9521 19.5767 26.0518 19.3729 26.0518 19.157H25.3518ZM25.3518 18.2001H26.0518C26.0518 17.9345 25.9014 17.6917 25.6635 17.5734C25.4257 17.4551 25.1413 17.4816 24.9295 17.6419L25.3518 18.2001ZM20.3029 27.8149L20.8852 28.2035L20.8861 28.2021L20.3029 27.8149ZM19.6372 23.7318L20.1155 24.2429L20.1155 24.2429L19.6372 23.7318ZM20.7893 22.6465L21.2723 23.1531L21.2726 23.1529L20.7893 22.6465ZM21.2756 22.1858L21.9756 22.1853C21.9754 21.906 21.8092 21.6536 21.5528 21.543C21.2963 21.4324 20.9986 21.4848 20.7954 21.6764L21.2756 22.1858ZM21.4843 13.9885V20.5959H22.8843V13.9885H21.4843ZM21.6426 14.2906C21.6515 14.293 21.6275 14.2896 21.59 14.253C21.5449 14.209 21.4843 14.1162 21.4843 13.9885H22.8843C22.8843 13.3324 22.3311 13.0278 22.0131 12.9405L21.6426 14.2906ZM21.9067 14.1928C21.8716 14.2505 21.8231 14.2844 21.7857 14.2997C21.751 14.314 21.7349 14.3095 21.7464 14.3108L21.9094 12.9203C21.4844 12.8705 20.9857 13.0138 20.7112 13.4644L21.9067 14.1928ZM18.2619 19.18C19.3038 18.1696 20.2199 16.916 20.8686 15.9281C21.195 15.4309 21.4584 14.994 21.6409 14.6781C21.7322 14.5202 21.8039 14.3914 21.8537 14.2994C21.8784 14.2537 21.8989 14.2151 21.9141 14.1854C21.9213 14.1713 21.9295 14.1551 21.9369 14.1393C21.9402 14.1325 21.9467 14.1185 21.9537 14.1018C21.9568 14.0943 21.964 14.0769 21.9716 14.0546C21.9753 14.0437 21.982 14.0231 21.9885 13.9968C21.9923 13.9812 22.009 13.9151 22.009 13.8286H20.609C20.609 13.7424 20.6255 13.6765 20.6293 13.6614C20.6357 13.6354 20.6422 13.6153 20.6458 13.605C20.653 13.5837 20.6595 13.5678 20.6619 13.5621C20.6674 13.549 20.6717 13.5401 20.6719 13.5396C20.6734 13.5365 20.6726 13.5383 20.6679 13.5474C20.6593 13.5642 20.6444 13.5926 20.6227 13.6326C20.5797 13.712 20.5143 13.8295 20.4288 13.9776C20.2577 14.2737 20.0083 14.6876 19.6983 15.1596C19.0743 16.1099 18.2232 17.2673 17.2873 18.1749L18.2619 19.18ZM12.4565 21.9883C14.899 21.9883 16.5589 20.8535 18.2652 19.1767L17.2839 18.1782C15.6826 19.7518 14.3589 20.5883 12.4565 20.5883V21.9883ZM6.30876 14.8793C6.34324 16.9721 6.93861 18.7475 8.02145 20.0119C9.11373 21.2873 10.6575 21.9883 12.4565 21.9883V20.5883C11.0453 20.5883 9.89765 20.0504 9.0848 19.1013C8.26251 18.1411 7.73905 16.7062 7.70857 14.8563L6.30876 14.8793ZM10.9624 4.53305C8.05624 7.03284 6.24046 10.7182 6.30876 14.8793L7.70857 14.8563C7.64743 11.1314 9.26874 7.83655 11.8753 5.59441L10.9624 4.53305ZM17.223 2.09912C14.9649 2.09912 12.7621 2.96907 10.9597 4.53536L11.878 5.5921C13.448 4.22779 15.3308 3.49912 17.223 3.49912V2.09912ZM21.5226 6.05337C21.5226 4.69815 21.278 3.61006 20.462 2.91446C19.6797 2.24764 18.5419 2.09912 17.223 2.09912V3.49912C18.5309 3.49912 19.1929 3.67232 19.5538 3.97991C19.8808 4.25873 20.1226 4.79777 20.1226 6.05337H21.5226ZM16.7967 13.6987C17.6927 12.8203 18.8623 11.6756 19.8045 10.3977C20.7392 9.1298 21.5226 7.63614 21.5226 6.05337H20.1226C20.1226 7.18872 19.5499 8.38365 18.6776 9.5669C17.8127 10.7401 16.7243 11.8091 15.8166 12.6989L16.7967 13.6987ZM16.4914 13.9985C16.5893 13.9021 16.691 13.8023 16.7967 13.6987L15.8166 12.6989C15.7112 12.8023 15.608 12.9035 15.5086 13.0015L16.4914 13.9985ZM16.4925 13.4817C16.5405 13.5145 16.5851 13.5706 16.6017 13.6548C16.6205 13.7503 16.5995 13.892 16.4913 13.9986L15.5087 13.0014C15.2383 13.2679 15.1686 13.6227 15.228 13.9247C15.2851 14.2154 15.4595 14.4713 15.7021 14.6372L16.4925 13.4817ZM16.2869 13.5075C16.3216 13.4733 16.3522 13.4583 16.3667 13.4524C16.3816 13.4463 16.3906 13.4452 16.3943 13.445C16.398 13.4447 16.4056 13.4444 16.4186 13.4474C16.4312 13.4502 16.4586 13.4585 16.4929 13.482L15.7017 14.6369C15.9594 14.8135 16.258 14.8603 16.5055 14.8405C16.7514 14.8209 17.0432 14.7278 17.2696 14.5047L16.2869 13.5075ZM16.324 13.4713L16.289 13.5055L17.2675 14.5067L17.3025 14.4725L16.324 13.4713ZM21.1279 6C21.1279 7.30999 20.4528 8.6923 19.4642 10.0312C18.4847 11.3578 17.2713 12.5455 16.324 13.4713L17.3025 14.4726C18.24 13.5564 19.5339 12.2938 20.5905 10.8628C21.638 9.44412 22.5279 7.76144 22.5279 6H21.1279ZM17.1907 2.7C18.8321 2.7 19.7768 3.01431 20.3179 3.50129C20.8397 3.97097 21.1279 4.73254 21.1279 6H22.5279C22.5279 4.5501 22.1999 3.31167 21.2544 2.46069C20.3281 1.62701 18.9543 1.3 17.1907 1.3V2.7ZM11.1306 5.03378C12.8919 3.51202 15.0338 2.7 17.1907 2.7V1.3C14.6781 1.3 12.2157 2.24612 10.2153 3.97441L11.1306 5.03378ZM6.70347 14.8513C6.61149 10.9482 8.3572 7.43928 11.1316 5.0329L10.2143 3.97529C7.15239 6.63102 5.20121 10.5284 5.30386 14.8843L6.70347 14.8513ZM12.4241 21.4142C11.1442 21.4142 9.75085 20.9893 8.66825 19.9857C7.59706 18.9927 6.76452 17.3723 6.70346 14.8508L5.30387 14.8847C5.37248 17.7182 6.32331 19.721 7.71649 21.0124C9.09826 22.2933 10.8503 22.8142 12.4241 22.8142V21.4142ZM18.0143 18.6732C16.6393 20.1111 14.9305 21.4142 12.4241 21.4142V22.8142C15.4952 22.8142 17.5475 21.187 19.0261 19.6408L18.0143 18.6732ZM20.646 15.2498C20.0522 16.2255 19.0774 17.5687 18.0159 18.6716L19.0246 19.6424C20.1682 18.4542 21.2038 17.0263 21.842 15.9777L20.646 15.2498ZM21.9759 21.0607C21.9738 18.999 21.9673 16.62 21.9438 15.5977L20.5442 15.6298C20.5673 16.633 20.5738 18.9932 20.5759 21.0621L21.9759 21.0607ZM20.587 22.6522C20.9849 22.2804 21.3699 21.9252 21.7492 21.5772L20.8026 20.5457C20.4215 20.8954 20.0332 21.2536 19.6312 21.6293L20.587 22.6522ZM19.5023 23.6553C19.8508 23.3356 20.2157 23.0009 20.5883 22.6511L19.6299 21.6305C19.2643 21.9738 18.9053 22.3031 18.556 22.6235L19.5023 23.6553ZM16.1398 27.9752C16.1398 27.4473 16.4101 26.8575 17.0208 26.1149C17.6287 25.3757 18.4846 24.5887 19.5023 23.6553L18.556 22.6235C17.5621 23.5351 16.6233 24.3942 15.9395 25.2257C15.2584 26.0538 14.7398 26.9594 14.7398 27.9752H16.1398ZM17.8719 29.3C17.2896 29.3 16.849 29.1318 16.5676 28.8984C16.2958 28.673 16.1398 28.3632 16.1398 27.9752H14.7398C14.7398 28.7863 15.0864 29.4888 15.6739 29.9761C16.2519 30.4553 17.0273 30.7 17.8719 30.7V29.3ZM20.6553 27.73C19.8913 28.9179 18.8627 29.3 17.8719 29.3V30.7C19.2803 30.7 20.7809 30.1228 21.8328 28.4873L20.6553 27.73ZM21.4843 21.6227C21.4843 22.7566 21.4127 24.095 21.263 25.2665C21.1881 25.8525 21.0951 26.3853 20.9854 26.8244C20.872 27.2782 20.7541 27.5758 20.6546 27.7311L21.8334 28.4863C22.0582 28.1354 22.22 27.6589 22.3437 27.1638C22.4711 26.6539 22.5726 26.0631 22.6517 25.4439C22.81 24.2049 22.8843 22.8065 22.8843 21.6227H21.4843ZM24.9218 18.6046L21.7543 21.0703L22.6143 22.1751L25.7817 19.7094L24.9218 18.6046ZM24.6518 18.2001V19.157H26.0518V18.2001H24.6518ZM22.6066 21.1542L25.774 18.7584L24.9295 17.6419L21.762 20.0377L22.6066 21.1542ZM20.8861 28.2021C21.7893 26.8416 21.9758 24.8678 21.9758 23.2593H20.5758C20.5758 24.8479 20.3731 26.4436 19.7198 27.4278L20.8861 28.2021ZM17.8711 29.9004C19.2981 29.9004 20.24 29.1702 20.8852 28.2035L19.7207 27.4264C19.2633 28.1117 18.7139 28.5004 17.8711 28.5004V29.9004ZM15.7119 27.9215C15.7119 28.4836 15.918 29.0028 16.3361 29.3741C16.7455 29.7376 17.2906 29.9004 17.8711 29.9004V28.5004C17.5434 28.5004 17.3589 28.41 17.2658 28.3273C17.1813 28.2523 17.1119 28.132 17.1119 27.9215H15.7119ZM19.1589 23.2207C18.1842 24.1329 17.3406 24.9208 16.7471 25.6315C16.1599 26.3346 15.7119 27.0819 15.7119 27.9215H17.1119C17.1119 27.5898 17.2896 27.1659 17.8216 26.5288C18.3473 25.8994 19.1164 25.178 20.1155 24.2429L19.1589 23.2207ZM20.3062 22.1399C19.9029 22.5245 19.5201 22.8827 19.1589 23.2207L20.1155 24.2429C20.4762 23.9054 20.8636 23.5429 21.2723 23.1531L20.3062 22.1399ZM20.7954 21.6764C20.634 21.8286 20.4705 21.9832 20.306 22.1402L21.2726 23.1529C21.434 22.9989 21.595 22.8466 21.7558 22.6951L20.7954 21.6764ZM21.9758 23.2593C21.9758 22.9373 21.9758 22.574 21.9756 22.1853L20.5756 22.1862C20.5758 22.5744 20.5758 22.9372 20.5758 23.2593H21.9758Z" fill="black" mask="url(#path-1-outside-1_1156_438)"/>
</svg>
