<?xml version="1.0" encoding="UTF-8"?><svg version="1.1" viewBox="-2 -4 24 24" xmlns="http://www.w3.org/2000/svg" xmlns:xlink="http://www.w3.org/1999/xlink"><!--Generated by IJSVG (https://github.com/iconjar/IJSVG)--><path d="M9.293,1.55l0.707,0.708l0.707,-0.707l-1.81419e-08,1.83015e-08c1.94405,-1.96115 5.10985,-1.97502 7.071,-0.0309678c1.96115,1.94405 1.97502,5.10985 0.0309678,7.071c-0.0102773,0.0103677 -0.0206,0.0206904 -0.0309677,0.0309677l-7.07,7.071l5.49709e-08,-5.50321e-08c-0.390307,0.390741 -1.02347,0.391094 -1.41421,0.000786766c-0.000262365,-0.000262073 -0.000524584,-0.000524292 -0.000786657,-0.000786656l-7.071,-7.071l1.98416e-09,1.93422e-09c-1.97735,-1.92758 -2.01769,-5.09315 -0.0901075,-7.07049c1.92758,-1.97735 5.09315,-2.01769 7.07049,-0.0901075c0.0302486,0.0294873 0.0601222,0.0593567 0.0896138,0.0896011Z" fill="#000"></path></svg>