<?xml version="1.0" encoding="UTF-8"?><svg version="1.1" viewBox="-2 -1.5 24 24" xmlns="http://www.w3.org/2000/svg" xmlns:xlink="http://www.w3.org/1999/xlink"><!--Generated by IJSVG (https://github.com/iconjar/IJSVG)--><path d="M13,20.565v-5v0c0,-1.65685 -1.34315,-3 -3,-3c-1.65685,0 -3,1.34315 -3,3v5h-5h-8.74228e-08c-1.10457,-4.82823e-08 -2,-0.895431 -2,-2c0,0 0,0 0,0v-10.868l-9.25411e-11,-1.894e-05c-1.06079e-07,-0.702529 0.368601,-1.35355 0.971016,-1.71499l8,-4.8l-1.02191e-07,6.1315e-08c0.633369,-0.380026 1.42463,-0.380026 2.058,-1.2263e-07l8,4.8l-3.52793e-08,-2.11683e-08c0.602409,0.361457 0.970997,1.01248 0.970984,1.71501v10.868v0c0,1.10457 -0.895431,2 -2,2h-5Z" fill="#000"></path></svg>