<?xml version="1.0" encoding="UTF-8"?><svg version="1.1" viewBox="0 0 32 32" xmlns="http://www.w3.org/2000/svg" xmlns:xlink="http://www.w3.org/1999/xlink"><!--Generated by IJSVG (https://github.com/iconjar/IJSVG)--><path d="M15.9375,4.03125c-3.0205,0.01225 -6.01958,0.395734 -7.58008,1.11523c0,0 -3.35742,1.52837 -3.35742,6.73437c0,6.197 -0.0045,13.9794 5.5625,15.4844c2.132,0.573 3.96545,0.696328 5.43945,0.611328c2.675,-0.151 3.99805,-0.970703 3.99805,-0.970703l-0.089844,-1.97656c0,0 -1.73386,0.611016 -3.88086,0.541015c-2.127,-0.074999 -4.3678,-0.234624 -4.7168,-2.89062c-0.032,-0.247 -0.047875,-0.497094 -0.046875,-0.746094c4.507,1.119 8.3502,0.487375 9.4082,0.359375c2.954,-0.359 5.52552,-2.2113 5.85352,-3.9043c0.514,-2.668 0.470703,-6.50781 0.470703,-6.50781c0,-5.206 -3.35156,-6.73437 -3.35156,-6.73437c-1.6455,-0.7685 -4.68848,-1.12748 -7.70898,-1.11523Zm-3.23242,3.9707c1.03487,0.02775 2.0575,0.49075 2.6875,1.46875l0.609375,1.03516l0.607422,-1.03516c1.265,-1.967 4.10022,-1.84427 5.44922,-0.322266c1.244,1.448 0.966797,2.38256 0.966797,8.85156v0.001953h-2.44727v-5.62891c0,-2.635 -3.35938,-2.73677 -3.35938,0.365234v3.26172h-2.43164v-3.26172c0,-3.102 -3.35742,-3.00219 -3.35742,-0.367187v5.62891h-2.45313c0,-6.474 -0.272203,-7.41456 0.966797,-8.85156c0.6795,-0.766 1.72684,-1.17423 2.76172,-1.14648Z" fill="#000"></path></svg>