<svg viewBox="0 0 24 24" fill="none" xmlns="http://www.w3.org/2000/svg">
<path fill-rule="evenodd" clip-rule="evenodd" d="M12.1432 2.64044C12.27 2.96949 12.2124 3.33336 12.007 3.6042C10.0459 6.26837 10.6113 10.0186 13.2728 11.9859C15.3908 13.5514 18.2819 13.5526 20.4011 11.9893C20.5451 11.8815 20.7185 11.8119 20.9056 11.7944C20.994 11.786 21.082 11.7895 21.1676 11.8041C21.3219 11.8301 21.4639 11.8913 21.5852 11.979C21.68 12.0473 21.7636 12.1328 21.8308 12.2332C21.9066 12.3462 21.96 12.4754 21.9847 12.6143C22.0011 12.7066 22.0043 12.8 21.9949 12.8917C21.4819 18.3862 16.6143 22.4273 11.1181 21.9194C5.61864 21.4112 1.57247 16.541 2.08068 11.0416C2.52386 6.24598 6.32239 2.44745 11.1181 2.00427C11.5636 1.9631 11.9823 2.22292 12.1432 2.64044Z"/>
</svg>
