<?xml version="1.0" encoding="UTF-8"?><svg version="1.1" viewBox="0 0 20 20" xmlns="http://www.w3.org/2000/svg" xmlns:xlink="http://www.w3.org/1999/xlink"><!--Generated by IJSVG (https://github.com/iconjar/IJSVG)--><path d="M18,3.00001c0,-0.29959 -0.1343,-0.5834 -0.366,-0.77334c-0.2317,-0.18994 -0.5363,-0.266 -0.8301,-0.20724l-10,2c-0.46742,0.09348 -0.80388,0.5039 -0.80388,0.98058v9.11379c-0.31278,-0.0737 -0.64936,-0.1138 -1,-0.1138c-1.65685,0 -3,0.8954 -3,2c0,1.1046 1.34315,2 3,2c1.65685,0 2.99999,-0.8954 3,-2v-8.18019l8,-1.6v5.89399c-0.3128,-0.0737 -0.6494,-0.1138 -1,-0.1138c-1.6569,0 -3,0.8954 -3,2c0,1.1046 1.3431,2 3,2c1.6569,0 3,-0.8954 3,-2v-11Z"></path></svg>
