<svg viewBox="0 0 24 24" fill="inherit" xmlns="http://www.w3.org/2000/svg">
<path d="M14.7598 22.5613L4.31716 19.7632C2.58995 19.3004 1.56099 17.5182 2.0238 15.791L5.38152 3.25981C5.84432 1.5326 7.62653 0.503638 9.35374 0.966444L19.7964 3.76454C21.5236 4.22735 22.5526 6.00956 22.0898 7.73677L18.732 20.268C18.2692 21.9952 16.487 23.0241 14.7598 22.5613ZM8.93403 2.53284C8.35864 2.37867 7.10209 3.10413 6.94791 3.67952L3.59019 16.2107C3.43602 16.7861 4.16149 18.0426 4.73688 18.1968L15.1795 20.9949C15.7549 21.1491 17.0115 20.4236 17.1656 19.8482L20.6633 6.79492C20.8174 6.21953 19.9521 5.48512 19.3767 5.33094L8.93403 2.53284ZM16.5136 11.8389L8.15953 9.60038C7.87131 9.52315 7.70007 9.22655 7.7773 8.93834C7.85453 8.65012 8.15112 8.47888 8.43934 8.55611L16.7935 10.7946C17.0817 10.8718 17.2529 11.1684 17.1757 11.4566C17.0985 11.7448 16.8019 11.9161 16.5136 11.8389ZM17.3531 8.70606L8.99896 6.46758C8.71074 6.39035 8.5395 6.09376 8.61673 5.80554C8.69396 5.51733 8.99055 5.34609 9.27877 5.42331L17.6329 7.66179C17.9211 7.73902 18.0923 8.03562 18.0151 8.32383C17.9379 8.61205 17.6413 8.78329 17.3531 8.70606ZM15.6742 14.9717L7.3201 12.7332C7.03188 12.6559 6.86064 12.3594 6.93787 12.0711C7.0151 11.7829 7.31169 11.6117 7.59991 11.6889L15.954 13.9274C16.2422 14.0046 16.4135 14.3012 16.3363 14.5894C16.259 14.8776 15.9624 15.0489 15.6742 14.9717ZM10.1356 16.8453L6.48067 15.866C6.19245 15.7887 6.02121 15.4921 6.09844 15.2039C6.17567 14.9157 6.47226 14.7445 6.76048 14.8217L10.4154 15.801C10.7036 15.8783 10.8749 16.1749 10.7976 16.4631C10.7204 16.7513 10.4238 16.9225 10.1356 16.8453Z" fill="inherit"/>
</svg>
