<svg viewBox="0 0 24 24" fill="none" xmlns="http://www.w3.org/2000/svg">
<path fill-rule="evenodd" clip-rule="evenodd" d="M13 1C13 0.447715 12.5523 0 12 0C11.4477 0 11 0.447715 11 1V3C11 3.55228 11.4477 4 12 4C12.5523 4 13 3.55228 13 3V1ZM7.75732 7.75736C10.1005 5.41422 13.8995 5.41422 16.2426 7.75736C18.5858 10.1005 18.5858 13.8995 16.2426 16.2426C13.8995 18.5858 10.1005 18.5858 7.75732 16.2426C5.41418 13.8995 5.41418 10.1005 7.75732 7.75736ZM12 20C12.5523 20 13 20.4477 13 21V23C13 23.5523 12.5523 24 12 24C11.4477 24 11 23.5523 11 23V21C11 20.4477 11.4477 20 12 20ZM4.92711 3.51289C4.53658 3.12237 3.90342 3.12237 3.51289 3.51289C3.12237 3.90342 3.12237 4.53658 3.51289 4.92711L4.93289 6.34711C5.32342 6.73763 5.95658 6.73763 6.34711 6.34711C6.73763 5.95658 6.73763 5.32342 6.34711 4.93289L4.92711 3.51289ZM17.6529 17.6529C18.0434 17.2624 18.6766 17.2624 19.0671 17.6529L20.4871 19.0729C20.8776 19.4634 20.8776 20.0966 20.4871 20.4871C20.0966 20.8776 19.4634 20.8776 19.0729 20.4871L17.6529 19.0671C17.2624 18.6766 17.2624 18.0434 17.6529 17.6529ZM1 11C0.447715 11 0 11.4477 0 12C0 12.5523 0.447715 13 1 13H3C3.55228 13 4 12.5523 4 12C4 11.4477 3.55228 11 3 11H1ZM20 12C20 11.4477 20.4477 11 21 11H23C23.5523 11 24 11.4477 24 12C24 12.5523 23.5523 13 23 13H21C20.4477 13 20 12.5523 20 12ZM6.34711 19.0671C6.73763 18.6766 6.73763 18.0434 6.34711 17.6529C5.95658 17.2624 5.32342 17.2624 4.93289 17.6529L3.51289 19.0729C3.12237 19.4634 3.12237 20.0966 3.51289 20.4871C3.90342 20.8776 4.53658 20.8776 4.92711 20.4871L6.34711 19.0671ZM20.4871 3.51289C20.8776 3.90342 20.8776 4.53658 20.4871 4.92711L19.0671 6.34711C18.6766 6.73763 18.0434 6.73763 17.6529 6.34711C17.2624 5.95658 17.2624 5.32342 17.6529 4.93289L19.0729 3.51289C19.4634 3.12237 20.0966 3.12237 20.4871 3.51289Z"/>
</svg>
