<?xml version="1.0" encoding="UTF-8"?><svg version="1.1" viewBox="0 0 32 32" xmlns="http://www.w3.org/2000/svg" xmlns:xlink="http://www.w3.org/1999/xlink"><!--Generated by IJSVG (https://github.com/iconjar/IJSVG)--><path d="M28,8.55859c-0.882812,0.390625 -1.83203,0.65625 -2.82812,0.773437c1.01562,-0.609375 1.79688,-1.57422 2.16406,-2.72266c-0.949219,0.5625 -2.00391,0.972656 -3.125,1.19531c-0.898438,-0.957032 -2.17969,-1.55859 -3.59375,-1.55859c-2.71875,0 -4.92578,2.20703 -4.92578,4.92578c0,0.386719 0.042969,0.761719 0.128907,1.12109c-4.09375,-0.203125 -7.72266,-2.16406 -10.1484,-5.14453c-0.425781,0.726562 -0.667969,1.57422 -0.667969,2.47656c0,1.70703 0.867188,3.21484 2.19141,4.09766c-0.808594,-0.027343 -1.56641,-0.246093 -2.23047,-0.617187c0,0.023437 0,0.042969 0,0.0625c0,2.38672 1.69531,4.37891 3.94922,4.82812c-0.414063,0.113281 -0.847657,0.175781 -1.29688,0.175781c-0.316407,0 -0.628907,-0.03125 -0.925782,-0.089844c0.625,1.95703 2.44531,3.37891 4.59766,3.42188c-1.68359,1.32031 -3.80859,2.10547 -6.11328,2.10547c-0.398437,0 -0.789062,-0.023437 -1.17578,-0.070312c2.17969,1.39844 4.76562,2.21484 7.54688,2.21484c9.05859,0 14.0117,-7.50391 14.0117,-14.0117c0,-0.210938 -0.007813,-0.425782 -0.015625,-0.636719c0.960937,-0.695313 1.79688,-1.5625 2.45703,-2.54688Z" fill="#000"></path></svg>