<svg viewBox="0 0 24 24" xmlns="http://www.w3.org/2000/svg">
<path fill-rule="evenodd" clip-rule="evenodd" d="M19.7071 4.29287C19.3166 3.90238 18.6834 3.90238 18.2929 4.29287L18.2929 4.29289L10 12.5858V14H11.4142L19.7071 5.7071L19.7071 5.70708C20.0977 5.31656 20.0977 4.68343 19.7071 4.29292L19.7071 4.29287ZM21.1213 2.87865C19.9498 1.70711 18.0502 1.70712 16.8787 2.87868C16.8787 2.87869 16.8787 2.8787 16.8787 2.8787L8.29289 11.4645C8.10536 11.652 8 11.9064 8 12.1716V15C8 15.5523 8.44772 16 9 16H11.8284C12.0936 16 12.348 15.8946 12.5355 15.7071L21.1213 7.12134C22.2929 5.94978 22.2929 4.05028 21.1213 2.8787C21.1213 2.87869 21.1213 2.87867 21.1213 2.87865ZM3 7C3 5.34314 4.34315 4 6 4H11C11.5523 4 12 4.44771 12 5C12 5.55228 11.5523 6 11 6H6C5.44771 6 5 6.44771 5 7V18C5 18.5523 5.44771 19 6 19H17C17.5523 19 18 18.5523 18 18V13C18 12.4477 18.4477 12 19 12C19.5523 12 20 12.4477 20 13V18C20 19.6569 18.6569 21 17 21H6C4.34315 21 3 19.6569 3 18V7Z"/>
</svg>
