<svg viewBox="0 0 24 24" fill="none" xmlns="http://www.w3.org/2000/svg">
<path fill-rule="evenodd" clip-rule="evenodd" d="M16.8787 2.87868C18.0502 1.70712 19.9498 1.70711 21.1213 2.87865V2.8787C22.2929 4.05028 22.2929 5.94978 21.1213 7.12134L12.5355 15.7071C12.348 15.8946 12.0936 16 11.8284 16H9C8.44772 16 8 15.5523 8 15V12.1716C8 11.9064 8.10536 11.652 8.29289 11.4645L16.8787 2.8787V2.87868ZM6 4C4.34315 4 3 5.34314 3 7V18C3 19.6569 4.34315 21 6 21H17C18.6569 21 20 19.6569 20 18V13C20 12.4477 19.5523 12 19 12C18.4477 12 18 12.4477 18 13V18C18 18.5523 17.5523 19 17 19H6C5.44771 19 5 18.5523 5 18V7C5 6.44771 5.44771 6 6 6H11C11.5523 6 12 5.55228 12 5C12 4.44771 11.5523 4 11 4H6Z"/>
</svg>
