<?xml version="1.0" encoding="UTF-8" standalone="no"?>
<!DOCTYPE svg PUBLIC "-//W3C//DTD SVG 1.1//EN" "http://www.w3.org/Graphics/SVG/1.1/DTD/svg11.dtd">
<svg width="100%" height="100%" viewBox="0 0 1161 1783" version="1.1" xmlns="http://www.w3.org/2000/svg" xmlns:xlink="http://www.w3.org/1999/xlink" xml:space="preserve" xmlns:serif="http://www.serif.com/" style="fill-rule:evenodd;clip-rule:evenodd;stroke-linejoin:round;stroke-miterlimit:1.41421;">
    <g transform="matrix(1,0,0,1,-3984.08,-571.199)">
        <g transform="matrix(1,0,0,1,3977.8,2379.08)">
            <g transform="matrix(4.16667,0,0,4.16667,-2144.83,-2529.26)">
                <g transform="matrix(1,0,0,1,524.604,436.968)">
                    <path d="M0,60.637C-2.567,58.303 -2.675,56.5 -1.3,54.417C-0.727,53.551 -0.487,52.318 -0.483,51.251C-0.47,47.9 2.396,46.905 4.39,45.26C4.826,44.9 6.042,45.403 6.871,45.616C9.846,46.378 12.776,47.427 15.795,47.856C16.959,48.022 18.886,47.163 19.488,46.176C21.916,42.19 24.978,39.104 29.303,37.249C30.025,36.94 31.01,35.945 30.959,35.345C30.635,31.554 33.279,29.859 35.753,27.977C36.134,27.687 36.412,27.262 37.02,26.584C33.165,24.2 33.801,21.338 35.904,18.174C36.229,17.686 35.585,16.209 34.992,15.543C34.223,14.681 32.707,14.396 32.118,13.476C29.271,9.026 25.251,7.941 20.234,8.3C17.624,8.487 14.907,7.668 12.3,7.045C11.632,6.886 11.198,5.748 10.657,5.059C11.455,4.668 12.284,3.9 13.046,3.961C14.829,4.104 16.602,4.565 18.338,5.045C20.285,5.584 21.565,4.711 22.186,3.091C22.609,1.989 22.432,0.656 22.578,-1.325C24.272,-2.165 26.695,-3.151 29.846,-2.177C34.738,-0.664 39.364,-3.265 40.835,-7.973C41.108,-8.847 40.801,-9.935 40.646,-10.906C40.061,-14.542 40.599,-17.854 43.128,-20.715C44.387,-22.139 45.599,-23.622 46.671,-25.189C47.667,-26.644 48.447,-28.246 49.558,-30.196C51.868,-27.09 54.526,-28.288 57.128,-28.755C61.829,-29.598 66.54,-30.387 71.127,-31.178C71.397,-30.724 71.623,-30.464 71.578,-30.401C68.813,-26.578 70.025,-22.36 70.419,-18.258C70.765,-14.651 72.32,-13.216 75.879,-13.317C78.166,-13.382 80.525,-13.57 82.7,-14.215C85.514,-15.049 88.054,-15.82 91.116,-14.755C93.745,-13.84 95.398,-16.007 94.658,-18.747C93.897,-21.565 95.371,-23.601 98.248,-23.442C100.743,-23.305 103.222,-22.897 105.708,-22.611C107.934,-22.354 109.081,-21.064 109.318,-18.876C109.759,-14.795 110.36,-10.724 110.613,-6.632C110.795,-3.682 111.832,-2.099 115.003,-2.398C115.726,-2.466 116.484,-2.156 117.955,-1.887C116.27,0.008 115.252,2.166 113.65,2.768C108.472,4.712 105.395,8.896 101.889,12.665C100.272,14.404 98.586,15.657 95.997,15.763C93.831,15.852 92.323,17.165 92.368,19.696C92.387,20.78 92.233,21.904 91.939,22.948C91.433,24.745 91.612,26.07 93.617,26.763C95.384,27.374 95.492,28.615 94.672,30.124C94.099,31.181 93.512,32.242 93.071,33.357C92.258,35.415 90.816,36.36 88.627,36.089C85.593,35.714 83.864,36.948 83.448,40.039C83.316,41.021 82.961,41.988 82.604,42.922C81.788,45.059 82.271,46.42 84.489,47.456C87.503,48.865 87.877,50.609 86.164,53.516C84.646,56.092 83.213,58.74 81.451,61.142C80.74,62.111 79.266,63.038 78.115,63.068C74.928,63.152 71.699,62.948 68.542,62.483C66.154,62.131 65.187,63.174 64.191,65.085C60.071,72.989 55.757,80.79 51.602,88.676C50.41,90.939 49.004,91.815 46.552,90.543C45.408,89.949 44.116,89.614 42.864,89.26C40.857,88.691 39.299,87.977 39.992,85.329C40.416,83.708 39.389,83.238 37.862,83.456C35.185,83.837 32.459,83.961 29.822,84.516C27.564,84.992 25.956,84.39 25.188,82.334C23.641,78.195 20.873,77.861 16.87,78.488C10.862,79.428 4.725,79.605 -1.366,79.893C-2.305,79.937 -3.843,79.055 -4.171,78.231C-5.763,74.228 -7.146,70.125 -5.989,65.677C-5.285,62.973 -4.68,60.253 0,60.637" style="fill:white;fill-rule:nonzero;stroke:white;stroke-opacity:0.8;stroke-width:3.84px;"/>
                </g>
                <g transform="matrix(1,0,0,1,594.643,491.022)">
                    <path d="M0,10.392C2.997,10.565 5.994,10.73 8.991,10.913C10.819,11.025 11.867,10.218 12.699,8.534C14.587,4.709 16.79,1.04 18.749,-2.753C19.963,-5.105 19.259,-6.828 16.627,-7.563C13.324,-8.487 14.512,-10.756 14.918,-12.893C15.364,-15.239 16.502,-16.666 19.014,-16.039C21.461,-15.428 22.824,-16.403 23.732,-18.537C24.122,-19.457 24.621,-20.335 25.124,-21.201C28.665,-27.292 34.372,-27.993 39.49,-23.031C40.69,-21.868 42.034,-20.027 43.358,-19.986C46.402,-19.893 49.5,-20.599 52.513,-21.266C53.099,-21.396 53.301,-22.896 53.856,-23.632C54.424,-24.386 55.207,-25.549 55.897,-25.55C62.382,-25.553 68.866,-25.315 75.351,-25.216C77.396,-25.185 78.79,-24.846 77.906,-22.289C77.096,-19.943 78.709,-19.887 80.344,-19.789C84.432,-19.543 88.521,-19.278 92.601,-18.93C94.535,-18.765 95.448,-17.827 94.845,-15.686C90.506,-0.259 86.194,15.175 81.944,30.626C81.208,33.302 79.544,34.316 76.924,34.422C74.125,34.535 71.332,34.817 68.543,35.09C67.871,35.155 66.857,35.276 66.624,35.707C65.181,38.385 63.155,37.353 61.154,36.767C55.766,35.189 50.348,33.71 45.007,31.989C43.695,31.566 42.397,30.563 41.503,29.486C39.47,27.035 37.201,26.83 34.411,28.195C30.457,30.131 27.168,32.544 25.011,36.463C24.117,38.087 22.952,37.736 22.013,36.318C21.736,35.901 21.466,35.476 21.16,35.08C18.333,31.404 16.364,27.401 10.463,26.766C4.828,26.159 -0.541,23.196 -6.069,21.402C-8.172,20.719 -8.538,19.724 -7.457,17.88C-6.647,16.5 -6.01,15.018 -5.286,13.587C-3.66,10.377 -3.468,10.261 0,10.392" style="fill:white;fill-rule:nonzero;stroke:white;stroke-opacity:0.8;stroke-width:3.84px;"/>
                </g>
                <g transform="matrix(1,0,0,1,722.903,343.8)">
                    <path d="M0,-18.379C1.407,-20.421 2.428,-22.134 3.675,-23.664C6.955,-27.687 10.213,-31.743 13.749,-35.534C14.766,-36.625 16.646,-37.142 18.221,-37.439C22.632,-38.269 27.075,-39.253 31.533,-39.414C36.462,-39.592 40.495,-42.01 44.873,-43.579C46.931,-44.316 47.968,-43.66 48.892,-41.788C51.497,-36.515 54.409,-31.39 56.913,-26.071C58.003,-23.757 58.264,-21.068 59.135,-18.633C60.167,-15.75 61.123,-12.758 62.699,-10.171C65.363,-5.803 67.307,-1.534 66.983,3.879C66.795,7.016 68.398,10.273 69.26,13.459C70.749,18.956 70.291,19.775 64.789,21.33C60.876,22.435 56.982,23.611 53.058,24.673C52.569,24.805 51.877,24.546 51.395,24.268C50.532,23.769 49.768,23.102 48.943,22.533C47.05,21.225 45.136,18.921 43.247,18.937C41.557,18.951 40.013,21.719 38.178,22.928C36.372,24.118 34.313,24.956 32.292,25.762C31.853,25.937 30.799,25.497 30.535,25.045C24.143,14.113 12.691,9.161 3.067,2.181C-4.901,-3.598 -9.545,-11.246 -13.151,-19.957C-13.968,-21.931 -13.49,-22.836 -11.552,-23.539C-3.254,-26.551 -4.787,-26.952 -1.368,-20.285C-1.107,-19.775 -0.698,-19.34 0,-18.379" style="fill:white;fill-rule:nonzero;stroke:white;stroke-opacity:0.8;stroke-width:3.84px;"/>
                </g>
                <g transform="matrix(1,0,0,1,645.993,433.878)">
                    <path d="M0,-1.702C-2.277,-1.478 -3.72,-1.355 -5.158,-1.19C-7.021,-0.976 -8.31,-1.552 -8.626,-3.577C-9.104,-6.642 -9.619,-9.701 -10.065,-12.771C-10.341,-14.671 -9.442,-15.604 -7.526,-15.585C-6.624,-15.576 -5.721,-15.6 -4.818,-15.602C1.142,-15.616 4.353,-19.607 3.214,-25.592C2.991,-26.762 2.989,-28.054 2.451,-29.056C2.046,-29.81 0.902,-30.139 0.169,-30.753C-0.618,-31.413 -1.378,-32.135 -1.995,-32.947C-2.151,-33.153 -1.664,-34.202 -1.569,-34.189C-0.637,-34.055 0.364,-33.947 1.177,-33.514C4.891,-31.533 8.577,-29.494 12.218,-27.382C13.698,-26.523 14.724,-26.708 15.873,-27.983C18.605,-31.013 21.462,-33.931 24.186,-36.807C24.634,-36.662 24.945,-36.649 24.987,-36.535C27.148,-30.772 32.621,-30.622 37.325,-29.592C42.289,-28.507 44.598,-26.592 45.594,-21.515C45.953,-19.685 46.739,-17.941 47.138,-16.115C47.337,-15.202 47.374,-14.08 47.022,-13.247C41.211,0.516 35.323,14.245 29.464,27.987C28.666,29.859 27.334,30.836 25.265,30.741C17.882,30.399 10.495,30.141 3.121,29.667C1.383,29.555 0.591,29.906 0.737,31.645C0.965,34.383 -0.486,35.009 -2.924,35.052C-5.846,35.105 -8.523,34.782 -10.691,32.616C-13.789,29.522 -17.888,29.901 -21.714,29.615C-26.805,29.235 -28.081,28.175 -27.356,23.202C-27.179,21.99 -25.247,20.148 -24.101,20.131C-20.706,20.084 -18.666,18.309 -16.942,15.878C-14.573,12.537 -11.632,10.053 -7.945,8.153C-4.326,6.287 -2.067,2.936 0,-1.702" style="fill:white;fill-rule:nonzero;stroke:white;stroke-opacity:0.8;stroke-width:3.84px;"/>
                </g>
                <g transform="matrix(1,0,0,1,737.38,296.767)">
                    <path d="M0,-45.989C2.716,-46.77 4.809,-47.156 6.716,-47.974C9.333,-49.095 10.482,-48.145 11.398,-45.702C13.93,-38.948 16.39,-32.147 19.358,-25.58C22.898,-17.747 26.884,-10.111 30.787,-2.446C32.363,0.65 32.289,1.064 29.007,2.286C27.037,3.019 25.18,4.151 23.16,4.637C18.277,5.814 13.342,6.79 8.4,7.698C6.142,8.113 3.782,8 1.541,8.47C0.264,8.738 -1.176,9.43 -2.011,10.392C-5.545,14.462 -8.882,18.704 -12.286,22.887C-12.955,23.709 -13.598,24.552 -14.795,26.075C-17.743,20.117 -20.572,14.859 -22.967,9.411C-24.697,5.477 -25.898,1.305 -27.232,-2.795C-27.593,-3.904 -27.792,-5.15 -27.704,-6.306C-27.319,-11.399 -26.703,-16.475 -26.377,-21.571C-26.234,-23.812 -25.463,-25.06 -23.134,-24.763C-20.161,-24.383 -18.911,-25.682 -18.815,-28.582C-18.765,-30.071 -18.342,-31.548 -18.092,-33.031C-17.728,-35.183 -17.737,-37.038 -20.562,-37.581C-21.156,-37.696 -21.923,-38.835 -21.967,-39.543C-22.133,-42.206 -22.034,-44.887 -22.034,-47.944C-20.665,-47.487 -19.393,-46.772 -18.081,-46.689C-15.81,-46.546 -13.514,-46.796 -11.229,-46.88C-11.373,-49.779 -11.279,-52.719 -11.774,-55.556C-11.985,-56.763 -13.385,-57.794 -14.321,-58.835C-15.86,-60.548 -16.642,-62.292 -16.357,-64.804C-16.177,-66.385 -17.416,-68.127 -17.999,-69.743C-15.43,-70.413 -12.442,-71.283 -9.405,-71.918C-8.707,-72.064 -7.49,-71.643 -7.109,-71.08C-4.662,-67.46 -2.078,-63.876 -0.171,-59.971C0.789,-58.003 0.585,-55.389 0.608,-53.064C0.629,-50.9 0.254,-48.731 0,-45.989" style="fill:white;fill-rule:nonzero;stroke:white;stroke-opacity:0.8;stroke-width:3.84px;"/>
                </g>
                <g transform="matrix(1,0,0,1,712.879,247.788)">
                    <path d="M0,-1.581C0.497,3.369 0.811,7.698 1.478,11.973C1.59,12.69 3.23,13.167 4.568,14.01C4.491,14.895 4.377,16.253 4.253,17.611C3.83,22.253 3.83,22.321 -0.672,22.424C-2.71,22.47 -3.476,23.301 -3.592,25.313C-3.867,30.11 -4.278,34.9 -4.727,39.684C-5.313,45.923 -2.96,51.517 -0.895,57.144C0.207,60.146 1.66,63.035 3.155,65.869C4.312,68.061 3.794,69.239 1.467,69.807C0.983,69.925 0.52,70.135 0.053,70.318C-5.608,72.525 -6.628,72.184 -8.823,66.458C-11.946,58.313 -14.88,50.094 -17.863,41.896C-18.203,40.962 -18.549,39.954 -18.543,38.982C-18.49,29.662 -18.367,20.343 -18.248,11.024C-18.23,9.622 -18.115,8.221 -18.073,6.819C-17.787,-2.595 -17.079,-12.023 -17.373,-21.419C-17.584,-28.187 -19.082,-34.92 -20.098,-41.655C-21.489,-50.875 -22.916,-60.089 -24.437,-69.288C-24.865,-71.876 -23.922,-72.79 -21.431,-72.735C-11.447,-72.513 -13.403,-74.106 -9.497,-65.327C-8.461,-63.001 -7.6,-60.515 -4.062,-62.017C-3.57,-62.226 -1.91,-61.026 -1.639,-60.2C0.234,-54.485 1.885,-48.696 3.595,-42.927C3.707,-42.548 3.885,-42.052 3.739,-41.754C1.94,-38.067 3.765,-34.857 5.271,-31.775C6.872,-28.499 6.588,-25.599 4.628,-22.732C3.473,-21.043 3.407,-19.805 5.298,-18.471C6.08,-17.919 6.688,-16.345 6.523,-15.382C6.097,-12.886 7.051,-11.213 8.66,-9.486C10.623,-7.379 12.554,-5.215 12.111,-1.855C11.718,1.13 10.691,2.071 7.734,1.179C5.372,0.467 3.078,-0.471 0,-1.581" style="fill:white;fill-rule:nonzero;stroke:white;stroke-opacity:0.8;stroke-width:3.84px;"/>
                </g>
                <g transform="matrix(1,0,0,1,678.289,270.564)">
                    <path d="M0,81.381C-1.274,79.497 -2.007,78.582 -2.555,77.567C-3.652,75.539 -4.669,73.468 -5.68,71.395C-8.943,64.705 -14.065,60.234 -21.367,58.538C-23.801,57.973 -24.476,56.897 -23.705,54.533C-22.494,50.817 -21.386,47.063 -20.396,43.283C-19.548,40.047 -18.082,37.437 -15.087,35.626C-14.193,35.086 -13.483,33.355 -13.57,32.239C-13.845,28.754 -14.666,25.313 -14.998,21.829C-15.099,20.777 -14.296,19.639 -13.907,18.541C-13.013,19.259 -12.016,19.885 -11.26,20.726C-10.709,21.34 -10.474,22.239 -9.791,23.64C-8.536,21.511 -7.454,19.979 -6.692,18.302C-5.755,16.244 -4.409,15.412 -2.092,15.18C0.399,14.931 2.902,14.081 5.231,13.096C8.461,11.731 10.621,9.364 10.728,5.564C10.761,4.371 10.878,3.118 11.292,2.019C11.586,1.237 12.441,0.665 13.045,0C13.419,0.737 14.011,1.444 14.123,2.219C14.422,4.295 14.86,6.44 14.632,8.489C13.569,18.044 17.514,26.411 20.989,34.769C24.902,44.179 29.459,53.328 33.916,62.503C35.119,64.979 34.995,66.252 32.408,67.713C28.423,69.964 24.849,72.936 20.894,75.249C19.673,75.964 17.779,75.547 16.191,75.6C15.921,75.609 15.647,75.364 15.368,75.251C7.105,71.902 6.927,71.94 1.454,78.814C0.963,79.431 0.661,80.198 0,81.381" style="fill:white;fill-rule:nonzero;stroke:white;stroke-opacity:0.8;stroke-width:3.84px;"/>
                </g>
                <g transform="matrix(1,0,0,1,715.875,351.234)">
                    <path d="M0,31.54C1.78,33.503 2.825,34.759 3.983,35.901C5.093,36.997 7.293,37.394 5.903,39.811C3.518,43.957 2.616,44.495 -0.424,43.42C-11.552,39.488 -20.002,32.423 -25.746,22.087C-29.057,16.129 -32.437,10.208 -35.915,4.347C-36.933,2.632 -36.903,1.417 -35.689,-0.221C-30.655,-7.013 -29.372,-7.473 -21.748,-3.539C-19.63,-2.447 -18.062,-2.607 -16.216,-3.81C-12.023,-6.54 -7.73,-9.117 -3.561,-11.882C-1.942,-12.955 -0.863,-12.751 0.676,-11.581C10.077,-4.436 19.664,2.465 28.993,9.701C31.125,11.354 32.559,13.947 34.18,16.204C35.64,18.237 36.967,20.372 38.24,22.528C38.598,23.135 38.559,23.976 38.702,24.71C37.998,24.715 37.294,24.729 36.59,24.724C35.441,24.715 34.244,24.479 33.153,24.724C31.302,25.139 29.547,25.972 27.699,26.413C25.247,26.997 23.572,28.312 22.741,30.716C21.977,32.929 20.827,33.284 18.647,32.062C16.9,31.084 14.739,30.667 12.71,30.409C9.638,30.018 6.522,29.869 3.424,29.866C2.523,29.865 1.622,30.714 0,31.54" style="fill:white;fill-rule:nonzero;stroke:white;stroke-opacity:0.8;stroke-width:3.84px;"/>
                </g>
                <g transform="matrix(1,0,0,1,788.327,382.677)">
                    <path d="M0,51.396C0.469,53.78 -1.601,54.499 -3.208,55.34C-4.418,55.973 -5.88,56.124 -7.229,56.492C-10.446,57.37 -11.018,58.8 -10.419,62.024C-10.033,64.098 -10.436,66.355 -10.765,68.487C-10.812,68.793 -12.819,69.325 -13.255,68.96C-16.298,66.41 -19.664,64.142 -21.082,60.078C-23.116,54.244 -25.64,48.562 -27.331,42.638C-27.987,40.34 -27.275,37.465 -26.606,35.011C-24.658,27.861 -23.502,20.727 -25.35,13.38C-25.47,12.902 -25.503,12.373 -25.444,11.884C-24.493,4.07 -28.239,-2.249 -31.986,-8.545C-32.786,-9.89 -33.166,-11.476 -31.356,-11.471C-28.279,-11.463 -26.94,-13.571 -25.42,-15.393C-23.305,-17.929 -21.531,-17.879 -18.817,-16.063C-13.505,-12.507 -9.074,-8.396 -7.031,-2.157C-6.783,-1.398 -6.415,-0.652 -6.319,0.127C-4.866,11.991 -3.463,23.861 -2.017,35.726C-1.388,40.894 -0.69,46.053 0,51.396" style="fill:white;fill-rule:nonzero;stroke:white;stroke-opacity:0.8;stroke-width:3.84px;"/>
                </g>
                <g transform="matrix(1,0,0,1,718.968,423.975)">
                    <path d="M0,-40.884C6.56,-41.811 12.954,-41.579 18.685,-37.423C19.172,-38.011 19.554,-38.274 19.646,-38.615C20.973,-43.524 24.899,-45.116 29.25,-46.032C30.42,-46.279 31.712,-45.964 32.946,-45.871C33.512,-45.828 34.238,-45.424 34.607,-45.649C37.434,-47.373 38.236,-45.495 39.117,-43.357C44.303,-30.778 44.383,-18.001 40.768,-5.046C40.276,-3.28 39.396,-2.762 37.494,-2.963C31.625,-3.585 25.73,-3.972 19.841,-4.393C18.285,-4.504 16.714,-4.409 14.645,-4.409C15.546,-0.693 16.311,2.462 17.287,6.489C13.671,5.699 10.613,5.097 7.611,4.29C7.237,4.189 7.069,3.017 6.956,2.317C6.702,0.73 6.867,-1.004 6.285,-2.445C3.962,-8.204 1.281,-13.821 -0.947,-19.613C-1.508,-21.072 -1.372,-23.22 -0.697,-24.644C0.623,-27.426 2.41,-30.024 4.27,-32.498C5.608,-34.278 5.604,-35.342 3.648,-36.57C2.142,-37.515 0.886,-38.857 -0.482,-40.022C-0.321,-40.31 -0.161,-40.597 0,-40.884" style="fill:white;fill-rule:nonzero;stroke:white;stroke-opacity:0.8;stroke-width:3.84px;"/>
                </g>
                <g transform="matrix(1,0,0,1,629.227,358.653)">
                    <path d="M0,-29.81C-0.325,-31.395 -0.611,-32.792 -1.025,-34.815C2.308,-34.143 5.236,-33.701 8.082,-32.949C14.862,-31.158 21.534,-28.903 28.379,-27.438C34.528,-26.123 37.922,-21.864 40.982,-17.15C43.101,-13.883 44.737,-10.3 46.527,-6.825C46.978,-5.949 47.346,-4.971 47.484,-4.002C48.169,0.809 46.878,1.802 42.206,1.07C39.432,0.635 36.441,0.665 33.69,1.209C29.179,2.1 24.812,3.703 20.321,4.728C19.107,5.005 17.643,4.356 16.33,3.998C14.331,3.454 12.398,2.593 10.372,2.233C7.869,1.788 6.88,0.773 7.617,-1.846C8.539,-5.124 9.288,-8.457 9.975,-11.793C10.734,-15.476 9.892,-16.697 6.107,-16.727C0.533,-16.77 -5.053,-16.616 -10.617,-16.268C-13.273,-16.102 -15.119,-16.436 -15.676,-19.43C-16.168,-22.069 -17.162,-24.645 -17.389,-27.295C-17.71,-31.052 -16.969,-31.501 -13.295,-30.998C-9.526,-30.482 -5.746,-30.043 -1.965,-29.613C-1.407,-29.55 -0.823,-29.72 0,-29.81" style="fill:white;fill-rule:nonzero;stroke:white;stroke-opacity:0.8;stroke-width:3.84px;"/>
                </g>
                <g transform="matrix(1,0,0,1,679.196,405.15)">
                    <path d="M0,-47.227C4.562,-39.466 9.146,-31.667 13.683,-23.948C13.1,-23.481 13.008,-23.353 12.946,-23.366C4.461,-25.128 0.012,-19.326 -4.809,-14.046C-6.533,-12.159 -8.82,-10.797 -10.648,-8.991C-12.923,-6.742 -15.022,-4.311 -17.134,-1.903C-18.543,-0.296 -19.927,0 -21.85,-1.18C-25.86,-3.639 -30.003,-5.881 -34.06,-8.265C-37.204,-10.111 -38.415,-15.392 -36.415,-19.323C-34.691,-22.712 -32.44,-25.842 -30.837,-29.28C-29.647,-31.831 -28.831,-34.646 -28.395,-37.429C-28.07,-39.5 -27.506,-40.721 -25.366,-41.217C-21.268,-42.169 -17.261,-43.649 -13.121,-44.231C-10.562,-44.591 -7.771,-43.928 -5.186,-43.303C-2.553,-42.666 -0.817,-42.658 -1.11,-46.062C-1.132,-46.318 -0.895,-46.605 -0.752,-46.862C-0.713,-46.933 -0.58,-46.952 0,-47.227" style="fill:white;fill-rule:nonzero;stroke:white;stroke-opacity:0.8;stroke-width:3.84px;"/>
                </g>
                <g transform="matrix(1,0,0,1,723.299,431.482)">
                    <path d="M0,27.517C-0.24,26.477 -0.696,25.434 -0.68,24.398C-0.637,21.674 -2.066,20.912 -4.483,21.109C-5.479,21.19 -6.525,21.286 -7.482,21.076C-12.177,20.045 -16.184,20.548 -18.784,25.283C-19.1,25.859 -20.549,26.081 -21.447,26.025C-24.927,25.81 -28.396,25.416 -32.314,25.047C-32.151,27.095 -32.019,28.935 -31.852,30.773C-31.78,31.569 -31.547,32.359 -31.543,33.152C-31.516,39.153 -32.244,39.682 -38.089,38.673C-40.638,38.233 -43.256,38.071 -45.847,38.026C-48.378,37.982 -49.094,37.18 -48.027,34.74C-43.773,25.011 -39.589,15.251 -35.417,5.486C-33.449,0.88 -31.626,-3.789 -29.63,-8.383C-28.115,-11.872 -26.682,-12.165 -24.217,-9.391C-22.567,-7.534 -20.875,-7.072 -18.317,-6.867C-13.7,-6.497 -8.835,-5.565 -4.763,-3.505C-2.515,-2.367 -0.732,1.418 -0.372,4.22C0.569,11.537 0.616,18.969 0.997,26.356C1.015,26.716 0.818,27.086 0.722,27.452C0.481,27.474 0.241,27.495 0,27.517" style="fill:white;fill-rule:nonzero;stroke:white;stroke-opacity:0.8;stroke-width:3.84px;"/>
                </g>
                <g transform="matrix(1,0,0,1,648.251,325.925)">
                    <path d="M0,-41.658C2.668,-42.034 5.361,-42.291 7.998,-42.822C10.316,-43.288 11.345,-42.414 11.74,-40.203C12.708,-34.784 13.883,-29.398 14.69,-23.957C14.85,-22.878 14.055,-21.165 13.148,-20.513C10.352,-18.506 8.922,-15.861 8.112,-12.625C7.141,-8.744 5.87,-4.938 4.847,-1.068C4.294,1.025 3.237,1.63 1.118,1.074C-4.98,-0.527 -11.118,-1.975 -17.235,-3.502C-18.105,-3.719 -19.144,-3.83 -19.748,-4.381C-20.404,-4.98 -20.914,-6.024 -20.946,-6.895C-20.961,-7.3 -19.704,-8.105 -19.012,-8.119C-16.807,-8.162 -16.066,-9.166 -16.023,-11.283C-15.913,-16.68 -15.519,-22.074 -15.485,-27.47C-15.469,-30.039 -14.598,-31.315 -12.011,-31.726C-8.991,-32.205 -7.225,-35.14 -8.106,-38.152C-8.719,-40.251 -8.116,-41.164 -5.996,-41.354C-4.011,-41.531 -2.038,-41.838 -0.059,-42.088C-0.04,-41.945 -0.02,-41.801 0,-41.658" style="fill:white;fill-rule:nonzero;stroke:white;stroke-opacity:0.8;stroke-width:3.84px;"/>
                </g>
                <g transform="matrix(1,0,0,1,699.348,426.416)">
                    <path d="M0,-37.947C5.416,-35.362 10.748,-32.757 16.139,-30.282C17.819,-29.51 18.292,-28.524 17.277,-27.025C15.964,-25.087 16.459,-23.278 17.302,-21.351C19.793,-15.657 22.293,-9.964 24.583,-4.188C25.065,-2.971 24.667,-1.405 24.674,0C23.375,-0.1 22.071,-0.161 20.778,-0.31C19.112,-0.502 17.428,-0.648 15.8,-1.025C13.465,-1.565 11.174,-2.294 8.865,-2.947C8.287,-3.111 7.624,-3.575 7.152,-3.424C2.778,-2.026 0.845,-5.953 -2.06,-7.667C-2.622,-7.999 -3.058,-9.558 -2.764,-10.176C1.578,-19.292 2.775,-28.689 0,-37.947" style="fill:white;fill-rule:nonzero;stroke:white;stroke-opacity:0.8;stroke-width:3.84px;"/>
                </g>
                <g transform="matrix(1,0,0,1,693.901,381.79)">
                    <path d="M0,34.538C-0.361,32.949 -0.809,31.73 -0.891,30.487C-1.205,25.742 -4.418,22.11 -9.002,21.189C-11.937,20.599 -14.865,19.87 -17.703,18.924C-21.775,17.565 -22.407,14.315 -19.368,11.31C-16.873,8.843 -14.45,6.304 -11.928,3.864C-8.906,0.94 -1.907,0 1.169,2.705C2.886,4.214 3.949,6.91 4.467,9.257C6.324,17.668 4.983,25.78 1.299,33.524C1.188,33.757 0.854,33.884 0,34.538" style="fill:white;fill-rule:nonzero;stroke:white;stroke-opacity:0.8;stroke-width:3.84px;"/>
                </g>
                <g transform="matrix(1,0,0,1,723.114,591.592)">
                    <path d="M0,-161.876C4.503,-161.029 9.394,-160.108 14.993,-159.055C14.291,-161.967 13.7,-164.317 13.162,-166.679C12.437,-169.861 12.772,-170.147 15.98,-169.92C20.674,-169.588 25.378,-169.388 30.078,-169.146C34.15,-168.937 34.336,-168.461 35.393,-164.575C38.147,-154.446 41.515,-144.579 50.678,-138.138C51.515,-137.55 52.616,-137.012 53.593,-137.015C55.954,-137.02 57.215,-135.71 57.651,-133.737C58.627,-129.325 58.476,-125.039 55.891,-121.018C53.093,-116.665 52.595,-111.728 53.832,-106.871C54.398,-104.649 56.018,-102.346 57.804,-100.848C64.437,-95.286 64.435,-86.454 57.947,-80.781C54.609,-77.862 51.671,-74.338 49.188,-70.658C48.071,-69.003 48.106,-66.253 48.347,-64.08C48.664,-61.221 49.466,-58.354 50.476,-55.646C52.49,-50.246 51.579,-45.478 48.229,-40.923C46.757,-38.923 45.68,-36.637 44.315,-34.551C42.102,-31.171 42.632,-27.514 42.868,-23.794C43.083,-20.425 42.835,-17.027 42.79,-13.642C42.764,-11.683 41.819,-11.2 39.881,-11.307C33.308,-11.669 26.722,-11.772 20.144,-12.053C17.911,-12.149 16.463,-11.297 15.862,-9.145C15.191,-6.74 14.57,-4.322 13.943,-1.905C13.869,-1.618 13.959,-1.282 13.859,-1.011C13.591,-0.283 13.243,1.05 12.958,1.042C8.486,0.916 9.571,8.271 4.464,7.262C3.015,6.976 1.462,7.188 -0.042,7.218C-1.803,7.252 -2.919,6.67 -3.016,4.681C-3.045,4.089 -3.555,3.496 -3.915,2.95C-4.262,2.424 -4.7,1.957 -5.098,1.464C-4.413,0.98 -3.777,0.192 -3.033,0.07C-1.046,-0.257 0.004,-1.105 0.053,-3.251C0.104,-5.449 -1.169,-6.252 -2.969,-6.717C-3.649,-6.893 -4.312,-7.158 -5,-7.269C-7.845,-7.729 -9.458,-9.255 -9.693,-12.232C-10.221,-18.912 -10.96,-25.579 -11.331,-32.267C-11.477,-34.899 -11.841,-37.023 -14.587,-38.026C-16.557,-38.745 -16.534,-40.188 -16.137,-41.954C-14.685,-48.408 -13.314,-54.881 -11.966,-61.359C-11.183,-65.124 -11.713,-65.925 -15.447,-66.135C-24.244,-66.629 -33.046,-67.043 -41.85,-67.402C-45.665,-67.558 -45.725,-67.713 -44.704,-71.425C-40.133,-88.05 -35.585,-104.682 -31.219,-121.36C-30.527,-124.002 -30.65,-126.9 -30.681,-129.676C-30.717,-132.938 -30.42,-133.326 -27.107,-132.861C-26.809,-132.819 -26.512,-132.763 -26.22,-132.692C-21.964,-131.666 -18.18,-131.769 -15.724,-136.291C-15.278,-137.11 -13.752,-137.707 -12.694,-137.756C-10.41,-137.861 -8.108,-137.522 -5.811,-137.407C-3.492,-137.292 -2.546,-136.108 -2.271,-133.801C-2.136,-132.667 -1.213,-131.171 -0.229,-130.686C2.107,-129.533 3.014,-130.471 2.759,-133.069C2.195,-138.835 1.771,-144.614 1.232,-150.383C0.876,-154.19 0.42,-157.989 0,-161.876" style="fill:white;fill-rule:nonzero;stroke:white;stroke-opacity:0.8;stroke-width:3.84px;"/>
                </g>
            </g>
        </g>
        <g transform="matrix(1,0,0,1,3977.8,2379.08)">
            <g transform="matrix(4.16667,0,0,4.16667,-2144.83,-2529.26)">
                <g transform="matrix(1,0,0,1,524.604,436.968)">
                    <path d="M0,60.637C-2.567,58.303 -2.675,56.5 -1.3,54.417C-0.727,53.551 -0.487,52.318 -0.483,51.251C-0.47,47.9 2.396,46.905 4.39,45.26C4.826,44.9 6.042,45.403 6.871,45.616C9.846,46.378 12.776,47.427 15.795,47.856C16.959,48.022 18.886,47.163 19.488,46.176C21.916,42.19 24.978,39.104 29.303,37.249C30.025,36.94 31.01,35.945 30.959,35.345C30.635,31.554 33.279,29.859 35.753,27.977C36.134,27.687 36.412,27.262 37.02,26.584C33.165,24.2 33.801,21.338 35.904,18.174C36.229,17.686 35.585,16.209 34.992,15.543C34.223,14.681 32.707,14.396 32.118,13.476C29.271,9.026 25.251,7.941 20.234,8.3C17.624,8.487 14.907,7.668 12.3,7.045C11.632,6.886 11.198,5.748 10.657,5.059C11.455,4.668 12.284,3.9 13.046,3.961C14.829,4.104 16.602,4.565 18.338,5.045C20.285,5.584 21.565,4.711 22.186,3.091C22.609,1.989 22.432,0.656 22.578,-1.325C24.272,-2.165 26.695,-3.151 29.846,-2.177C34.738,-0.664 39.364,-3.265 40.835,-7.973C41.108,-8.847 40.801,-9.935 40.646,-10.906C40.061,-14.542 40.599,-17.854 43.128,-20.715C44.387,-22.139 45.599,-23.622 46.671,-25.189C47.667,-26.644 48.447,-28.246 49.558,-30.196C51.868,-27.09 54.526,-28.288 57.128,-28.755C61.829,-29.598 66.54,-30.387 71.127,-31.178C71.397,-30.724 71.623,-30.464 71.578,-30.401C68.813,-26.578 70.025,-22.36 70.419,-18.258C70.765,-14.651 72.32,-13.216 75.879,-13.317C78.166,-13.382 80.525,-13.57 82.7,-14.215C85.514,-15.049 88.054,-15.82 91.116,-14.755C93.745,-13.84 95.398,-16.007 94.658,-18.747C93.897,-21.565 95.371,-23.601 98.248,-23.442C100.743,-23.305 103.222,-22.897 105.708,-22.611C107.934,-22.354 109.081,-21.064 109.318,-18.876C109.759,-14.795 110.36,-10.724 110.613,-6.632C110.795,-3.682 111.832,-2.099 115.003,-2.398C115.726,-2.466 116.484,-2.156 117.955,-1.887C116.27,0.008 115.252,2.166 113.65,2.768C108.472,4.712 105.395,8.896 101.889,12.665C100.272,14.404 98.586,15.657 95.997,15.763C93.831,15.852 92.323,17.165 92.368,19.696C92.387,20.78 92.233,21.904 91.939,22.948C91.433,24.745 91.612,26.07 93.617,26.763C95.384,27.374 95.492,28.615 94.672,30.124C94.099,31.181 93.512,32.242 93.071,33.357C92.258,35.415 90.816,36.36 88.627,36.089C85.593,35.714 83.864,36.948 83.448,40.039C83.316,41.021 82.961,41.988 82.604,42.922C81.788,45.059 82.271,46.42 84.489,47.456C87.503,48.865 87.877,50.609 86.164,53.516C84.646,56.092 83.213,58.74 81.451,61.142C80.74,62.111 79.266,63.038 78.115,63.068C74.928,63.152 71.699,62.948 68.542,62.483C66.154,62.131 65.187,63.174 64.191,65.085C60.071,72.989 55.757,80.79 51.602,88.676C50.41,90.939 49.004,91.815 46.552,90.543C45.408,89.949 44.116,89.614 42.864,89.26C40.857,88.691 39.299,87.977 39.992,85.329C40.416,83.708 39.389,83.238 37.862,83.456C35.185,83.837 32.459,83.961 29.822,84.516C27.564,84.992 25.956,84.39 25.188,82.334C23.641,78.195 20.873,77.861 16.87,78.488C10.862,79.428 4.725,79.605 -1.366,79.893C-2.305,79.937 -3.843,79.055 -4.171,78.231C-5.763,74.228 -7.146,70.125 -5.989,65.677C-5.285,62.973 -4.68,60.253 0,60.637" style="fill:rgb(74,58,75);fill-rule:nonzero;"/>
                </g>
                <g transform="matrix(1,0,0,1,594.643,491.022)">
                    <path d="M0,10.392C2.997,10.565 5.994,10.73 8.991,10.913C10.819,11.025 11.867,10.218 12.699,8.534C14.587,4.709 16.79,1.04 18.749,-2.753C19.963,-5.105 19.259,-6.828 16.627,-7.563C13.324,-8.487 14.512,-10.756 14.918,-12.893C15.364,-15.239 16.502,-16.666 19.014,-16.039C21.461,-15.428 22.824,-16.403 23.732,-18.537C24.122,-19.457 24.621,-20.335 25.124,-21.201C28.665,-27.292 34.372,-27.993 39.49,-23.031C40.69,-21.868 42.034,-20.027 43.358,-19.986C46.402,-19.893 49.5,-20.599 52.513,-21.266C53.099,-21.396 53.301,-22.896 53.856,-23.632C54.424,-24.386 55.207,-25.549 55.897,-25.55C62.382,-25.553 68.866,-25.315 75.351,-25.216C77.396,-25.185 78.79,-24.846 77.906,-22.289C77.096,-19.943 78.709,-19.887 80.344,-19.789C84.432,-19.543 88.521,-19.278 92.601,-18.93C94.535,-18.765 95.448,-17.827 94.845,-15.686C90.506,-0.259 86.194,15.175 81.944,30.626C81.208,33.302 79.544,34.316 76.924,34.422C74.125,34.535 71.332,34.817 68.543,35.09C67.871,35.155 66.857,35.276 66.624,35.707C65.181,38.385 63.155,37.353 61.154,36.767C55.766,35.189 50.348,33.71 45.007,31.989C43.695,31.566 42.397,30.563 41.503,29.486C39.47,27.035 37.201,26.83 34.411,28.195C30.457,30.131 27.168,32.544 25.011,36.463C24.117,38.087 22.952,37.736 22.013,36.318C21.736,35.901 21.466,35.476 21.16,35.08C18.333,31.404 16.364,27.401 10.463,26.766C4.828,26.159 -0.541,23.196 -6.069,21.402C-8.172,20.719 -8.538,19.724 -7.457,17.88C-6.647,16.5 -6.01,15.018 -5.286,13.587C-3.66,10.377 -3.468,10.261 0,10.392" style="fill:rgb(233,150,99);fill-rule:nonzero;"/>
                </g>
                <g transform="matrix(1,0,0,1,722.903,343.8)">
                    <path d="M0,-18.379C1.407,-20.421 2.428,-22.134 3.675,-23.664C6.955,-27.687 10.213,-31.743 13.749,-35.534C14.766,-36.625 16.646,-37.142 18.221,-37.439C22.632,-38.269 27.075,-39.253 31.533,-39.414C36.462,-39.592 40.495,-42.01 44.873,-43.579C46.931,-44.316 47.968,-43.66 48.892,-41.788C51.497,-36.515 54.409,-31.39 56.913,-26.071C58.003,-23.757 58.264,-21.068 59.135,-18.633C60.167,-15.75 61.123,-12.758 62.699,-10.171C65.363,-5.803 67.307,-1.534 66.983,3.879C66.795,7.016 68.398,10.273 69.26,13.459C70.749,18.956 70.291,19.775 64.789,21.33C60.876,22.435 56.982,23.611 53.058,24.673C52.569,24.805 51.877,24.546 51.395,24.268C50.532,23.769 49.768,23.102 48.943,22.533C47.05,21.225 45.136,18.921 43.247,18.937C41.557,18.951 40.013,21.719 38.178,22.928C36.372,24.118 34.313,24.956 32.292,25.762C31.853,25.937 30.799,25.497 30.535,25.045C24.143,14.113 12.691,9.161 3.067,2.181C-4.901,-3.598 -9.545,-11.246 -13.151,-19.957C-13.968,-21.931 -13.49,-22.836 -11.552,-23.539C-3.254,-26.551 -4.787,-26.952 -1.368,-20.285C-1.107,-19.775 -0.698,-19.34 0,-18.379" style="fill:rgb(160,75,85);fill-rule:nonzero;"/>
                </g>
                <g transform="matrix(1,0,0,1,645.993,433.878)">
                    <path d="M0,-1.702C-2.277,-1.478 -3.72,-1.355 -5.158,-1.19C-7.021,-0.976 -8.31,-1.552 -8.626,-3.577C-9.104,-6.642 -9.619,-9.701 -10.065,-12.771C-10.341,-14.671 -9.442,-15.604 -7.526,-15.585C-6.624,-15.576 -5.721,-15.6 -4.818,-15.602C1.142,-15.616 4.353,-19.607 3.214,-25.592C2.991,-26.762 2.989,-28.054 2.451,-29.056C2.046,-29.81 0.902,-30.139 0.169,-30.753C-0.618,-31.413 -1.378,-32.135 -1.995,-32.947C-2.151,-33.153 -1.664,-34.202 -1.569,-34.189C-0.637,-34.055 0.364,-33.947 1.177,-33.514C4.891,-31.533 8.577,-29.494 12.218,-27.382C13.698,-26.523 14.724,-26.708 15.873,-27.983C18.605,-31.013 21.462,-33.931 24.186,-36.807C24.634,-36.662 24.945,-36.649 24.987,-36.535C27.148,-30.772 32.621,-30.622 37.325,-29.592C42.289,-28.507 44.598,-26.592 45.594,-21.515C45.953,-19.685 46.739,-17.941 47.138,-16.115C47.337,-15.202 47.374,-14.08 47.022,-13.247C41.211,0.516 35.323,14.245 29.464,27.987C28.666,29.859 27.334,30.836 25.265,30.741C17.882,30.399 10.495,30.141 3.121,29.667C1.383,29.555 0.591,29.906 0.737,31.645C0.965,34.383 -0.486,35.009 -2.924,35.052C-5.846,35.105 -8.523,34.782 -10.691,32.616C-13.789,29.522 -17.888,29.901 -21.714,29.615C-26.805,29.235 -28.081,28.175 -27.356,23.202C-27.179,21.99 -25.247,20.148 -24.101,20.131C-20.706,20.084 -18.666,18.309 -16.942,15.878C-14.573,12.537 -11.632,10.053 -7.945,8.153C-4.326,6.287 -2.067,2.936 0,-1.702" style="fill:rgb(209,85,90);fill-rule:nonzero;"/>
                </g>
                <g transform="matrix(1,0,0,1,737.38,296.767)">
                    <path d="M0,-45.989C2.716,-46.77 4.809,-47.156 6.716,-47.974C9.333,-49.095 10.482,-48.145 11.398,-45.702C13.93,-38.948 16.39,-32.147 19.358,-25.58C22.898,-17.747 26.884,-10.111 30.787,-2.446C32.363,0.65 32.289,1.064 29.007,2.286C27.037,3.019 25.18,4.151 23.16,4.637C18.277,5.814 13.342,6.79 8.4,7.698C6.142,8.113 3.782,8 1.541,8.47C0.264,8.738 -1.176,9.43 -2.011,10.392C-5.545,14.462 -8.882,18.704 -12.286,22.887C-12.955,23.709 -13.598,24.552 -14.795,26.075C-17.743,20.117 -20.572,14.859 -22.967,9.411C-24.697,5.477 -25.898,1.305 -27.232,-2.795C-27.593,-3.904 -27.792,-5.15 -27.704,-6.306C-27.319,-11.399 -26.703,-16.475 -26.377,-21.571C-26.234,-23.812 -25.463,-25.06 -23.134,-24.763C-20.161,-24.383 -18.911,-25.682 -18.815,-28.582C-18.765,-30.071 -18.342,-31.548 -18.092,-33.031C-17.728,-35.183 -17.737,-37.038 -20.562,-37.581C-21.156,-37.696 -21.923,-38.835 -21.967,-39.543C-22.133,-42.206 -22.034,-44.887 -22.034,-47.944C-20.665,-47.487 -19.393,-46.772 -18.081,-46.689C-15.81,-46.546 -13.514,-46.796 -11.229,-46.88C-11.373,-49.779 -11.279,-52.719 -11.774,-55.556C-11.985,-56.763 -13.385,-57.794 -14.321,-58.835C-15.86,-60.548 -16.642,-62.292 -16.357,-64.804C-16.177,-66.385 -17.416,-68.127 -17.999,-69.743C-15.43,-70.413 -12.442,-71.283 -9.405,-71.918C-8.707,-72.064 -7.49,-71.643 -7.109,-71.08C-4.662,-67.46 -2.078,-63.876 -0.171,-59.971C0.789,-58.003 0.585,-55.389 0.608,-53.064C0.629,-50.9 0.254,-48.731 0,-45.989" style="fill:rgb(232,143,98);fill-rule:nonzero;"/>
                </g>
                <g transform="matrix(1,0,0,1,712.879,247.788)">
                    <path d="M0,-1.581C0.497,3.369 0.811,7.698 1.478,11.973C1.59,12.69 3.23,13.167 4.568,14.01C4.491,14.895 4.377,16.253 4.253,17.611C3.83,22.253 3.83,22.321 -0.672,22.424C-2.71,22.47 -3.476,23.301 -3.592,25.313C-3.867,30.11 -4.278,34.9 -4.727,39.684C-5.313,45.923 -2.96,51.517 -0.895,57.144C0.207,60.146 1.66,63.035 3.155,65.869C4.312,68.061 3.794,69.239 1.467,69.807C0.983,69.925 0.52,70.135 0.053,70.318C-5.608,72.525 -6.628,72.184 -8.823,66.458C-11.946,58.313 -14.88,50.094 -17.863,41.896C-18.203,40.962 -18.549,39.954 -18.543,38.982C-18.49,29.662 -18.367,20.343 -18.248,11.024C-18.23,9.622 -18.115,8.221 -18.073,6.819C-17.787,-2.595 -17.079,-12.023 -17.373,-21.419C-17.584,-28.187 -19.082,-34.92 -20.098,-41.655C-21.489,-50.875 -22.916,-60.089 -24.437,-69.288C-24.865,-71.876 -23.922,-72.79 -21.431,-72.735C-11.447,-72.513 -13.403,-74.106 -9.497,-65.327C-8.461,-63.001 -7.6,-60.515 -4.062,-62.017C-3.57,-62.226 -1.91,-61.026 -1.639,-60.2C0.234,-54.485 1.885,-48.696 3.595,-42.927C3.707,-42.548 3.885,-42.052 3.739,-41.754C1.94,-38.067 3.765,-34.857 5.271,-31.775C6.872,-28.499 6.588,-25.599 4.628,-22.732C3.473,-21.043 3.407,-19.805 5.298,-18.471C6.08,-17.919 6.688,-16.345 6.523,-15.382C6.097,-12.886 7.051,-11.213 8.66,-9.486C10.623,-7.379 12.554,-5.215 12.111,-1.855C11.718,1.13 10.691,2.071 7.734,1.179C5.372,0.467 3.078,-0.471 0,-1.581" style="fill:rgb(224,88,92);fill-rule:nonzero;"/>
                </g>
                <g transform="matrix(1,0,0,1,678.289,270.564)">
                    <path d="M0,81.381C-1.274,79.497 -2.007,78.582 -2.555,77.567C-3.652,75.539 -4.669,73.468 -5.68,71.395C-8.943,64.705 -14.065,60.234 -21.367,58.538C-23.801,57.973 -24.476,56.897 -23.705,54.533C-22.494,50.817 -21.386,47.063 -20.396,43.283C-19.548,40.047 -18.082,37.437 -15.087,35.626C-14.193,35.086 -13.483,33.355 -13.57,32.239C-13.845,28.754 -14.666,25.313 -14.998,21.829C-15.099,20.777 -14.296,19.639 -13.907,18.541C-13.013,19.259 -12.016,19.885 -11.26,20.726C-10.709,21.34 -10.474,22.239 -9.791,23.64C-8.536,21.511 -7.454,19.979 -6.692,18.302C-5.755,16.244 -4.409,15.412 -2.092,15.18C0.399,14.931 2.902,14.081 5.231,13.096C8.461,11.731 10.621,9.364 10.728,5.564C10.761,4.371 10.878,3.118 11.292,2.019C11.586,1.237 12.441,0.665 13.045,0C13.419,0.737 14.011,1.444 14.123,2.219C14.422,4.295 14.86,6.44 14.632,8.489C13.569,18.044 17.514,26.411 20.989,34.769C24.902,44.179 29.459,53.328 33.916,62.503C35.119,64.979 34.995,66.252 32.408,67.713C28.423,69.964 24.849,72.936 20.894,75.249C19.673,75.964 17.779,75.547 16.191,75.6C15.921,75.609 15.647,75.364 15.368,75.251C7.105,71.902 6.927,71.94 1.454,78.814C0.963,79.431 0.661,80.198 0,81.381" style="fill:rgb(224,88,92);fill-rule:nonzero;"/>
                </g>
                <g transform="matrix(1,0,0,1,715.875,351.234)">
                    <path d="M0,31.54C1.78,33.503 2.825,34.759 3.983,35.901C5.093,36.997 7.293,37.394 5.903,39.811C3.518,43.957 2.616,44.495 -0.424,43.42C-11.552,39.488 -20.002,32.423 -25.746,22.087C-29.057,16.129 -32.437,10.208 -35.915,4.347C-36.933,2.632 -36.903,1.417 -35.689,-0.221C-30.655,-7.013 -29.372,-7.473 -21.748,-3.539C-19.63,-2.447 -18.062,-2.607 -16.216,-3.81C-12.023,-6.54 -7.73,-9.117 -3.561,-11.882C-1.942,-12.955 -0.863,-12.751 0.676,-11.581C10.077,-4.436 19.664,2.465 28.993,9.701C31.125,11.354 32.559,13.947 34.18,16.204C35.64,18.237 36.967,20.372 38.24,22.528C38.598,23.135 38.559,23.976 38.702,24.71C37.998,24.715 37.294,24.729 36.59,24.724C35.441,24.715 34.244,24.479 33.153,24.724C31.302,25.139 29.547,25.972 27.699,26.413C25.247,26.997 23.572,28.312 22.741,30.716C21.977,32.929 20.827,33.284 18.647,32.062C16.9,31.084 14.739,30.667 12.71,30.409C9.638,30.018 6.522,29.869 3.424,29.866C2.523,29.865 1.622,30.714 0,31.54" style="fill:rgb(74,58,75);fill-rule:nonzero;"/>
                </g>
                <g transform="matrix(1,0,0,1,788.327,382.677)">
                    <path d="M0,51.396C0.469,53.78 -1.601,54.499 -3.208,55.34C-4.418,55.973 -5.88,56.124 -7.229,56.492C-10.446,57.37 -11.018,58.8 -10.419,62.024C-10.033,64.098 -10.436,66.355 -10.765,68.487C-10.812,68.793 -12.819,69.325 -13.255,68.96C-16.298,66.41 -19.664,64.142 -21.082,60.078C-23.116,54.244 -25.64,48.562 -27.331,42.638C-27.987,40.34 -27.275,37.465 -26.606,35.011C-24.658,27.861 -23.502,20.727 -25.35,13.38C-25.47,12.902 -25.503,12.373 -25.444,11.884C-24.493,4.07 -28.239,-2.249 -31.986,-8.545C-32.786,-9.89 -33.166,-11.476 -31.356,-11.471C-28.279,-11.463 -26.94,-13.571 -25.42,-15.393C-23.305,-17.929 -21.531,-17.879 -18.817,-16.063C-13.505,-12.507 -9.074,-8.396 -7.031,-2.157C-6.783,-1.398 -6.415,-0.652 -6.319,0.127C-4.866,11.991 -3.463,23.861 -2.017,35.726C-1.388,40.894 -0.69,46.053 0,51.396" style="fill:rgb(232,143,98);fill-rule:nonzero;"/>
                </g>
                <g transform="matrix(1,0,0,1,718.968,423.975)">
                    <path d="M0,-40.884C6.56,-41.811 12.954,-41.579 18.685,-37.423C19.172,-38.011 19.554,-38.274 19.646,-38.615C20.973,-43.524 24.899,-45.116 29.25,-46.032C30.42,-46.279 31.712,-45.964 32.946,-45.871C33.512,-45.828 34.238,-45.424 34.607,-45.649C37.434,-47.373 38.236,-45.495 39.117,-43.357C44.303,-30.778 44.383,-18.001 40.768,-5.046C40.276,-3.28 39.396,-2.762 37.494,-2.963C31.625,-3.585 25.73,-3.972 19.841,-4.393C18.285,-4.504 16.714,-4.409 14.645,-4.409C15.546,-0.693 16.311,2.462 17.287,6.489C13.671,5.699 10.613,5.097 7.611,4.29C7.237,4.189 7.069,3.017 6.956,2.317C6.702,0.73 6.867,-1.004 6.285,-2.445C3.962,-8.204 1.281,-13.821 -0.947,-19.613C-1.508,-21.072 -1.372,-23.22 -0.697,-24.644C0.623,-27.426 2.41,-30.024 4.27,-32.498C5.608,-34.278 5.604,-35.342 3.648,-36.57C2.142,-37.515 0.886,-38.857 -0.482,-40.022C-0.321,-40.31 -0.161,-40.597 0,-40.884" style="fill:rgb(74,58,75);fill-rule:nonzero;"/>
                </g>
                <g transform="matrix(1,0,0,1,629.227,358.653)">
                    <path d="M0,-29.81C-0.325,-31.395 -0.611,-32.792 -1.025,-34.815C2.308,-34.143 5.236,-33.701 8.082,-32.949C14.862,-31.158 21.534,-28.903 28.379,-27.438C34.528,-26.123 37.922,-21.864 40.982,-17.15C43.101,-13.883 44.737,-10.3 46.527,-6.825C46.978,-5.949 47.346,-4.971 47.484,-4.002C48.169,0.809 46.878,1.802 42.206,1.07C39.432,0.635 36.441,0.665 33.69,1.209C29.179,2.1 24.812,3.703 20.321,4.728C19.107,5.005 17.643,4.356 16.33,3.998C14.331,3.454 12.398,2.593 10.372,2.233C7.869,1.788 6.88,0.773 7.617,-1.846C8.539,-5.124 9.288,-8.457 9.975,-11.793C10.734,-15.476 9.892,-16.697 6.107,-16.727C0.533,-16.77 -5.053,-16.616 -10.617,-16.268C-13.273,-16.102 -15.119,-16.436 -15.676,-19.43C-16.168,-22.069 -17.162,-24.645 -17.389,-27.295C-17.71,-31.052 -16.969,-31.501 -13.295,-30.998C-9.526,-30.482 -5.746,-30.043 -1.965,-29.613C-1.407,-29.55 -0.823,-29.72 0,-29.81" style="fill:rgb(233,150,99);fill-rule:nonzero;"/>
                </g>
                <g transform="matrix(1,0,0,1,679.196,405.15)">
                    <path d="M0,-47.227C4.562,-39.466 9.146,-31.667 13.683,-23.948C13.1,-23.481 13.008,-23.353 12.946,-23.366C4.461,-25.128 0.012,-19.326 -4.809,-14.046C-6.533,-12.159 -8.82,-10.797 -10.648,-8.991C-12.923,-6.742 -15.022,-4.311 -17.134,-1.903C-18.543,-0.296 -19.927,0 -21.85,-1.18C-25.86,-3.639 -30.003,-5.881 -34.06,-8.265C-37.204,-10.111 -38.415,-15.392 -36.415,-19.323C-34.691,-22.712 -32.44,-25.842 -30.837,-29.28C-29.647,-31.831 -28.831,-34.646 -28.395,-37.429C-28.07,-39.5 -27.506,-40.721 -25.366,-41.217C-21.268,-42.169 -17.261,-43.649 -13.121,-44.231C-10.562,-44.591 -7.771,-43.928 -5.186,-43.303C-2.553,-42.666 -0.817,-42.658 -1.11,-46.062C-1.132,-46.318 -0.895,-46.605 -0.752,-46.862C-0.713,-46.933 -0.58,-46.952 0,-47.227" style="fill:rgb(160,75,85);fill-rule:nonzero;"/>
                </g>
                <g transform="matrix(1,0,0,1,723.299,431.482)">
                    <path d="M0,27.517C-0.24,26.477 -0.696,25.434 -0.68,24.398C-0.637,21.674 -2.066,20.912 -4.483,21.109C-5.479,21.19 -6.525,21.286 -7.482,21.076C-12.177,20.045 -16.184,20.548 -18.784,25.283C-19.1,25.859 -20.549,26.081 -21.447,26.025C-24.927,25.81 -28.396,25.416 -32.314,25.047C-32.151,27.095 -32.019,28.935 -31.852,30.773C-31.78,31.569 -31.547,32.359 -31.543,33.152C-31.516,39.153 -32.244,39.682 -38.089,38.673C-40.638,38.233 -43.256,38.071 -45.847,38.026C-48.378,37.982 -49.094,37.18 -48.027,34.74C-43.773,25.011 -39.589,15.251 -35.417,5.486C-33.449,0.88 -31.626,-3.789 -29.63,-8.383C-28.115,-11.872 -26.682,-12.165 -24.217,-9.391C-22.567,-7.534 -20.875,-7.072 -18.317,-6.867C-13.7,-6.497 -8.835,-5.565 -4.763,-3.505C-2.515,-2.367 -0.732,1.418 -0.372,4.22C0.569,11.537 0.616,18.969 0.997,26.356C1.015,26.716 0.818,27.086 0.722,27.452C0.481,27.474 0.241,27.495 0,27.517" style="fill:rgb(142,72,83);fill-rule:nonzero;"/>
                </g>
                <g transform="matrix(1,0,0,1,648.251,325.925)">
                    <path d="M0,-41.658C2.668,-42.034 5.361,-42.291 7.998,-42.822C10.316,-43.288 11.345,-42.414 11.74,-40.203C12.708,-34.784 13.883,-29.398 14.69,-23.957C14.85,-22.878 14.055,-21.165 13.148,-20.513C10.352,-18.506 8.922,-15.861 8.112,-12.625C7.141,-8.744 5.87,-4.938 4.847,-1.068C4.294,1.025 3.237,1.63 1.118,1.074C-4.98,-0.527 -11.118,-1.975 -17.235,-3.502C-18.105,-3.719 -19.144,-3.83 -19.748,-4.381C-20.404,-4.98 -20.914,-6.024 -20.946,-6.895C-20.961,-7.3 -19.704,-8.105 -19.012,-8.119C-16.807,-8.162 -16.066,-9.166 -16.023,-11.283C-15.913,-16.68 -15.519,-22.074 -15.485,-27.47C-15.469,-30.039 -14.598,-31.315 -12.011,-31.726C-8.991,-32.205 -7.225,-35.14 -8.106,-38.152C-8.719,-40.251 -8.116,-41.164 -5.996,-41.354C-4.011,-41.531 -2.038,-41.838 -0.059,-42.088C-0.04,-41.945 -0.02,-41.801 0,-41.658" style="fill:rgb(232,143,98);fill-rule:nonzero;"/>
                </g>
                <g transform="matrix(1,0,0,1,699.348,426.416)">
                    <path d="M0,-37.947C5.416,-35.362 10.748,-32.757 16.139,-30.282C17.819,-29.51 18.292,-28.524 17.277,-27.025C15.964,-25.087 16.459,-23.278 17.302,-21.351C19.793,-15.657 22.293,-9.964 24.583,-4.188C25.065,-2.971 24.667,-1.405 24.674,0C23.375,-0.1 22.071,-0.161 20.778,-0.31C19.112,-0.502 17.428,-0.648 15.8,-1.025C13.465,-1.565 11.174,-2.294 8.865,-2.947C8.287,-3.111 7.624,-3.575 7.152,-3.424C2.778,-2.026 0.845,-5.953 -2.06,-7.667C-2.622,-7.999 -3.058,-9.558 -2.764,-10.176C1.578,-19.292 2.775,-28.689 0,-37.947" style="fill:rgb(232,143,98);fill-rule:nonzero;"/>
                </g>
                <g transform="matrix(1,0,0,1,693.901,381.79)">
                    <path d="M0,34.538C-0.361,32.949 -0.809,31.73 -0.891,30.487C-1.205,25.742 -4.418,22.11 -9.002,21.189C-11.937,20.599 -14.865,19.87 -17.703,18.924C-21.775,17.565 -22.407,14.315 -19.368,11.31C-16.873,8.843 -14.45,6.304 -11.928,3.864C-8.906,0.94 -1.907,0 1.169,2.705C2.886,4.214 3.949,6.91 4.467,9.257C6.324,17.668 4.983,25.78 1.299,33.524C1.188,33.757 0.854,33.884 0,34.538" style="fill:rgb(233,150,99);fill-rule:nonzero;"/>
                </g>
                <g transform="matrix(1,0,0,1,723.114,591.592)">
                    <path d="M0,-161.876C4.503,-161.029 9.394,-160.108 14.993,-159.055C14.291,-161.967 13.7,-164.317 13.162,-166.679C12.437,-169.861 12.772,-170.147 15.98,-169.92C20.674,-169.588 25.378,-169.388 30.078,-169.146C34.15,-168.937 34.336,-168.461 35.393,-164.575C38.147,-154.446 41.515,-144.579 50.678,-138.138C51.515,-137.55 52.616,-137.012 53.593,-137.015C55.954,-137.02 57.215,-135.71 57.651,-133.737C58.627,-129.325 58.476,-125.039 55.891,-121.018C53.093,-116.665 52.595,-111.728 53.832,-106.871C54.398,-104.649 56.018,-102.346 57.804,-100.848C64.437,-95.286 64.435,-86.454 57.947,-80.781C54.609,-77.862 51.671,-74.338 49.188,-70.658C48.071,-69.003 48.106,-66.253 48.347,-64.08C48.664,-61.221 49.466,-58.354 50.476,-55.646C52.49,-50.246 51.579,-45.478 48.229,-40.923C46.757,-38.923 45.68,-36.637 44.315,-34.551C42.102,-31.171 42.632,-27.514 42.868,-23.794C43.083,-20.425 42.835,-17.027 42.79,-13.642C42.764,-11.683 41.819,-11.2 39.881,-11.307C33.308,-11.669 26.722,-11.772 20.144,-12.053C17.911,-12.149 16.463,-11.297 15.862,-9.145C15.191,-6.74 14.57,-4.322 13.943,-1.905C13.869,-1.618 13.959,-1.282 13.859,-1.011C13.591,-0.283 13.243,1.05 12.958,1.042C8.486,0.916 9.571,8.271 4.464,7.262C3.015,6.976 1.462,7.188 -0.042,7.218C-1.803,7.252 -2.919,6.67 -3.016,4.681C-3.045,4.089 -3.555,3.496 -3.915,2.95C-4.262,2.424 -4.7,1.957 -5.098,1.464C-4.413,0.98 -3.777,0.192 -3.033,0.07C-1.046,-0.257 0.004,-1.105 0.053,-3.251C0.104,-5.449 -1.169,-6.252 -2.969,-6.717C-3.649,-6.893 -4.312,-7.158 -5,-7.269C-7.845,-7.729 -9.458,-9.255 -9.693,-12.232C-10.221,-18.912 -10.96,-25.579 -11.331,-32.267C-11.477,-34.899 -11.841,-37.023 -14.587,-38.026C-16.557,-38.745 -16.534,-40.188 -16.137,-41.954C-14.685,-48.408 -13.314,-54.881 -11.966,-61.359C-11.183,-65.124 -11.713,-65.925 -15.447,-66.135C-24.244,-66.629 -33.046,-67.043 -41.85,-67.402C-45.665,-67.558 -45.725,-67.713 -44.704,-71.425C-40.133,-88.05 -35.585,-104.682 -31.219,-121.36C-30.527,-124.002 -30.65,-126.9 -30.681,-129.676C-30.717,-132.938 -30.42,-133.326 -27.107,-132.861C-26.809,-132.819 -26.512,-132.763 -26.22,-132.692C-21.964,-131.666 -18.18,-131.769 -15.724,-136.291C-15.278,-137.11 -13.752,-137.707 -12.694,-137.756C-10.41,-137.861 -8.108,-137.522 -5.811,-137.407C-3.492,-137.292 -2.546,-136.108 -2.271,-133.801C-2.136,-132.667 -1.213,-131.171 -0.229,-130.686C2.107,-129.533 3.014,-130.471 2.759,-133.069C2.195,-138.835 1.771,-144.614 1.232,-150.383C0.876,-154.19 0.42,-157.989 0,-161.876" style="fill:rgb(142,72,83);fill-rule:nonzero;"/>
                </g>
            </g>
        </g>
    </g>
</svg>
