<?xml version="1.0" encoding="UTF-8"?>
<svg width="269px" height="300px" viewBox="0 0 269 300" version="1.1" xmlns="http://www.w3.org/2000/svg" xmlns:xlink="http://www.w3.org/1999/xlink">
    <!-- Generator: Sketch 50.2 (55047) - http://www.bohemiancoding.com/sketch -->
    <title>Artboard</title>
    <desc>Created with Sketch.</desc>
    <defs></defs>
    <g id="Artboard" stroke="none" stroke-width="1" fill="none" fill-rule="evenodd">
        <path d="M252.6236,236.3314 L149.5306,295.8524 C139.9516,301.3824 128.1506,301.3824 118.5726,295.8524 L15.4786,236.3314 C5.9006,230.8014 -0.0004,220.5814 -0.0004,209.5214 L-0.0004,90.4794 C-0.0004,79.4194 5.9006,69.1994 15.4786,63.6684 L118.5726,4.1474 C128.1506,-1.3826 139.9516,-1.3826 149.5306,4.1474 L252.6236,63.6684 C262.2016,69.1994 268.1026,79.4194 268.1026,90.4794 L268.1026,209.5214 C268.1026,220.5814 262.2016,230.8014 252.6236,236.3314" id="hexagon" fill="#F49600"></path>
        <path d="M268.1001,209.52 C268.1001,209.87 268.0901,210.21 268.0801,210.55 C268.0701,210.94 268.0501,211.33 268.0201,211.72 C268.0101,211.89 268.0001,212.06 267.9801,212.23 C267.9301,212.73 267.8801,213.23 267.8101,213.72 C267.7301,214.28 267.6401,214.84 267.5301,215.4 C267.5001,215.59 267.4601,215.78 267.4201,215.96 C267.2401,216.85 267.0101,217.72 266.7401,218.59 C266.5801,219.1 266.4101,219.61 266.2301,220.11 C266.1401,220.37 266.0401,220.62 265.9401,220.86 C265.7501,221.36 265.5401,221.85 265.3201,222.34 C265.1801,222.64 265.0401,222.94 264.8901,223.23 C264.7701,223.49 264.6401,223.75 264.5001,224 C263.7901,225.35 262.9801,226.64 262.0701,227.87 C261.8201,228.21 261.5601,228.54 261.3001,228.87 C260.8901,229.4 260.4501,229.9 260.0001,230.4 C259.7001,230.73 259.3901,231.05 259.0801,231.36 C259.0401,231.4 259.0001,231.44 258.9601,231.48 C258.5901,231.84 258.2201,232.2 257.8301,232.55 C257.5001,232.84 257.1701,233.13 256.8301,233.41 C256.7101,233.51 256.5901,233.6 256.4701,233.7 C256.1301,233.98 255.7701,234.25 255.4101,234.51 C255.3401,234.56 255.2801,234.61 255.2201,234.65 C254.8201,234.94 254.4201,235.21 254.0001,235.48 C253.5501,235.78 253.0901,236.06 252.6201,236.33 L222.7001,253.6 C232.2801,248.07 238.1801,237.85 238.1801,226.79 C238.1801,215.73 232.2801,205.51 222.7001,199.98 L118.8101,140 C128.3401,145.39 140.0201,145.34 149.5201,139.86 L204.2001,108.29 L262.5201,191.79 C266.1801,197.03 268.1001,203.23 268.1001,209.52" id="m2a3" fill="#D63E2D"></path>
        <path d="M238.1801,226.79 C238.1801,237.85 232.2801,248.07 222.7001,253.6 L149.5301,295.85 C148.6301,296.37 147.7101,296.84 146.7801,297.26 C146.1601,297.54 145.5301,297.8 144.8901,298.04 C144.5801,298.16 144.2601,298.27 143.9401,298.38 C143.3001,298.59 142.6501,298.79 142.0001,298.96 C140.7001,299.3 139.3801,299.56 138.0501,299.74 C137.7201,299.78 137.3801,299.82 137.0501,299.85 C136.3901,299.92 135.7201,299.96 135.0501,299.98 C134.7201,299.99 134.3801,300 134.0501,300 C133.7201,300 133.3801,299.99 133.0501,299.98 C132.3801,299.96 131.7101,299.92 131.0501,299.85 C130.7101,299.82 130.3801,299.78 130.0501,299.74 C128.7201,299.56 127.4001,299.3 126.1001,298.96 C125.4501,298.79 124.8001,298.59 124.1601,298.38 C123.8401,298.27 123.5201,298.16 123.2101,298.04 C122.5701,297.8 121.9401,297.54 121.3201,297.26 C120.3801,296.84 119.4701,296.37 118.5701,295.85 L15.4701,236.33 C15.0001,236.06 14.5401,235.78 14.0901,235.48 C13.7201,235.24 13.3501,234.99 13.0001,234.73 C12.9601,234.71 12.9201,234.68 12.8801,234.65 C12.6901,234.52 12.5101,234.39 12.3301,234.24 C11.5401,233.65 10.7701,233.02 10.0501,232.36 C9.8301,232.15 9.6101,231.94 9.3901,231.73 C9.2601,231.61 9.1401,231.49 9.0201,231.36 C8.7501,231.09 8.4801,230.82 8.2301,230.54 C8.0801,230.38 7.9301,230.21 7.7901,230.05 C7.2501,229.45 6.7401,228.82 6.2601,228.18 C6.0901,227.97 5.9301,227.75 5.7801,227.53 C5.5801,227.26 5.3901,226.98 5.2101,226.7 C5.0201,226.42 4.8401,226.14 4.6601,225.86 L4.6501,225.85 C4.4801,225.57 4.3101,225.29 4.1501,225 C3.9801,224.71 3.8201,224.42 3.6601,224.12 C3.0301,222.95 2.4801,221.73 2.0001,220.47 C1.9001,220.19 1.7901,219.9 1.6901,219.61 C1.5701,219.26 1.4601,218.92 1.3501,218.57 C1.2501,218.25 1.1601,217.92 1.0701,217.6 C0.9801,217.28 0.9001,216.95 0.8201,216.62 C0.7501,216.29 0.6801,215.96 0.6101,215.63 C0.5501,215.32 0.4901,215 0.4301,214.69 C0.4301,214.65 0.4201,214.61 0.4101,214.57 C0.3601,214.25 0.3201,213.94 0.2701,213.62 C0.2301,213.28 0.1901,212.94 0.1501,212.61 C0.1001,212.1 0.0601,211.59 0.0401,211.07 C0.0301,210.91 0.0201,210.75 0.0201,210.59 C0.0001,210.24 0.0001,209.88 0.0001,209.52 L0.0001,208.94 C0.1101,202.85 2.0201,196.87 5.5701,191.79 L63.8901,108.29 L118.8101,140 L222.7001,199.98 C232.2801,205.51 238.1801,215.73 238.1801,226.79" id="s2m3a2" fill="#F4A61A"></path>
        <path d="M63.89,108.29 L5.57,191.79 C2.02,196.87 0.11,202.85 0,208.94 L0,125.75 C0,118.62 2.23,111.64 6.49,106.06 C6.85,105.58 7.24,105.11 7.64,104.65 C7.86,104.4 8.09,104.15 8.32,103.9 C8.54,103.66 8.78,103.42 9.02,103.18 C9.25,102.94 9.49,102.7 9.74,102.47 C9.98,102.24 10.23,102.01 10.49,101.79 C10.59,101.7 10.7,101.6 10.81,101.52 C11.05,101.3 11.29,101.1 11.54,100.91 C11.79,100.7 12.05,100.5 12.31,100.32 C12.5,100.16 12.69,100.02 12.88,99.89 C12.98,99.81 13.08,99.74 13.19,99.67 C13.44,99.49 13.7,99.31 13.96,99.14 C13.97,99.13 13.99,99.12 14.01,99.11 C14.37,98.88 14.73,98.65 15.09,98.44 C15.22,98.36 15.34,98.28 15.47,98.21 C16.25,97.76 17.05,97.34 17.86,96.97 C18.2,96.81 18.55,96.65 18.9,96.5 C18.91,96.5 18.92,96.49 18.94,96.49 C19.33,96.33 19.72,96.17 20.11,96.02 C20.15,96.01 20.2,95.99 20.25,95.97 C21.54,95.5 22.86,95.11 24.2,94.81 C25.53,94.52 26.88,94.31 28.23,94.19 C31.8,93.87 35.41,94.18 38.9,95.1 C40.53,95.54 42.13,96.1 43.68,96.8 C44.61,97.22 45.53,97.69 46.43,98.21 L63.89,108.29 Z" id="s1m4" fill="#F8A819"></path>
        <path d="M268.1001,125.75 L268.1001,209.52 C268.1001,203.23 266.1801,197.03 262.5201,191.79 L204.2001,108.29 L221.6601,98.21 C232.9701,91.68 247.3701,92.86 257.5601,101.74 C264.4301,107.74 268.1001,116.63 268.1001,125.75" id="m1" fill="#DF452F"></path>
        <path d="M204.2,108.29 L149.52,139.86 C140.02,145.34 128.34,145.39 118.81,140 L63.89,108.29 L108.67,44.19 C114.46,35.89 123.93,30.95 134.05,30.95 C144.16,30.95 153.64,35.89 159.43,44.19 L204.2,108.29 Z" id="a1" fill="#D67D00"></path>
    </g>
</svg>