<svg viewBox="0 0 38 48" fill="none" xmlns="http://www.w3.org/2000/svg">
<path d="M16.0582 3.35996C15.9971 3.38178 15.8618 3.42105 15.7527 3.44723C15.5389 3.50396 14.8233 3.83996 14.8015 3.89232C14.7927 3.91414 14.7622 3.92723 14.7316 3.92723C14.6618 3.92723 14.3171 4.2545 14.1818 4.45087C14.1251 4.53378 14.064 4.61232 14.0509 4.62541C13.9985 4.66905 13.7498 5.2145 13.7236 5.34541C13.6844 5.54178 13.6233 5.79923 13.5709 6.02178C13.4487 6.53669 13.4225 6.92941 13.4225 8.11632C13.4225 9.28141 13.4487 9.69596 13.5709 10.4509C13.5971 10.6167 13.6364 10.9832 13.6625 11.2581C13.776 12.624 13.8458 13.2654 13.92 13.6581C13.9418 13.789 13.9855 14.0465 14.0073 14.2254C14.0335 14.4043 14.0727 14.688 14.0945 14.8581C14.1207 15.024 14.1556 15.312 14.1818 15.4909C14.2036 15.6698 14.2429 15.9752 14.2691 16.1672C14.2953 16.3592 14.3345 16.6734 14.3564 16.8654C14.4044 17.2625 14.448 17.4981 14.5484 17.8603C14.6182 18.1134 14.64 18.336 14.5964 18.3796C14.5833 18.3927 14.4262 18.3752 14.2473 18.3447C13.7542 18.2574 12.5236 18.3098 12.4538 18.4189C12.4407 18.4407 12.3753 18.4581 12.3055 18.4581C12.2356 18.4581 12.1658 18.4756 12.1527 18.5018C12.1396 18.5236 12.0873 18.5454 12.0393 18.5454C11.9956 18.5454 11.9215 18.5629 11.8778 18.5847C11.8385 18.6065 11.7556 18.6414 11.6945 18.6676C11.2975 18.829 11.0967 18.9207 10.8567 19.0603C10.7651 19.1127 10.6167 19.2 10.5295 19.248C9.65236 19.7454 9.00218 20.7054 8.88 21.6785C8.84509 21.9272 8.77527 21.997 8.63564 21.9141C8.592 21.8836 8.49164 21.8618 8.41746 21.8618C8.33891 21.8618 8.20364 21.84 8.112 21.8094C7.98109 21.7745 7.88509 21.7745 7.68873 21.8138C7.344 21.888 7.10836 21.949 6.98182 22.0014C6.92073 22.0276 6.83346 22.0625 6.78546 22.08C6.27055 22.272 5.67273 22.6778 5.34982 23.0618C5.136 23.3105 4.74327 24.0261 4.69964 24.2487C4.68655 24.3141 4.64291 24.528 4.608 24.72C4.47709 25.3963 4.54255 26.592 4.75636 27.4254C4.77382 27.4952 4.81309 27.6741 4.84364 27.8181C4.896 28.0538 5.05309 28.6865 5.14909 29.04C5.22327 29.3105 5.36291 29.712 5.568 30.2181C5.81673 30.8465 6.76364 32.7316 6.93382 32.9454C7.00364 33.0283 7.13891 33.264 7.23927 33.4691C7.51418 34.0189 7.87636 34.5381 8.256 34.9178C8.58327 35.2494 8.59636 35.2669 8.59636 35.4676C8.59636 35.5811 8.62691 35.7905 8.66182 35.9345C8.70109 36.0741 8.77091 36.3796 8.81891 36.6109C8.91491 37.056 9.33818 38.2298 9.56073 38.6749C9.84873 39.2421 10.4029 40.1192 10.6385 40.3767C10.7782 40.5207 11.0836 40.8305 11.3193 41.0618C11.5593 41.2887 11.856 41.5767 11.9825 41.7032C12.4276 42.144 12.4756 42.1701 13.8982 42.8509C14.5353 43.1563 14.7404 43.2436 14.8102 43.2436C14.8451 43.2436 14.8887 43.2611 14.9018 43.2872C14.9149 43.3091 14.976 43.3309 15.0327 43.3309C15.0895 43.3309 15.1505 43.3483 15.1636 43.3745C15.1767 43.3963 15.2291 43.4181 15.2771 43.4181C15.3207 43.4181 15.3949 43.4356 15.4385 43.4574C15.4778 43.4792 15.5956 43.5185 15.7004 43.5447C15.8007 43.5709 15.9665 43.6145 16.0713 43.6407C16.1716 43.6669 16.2982 43.7061 16.3549 43.728C16.4116 43.7498 16.5033 43.7672 16.56 43.7672C16.6167 43.7672 16.6735 43.7847 16.6865 43.8065C16.6996 43.8283 16.7738 43.8545 16.8524 43.8676C16.9309 43.8807 17.0749 43.9112 17.1709 43.9418C17.3891 44.0029 17.6378 44.064 17.8909 44.1163C18 44.1425 18.1745 44.1774 18.2836 44.2036C18.8727 44.3389 19.0996 44.3563 20.0727 44.3563C21.0895 44.352 21.8793 44.2996 22.2545 44.2036C22.3636 44.1774 22.5295 44.1381 22.6255 44.112C22.7215 44.0858 22.8873 44.0509 22.9964 44.0291C23.1055 44.0116 23.3105 43.9723 23.4545 43.9418C23.5985 43.9112 23.8036 43.872 23.9127 43.8545C24.096 43.8196 24.2531 43.7803 24.6764 43.6756C24.8465 43.632 25.1302 43.5709 25.3658 43.5185C25.4313 43.5054 25.4967 43.4792 25.5098 43.4574C25.5229 43.4356 25.5665 43.4181 25.6058 43.4181C25.6451 43.4181 25.8153 43.3527 25.9855 43.2698C26.1513 43.1912 26.4087 43.0691 26.5527 42.9992C26.6967 42.9338 26.8233 42.864 26.8364 42.8509C26.8495 42.8334 26.9847 42.7374 27.1418 42.6327C27.2989 42.528 27.4342 42.432 27.4473 42.4145C27.4604 42.4014 27.5695 42.3185 27.6873 42.24C28.4596 41.7163 28.9484 41.0792 29.1316 40.3767C29.1665 40.2371 29.2538 40.0276 29.3236 39.9141C29.3978 39.7963 29.4545 39.6916 29.4545 39.6741C29.4545 39.6567 29.568 39.4909 29.7076 39.3076C29.8429 39.12 30.0044 38.8451 30.0567 38.6967C30.1135 38.544 30.2269 38.2821 30.3055 38.1163C30.384 37.9461 30.4931 37.7105 30.5455 37.5927C30.5978 37.4705 30.7069 37.2349 30.7898 37.0647C31.0691 36.4625 31.1825 36.1963 31.2393 36C31.3004 35.7861 31.4531 35.2625 31.5055 35.0836C31.5229 35.0225 31.5622 34.8654 31.5884 34.7345C31.6407 34.5032 31.6931 34.3331 31.7673 34.1454C31.9593 33.6741 32.0727 33.3469 32.0727 33.2858C32.0727 33.2465 32.0945 33.1985 32.1164 33.1854C32.1425 33.1723 32.16 33.12 32.16 33.072C32.16 33.0283 32.1775 32.9541 32.1993 32.9105C32.304 32.7054 32.3302 32.6138 32.4611 32.016C32.6269 31.2872 32.6095 29.6814 32.4305 29.0051C32.4044 28.9134 32.2909 28.6472 32.1775 28.416C31.9942 28.0494 31.9113 27.936 31.5185 27.5476C31.2742 27.3032 30.9644 27.0283 30.8291 26.9411C30.6982 26.8538 30.5891 26.7578 30.5891 26.7272C30.5891 26.7011 30.6284 26.5963 30.6764 26.496C30.7244 26.4 30.7636 26.2952 30.7636 26.2691C30.7636 26.2167 30.9775 25.536 31.1171 25.1563C31.1564 25.0341 31.2175 24.8596 31.248 24.7636C31.2742 24.6676 31.3135 24.5498 31.3309 24.5018C31.3527 24.4538 31.3876 24.3447 31.4182 24.2618C31.4487 24.1789 31.488 24.0698 31.5055 24.0218C31.5229 23.9738 31.5622 23.8647 31.5927 23.7818C31.6233 23.6989 31.6625 23.5898 31.6844 23.5418C31.7018 23.4938 31.7804 23.2581 31.8589 23.0181C31.9331 22.7781 32.0116 22.5425 32.0291 22.4945C32.0465 22.4465 32.1076 22.2589 32.16 22.08C32.2124 21.901 32.2735 21.7134 32.2909 21.6654C32.3127 21.6174 32.3869 21.4123 32.4655 21.2072C32.544 21.0021 32.6269 20.7883 32.6487 20.7272C32.7404 20.509 32.7665 20.4392 32.8189 20.269C32.8495 20.173 32.8887 20.0727 32.9018 20.0509C32.9193 20.0247 32.9542 19.92 32.9847 19.8109C33.0153 19.7018 33.0589 19.5752 33.0764 19.5272C33.0938 19.4792 33.1331 19.3614 33.1593 19.2654C33.2116 19.0952 33.2335 19.0341 33.3295 18.8072C33.3513 18.7461 33.3949 18.6283 33.4255 18.5454C33.456 18.4625 33.4953 18.3534 33.5171 18.3054C33.5345 18.2574 33.6131 18.0218 33.6916 17.7818C33.7658 17.5418 33.8444 17.3105 33.8662 17.2712C33.888 17.2276 33.9055 17.1578 33.9055 17.1141C33.9055 17.0705 33.9229 17.0181 33.9404 16.992C33.9622 16.9701 34.0015 16.8654 34.032 16.7563C34.0625 16.6472 34.1062 16.525 34.128 16.4858C34.1498 16.4421 34.1673 16.368 34.1673 16.32C34.1673 16.272 34.1847 16.1978 34.2065 16.1541C34.2284 16.1149 34.2676 15.9927 34.2982 15.8836C34.3287 15.7745 34.368 15.6523 34.3898 15.613C34.4116 15.5694 34.4291 15.4952 34.4291 15.4516C34.4291 15.4036 34.4509 15.3512 34.4727 15.3381C34.4989 15.325 34.5164 15.2727 34.5164 15.2247C34.5164 15.181 34.5338 15.1069 34.5556 15.0632C34.5775 15.024 34.6167 14.9018 34.6473 14.7927C34.6778 14.6836 34.7171 14.5614 34.7389 14.5221C34.7607 14.4785 34.7782 14.3956 34.7782 14.3389C34.7782 14.2778 34.7956 14.221 34.8175 14.208C34.8393 14.1949 34.8655 14.1207 34.8785 14.0421C34.9178 13.8065 34.9571 13.6407 34.9964 13.549C35.0182 13.501 35.0444 13.4138 35.0618 13.3527C35.0749 13.2916 35.1098 13.1738 35.136 13.0909C35.28 12.5847 35.3673 11.8036 35.3629 10.9527C35.3629 10.224 35.3193 9.74832 35.2538 9.70469C35.232 9.69159 35.2145 9.65232 35.2145 9.61305C35.2145 9.46905 34.8436 8.79705 34.6429 8.57887C34.1978 8.09014 33.4909 7.6145 32.9891 7.46614C32.88 7.43559 32.7491 7.39196 32.6924 7.37014C32.5658 7.31778 31.4531 7.31778 31.3222 7.37014C31.2655 7.39196 31.1433 7.43123 31.0473 7.45741C30.4756 7.63196 29.8516 8.11632 29.5156 8.64432C29.4502 8.74905 29.2844 9.0065 29.1491 9.21596C28.8611 9.64796 28.4815 10.3767 28.1324 11.1709C27.8487 11.8123 27.3775 12.7854 27.1724 13.1563C26.9629 13.5403 26.3433 15.2683 26.1556 16.0145C25.9767 16.717 25.8764 17.0181 25.7062 17.3629C25.5404 17.7032 25.3135 18.384 25.2218 18.8072C25.0822 19.4618 25.008 19.584 24.5498 19.9549C24.4582 20.0334 24.3535 20.125 24.3142 20.16C24.2662 20.208 24.1571 20.2254 23.9302 20.221C23.6771 20.2167 23.5898 20.1992 23.472 20.112C23.088 19.8458 22.9004 19.501 22.6473 18.589C22.6167 18.48 22.5775 18.3447 22.56 18.2836C22.464 17.9738 22.3287 17.389 22.2109 16.7781C22.1542 16.4814 22.1062 16.2589 22.0407 15.9709C21.9927 15.7614 21.9665 15.6261 21.9055 15.3163C21.8836 15.2072 21.8444 15.0196 21.8182 14.9018C21.7484 14.5614 21.6873 14.2254 21.6436 13.9636C21.552 13.3701 21.504 13.0472 21.4691 12.7854C21.4342 12.5061 21.3818 12.1701 21.2945 11.6945C21.2684 11.5636 21.2291 11.3018 21.2073 11.1141C21.1811 10.9309 21.1462 10.6254 21.12 10.4378C21.0327 9.77014 20.8844 8.96287 20.7709 8.5745C20.7447 8.4785 20.7011 8.31269 20.6836 8.20359C20.6356 7.95487 20.5702 7.67123 20.5091 7.41814C20.4829 7.30905 20.4436 7.14323 20.4218 7.04723C20.4 6.95123 20.3607 6.79414 20.3345 6.69814C20.3084 6.60214 20.2735 6.47123 20.2604 6.40141C20.2473 6.33596 20.2211 6.2705 20.1993 6.25741C20.1775 6.24432 20.16 6.20069 20.16 6.15705C20.16 6.11341 20.1338 6.02178 20.0989 5.95196C20.064 5.88214 20.0073 5.75123 19.968 5.65959C19.8196 5.31487 19.7629 5.20141 19.5622 4.8785C19.2262 4.32869 18.9862 4.02759 18.7418 3.83996C18.6196 3.74396 18.4931 3.66541 18.4669 3.66541C18.4364 3.66541 18.4145 3.64359 18.4145 3.62178C18.4145 3.59559 18.3753 3.57814 18.3316 3.57814C18.2836 3.57814 18.2356 3.56069 18.2225 3.53887C18.1964 3.49959 18.0916 3.47341 17.6509 3.39923C17.3062 3.33814 16.1978 3.31196 16.0582 3.35996ZM17.4982 4.7345C17.8342 4.79996 18.0742 4.98759 18.2444 5.31487C18.2793 5.38032 18.3316 5.45887 18.3622 5.49378C18.3927 5.52432 18.4538 5.62905 18.4931 5.72069C18.5324 5.81669 18.5804 5.89087 18.5978 5.89087C18.6196 5.89087 18.6327 5.91705 18.6327 5.95196C18.6327 6.00432 18.6938 6.14396 18.8553 6.46687C18.8771 6.5105 18.8945 6.57596 18.8945 6.61087C18.8945 6.64578 18.912 6.71123 18.9338 6.75487C18.9556 6.79414 18.9949 6.91632 19.0255 7.02541C19.0516 7.1345 19.0953 7.28287 19.1171 7.35705C19.1389 7.43123 19.1564 7.54032 19.1564 7.60578C19.1564 7.66687 19.1738 7.72796 19.1956 7.74105C19.2175 7.75414 19.2436 7.84141 19.2567 7.92869C19.3047 8.24287 19.3658 8.5265 19.5098 9.09814C19.6451 9.63487 19.7673 10.368 19.8545 11.149C19.8938 11.5287 19.9331 11.7643 20.0291 12.2618C20.0553 12.3927 20.0945 12.6501 20.1164 12.829C20.1382 13.008 20.1775 13.2741 20.1993 13.4181C20.2211 13.5621 20.2604 13.8152 20.2865 13.9854C20.3738 14.544 20.4436 14.9105 20.5484 15.4036C20.5702 15.5127 20.6095 15.709 20.64 15.84C20.6662 15.9709 20.7055 16.1672 20.7316 16.2763C20.7709 16.4596 20.7927 16.56 20.9062 17.1141C20.928 17.2407 20.9585 17.424 20.976 17.52C20.9891 17.616 21.0153 17.712 21.0371 17.7338C21.0589 17.76 21.0764 17.8254 21.0764 17.8865C21.0764 17.9432 21.0938 18.0523 21.1156 18.1265C21.1375 18.2007 21.1811 18.349 21.2073 18.4581C21.2378 18.5672 21.2771 18.7025 21.2945 18.7636C21.312 18.8247 21.3513 18.96 21.3818 19.069C21.408 19.1781 21.4516 19.3003 21.4735 19.3396C21.4953 19.3832 21.5127 19.4574 21.5127 19.501C21.5127 19.549 21.5345 19.6014 21.5564 19.6145C21.5825 19.6276 21.6 19.6712 21.6 19.7061C21.6 19.7978 21.8487 20.317 22.0102 20.5527C22.1498 20.7621 22.2851 20.8974 22.5164 21.0763C22.5949 21.1374 22.6822 21.2029 22.7084 21.229C22.7607 21.2727 22.8873 21.3469 23.04 21.4254C23.088 21.4472 23.1665 21.4865 23.2145 21.5127C23.2582 21.5345 23.5898 21.5563 23.9433 21.5607C24.7113 21.5738 24.6807 21.5825 25.3702 21.0327C25.6756 20.7883 26.0247 20.4218 26.1338 20.2298C26.2909 19.9505 26.448 19.488 26.592 18.877C26.6618 18.5847 26.784 18.2312 26.9193 17.9389C27.1331 17.4894 27.3164 16.9265 27.4909 16.2109C27.5695 15.8836 27.648 15.6523 28.0931 14.4087C28.1935 14.1381 28.3462 13.7847 28.4378 13.6232C28.5251 13.4618 28.6822 13.165 28.7825 12.96C28.9527 12.6065 29.0269 12.4494 29.2407 11.965C29.5375 11.2974 29.8865 10.5774 30.0393 10.3156C30.2967 9.87487 30.768 9.20723 30.9207 9.05887C31.536 8.48723 32.5178 8.51778 33.2727 9.13741C33.6873 9.47778 33.8444 9.70905 33.9884 10.189C34.0495 10.3898 34.0276 11.6552 33.9535 12.1527C33.9142 12.432 33.888 12.5541 33.7702 12.9469C33.6829 13.261 33.6349 13.4269 33.6 13.5709C33.5127 13.92 33.4778 14.0378 33.1636 15.0109C33.0764 15.2858 32.976 15.6 32.9455 15.709C32.8582 16.0014 32.208 17.9869 32.1644 18.0872C32.0815 18.2749 31.8633 18.8814 31.8109 19.069C31.7804 19.1781 31.7236 19.3614 31.68 19.4836C31.4967 19.981 31.3265 20.448 31.2916 20.5309C31.1302 20.9018 30.9731 21.3469 30.7636 22.0363C30.6851 22.2894 30.4625 22.957 30.2618 23.52C30.0611 24.0829 29.7993 24.8552 29.6771 25.2349C29.5549 25.6145 29.4327 25.9636 29.4109 26.0116C29.3629 26.0945 29.2582 26.0945 29.04 26.0072C28.992 25.9898 28.8044 25.9287 28.6255 25.872C28.4465 25.8152 28.2022 25.7192 28.08 25.6581C27.9622 25.597 27.744 25.501 27.6 25.4443C27.456 25.3876 27.2945 25.3265 27.2422 25.3047C27.1855 25.2829 27.0938 25.2436 27.0327 25.2218C26.9716 25.1956 26.8713 25.1563 26.8058 25.1301C26.5964 25.0429 26.5135 25.0167 26.3127 24.96C25.9331 24.8552 25.8415 24.8203 25.2 24.5454C25.104 24.5061 24.9818 24.4538 24.9295 24.432C24.6764 24.3316 24.5847 24.2923 24.5149 24.2574C24.4713 24.2356 24.4058 24.2181 24.3709 24.2181C24.336 24.2181 24.2662 24.1963 24.2182 24.1745C24.1702 24.1483 24.0916 24.109 24.0436 24.0872C23.9956 24.061 23.9171 24.0436 23.8735 24.0436C23.8255 24.0436 23.7731 24.0218 23.76 24C23.7469 23.9738 23.6945 23.9563 23.6465 23.9563C23.6029 23.9563 23.5287 23.9389 23.4851 23.917C23.4022 23.8734 23.1927 23.7861 23.0618 23.7381C23.0138 23.7207 22.9178 23.6814 22.8436 23.6509C22.3942 23.4632 22.2415 23.4327 21.6742 23.4327C21.3644 23.4327 21.072 23.4545 21.0022 23.4807C20.6182 23.6378 20.1295 23.9083 19.9593 24.0567C19.6756 24.3054 19.2436 24.9556 19.2436 25.1345C19.2436 25.1781 19.2262 25.2261 19.2044 25.2392C19.0647 25.3265 19.0647 27.168 19.2044 27.2552C19.2262 27.2683 19.2436 27.3338 19.2436 27.4036C19.2436 27.4734 19.2655 27.5432 19.2873 27.5563C19.3135 27.5694 19.3309 27.6218 19.3309 27.6698C19.3309 27.7134 19.3484 27.7876 19.3702 27.8312C19.392 27.8705 19.4531 28.0014 19.5098 28.1236C19.5665 28.2414 19.6276 28.3461 19.6495 28.3549C19.6669 28.3636 19.68 28.3985 19.68 28.4334C19.68 28.5469 20.3913 29.2189 20.8102 29.5025C21.0327 29.6509 21.3556 29.9083 21.5302 30.0654C22.0015 30.5105 22.1062 30.5891 22.6473 30.96C23.2189 31.3527 23.7818 31.7716 23.856 31.8632C23.8865 31.8938 23.8953 31.9418 23.8778 31.968C23.8429 32.0247 23.3542 32.3389 22.9527 32.5745C22.3811 32.9061 22.0756 33.1985 21.6393 33.8487C21.264 34.4072 21.0545 34.7738 20.9411 35.0705C20.8495 35.3105 20.7316 35.5941 20.6662 35.7338C20.64 35.7905 20.6182 35.9476 20.6225 36.0829C20.6225 36.4974 20.832 36.7112 21.2553 36.7156C21.6393 36.72 21.8487 36.528 22.0189 36.0131C22.224 35.3803 22.8305 34.368 23.2015 34.032C23.3455 33.9011 23.8778 33.5563 23.9345 33.5563C23.9433 33.5563 24.1004 33.456 24.288 33.3338C24.6502 33.0938 25.0255 32.9018 25.1389 32.9018C25.1782 32.9018 25.3615 33.0283 25.5491 33.1854C26.0204 33.5738 26.4742 33.8792 26.6924 33.9491C26.8451 33.9971 26.9149 33.9971 27.0633 33.9491C27.4604 33.8312 27.6044 33.6305 27.5695 33.2421C27.5476 33.0458 27.5215 32.9978 27.3687 32.8625C27.2727 32.7752 27.0807 32.6312 26.9367 32.544C26.7971 32.4567 26.4393 32.1774 26.1382 31.92C25.8371 31.6625 25.4269 31.3309 25.2218 31.1869C25.0167 31.0385 24.72 30.816 24.5585 30.6851C24.3971 30.5541 23.9607 30.24 23.5898 29.9825C23.2189 29.7251 22.8305 29.4414 22.7258 29.3454C22.6211 29.2538 22.416 29.0661 22.272 28.9265C22.1236 28.7912 21.84 28.5731 21.6393 28.4378C21.1767 28.1323 20.9236 27.9141 20.8451 27.7614C20.8145 27.696 20.7622 27.6 20.736 27.5476C20.6138 27.3163 20.5964 27.2683 20.5964 27.1898C20.5964 27.1418 20.5789 27.0938 20.5571 27.0807C20.4567 27.0152 20.3913 26.1251 20.4655 25.789C20.5353 25.4661 20.5876 25.3658 20.7927 25.1563C21.0633 24.877 21.3207 24.7723 21.7091 24.7723C21.888 24.7723 22.0887 24.7985 22.1585 24.829C22.224 24.8596 22.3156 24.8989 22.3636 24.9163C22.4465 24.9469 22.5818 25.0036 22.7913 25.0865C22.8436 25.1127 23.0749 25.1912 23.3018 25.2654C23.7076 25.3963 23.856 25.453 24.0087 25.5316C24.0524 25.5534 24.1047 25.5709 24.1309 25.5709C24.1571 25.5709 24.2705 25.6101 24.384 25.6625C24.4975 25.7149 24.6284 25.7716 24.6764 25.789C24.7244 25.8065 24.8509 25.8632 24.96 25.9112C25.0691 25.9592 25.3527 26.0596 25.5927 26.1381C25.8327 26.2167 26.2255 26.3563 26.4655 26.448C26.7055 26.544 26.9193 26.6181 26.9367 26.6181C26.9542 26.6181 27.1767 26.7141 27.4298 26.8363C27.6829 26.9541 27.9142 27.0545 27.9447 27.0545C27.9709 27.0545 28.0145 27.072 28.0407 27.0894C28.0625 27.1112 28.1673 27.1505 28.2764 27.1854C28.7476 27.3207 28.8829 27.3774 29.3193 27.6087C30 27.9709 30.096 28.0363 30.4931 28.4247C31.0996 29.0138 31.2436 29.4371 31.2436 30.6327C31.2393 31.5316 31.0647 32.2865 30.5498 33.5694C30.4756 33.7527 30.3447 34.1672 30.2618 34.4858C29.9825 35.5461 29.904 35.8036 29.7905 36.0305C29.6684 36.2705 29.1578 37.392 28.9047 37.9767C28.8218 38.1643 28.6953 38.4087 28.6167 38.5221C28.3244 38.9367 27.9229 39.6087 27.7745 39.9272C27.6873 40.1061 27.5956 40.2938 27.5695 40.3418C27.5389 40.3898 27.4735 40.512 27.4167 40.6167C27.2945 40.8436 27.1898 40.9527 26.9018 41.1491C26.784 41.2276 26.6749 41.3105 26.6618 41.3236C26.6487 41.3367 26.544 41.4152 26.4218 41.4981C26.304 41.5811 26.1949 41.6552 26.1818 41.6683C26.1687 41.6858 26.064 41.7425 25.9418 41.7992C25.824 41.856 25.6058 41.9563 25.4662 42.0261C25.3265 42.096 25.1738 42.1527 25.1302 42.1527C25.0865 42.1527 25.0385 42.1701 25.0255 42.1963C25.0124 42.2181 24.9425 42.24 24.8727 42.24C24.8029 42.24 24.7331 42.2618 24.72 42.2836C24.7069 42.3098 24.6153 42.3272 24.5236 42.3272C24.432 42.3272 24.3447 42.3447 24.3316 42.3665C24.3185 42.3883 24.2444 42.4145 24.1658 42.4276C24.0873 42.4407 23.9258 42.4756 23.8036 42.5018C23.6858 42.528 23.4895 42.5672 23.3673 42.5891C23.2495 42.6109 23.0531 42.6458 22.9309 42.672C22.8131 42.6938 22.6342 42.7243 22.5382 42.7418C22.4422 42.7592 22.3244 42.7854 22.2764 42.8072C22.1716 42.8509 22.0495 42.8771 21.5564 42.96C21.1113 43.0341 19.1564 43.0516 19.0255 42.9818C18.9818 42.96 18.8771 42.9381 18.7985 42.9381C18.7156 42.9381 18.6327 42.9207 18.6109 42.8989C18.5847 42.8771 18.4887 42.8509 18.3927 42.8378C18.0916 42.7941 17.9171 42.7592 17.8255 42.72C17.7775 42.6981 17.6902 42.672 17.6291 42.6589C17.568 42.6501 17.4415 42.6152 17.3455 42.5891C17.2495 42.5585 17.1055 42.528 17.0269 42.5149C16.9484 42.5018 16.8742 42.4756 16.8611 42.4538C16.848 42.432 16.7956 42.4145 16.7476 42.4145C16.6953 42.4145 16.5949 42.3971 16.5207 42.3752C16.4465 42.3534 16.2982 42.3098 16.1891 42.2836C16.08 42.2531 15.9578 42.2138 15.9185 42.192C15.8749 42.1701 15.8007 42.1527 15.7571 42.1527C15.7091 42.1527 15.6567 42.1309 15.6436 42.1091C15.6305 42.0829 15.5695 42.0654 15.5127 42.0654C15.456 42.0654 15.3949 42.0436 15.3818 42.0218C15.3687 41.9956 15.3076 41.9781 15.2509 41.9781C15.1942 41.9781 15.1331 41.9563 15.12 41.9345C15.1069 41.9083 15.0545 41.8909 15.0065 41.8909C14.9629 41.8909 14.9236 41.8691 14.9236 41.8472C14.9236 41.8211 14.8975 41.8036 14.8713 41.8036C14.8407 41.8036 14.6182 41.7076 14.3782 41.5898C14.1382 41.472 13.7847 41.3018 13.5927 41.2101C13.2349 41.04 13.2218 41.0269 12.0524 39.9054C11.6509 39.5214 11.4153 39.2291 11.2364 38.9018C11.1709 38.7796 11.0356 38.544 10.9353 38.3781C10.8349 38.208 10.7345 38.0247 10.7084 37.9636C10.6211 37.7672 10.5687 37.6363 10.5164 37.4836C10.4858 37.4007 10.4247 37.248 10.3811 37.1476C10.3331 37.0429 10.2982 36.9338 10.2982 36.9032C10.2982 36.8683 10.2851 36.8291 10.2676 36.8116C10.2196 36.768 10.128 36.3927 10.1236 36.2487C10.1236 36.1309 10.1324 36.1265 10.2633 36.1527C10.3418 36.1701 10.4291 36.1963 10.4509 36.2138C10.6647 36.3447 11.2407 36.3927 11.616 36.3054C11.7207 36.2836 11.952 36.24 12.1309 36.2138C12.6415 36.1309 12.8509 36.0131 13.344 35.5331C13.92 34.9658 14.0771 34.7214 14.16 34.2414C14.1775 34.1367 14.208 34.08 14.256 34.08C14.3084 34.08 14.6793 34.3505 14.7927 34.4727C14.8058 34.4858 14.9018 34.5643 15.0109 34.6472C15.12 34.7301 15.216 34.8087 15.2291 34.8261C15.2815 34.896 15.6655 35.0312 15.9273 35.0792C16.3636 35.1534 17.0182 35.1796 17.2364 35.136C17.9738 34.9789 18.8204 34.7345 19.0953 34.5992C19.4138 34.4421 19.8109 33.984 19.8109 33.7789C19.8109 33.7309 19.8284 33.6829 19.8502 33.6698C19.9636 33.6 20.0073 31.5316 19.9069 31.1345C19.8764 31.0123 19.8371 30.8552 19.8284 30.7854C19.8153 30.7112 19.7891 30.6152 19.7673 30.5672C19.7455 30.5192 19.7193 30.4101 19.7018 30.3272C19.6756 30.1701 19.632 29.9476 19.5491 29.5636C19.5273 29.4414 19.4924 29.2712 19.4793 29.1796C19.4618 29.088 19.4313 29.0051 19.4138 28.992C19.392 28.9789 19.3745 28.9309 19.3745 28.8829C19.3745 28.8392 19.3571 28.7651 19.3353 28.7214C19.3135 28.6821 19.2785 28.5992 19.2524 28.5381C19.2305 28.4771 19.0909 28.1847 18.9425 27.8836C18.7942 27.5825 18.6764 27.312 18.6764 27.2814C18.6764 27.2509 18.6589 27.1941 18.6371 27.1505C18.6153 27.1112 18.576 27.0152 18.5455 26.9454C18.5149 26.8712 18.4756 26.7796 18.4538 26.7403C18.432 26.6967 18.4145 26.6312 18.4145 26.5963C18.4145 26.5614 18.3927 26.4872 18.3622 26.4305C18.2575 26.2254 18.24 26.1818 18.24 26.1163C18.24 26.0814 18.2225 26.016 18.2007 25.9723C18.1789 25.933 18.1396 25.837 18.1091 25.7672C18.0785 25.693 18.0393 25.6014 18.0175 25.5621C17.9956 25.5185 17.9782 25.453 17.9782 25.4181C17.9782 25.3832 17.9564 25.309 17.9258 25.2523C17.8211 25.0472 17.8036 25.0036 17.8036 24.9381C17.8036 24.9032 17.7818 24.829 17.7513 24.7723C17.6465 24.5672 17.6291 24.5236 17.6291 24.4581C17.6291 24.4232 17.6116 24.3578 17.5898 24.3141C17.568 24.2749 17.5287 24.1876 17.5025 24.1178C17.4764 24.0523 17.4327 23.9476 17.4065 23.8778C17.376 23.8123 17.3411 23.7207 17.3236 23.6727C17.3062 23.6247 17.2495 23.4981 17.2015 23.389C16.9702 22.8741 16.9309 22.7738 16.9309 22.7127C16.9309 22.6778 16.9135 22.6472 16.8873 22.6472C16.8655 22.6472 16.8436 22.608 16.8436 22.5643C16.8436 22.5163 16.8262 22.464 16.8 22.4509C16.7782 22.4378 16.7564 22.3767 16.7564 22.32C16.7564 22.2632 16.7389 22.2065 16.7171 22.1934C16.6953 22.1803 16.6647 22.0974 16.6516 22.0145C16.6385 21.9316 16.6124 21.792 16.5993 21.709C16.5862 21.6261 16.5556 21.5432 16.5338 21.5301C16.512 21.517 16.4945 21.469 16.4945 21.421C16.4945 21.3774 16.4771 21.3032 16.4553 21.2596C16.4335 21.2203 16.3942 21.1243 16.3636 21.0545C16.3331 20.9803 16.2938 20.8887 16.272 20.8494C16.2502 20.8058 16.2327 20.7316 16.2327 20.688C16.2327 20.64 16.2153 20.5876 16.1891 20.5745C16.1673 20.5614 16.1455 20.5003 16.1455 20.4436C16.1455 20.3869 16.128 20.3258 16.1018 20.3127C16.0451 20.2778 16.0451 20.016 16.1062 19.9549C16.224 19.837 16.0145 18.0436 15.7964 17.3018C15.7658 17.2058 15.7265 16.9876 15.7047 16.8218C15.6218 16.1105 15.5084 15.2421 15.4473 14.8363C15.4211 14.6792 15.3862 14.3869 15.36 14.1818C15.3382 13.9767 15.2989 13.7018 15.2727 13.5709C15.2029 13.1825 15.1375 12.7069 15.0982 12.2181C15.0764 11.965 15.0371 11.5723 15.0109 11.3454C14.9847 11.1185 14.9455 10.7432 14.9236 10.5163C14.9018 10.2894 14.8625 9.95341 14.8364 9.7745C14.7535 9.15923 14.7011 7.72796 14.7491 7.26541C14.8189 6.57596 14.8407 6.44069 14.88 6.34905C14.9018 6.30105 14.928 6.19632 14.9411 6.11778C14.9542 6.04359 14.9804 5.91269 14.9935 5.83414C15.0327 5.61159 15.1942 5.31487 15.3556 5.15778C15.4996 5.02687 15.8662 4.82614 16.1673 4.72141C16.3025 4.67341 17.2276 4.68214 17.4982 4.7345ZM14.0378 19.6887C14.3389 19.824 14.6967 20.3127 14.832 20.7709C14.8625 20.88 14.9105 21.0152 14.9324 21.0763C15.0022 21.2421 15.0415 21.3425 15.0982 21.5127C15.1287 21.5956 15.168 21.7047 15.1855 21.7527C15.2422 21.888 15.3033 22.0843 15.36 22.2981C15.4735 22.7432 15.4953 22.8087 15.6218 23.1054C15.6524 23.1752 15.696 23.28 15.7135 23.3323C15.7964 23.5505 15.8356 23.6421 15.9665 23.9214C16.0407 24.0829 16.1018 24.2312 16.1018 24.2487C16.1018 24.2705 16.1411 24.3709 16.1891 24.4712C16.2371 24.5672 16.2764 24.6763 16.2764 24.7112C16.2764 24.7418 16.2938 24.7854 16.3113 24.8072C16.3287 24.8334 16.3724 24.9294 16.4029 25.0254C16.4596 25.2087 16.5207 25.3658 16.5862 25.4923C16.608 25.536 16.6255 25.6014 16.6255 25.6363C16.6255 25.7018 16.6429 25.7454 16.7476 25.9505C16.7782 26.0072 16.8 26.0814 16.8 26.1163C16.8 26.1512 16.8175 26.2167 16.8393 26.2603C16.8611 26.2996 16.9004 26.3912 16.9309 26.4654C16.9615 26.5352 17.0007 26.6312 17.0225 26.6705C17.0444 26.7141 17.0618 26.784 17.0618 26.8276C17.0618 26.8712 17.0793 26.9236 17.0967 26.9498C17.1142 26.9716 17.1578 27.0676 17.1884 27.1636C17.2451 27.3469 17.3062 27.504 17.3716 27.6305C17.3935 27.6741 17.4109 27.7309 17.4109 27.7527C17.4109 27.7789 17.4502 27.8836 17.4982 27.9796C17.5462 28.08 17.5855 28.1847 17.5855 28.2152C17.5855 28.2458 17.5985 28.2763 17.6204 28.2851C17.6509 28.2981 17.9084 28.8131 17.9782 28.9963C17.9956 29.0443 18.0305 29.1316 18.0567 29.1927C18.1353 29.3891 18.1658 29.472 18.2007 29.6596C18.2225 29.7643 18.2618 29.9389 18.2836 30.0523C18.3098 30.1701 18.3491 30.3491 18.3709 30.4581C18.4102 30.6676 18.4713 30.912 18.5542 31.2087C18.5804 31.3134 18.6109 31.7192 18.6196 32.1163C18.6415 32.9541 18.5847 33.3076 18.4233 33.4167C18.3665 33.4516 18.0218 33.5607 17.6596 33.6523C17.0487 33.8094 16.9658 33.8225 16.5949 33.8007C16.3724 33.7832 16.1411 33.7527 16.08 33.7309C15.7265 33.5956 14.6618 32.5701 14.2255 31.9418C14.1687 31.8589 14.1076 31.7803 14.0945 31.7672C14.0509 31.7367 13.44 30.816 13.44 30.7854C13.44 30.7723 13.4007 30.6807 13.3571 30.576C13.2436 30.3272 13.2262 30.2661 13.1258 29.8909C12.9731 29.2974 12.9556 29.2407 12.8727 29.04C12.7985 28.8567 12.5629 28.3374 12.5149 28.2545C12.3491 27.9665 12.2182 27.6872 12.0916 27.36C12.0131 27.1549 11.9302 26.9498 11.9084 26.9018C11.8909 26.8538 11.8255 26.6661 11.7644 26.4872C11.5985 25.981 11.4938 25.728 11.1709 25.069C10.7782 24.2661 10.7171 24.1047 10.5382 23.3978C10.4509 23.0705 10.368 22.7607 10.3462 22.7127C10.2284 22.4378 10.2109 22.3505 10.2109 22.0363C10.2109 21.7178 10.2284 21.6305 10.3549 21.3381C10.5033 20.9978 10.8611 20.5963 11.1535 20.4392C11.2495 20.3912 11.3935 20.3083 11.4807 20.256C11.8516 20.0465 12.1745 19.8981 12.2575 19.8981C12.2967 19.8981 12.3491 19.8807 12.3753 19.8632C12.3971 19.8414 12.5018 19.8021 12.6109 19.7716C12.72 19.741 12.8465 19.6974 12.8945 19.68C13.0342 19.6189 13.9025 19.6276 14.0378 19.6887ZM8.20364 23.2014C8.43055 23.232 8.66182 23.3498 8.80582 23.5156C8.93673 23.6596 9.85746 25.5229 10.0145 25.9636C10.08 26.1425 10.1673 26.4087 10.2109 26.5527C10.3113 26.8887 10.5076 27.408 10.7127 27.9054C10.9309 28.4334 11.3018 29.3803 11.3018 29.4196C11.3018 29.4371 11.3498 29.5549 11.4065 29.6814C11.4633 29.808 11.5549 30.0087 11.6073 30.1309C11.664 30.2487 11.7905 30.5323 11.8953 30.7549C12 30.9818 12.0873 31.1825 12.0873 31.2043C12.0873 31.2261 12.1047 31.2785 12.1265 31.3221C12.1484 31.3614 12.2095 31.5141 12.2618 31.6581C12.3142 31.8021 12.3927 32.016 12.4407 32.1338C12.4844 32.2516 12.5236 32.3738 12.5236 32.4043C12.5236 32.4392 12.5411 32.5003 12.5629 32.544C12.6109 32.6356 12.7244 33.0632 12.8335 33.5651C12.9164 33.9621 12.8465 34.1367 12.4407 34.5338C12.1091 34.8567 12.0611 34.8785 11.7164 34.9309C11.0836 35.0181 11.0705 35.0181 10.5731 34.8174C10.0407 34.608 10.0145 34.5905 9.54764 34.2414C9.04582 33.8661 8.58327 33.264 8.352 32.6792C8.30836 32.5745 8.208 32.3694 8.12946 32.2254C8.04655 32.0814 7.90255 31.7978 7.80655 31.5927C7.71055 31.392 7.56218 31.1432 7.47927 31.0385C7.09964 30.576 6.45382 28.9134 6.20073 27.7527C6.17018 27.6218 6.12655 27.4254 6.10473 27.3163C6.07855 27.2072 6.04364 27.0414 6.02182 26.9454C5.87782 26.3083 5.84727 25.261 5.95636 24.7898C6.02182 24.5149 6.21382 24.109 6.36218 23.9301C6.56291 23.6901 7.04727 23.3978 7.46182 23.2669C7.54473 23.2407 7.67564 23.197 7.74546 23.1752C7.81964 23.1534 7.90691 23.1447 7.94182 23.1534C7.97673 23.1665 8.09455 23.1883 8.20364 23.2014Z" fill="#2E70F2" stroke="#2E70F2" stroke-width="0.5"/>
</svg>
