<svg viewBox="0 0 48 48" fill="none" xmlns="http://www.w3.org/2000/svg">
<path d="M13.8009 14.7615L13.8369 14.5097C13.8369 14.5097 14.0199 13.6741 14.3867 13.3142C14.7174 12.9896 15.4554 12.7987 15.4554 12.7987C15.4811 12.8142 16.5807 12.8296 17.9114 12.8347C20.5165 12.8501 24.6115 12.7628 26.1787 12.66C27.9924 12.5418 35.9668 12.6035 38.5102 12.7525C40.4472 12.8707 42.3432 12.9426 42.3792 12.9118C42.3792 12.9118 42.7992 13.0084 43.5648 13.661C44.3303 14.3135 44.4909 14.8334 44.4909 14.8334C44.5474 15.0338 44.717 15.3729 45.2822 16.4263C45.8166 17.4282 46.4229 19.0878 46.6284 20.1C46.9829 21.8624 47.1473 24.4469 46.9675 25.4693C46.6746 27.1598 46.4588 27.874 45.8525 29.1791C45.6727 29.5644 45.5237 29.8933 45.5237 29.9138C45.5237 30.0525 44.8403 31.3011 44.2854 32.1746C44.1569 32.3698 44.0182 32.6165 43.972 32.7141C43.823 33.0378 43.4119 33.9061 43.0728 34.6152C42.5795 35.648 42.225 36.542 41.7729 37.8933C41.5519 38.5664 41.3053 39.2703 41.2231 39.4707C41.1409 39.666 41.0176 40.0256 40.9559 40.2671C40.8891 40.5086 40.7915 40.8529 40.7401 41.0378C40.6887 41.2228 40.5808 41.7161 40.4935 42.1425C40.3496 42.8824 40.2982 43.2215 40.1749 44.1721C40.1081 44.7219 39.9591 44.9942 39.6508 45.1432C39.3734 45.2768 39.2398 45.2768 38.9674 45.1432C38.6335 44.9839 38.5204 44.763 38.5256 44.28C38.5461 42.9903 39.2038 39.9743 39.7382 38.7103C39.8358 38.4791 39.9642 38.1399 40.0208 37.955C40.6322 36.0641 41.0021 35.1085 41.6341 33.7931C41.8448 33.3564 42.1582 32.7038 42.3278 32.3441C42.4973 31.9896 42.8056 31.4193 43.0163 31.0853C43.6606 30.0656 43.6837 30.0126 44.5151 28.1123L44.5474 28.0384C44.83 27.3961 44.8968 27.206 45.0613 26.5586C45.4826 24.9144 45.4723 23.0339 45.015 20.4854C44.9174 19.951 44.753 19.4218 44.4139 18.5534C44.1056 17.7622 43.9617 17.459 43.3297 16.2721C43.2218 16.0614 43.0522 15.6915 42.9546 15.45C42.8621 15.2085 42.7285 14.9311 42.6669 14.8283C42.5539 14.6485 42.5436 14.6433 42.1222 14.6074C41.8859 14.5868 41.2128 14.5508 40.6168 14.5252C40.0259 14.4995 39.0548 14.4584 38.4588 14.4275C36.8351 14.3453 32.329 14.2426 30.2378 14.2426H28.3881L28.3521 15.2702C28.3315 15.8354 28.2904 16.5958 28.2596 16.9658C28.2031 17.6954 28.1979 19.2265 28.2493 19.6376L28.2853 19.8945L28.6963 19.9305C29.1793 19.9716 29.4671 20.0589 30.0477 20.3415C30.6283 20.6241 31.3836 21.3588 31.6662 21.9086C32.0361 22.628 32.0824 22.9311 32.0875 24.6267V26.1167L31.9488 26.3274C31.6199 26.8258 30.8749 26.8309 30.5718 26.3325C30.4793 26.1784 30.469 26.0705 30.469 24.9555C30.469 23.6864 30.4022 23.0801 30.2275 22.705C30.099 22.4276 29.5698 21.9446 29.1845 21.7545C28.8558 21.5901 28.8454 21.5901 28.0551 21.5849L28.0541 21.5849C27.1652 21.5798 27.0316 21.5438 26.8055 21.2458C26.5846 20.9478 26.564 20.7063 26.5949 18.4815C26.6103 17.3357 26.6257 15.9381 26.6308 15.3729L26.6411 14.3453L25.5107 14.3607C24.889 14.371 23.9641 14.4018 23.4555 14.4275C22.9468 14.4584 20.9224 14.4892 18.9596 14.5046C16.1285 14.52 15.3938 14.5354 15.4092 14.5868C15.5017 14.9156 15.4554 15.1828 15.0803 16.5547C15.0033 16.8424 14.7309 17.8701 14.6744 18.0961C14.6539 18.1835 14.5408 18.6562 14.3867 19.3293C14.2788 19.7763 14.0784 20.8553 13.9756 21.5387C13.9191 21.9343 13.8318 22.4841 13.7855 22.7564L13.3899 25.084L13.3488 25.2638C13.3282 25.3614 13.2871 25.5721 13.2563 25.7263C13.2306 25.8804 13.1844 26.1013 13.1587 26.2144C13.0559 26.6922 12.948 27.2369 12.8247 27.9408C12.7476 28.3518 12.5986 29.138 12.4804 29.6877C11.9769 32.1386 11.7817 33.1611 11.7354 33.6492L11.6994 33.9986L11.8947 34.0808C12.0642 34.1528 12.3263 34.1579 13.7907 34.1476C15.327 34.1322 15.5119 34.1374 15.6969 34.2196C16.406 34.5381 16.4779 35.3602 15.8202 35.6942C15.6558 35.7816 15.5273 35.797 15.106 35.7918C14.8234 35.7867 14.5768 35.797 14.5614 35.8124C14.5408 35.8278 14.5562 35.9511 14.5819 36.0898C14.6128 36.2234 14.6641 36.4752 14.7001 36.6448C14.7309 36.8143 14.7772 37.0096 14.7977 37.0815C14.8183 37.1534 14.9108 37.4874 15.0033 37.8265C15.2447 38.7308 15.553 39.7071 15.7842 40.2928C15.9846 40.8015 16.0257 40.894 16.221 41.3461C16.2775 41.4746 16.3546 41.6698 16.3957 41.7829C16.5036 42.1169 17.2075 43.4476 17.4747 43.8381C18.4766 45.2871 19.1189 46.0886 19.3655 46.2068C19.7817 46.4072 21.1176 46.4123 23.0444 46.2222C23.327 46.1965 24.0001 46.1554 24.5345 46.1246C25.074 46.0989 25.7882 46.0527 26.1273 46.0218C26.898 45.9448 27.2474 45.9807 27.4735 46.1554C27.9667 46.5305 27.8999 47.1985 27.3347 47.5119C27.0881 47.6455 27.2525 47.6301 24.8684 47.7636C24.3187 47.7945 23.4503 47.8613 22.9416 47.9075C21.6212 48.0308 19.6687 48.0308 19.2165 47.9075C18.4561 47.6969 18.1683 47.4913 17.5261 46.6898C17.1664 46.2479 16.2672 45.0199 16 44.6191C15.6969 44.1618 15.0238 42.8516 14.8697 42.4251C14.7926 42.2145 14.6796 41.9216 14.6179 41.7829C14.2582 40.9967 13.7907 39.6814 13.5338 38.7514C13.0148 36.8451 12.9018 36.2748 12.9942 36.0744C13.0251 36.0025 13.0405 35.9254 13.0251 35.9049C13.0148 35.8792 12.7271 35.8483 12.3931 35.8278C11.7149 35.7867 11.4734 35.7302 11.0007 35.4938C10.6359 35.3088 10.343 35.0314 10.1991 34.7437C10.0296 34.4045 10.0604 33.382 10.2659 32.2517C10.4149 31.4501 10.6564 30.2735 10.79 29.7083C10.8157 29.5953 10.8876 29.2613 10.9441 28.9633C11.0007 28.6653 11.0675 28.3056 11.0983 28.1669C11.2062 27.5914 11.2473 27.3807 11.3038 27.0622C11.3809 26.5946 11.4631 26.1887 11.5093 26.0088C11.5299 25.9215 11.5761 25.716 11.607 25.5464L11.8125 24.416C12.054 23.1212 12.1105 22.7718 12.2287 22.0011C12.3571 21.1122 12.4291 20.6806 12.4856 20.3826C12.5113 20.2542 12.5575 20.0024 12.5883 19.8174C12.6243 19.6324 12.6705 19.4115 12.6911 19.3293C12.7117 19.2419 12.7579 19.0364 12.7939 18.8669C12.8658 18.5432 13.1484 17.4076 13.5286 15.9124C13.6571 15.4192 13.7804 14.9002 13.8009 14.7615Z"/>
<path fill-rule="evenodd" clip-rule="evenodd" d="M13.3334 25.0869L14.0476 25.0715C14.4432 25.0663 14.9313 25.0766 15.1266 25.0972L15.4862 25.1383L15.5171 25.8165C15.589 27.1833 15.9076 28.031 16.5087 28.4164C16.8273 28.6219 16.9301 28.6682 17.3617 28.8172C17.7727 28.9559 18.6359 28.9867 19.0059 28.8686C19.5197 28.7041 19.941 28.3136 20.3109 27.6765C20.6809 27.0342 20.8196 25.6726 20.7888 23.0882C20.7682 21.4542 20.758 21.2487 20.6603 20.8891C20.5987 20.6733 20.4959 20.3855 20.424 20.2468C20.2596 19.9282 19.8742 19.5583 19.5197 19.3733C19.2576 19.2397 19.1908 19.2294 18.6462 19.2294C17.968 19.2294 17.8138 19.2705 17.0996 19.6251C16.3392 20.0053 15.8973 20.5294 15.6866 21.295C15.6404 21.4594 15.589 21.9783 15.5633 22.4562C15.5376 22.9289 15.5017 23.3399 15.4862 23.3656C15.4657 23.3965 15.1009 23.417 14.5819 23.417C13.8523 23.417 13.7033 23.4067 13.6828 23.3399L13.3334 25.0869ZM19.16 23.2628C19.16 21.7522 19.088 21.1305 18.8877 20.9507C18.7489 20.8171 18.492 20.8222 18.1272 20.9661C17.4644 21.2281 17.2589 21.4902 17.2589 22.0862C17.2589 22.266 17.2229 22.785 17.1818 23.2371C17.1356 23.6841 17.115 24.126 17.1356 24.2134C17.1561 24.2956 17.1767 24.794 17.1818 25.3181C17.1921 26.5409 17.3051 27.0239 17.6031 27.1524C17.6853 27.1832 17.8909 27.2397 18.0707 27.2705C18.3584 27.3219 18.4149 27.3168 18.5537 27.2346C18.7643 27.1113 18.9288 26.7773 19.0007 26.3251C19.0983 25.6931 19.16 24.5114 19.16 23.2628Z" fill="inherit"/>
<path d="M35.7356 21.1739C35.3656 21.3435 35.1549 21.7545 35.2423 22.1399C35.304 22.4071 35.4632 22.6075 35.7253 22.741C36.0593 22.9106 36.6604 23.671 36.9636 24.2928C37.3386 25.0737 37.3489 25.6749 36.9995 26.7385C36.7323 27.5657 36.3984 28.0641 35.8691 28.4341C35.3913 28.7681 35.1549 29.0044 35.1138 29.1894C34.9443 29.9498 35.6225 30.4534 36.3316 30.0937C37.39 29.5542 38.1094 28.6396 38.5718 27.242C38.8698 26.3429 38.8698 26.3531 38.8698 25.4951C38.8698 24.5959 38.8184 24.3441 38.469 23.6197C38.058 22.7616 37.1537 21.6107 36.6142 21.2715C36.3727 21.1174 35.9565 21.0712 35.7356 21.1739Z"/>
<path d="M28.2853 0.0151065C27.7099 0.148698 27.4838 0.297703 27.3605 0.621405C27.2423 0.924554 27.2937 1.17118 27.5146 1.41781C27.751 1.67986 28.049 1.74665 28.5422 1.65417C29.0766 1.5514 29.1434 1.52571 29.3284 1.35616C29.6983 1.00163 29.6315 0.385051 29.1897 0.123007C29.0355 0.0356589 28.4857 -0.0311366 28.2853 0.0151065Z"/>
<path d="M25.1511 3.06715C25.7934 2.8308 26.3174 2.74859 27.7202 2.66124C28.7067 2.59958 30.6592 2.59958 31.2295 2.6561C31.5018 2.68693 31.9231 2.75887 32.1646 2.81538C32.848 2.97467 32.9816 3.01063 33.4235 3.09798C34.1428 3.24698 34.297 3.28809 34.9906 3.50389C35.2321 3.57582 35.6945 3.71969 36.0182 3.82246C36.9123 4.09478 38.7877 5.04019 39.6611 5.65676C40.0414 5.92395 40.4524 6.24251 40.5757 6.36582C41.0536 6.82826 41.5057 7.47566 42.035 8.44676C42.3998 9.11986 42.5847 9.43842 42.9136 9.95223C43.1242 10.2862 43.1859 10.4198 43.4685 11.134C43.5867 11.432 43.9104 12.1308 44.193 12.6908C44.7684 13.8418 44.7941 13.9548 44.5629 14.3762L42.1223 14.6074C41.886 14.5868 41.2129 14.5508 40.6168 14.5252C40.026 14.4995 39.0548 14.4584 38.4588 14.4275C36.8352 14.3453 32.329 14.2426 30.2378 14.2426H28.3881L26.6412 14.3453L25.5108 14.3607C24.8891 14.371 23.9642 14.4018 23.4555 14.4275C22.9468 14.4584 20.9224 14.4892 18.9597 14.5046L13.837 14.5097L12.5062 14.5457C11.2576 14.5817 10.5075 14.6074 7.09061 14.7358C6.34044 14.7615 4.5832 14.8026 3.18563 14.8283C0.750165 14.8694 0.631989 14.8694 0.43674 14.7769C0.16442 14.6485 0 14.3864 0 14.0833C0 13.8212 0.0513812 13.6928 0.24663 13.4821C0.49326 13.2201 0.724475 13.1892 2.56392 13.1892C3.48365 13.1892 4.74762 13.1687 5.36934 13.1379C7.24475 13.0505 9.07392 12.9837 10.9442 12.9323C11.9204 12.9067 12.9121 12.8707 13.1484 12.8501L13.1514 12.8499C13.5749 12.8193 13.5802 12.8189 13.6366 12.6549C13.688 12.5059 13.8575 12.1719 14.3354 11.2625C14.4381 11.0621 14.6745 10.6716 14.8594 10.389C16.5499 7.78394 16.7914 7.43969 17.187 7.04919C17.6083 6.63301 18.7182 5.83146 19.5505 5.33306C20.7529 4.61372 21.3386 4.3414 22.4793 3.96632C22.7619 3.87383 23.2243 3.71455 23.5069 3.61693L23.5139 3.61452C23.7963 3.51696 24.2075 3.37489 24.4318 3.30864C24.6578 3.23671 24.9815 3.12881 25.1511 3.06715Z"/>
</svg>
