<svg width="400" height="400" viewBox="0 0 400 400" fill="none" xmlns="http://www.w3.org/2000/svg">
<path d="M187.359 10.3096C194.718 4.30802 205.282 4.30802 212.64 10.3096L228.506 23.25C233.5 27.3216 240.148 28.7392 246.366 27.0582L266.078 21.7304C275.232 19.2562 284.864 23.55 289.144 32.0116L298.458 50.4308C301.358 56.1628 306.832 60.1536 313.176 61.1586L333.434 64.368C342.768 65.8468 349.794 73.658 350.278 83.0966L351.344 103.877C351.672 110.266 355.038 116.113 360.398 119.607L377.73 130.904C385.622 136.049 388.854 146.007 385.486 154.807L378.03 174.293C375.748 180.254 376.45 186.946 379.916 192.305L391.236 209.798C396.35 217.704 395.258 228.106 388.612 234.778L373.952 249.496C369.444 254.022 367.368 260.428 368.368 266.738L371.63 287.336C373.104 296.654 367.866 305.736 359.062 309.128L339.842 316.528C333.86 318.832 329.344 323.862 327.698 330.058L322.376 350.094C319.946 359.246 311.432 365.438 301.978 364.932L281.56 363.84C275.134 363.496 268.936 366.264 264.904 371.278L252.028 387.294C246.08 394.692 235.752 396.89 227.306 392.554L209.134 383.224C203.4 380.282 196.6 380.282 190.866 383.224L172.693 392.554C164.249 396.89 153.92 394.692 147.972 387.294L135.096 371.278C131.064 366.264 124.866 363.496 118.441 363.84L98.0222 364.932C88.568 365.438 80.0542 359.246 77.6238 350.094L72.3014 330.058C70.6558 323.862 66.1404 318.832 60.1584 316.528L40.9382 309.128C32.1332 305.736 26.8954 296.654 28.371 287.336L31.6324 266.738C32.6314 260.428 30.5562 254.022 26.048 249.496L11.3873 234.778C4.74226 228.106 3.65018 217.704 8.76496 209.798L20.083 192.305C23.5504 186.946 24.2514 180.254 21.9702 174.293L14.5132 154.807C11.1455 146.007 14.3771 136.049 22.2708 130.904L39.6028 119.607C44.9624 116.113 48.3272 110.266 48.655 103.877L49.7214 83.0966C50.2058 73.658 57.231 65.8468 66.5656 64.368L86.8236 61.1586C93.1676 60.1536 98.6428 56.1628 101.542 50.4308L110.857 32.0116C115.136 23.55 124.769 19.2562 133.923 21.7304L153.634 27.0582C159.853 28.7392 166.501 27.3216 171.493 23.25L187.359 10.3096Z" fill="#C6B9FF"/>
<path d="M311.757 255.665L328.715 263.007L326.649 267.779L300.954 256.654L303.132 251.625L324.175 249.534L307.216 242.192L309.282 237.42L334.977 248.545L332.8 253.574L311.757 255.665Z" fill="#49445F"/>
<path d="M296.291 263.768L318.7 280.556L308.315 294.418L304.474 291.54L311.741 281.84L307.035 278.314L301.207 286.093L297.366 283.215L303.193 275.436L297.015 270.808L289.508 280.828L285.667 277.95L296.291 263.768Z" fill="#49445F"/>
<path d="M268.044 302.781L277.047 321.892L272.699 325.292L261.217 298.726L265.376 295.474L279.529 305.326L273.379 289.215L277.538 285.962L300.553 303.509L296.205 306.91L279.828 293.566L286.567 310.689L283.038 313.449L268.044 302.781Z" fill="#49445F"/>
<path d="M232.207 322.619L237.347 321.097L234.234 310.588L239.22 309.112L247.172 335.959L237.046 338.958C231.562 340.582 227.681 338.185 226.227 333.276C224.773 328.367 226.723 324.244 232.207 322.619ZM238.71 325.7L233.762 327.165C231.423 327.858 230.586 329.399 231.29 331.777C231.994 334.155 233.535 334.992 235.875 334.299L240.823 332.833L238.71 325.7Z" fill="#49445F"/>
<path d="M211.479 342.352C209.568 343.442 207.434 344.061 204.996 344.173C200.162 344.396 196.039 342.704 193.397 338.382C192.057 336.241 191.294 333.594 191.15 330.477C190.862 324.244 193.409 319.561 197.191 317.344C199.103 316.255 201.238 315.676 203.676 315.564C208.511 315.34 212.593 317.034 215.315 321.353C216.655 323.493 217.378 326.143 217.522 329.26C217.81 335.493 215.265 340.215 211.479 342.352ZM199.03 337.241C200.583 338.771 202.498 339.483 204.775 339.378C207.053 339.273 208.894 338.387 210.338 336.719C211.743 335.052 212.393 332.66 212.248 329.503C212.102 326.346 211.234 324.024 209.682 322.494C208.09 320.966 206.175 320.253 203.897 320.358C201.62 320.464 199.779 321.349 198.374 323.016C196.929 324.684 196.279 327.077 196.425 330.233C196.57 333.39 197.438 335.713 199.03 337.241Z" fill="#49445F"/>
<path d="M164.73 335.109L169.358 333.262C169.973 335.374 171.083 336.604 172.615 336.896C174.148 337.188 175.45 336.336 175.727 334.883C176.056 333.154 174.417 331.498 172.38 330.01C169.356 327.927 165.384 325.053 166.329 320.306C167.347 314.962 171.419 312.399 176.762 313.417C179.159 313.874 181.1 315.017 182.552 316.8C183.996 318.623 184.744 320.679 184.765 322.923L180.145 324.73C179.795 320.795 178.34 318.604 175.746 318.11C173.349 317.653 171.946 318.607 171.489 321.004C171.182 322.615 172.711 324.21 174.842 325.634C177.842 327.63 181.689 330.521 180.644 335.575C180.248 337.658 179.203 339.291 177.512 340.475C175.781 341.652 173.878 342.023 171.717 341.611C167.984 340.9 165.666 338.748 164.73 335.109Z" fill="#49445F"/>
<path d="M148.463 329.525L155.643 332.469L153.822 336.91L134.651 329.049L136.472 324.608L143.652 327.552L152.454 306.086L157.265 308.059L148.463 329.525Z" fill="#49445F"/>
<path d="M110.001 303.078L114.514 304.803C113.654 308.164 114.567 310.82 117.342 312.785C119.202 314.102 121.232 314.559 123.42 314.098C125.575 313.615 127.559 312.128 129.339 309.614C131.119 307.101 131.862 304.735 131.602 302.542C131.309 300.325 130.204 298.563 128.344 297.245C125.569 295.28 122.76 295.302 119.876 297.229L116.75 293.546C120.948 289.901 126.155 289.814 131.117 293.328C134.153 295.477 135.96 298.325 136.593 301.861C137.227 305.397 136.237 309.009 133.648 312.665C131.06 316.322 127.981 318.455 124.436 319.032C120.89 319.61 117.604 318.852 114.568 316.702C109.606 313.189 107.958 308.248 110.001 303.078Z" fill="#49445F"/>
<path d="M103.62 266.513L107.299 270.736L103.662 276.609L109.495 283.305L115.811 280.508L119.49 284.73L92.1499 295.974L88.7344 292.053L103.62 266.513ZM101.015 280.878L95.6299 289.494L104.903 285.342L101.015 280.878Z" fill="#49445F"/>
<path d="M74.6798 254.851C77.9691 253.113 81.323 253.468 83.7766 255.972L91.2226 243.263L93.9316 248.391L86.7625 260.683L88.033 263.088L98.7144 257.446L101.143 262.044L76.3849 275.121L71.6208 266.102C69.08 261.292 70.4355 257.093 74.6798 254.851ZM83.7887 265.33L81.4347 260.873C80.4071 258.928 78.9831 258.459 77.1086 259.449C75.234 260.439 74.8188 261.88 75.8464 263.825L78.2004 268.282L83.7887 265.33Z" fill="#49445F"/>
<path d="M87.212 228.679L89.3296 237.179L62.16 243.948L60.0424 235.448C58.4469 229.043 61.0044 221.769 70.4749 219.41C79.9455 217.051 85.6165 222.275 87.212 228.679ZM65.5606 237.742L83.4149 233.294L82.9508 231.431C82.3609 229.063 81.3729 227.248 79.6764 225.733C77.9702 224.18 75.2057 223.673 71.7513 224.533C68.2969 225.394 66.0932 227.138 65.3153 229.311C64.5277 231.445 64.5066 233.511 65.0965 235.879L65.5606 237.742Z" fill="#49445F"/>
<path d="M88.9314 141.01L72.244 133.07L74.4781 128.374L99.7621 140.404L97.4077 145.353L76.3036 146.696L92.991 154.636L90.7569 159.331L65.4729 147.301L67.8273 142.353L88.9314 141.01Z" fill="#49445F"/>
<path d="M104.673 133.46L82.874 115.887L93.7441 102.403L97.481 105.416L89.8745 114.852L94.4523 118.542L100.553 110.974L104.29 113.987L98.1893 121.554L104.2 126.399L112.057 116.652L115.794 119.665L104.673 133.46Z" fill="#49445F"/>
<path d="M134.288 95.4757L125.969 76.058L130.435 72.814L140.967 99.7704L136.695 102.873L122.9 92.525L128.475 108.844L124.203 111.947L101.825 93.5945L106.292 90.3505L122.184 104.267L116.057 86.9156L119.682 84.2828L134.288 95.4757Z" fill="#49445F"/>
<path d="M170.807 76.9215L165.617 78.2603L168.354 88.8729L163.319 90.1718L156.325 63.0593L166.551 60.4216C172.089 58.9929 175.882 61.5258 177.161 66.4835C178.44 71.4413 176.345 75.4928 170.807 76.9215ZM164.418 73.6125L169.414 72.3236C171.777 71.7142 172.668 70.2038 172.048 67.8024C171.429 65.401 169.918 64.51 167.556 65.1194L162.559 66.4083L164.418 73.6125Z" fill="#49445F"/>
<path d="M192.222 57.9369C194.172 56.9161 196.326 56.3732 198.766 56.3472C203.606 56.2958 207.665 58.1327 210.152 62.5465C211.416 64.7332 212.084 67.4062 212.117 70.5261C212.184 76.7657 209.472 81.3548 205.614 83.4359C203.665 84.4567 201.51 84.9597 199.07 84.9856C194.231 85.0371 190.211 83.1997 187.644 78.7868C186.381 76.6001 185.752 73.9266 185.719 70.8068C185.653 64.5671 188.364 59.938 192.222 57.9369ZM204.482 63.4868C202.985 61.9027 201.097 61.1227 198.817 61.147C196.537 61.1712 194.666 61.9911 193.163 63.6072C191.7 65.2229 190.965 67.5908 190.999 70.7506C191.032 73.9105 191.817 76.2622 193.314 77.8464C194.851 79.4302 196.74 80.2101 199.019 80.1859C201.299 80.1616 203.171 79.3417 204.634 77.726C206.136 76.11 206.871 73.742 206.838 70.5822C206.804 67.4224 206.019 65.0706 204.482 63.4868Z" fill="#49445F"/>
<path d="M238.682 66.8334L233.992 68.5147C233.452 66.3817 232.387 65.1137 230.866 64.7676C229.345 64.4215 228.013 65.2261 227.685 66.6692C227.294 68.3853 228.873 70.0984 230.857 71.6574C233.805 73.846 237.673 76.8593 236.56 81.5698C235.353 86.8742 231.193 89.2914 225.888 88.0844C223.509 87.543 221.61 86.3316 220.223 84.4979C218.844 82.6253 218.169 80.5437 218.228 78.3009L222.909 76.6586C223.119 80.6035 224.496 82.8449 227.07 83.4307C229.449 83.972 230.886 83.0682 231.427 80.689C231.791 79.0899 230.32 77.4424 228.241 75.9437C225.314 73.842 221.572 70.8163 222.795 65.8027C223.265 63.7355 224.367 62.1401 226.099 61.0165C227.871 59.9018 229.786 59.5991 231.931 60.0873C235.636 60.9304 237.877 63.1632 238.682 66.8334Z" fill="#49445F"/>
<path d="M254.741 72.9913L247.67 69.7943L249.647 65.4205L268.527 73.9569L266.55 78.3306L259.479 75.1336L249.921 96.2732L245.183 94.1309L254.741 72.9913Z" fill="#49445F"/>
<path d="M292.242 100.786L287.794 98.9017C288.772 95.5735 287.954 92.8868 285.251 90.825C283.438 89.4423 281.426 88.914 279.223 89.2963C277.051 89.7028 275.016 91.1184 273.148 93.5674C271.28 96.0164 270.453 98.3538 270.636 100.555C270.85 102.781 271.891 104.582 273.704 105.964C276.408 108.026 279.215 108.105 282.166 106.281L285.159 110.073C280.835 113.566 275.628 113.468 270.793 109.781C267.835 107.525 266.131 104.615 265.623 101.059C265.116 97.5028 266.233 93.9276 268.95 90.3654C271.667 86.8032 274.819 84.7806 278.383 84.3293C281.947 83.8781 285.204 84.7524 288.161 87.0083C292.996 90.6954 294.468 95.6915 292.242 100.786Z" fill="#49445F"/>
<path d="M297.322 137.556L293.795 133.205L297.638 127.465L292.047 120.566L285.635 123.137L282.109 118.787L309.83 108.521L313.104 112.56L297.322 137.556ZM300.435 123.293L306.122 114.873L296.707 118.694L300.435 123.293Z" fill="#49445F"/>
<path d="M325.829 150.237C322.48 151.856 319.141 151.383 316.778 148.794L308.886 161.231L306.36 156.009L313.961 143.98L312.777 141.531L301.902 146.791L299.638 142.109L324.844 129.918L329.286 139.101C331.654 143.998 330.15 148.147 325.829 150.237ZM317.098 139.441L319.292 143.978C320.25 145.959 321.657 146.478 323.565 145.555C325.474 144.632 325.94 143.207 324.982 141.227L322.787 136.69L317.098 139.441Z" fill="#49445F"/>
<path d="M312.376 175.948L310.561 167.378L337.954 161.578L339.769 170.148C341.136 176.605 338.322 183.783 328.774 185.805C319.225 187.827 313.743 182.405 312.376 175.948ZM334.335 167.659L316.334 171.471L316.732 173.349C317.238 175.736 318.161 177.585 319.802 179.159C321.452 180.773 324.197 181.377 327.68 180.64C331.163 179.902 333.427 178.237 334.281 176.094C335.144 173.989 335.239 171.925 334.733 169.538L334.335 167.659Z" fill="#49445F"/>
<path d="M252.315 145.685C251.215 144.585 249.841 143.799 248.336 143.407C246.831 143.014 245.248 143.031 243.751 143.454H243.669L138.702 175.304C136.998 175.795 135.483 176.792 134.359 178.163C133.234 179.535 132.553 181.216 132.405 182.983C132.258 184.75 132.651 186.521 133.532 188.06C134.413 189.599 135.741 190.833 137.34 191.6L183.781 214.219L206.367 260.633C207.069 262.132 208.186 263.398 209.585 264.283C210.985 265.168 212.608 265.634 214.264 265.625C214.515 265.625 214.767 265.615 215.018 265.593C216.784 265.45 218.464 264.77 219.833 263.645C221.201 262.52 222.193 261.003 222.675 259.298L254.503 154.331C254.503 154.304 254.503 154.276 254.503 154.249C254.931 152.756 254.954 151.175 254.57 149.67C254.185 148.165 253.407 146.79 252.315 145.685ZM214.313 256.793L214.285 256.87V256.832L192.378 211.824L218.628 185.574C219.414 184.747 219.845 183.645 219.831 182.505C219.816 181.364 219.356 180.274 218.549 179.467C217.743 178.66 216.653 178.201 215.512 178.186C214.371 178.171 213.27 178.603 212.443 179.389L186.193 205.639L141.168 183.731H141.13H141.207L246.125 151.875L214.313 256.793Z" fill="#49445F"/>
<path d="M327.145 208.014C327.843 207.282 328.632 206.732 329.513 206.363C330.393 205.994 331.297 205.798 332.225 205.776C333.152 205.754 334.064 205.906 334.961 206.233C335.859 206.56 336.673 207.072 337.405 207.77C338.137 208.468 338.687 209.257 339.056 210.137C339.425 211.018 339.621 211.922 339.643 212.849C339.665 213.777 339.513 214.689 339.186 215.586C338.859 216.483 338.347 217.298 337.649 218.03C336.951 218.762 336.162 219.312 335.282 219.681C334.401 220.05 333.497 220.246 332.57 220.268C331.642 220.29 330.73 220.138 329.833 219.811C328.936 219.484 328.121 218.972 327.389 218.274C326.657 217.576 326.107 216.787 325.738 215.906C325.369 215.026 325.173 214.122 325.151 213.194C325.129 212.267 325.282 211.355 325.608 210.458C325.935 209.56 326.447 208.746 327.145 208.014Z" fill="#AB9DE5"/>
<path d="M60.1499 182.019C60.8478 181.287 61.637 180.737 62.5175 180.368C63.3981 179.999 64.3021 179.803 65.2295 179.781C66.157 179.759 67.0693 179.911 67.9664 180.238C68.8635 180.564 69.678 181.077 70.4099 181.775C71.1419 182.473 71.6923 183.262 72.0613 184.142C72.4302 185.023 72.6257 185.927 72.6478 186.854C72.6699 187.782 72.5176 188.694 72.191 189.591C71.8643 190.488 71.3521 191.303 70.6542 192.035C69.9563 192.767 69.167 193.317 68.2865 193.686C67.406 194.055 66.502 194.251 65.5745 194.273C64.647 194.295 63.7348 194.142 62.8377 193.816C61.9406 193.489 61.1261 192.977 60.3941 192.279C59.6622 191.581 59.1117 190.792 58.7428 189.911C58.3738 189.031 58.1783 188.127 58.1562 187.199C58.1341 186.272 58.2864 185.36 58.6131 184.462C58.9397 183.565 59.452 182.751 60.1499 182.019Z" fill="#AB9DE5"/>
</svg>
